<svg width="60" height="40" viewBox="0 0 60 40" fill="none" xmlns="http://www.w3.org/2000/svg">
<path d="M20.6965 14.7105C20.5195 14.8715 20.3417 15.0325 20.1677 15.1965C19.5381 15.7473 19.1022 16.4859 18.9245 17.3034C18.8073 17.8589 18.8116 18.4333 18.9367 18.9871C19.0618 19.5409 19.3049 20.0613 19.6496 20.5125C19.9842 21.0017 20.4493 21.387 20.9924 21.6244C21.0574 21.6514 21.1248 21.6755 21.2058 21.7055C21.1328 21.9055 21.0675 22.1054 20.9885 22.2924C20.5469 23.4061 19.9132 24.4338 19.1164 25.3284C18.9614 25.4936 18.7942 25.647 18.6164 25.7874C18.3471 26.0282 18.0208 26.1958 17.6682 26.2742C17.3155 26.3527 16.9487 26.3393 16.6027 26.2354C16.2277 26.1264 15.8566 26.0035 15.4826 25.8875C15.1015 25.7587 14.7042 25.6832 14.3024 25.6634C13.8097 25.6739 13.3235 25.7789 12.8703 25.9725C12.5206 26.1105 12.1631 26.2277 11.7995 26.3234C11.5275 26.3794 11.2464 26.3761 10.9758 26.3137C10.7052 26.2512 10.4516 26.1311 10.2316 25.9615C9.764 25.6313 9.36127 25.2176 9.04366 24.7414C8.21661 23.5769 7.59566 22.2791 7.20772 20.9045C6.85953 19.6849 6.77557 18.405 6.96163 17.1504C7.09998 16.0444 7.58037 15.0092 8.33565 14.1894C8.70973 13.7774 9.17796 13.4622 9.70039 13.2707C10.2228 13.0791 10.7839 13.0169 11.3356 13.0894C11.9158 13.1668 12.4876 13.2977 13.0437 13.4804C13.2777 13.5484 13.5176 13.5995 13.7536 13.6595C14.0852 13.7344 14.431 13.7174 14.7536 13.6104C15.2136 13.4754 15.6706 13.3215 16.1306 13.1845C16.8053 12.9733 17.5214 12.9304 18.2165 13.0595C19.0964 13.2432 19.8875 13.7215 20.4587 14.4155C20.5347 14.5015 20.6088 14.5894 20.6838 14.6764C20.689 14.6874 20.693 14.6989 20.6965 14.7105Z" fill="#131309"/>
<path d="M17.2552 9.07941C17.2752 9.27106 17.2834 9.46377 17.2801 9.65643C17.218 10.6448 16.802 11.5778 16.1082 12.2845C15.8048 12.6288 15.4291 12.9019 15.0081 13.0844C14.6378 13.2112 14.2504 13.2808 13.8592 13.2905C13.8532 13.2905 13.8461 13.2845 13.8401 13.2805C13.7762 12.279 14.0924 11.2901 14.7254 10.5114C15.3584 9.7327 16.2617 9.22134 17.2552 9.07941Z" fill="#131309"/>
<path d="M25.5781 11.7795C26.7682 11.5861 27.9725 11.4921 29.1782 11.4985C30.64 11.3871 32.0919 11.817 33.2573 12.7065C33.6786 13.0902 34.0109 13.5613 34.231 14.087C34.451 14.6126 34.5535 15.18 34.5312 15.7495C34.5593 16.3161 34.4745 16.8827 34.2817 17.4162C34.089 17.9498 33.792 18.4397 33.4082 18.8575C32.8131 19.4099 32.1126 19.8365 31.3486 20.1114C30.5846 20.3863 29.773 20.504 28.9624 20.4575C28.4554 20.4737 27.948 20.43 27.4512 20.3275V26.1545H25.5742L25.5781 11.7795ZM27.4551 18.7935C27.9648 18.9082 28.487 18.9589 29.0093 18.9445C31.2753 18.9445 32.6562 17.8445 32.6562 15.8365C32.6562 13.9165 31.2961 12.9875 29.2241 12.9875C28.6303 12.9711 28.0365 13.0218 27.4541 13.1385L27.4551 18.7935Z" fill="#131309"/>
<path d="M41.3053 26.1525L41.1545 24.8365H41.0895C40.7187 25.3304 40.2358 25.729 39.6803 25.9992C39.1249 26.2694 38.5132 26.4036 37.8957 26.3906C37.4849 26.4208 37.072 26.3653 36.6838 26.2278C36.2955 26.0903 35.94 25.8737 35.6398 25.5917C35.3396 25.3097 35.1012 24.9686 34.9396 24.5897C34.7781 24.2108 34.6969 23.8024 34.7013 23.3906C34.7013 20.8656 36.9466 19.4845 40.9816 19.5055V19.2895C41.0235 18.9659 40.9912 18.6371 40.8874 18.3278C40.7835 18.0185 40.6106 17.7367 40.382 17.504C40.1534 17.2712 39.875 17.0935 39.5676 16.9841C39.2602 16.8747 38.9319 16.8365 38.6076 16.8725C37.6466 16.8755 36.705 17.1446 35.8874 17.6496L35.4567 16.3975C36.4915 15.7744 37.6796 15.453 38.8874 15.4695C42.0824 15.4695 42.8586 17.6495 42.8586 19.7425V23.6485C42.8445 24.4852 42.9023 25.3217 43.0314 26.1485L41.3053 26.1525ZM41.0256 20.8216C38.9536 20.7786 36.6017 21.1455 36.6017 23.1745C36.5822 23.4157 36.6147 23.6582 36.6974 23.8856C36.7802 24.1129 36.9112 24.3197 37.0812 24.4919C37.2513 24.664 37.4565 24.7974 37.6828 24.883C37.9091 24.9685 38.1514 25.0041 38.3928 24.9875C38.9448 25.0019 39.4871 24.8403 39.9411 24.5258C40.3951 24.2113 40.7371 23.7605 40.9177 23.2386C40.9847 23.0454 41.0211 22.8429 41.0256 22.6385V20.8216Z" fill="#131309"/>
<path d="M45.3862 15.7066L47.6733 21.8786C47.9103 22.5686 48.1733 23.3896 48.3423 24.0146H48.3853C48.5793 23.3886 48.7952 22.5905 49.0532 21.8345L51.1255 15.7056H53.1343L50.2852 23.1516C48.9262 26.7336 47.9971 28.5686 46.7021 29.6906C46.0451 30.2961 45.2417 30.7199 44.3711 30.9206L43.8965 29.3206C44.5045 29.1199 45.0682 28.805 45.5581 28.3926C46.2487 27.8217 46.7966 27.0975 47.1582 26.2776C47.2351 26.1368 47.2861 25.9834 47.3091 25.8246C47.2924 25.6522 47.2486 25.4834 47.1792 25.3246L43.3164 15.6996L45.3862 15.7066Z" fill="#131309"/>
</svg>
