<svg width="45" height="44" viewBox="0 0 45 44" fill="none" xmlns="http://www.w3.org/2000/svg">
<path fill-rule="evenodd" clip-rule="evenodd" d="M9.54199 38.2367L11.2087 33.2367L12.792 33.7634L11.1253 38.7634L9.54199 38.2367Z" fill="black"/>
<path fill-rule="evenodd" clip-rule="evenodd" d="M4.5 22.6666C4.5 21.3405 5.02679 20.0688 5.96447 19.1311C6.90215 18.1934 8.17392 17.6666 9.5 17.6666C10.8261 17.6666 12.0979 18.1934 13.0355 19.1311C13.9732 20.0688 14.5 21.3405 14.5 22.6666V26.8333H29.5V22.6666C29.5005 21.7501 29.7529 20.8513 30.2296 20.0685C30.7064 19.2857 31.3891 18.649 32.2032 18.228C33.0174 17.807 33.9316 17.6178 34.8459 17.6812C35.7603 17.7446 36.6396 18.0582 37.3878 18.5875C38.136 19.1169 38.7244 19.8417 39.0885 20.6828C39.4526 21.524 39.5785 22.449 39.4525 23.3568C39.3265 24.2647 38.9533 25.1204 38.3738 25.8305C37.7943 26.5406 37.0308 27.0778 36.1667 27.3833V30.1666C36.1667 30.7138 36.0589 31.2556 35.8495 31.7611C35.6401 32.2667 35.3332 32.726 34.9463 33.1129C34.5594 33.4998 34.1 33.8067 33.5945 34.0161C33.089 34.2255 32.5472 34.3333 32 34.3333H12C10.8949 34.3333 9.83512 33.8943 9.05372 33.1129C8.27232 32.3315 7.83333 31.2717 7.83333 30.1666V27.3833C6.85807 27.0385 6.01376 26.3997 5.41676 25.5549C4.81976 24.7102 4.49946 23.701 4.5 22.6666ZM9.5 19.3333C8.67337 19.3325 7.87591 19.6388 7.26245 20.1929C6.64898 20.7469 6.26327 21.5092 6.18019 22.3316C6.09712 23.1541 6.3226 23.9781 6.81288 24.6436C7.30315 25.3092 8.02323 25.7688 8.83333 25.9333C9.02156 25.9717 9.19073 26.074 9.31222 26.2228C9.4337 26.3716 9.50004 26.5579 9.5 26.75V30.1666C9.5 30.8297 9.76339 31.4656 10.2322 31.9344C10.7011 32.4032 11.337 32.6666 12 32.6666H32C32.663 32.6666 33.2989 32.4032 33.7678 31.9344C34.2366 31.4656 34.5 30.8297 34.5 30.1666V26.75C34.5 26.5579 34.5663 26.3716 34.6878 26.2228C34.8093 26.074 34.9784 25.9717 35.1667 25.9333C35.7846 25.8072 36.3541 25.5083 36.809 25.0714C37.2638 24.6346 37.5854 24.0776 37.7364 23.4653C37.8874 22.8529 37.8615 22.2103 37.6619 21.612C37.4622 21.0138 37.0969 20.4845 36.6085 20.0855C36.12 19.6866 35.5283 19.4344 34.9022 19.3583C34.2762 19.2822 33.6413 19.3853 33.0715 19.6556C32.5017 19.9259 32.0202 20.3523 31.683 20.8852C31.3458 21.4182 31.1668 22.0359 31.1667 22.6666V27.6666C31.1667 27.8876 31.0789 28.0996 30.9226 28.2559C30.7663 28.4122 30.5543 28.5 30.3333 28.5H13.6667C13.4457 28.5 13.2337 28.4122 13.0774 28.2559C12.9211 28.0996 12.8333 27.8876 12.8333 27.6666V22.6666C12.8333 21.7826 12.4821 20.9347 11.857 20.3096C11.2319 19.6845 10.3841 19.3333 9.5 19.3333Z" fill="black"/>
<path fill-rule="evenodd" clip-rule="evenodd" d="M16.167 7.66667C14.6199 7.66667 13.1362 8.28125 12.0422 9.37521C10.9482 10.4692 10.3337 11.9529 10.3337 13.5V18.5H8.66699V13.5C8.66699 11.5109 9.45717 9.60322 10.8637 8.1967C12.2702 6.79018 14.1779 6 16.167 6H27.8337C28.8186 6 29.7938 6.19399 30.7038 6.5709C31.6137 6.94781 32.4405 7.50026 33.137 8.1967C33.8334 8.89314 34.3858 9.71993 34.7628 10.6299C35.1397 11.5398 35.3337 12.5151 35.3337 13.5V18.5H33.667V13.5C33.667 11.9529 33.0524 10.4692 31.9585 9.37521C30.8645 8.28125 29.3808 7.66667 27.8337 7.66667H16.167ZM34.4587 38.2367L32.792 33.2367L31.2087 33.7633L32.8753 38.7633L34.4587 38.2367Z" fill="black"/>
</svg>
