<svg width="381" height="391" viewBox="0 0 381 391" fill="none" xmlns="http://www.w3.org/2000/svg">
<g filter="url(#filter0_d_2372_1503)">
<path d="M365.356 14.2853L359.701 10L354.052 14.2853L348.408 10L342.764 14.2853L337.118 10L331.472 14.2853L325.829 10L320.185 14.2853L314.544 10L308.9 14.2853L303.261 10L297.618 14.2853L291.974 10L286.33 14.2853L280.687 10L275.043 14.2853L269.4 10L263.758 14.2853L258.117 10L252.471 14.2853L246.832 10L241.189 14.2853L235.548 10L229.909 14.2853L224.267 10L218.626 14.2853L212.988 10L207.349 14.2853L201.706 10L196.067 14.2853L190.43 10L184.794 14.2853L179.155 10L173.514 14.2853L167.878 10L162.244 14.2853L156.609 10L150.975 14.2853L145.336 10L139.697 14.2853L134.059 10L128.427 14.2853L122.786 10L117.143 14.2853L111.504 10L105.865 14.2853L100.227 10L94.5882 14.2853L88.949 10L83.3114 14.2853L77.6706 10L72.0313 14.2853L66.3921 10L60.7546 14.2853L55.1154 10L49.4762 14.2853L43.8353 10L38.191 14.2853L32.5535 10L26.916 14.2853L21.2784 10L15.6392 14.2853L10 10L10 381L15.6543 376.715L21.3086 381L26.9578 376.715L32.6021 381L38.2463 376.715L43.8922 381L49.5381 376.715L55.184 381L60.8283 376.715L66.4692 381L72.1134 376.715L77.7526 381L83.3952 376.715L89.0394 381L94.6836 376.715L100.326 381L105.97 376.715L111.613 381L117.256 376.715L122.896 381L128.532 376.715L134.173 381L139.816 376.715L145.457 381L151.096 376.715L156.738 381L162.379 376.715L168.017 381L173.656 376.715L179.299 381L184.938 376.715L190.575 381L196.211 376.715L201.85 381L207.491 376.715L213.129 381L218.763 376.715L224.397 381L230.033 376.715L235.672 381L241.312 376.715L246.947 381L252.58 376.715L258.221 381L263.86 376.715L269.499 381L275.138 376.715L280.779 381L286.419 376.715L292.058 381L297.692 376.715L303.333 381L308.972 376.715L314.611 381L320.249 376.715L325.888 381L331.527 376.715L337.168 381L342.807 376.715L348.445 381L354.082 376.715L359.72 381L365.359 376.715L371 381V10L365.356 14.2853Z" fill="white"/>
</g>
<defs>
<filter id="filter0_d_2372_1503" x="0" y="0" width="381" height="391" filterUnits="userSpaceOnUse" color-interpolation-filters="sRGB">
<feFlood flood-opacity="0" result="BackgroundImageFix"/>
<feColorMatrix in="SourceAlpha" type="matrix" values="0 0 0 0 0 0 0 0 0 0 0 0 0 0 0 0 0 0 127 0" result="hardAlpha"/>
<feOffset/>
<feGaussianBlur stdDeviation="5"/>
<feComposite in2="hardAlpha" operator="out"/>
<feColorMatrix type="matrix" values="0 0 0 0 0.0509804 0 0 0 0 0.0745098 0 0 0 0 0.243137 0 0 0 0.1 0"/>
<feBlend mode="normal" in2="BackgroundImageFix" result="effect1_dropShadow_2372_1503"/>
<feBlend mode="normal" in="SourceGraphic" in2="effect1_dropShadow_2372_1503" result="shape"/>
</filter>
</defs>
</svg>
