<svg width="44" height="44" viewBox="0 0 44 44" fill="none" xmlns="http://www.w3.org/2000/svg">
<path d="M7.28418 14.4L22.0008 22.9167L36.6175 14.45" stroke="#4E4E4E" stroke-width="2" stroke-linecap="round" stroke-linejoin="round"/>
<path d="M22.001 38.0167V22.9" stroke="#4E4E4E" stroke-width="2" stroke-linecap="round" stroke-linejoin="round"/>
<path d="M18.55 6.13325L9.65003 11.0833C7.63337 12.2 5.9834 14.9999 5.9834 17.2999V26.7166C5.9834 29.0166 7.63337 31.8166 9.65003 32.9333L18.55 37.8833C20.45 38.9333 23.5667 38.9333 25.4667 37.8833L34.3667 32.9333C36.3834 31.8166 38.0334 29.0166 38.0334 26.7166V17.2999C38.0334 14.9999 36.3834 12.2 34.3667 11.0833L25.4667 6.13325C23.55 5.06659 20.45 5.06659 18.55 6.13325Z" stroke="#4E4E4E" stroke-width="2" stroke-linecap="round" stroke-linejoin="round"/>
<path d="M30.3333 24.0666V17.9667L14.5166 8.83325" stroke="#4E4E4E" stroke-width="2" stroke-linecap="round" stroke-linejoin="round"/>
</svg>
