<svg width="24" height="25" viewBox="0 0 24 25" fill="none" xmlns="http://www.w3.org/2000/svg">
<path d="M2 22.5H22" stroke="#161618" stroke-width="1.5" stroke-miterlimit="10" stroke-linecap="round" stroke-linejoin="round"/>
<path d="M15.01 22.49L3.01001 22.51L3 7.56998C3 6.89998 3.34001 6.27995 3.89001 5.90995L7.89001 3.23997C8.56001 2.78997 9.43999 2.78997 10.11 3.23997L14.11 5.90995C14.67 6.27995 15 6.89998 15 7.56998L15.01 22.49Z" stroke="#161618" stroke-width="1.5" stroke-miterlimit="10" stroke-linecap="round" stroke-linejoin="round"/>
<path d="M19.9805 22.51V18.5" stroke="#161618" stroke-width="1.5" stroke-miterlimit="10" stroke-linecap="round" stroke-linejoin="round"/>
<path d="M20 12.5C18.9 12.5 18 13.4 18 14.5V16.5C18 17.6 18.9 18.5 20 18.5C21.1 18.5 22 17.6 22 16.5V14.5C22 13.4 21.1 12.5 20 12.5Z" stroke="#161618" stroke-width="1.5" stroke-miterlimit="10" stroke-linecap="round" stroke-linejoin="round"/>
<path d="M3 14.5H15" stroke="#161618" stroke-width="1.5" stroke-miterlimit="10" stroke-linecap="round" stroke-linejoin="round"/>
<path d="M9 22.5V18.75" stroke="#161618" stroke-width="1.5" stroke-miterlimit="10" stroke-linecap="round" stroke-linejoin="round"/>
<path d="M9 11C9.82843 11 10.5 10.3284 10.5 9.5C10.5 8.67157 9.82843 8 9 8C8.17157 8 7.5 8.67157 7.5 9.5C7.5 10.3284 8.17157 11 9 11Z" stroke="#161618" stroke-width="1.5" stroke-miterlimit="10" stroke-linecap="round" stroke-linejoin="round"/>
</svg>
