<svg width="44" height="44" viewBox="0 0 44 44" fill="none" xmlns="http://www.w3.org/2000/svg">
<path d="M26.9997 5.33337V22C26.9997 23.8334 25.4997 25.3334 23.6663 25.3334H5.33301V12C5.33301 8.31671 8.31634 5.33337 11.9997 5.33337H26.9997Z" stroke="#4E4E4E" stroke-width="2" stroke-linecap="round" stroke-linejoin="round"/>
<path d="M38.6663 25.3334V30.3334C38.6663 33.1 36.433 35.3334 33.6663 35.3334H31.9997C31.9997 33.5 30.4997 32 28.6663 32C26.833 32 25.333 33.5 25.333 35.3334H18.6663C18.6663 33.5 17.1663 32 15.333 32C13.4997 32 11.9997 33.5 11.9997 35.3334H10.333C7.56634 35.3334 5.33301 33.1 5.33301 30.3334V25.3334H23.6663C25.4997 25.3334 26.9997 23.8334 26.9997 22V10.3334H30.0663C31.2663 10.3334 32.3663 10.9834 32.9663 12.0167L35.8164 17H33.6663C32.7497 17 31.9997 17.75 31.9997 18.6667V23.6667C31.9997 24.5834 32.7497 25.3334 33.6663 25.3334H38.6663Z" stroke="#4E4E4E" stroke-width="2" stroke-linecap="round" stroke-linejoin="round"/>
<path d="M15.3333 38.6667C17.1743 38.6667 18.6667 37.1743 18.6667 35.3333C18.6667 33.4924 17.1743 32 15.3333 32C13.4924 32 12 33.4924 12 35.3333C12 37.1743 13.4924 38.6667 15.3333 38.6667Z" stroke="#4E4E4E" stroke-width="2" stroke-linecap="round" stroke-linejoin="round"/>
<path d="M28.6663 38.6667C30.5073 38.6667 31.9997 37.1743 31.9997 35.3333C31.9997 33.4924 30.5073 32 28.6663 32C26.8254 32 25.333 33.4924 25.333 35.3333C25.333 37.1743 26.8254 38.6667 28.6663 38.6667Z" stroke="#4E4E4E" stroke-width="2" stroke-linecap="round" stroke-linejoin="round"/>
<path d="M38.6667 22V25.3333H33.6667C32.75 25.3333 32 24.5833 32 23.6667V18.6667C32 17.75 32.75 17 33.6667 17H35.8167L38.6667 22Z" stroke="#4E4E4E" stroke-width="2" stroke-linecap="round" stroke-linejoin="round"/>
</svg>
