<svg width="42" height="42" viewBox="0 0 42 42" fill="none" xmlns="http://www.w3.org/2000/svg">
<path d="M5.25 38.5V3.5H29.75V38.5H5.25Z" fill="#204F7D"/>
<path d="M7.875 38.5V6.125H27.125V38.5H7.875Z" fill="#5D9ED3"/>
<path d="M22.75 20.125C21.7831 20.125 21 20.9081 21 21.875C21 22.8419 21.7831 23.625 22.75 23.625C23.7169 23.625 24.5 22.8419 24.5 21.875C24.5 20.9081 23.7169 20.125 22.75 20.125Z" fill="#E6EEF8"/>
<path d="M36.6879 38.5H25.4371C24.92 38.5 24.5 38.108 24.5 37.625V27.125C24.5 26.642 24.92 26.25 25.4371 26.25H36.687C37.205 26.25 37.625 26.642 37.625 27.125V37.625C37.625 38.108 37.205 38.5 36.6879 38.5Z" fill="#FF9800"/>
<path d="M29.75 26.25H32.375V29.75H29.75V26.25Z" fill="#FFB74D"/>
<path d="M28 35.875H34.125V36.75H28V35.875ZM32.375 32.375H33.25V35H32.375V32.375Z" fill="#3E2723"/>
<path d="M32.8125 31.5L31.5 33.25H34.125L32.8125 31.5ZM28.875 32.375H29.75V35H28.875V32.375Z" fill="#3E2723"/>
<path d="M29.3125 31.5L28 33.25H30.625L29.3125 31.5Z" fill="#3E2723"/>
</svg>
