<svg width="361" height="153" viewBox="0 0 361 153" fill="none" xmlns="http://www.w3.org/2000/svg">
<path d="M0 8C0 3.58172 3.58172 0 8 0H353C357.418 0 361 3.58172 361 8V145C361 149.418 357.418 153 353 153H7.99999C3.58172 153 0 149.418 0 145V8Z" fill="#161618"/>
<mask id="mask0_61_75" style="mask-type:alpha" maskUnits="userSpaceOnUse" x="0" y="0" width="361" height="153">
<path d="M0 8C0 3.58172 3.58172 0 8 0H353C357.418 0 361 3.58172 361 8V145C361 149.418 357.418 153 353 153H7.99999C3.58172 153 0 149.418 0 145V8Z" fill="#161618"/>
</mask>
<g mask="url(#mask0_61_75)">
<g opacity="0.7">
<mask id="mask1_61_75" style="mask-type:luminance" maskUnits="userSpaceOnUse" x="261" y="63" width="100" height="191">
<path d="M361 191.637V191.21C346.519 176.075 339.46 160.85 341.58 143.375C343.103 130.812 349.363 117.074 361 101.363V100.892C349.209 116.759 342.871 130.63 341.333 143.319C339.188 160.999 346.341 176.368 361 191.637ZM361 198.656V198.241C343.54 181.628 334.812 165.161 337.137 145.984C338.844 131.907 346.496 116.356 361 98.2033V97.7485C346.342 116.05 338.612 131.729 336.89 145.928C334.54 165.311 343.361 181.916 361 198.656ZM361 205.326V204.92C340.591 186.906 330.179 169.334 332.695 148.593C334.569 133.143 343.604 115.917 361 95.4251V94.9796C343.449 115.617 334.337 132.967 332.448 148.537C329.908 169.485 340.413 187.19 361 205.326ZM361 211.726V211.327C337.675 191.963 325.561 173.398 328.253 151.202C330.28 134.487 340.689 115.693 361 92.9332V92.4958C340.533 115.398 330.048 134.312 328.006 151.146C325.289 173.551 337.497 192.246 361 211.726ZM361 217.924V217.53C334.781 196.85 320.953 177.376 323.811 153.811C325.981 135.918 337.756 115.643 361 90.6708V90.2401C337.599 115.351 325.748 135.743 323.564 153.755C320.68 177.532 334.604 197.13 361 217.924ZM361 223.955V223.565C331.912 201.59 316.353 181.283 319.369 156.42C321.673 137.421 334.806 115.736 361 88.5952V88.1703C334.649 115.447 321.44 137.246 319.122 156.364C316.08 181.441 331.736 201.87 361 223.955ZM361 229.871V229.482L359.133 228.099C328.391 205.378 311.824 184.615 314.927 159.029C317.357 138.984 331.838 115.95 361 86.6726V86.2527C331.683 115.662 317.125 138.809 314.68 158.973C311.555 184.743 328.171 205.604 359.013 228.399L361 229.871ZM361 235.801V235.412C358.983 233.892 356.88 232.327 354.69 230.709C323.949 207.987 307.381 187.225 310.485 161.638C313.036 140.601 328.863 116.271 361 84.8868V84.4687C328.706 115.983 312.803 140.425 310.238 161.582C307.112 187.352 323.729 208.213 354.571 231.008C356.804 232.659 358.947 234.254 361 235.801ZM361 241.796V241.404C357.682 238.847 354.099 236.164 350.248 233.318C319.507 210.596 302.939 189.833 306.043 164.247C308.709 142.262 325.871 116.682 361 83.21V82.794C325.713 116.394 308.476 142.084 305.796 164.191C302.67 189.961 319.287 210.822 350.129 233.617C354.027 236.499 357.65 239.212 361 241.796ZM361 247.885V247.49C356.504 243.906 351.44 240.091 345.806 235.927C315.065 213.205 298.497 192.443 301.6 166.856C304.376 143.964 322.87 117.173 361 81.634V81.222C322.714 116.886 304.144 143.786 301.353 166.8C298.228 192.57 314.845 213.431 345.686 236.226C351.374 240.43 356.477 244.276 361 247.885ZM360.423 253.644H360.797L360.828 253.581C355.345 249 348.862 244.077 341.364 238.536C310.622 215.814 294.055 195.051 297.158 169.465C300.04 145.701 319.861 117.735 361 80.1449V79.7353C319.704 117.449 299.808 145.522 296.911 169.409C293.786 195.179 310.403 216.04 341.244 238.835C348.618 244.285 355.006 249.132 360.423 253.644ZM352.789 253.644H353.283C348.502 249.791 343.051 245.675 336.922 241.145C306.18 218.423 289.613 197.661 292.716 172.074C295.7 147.47 316.842 118.363 361 78.7315V78.3242C316.684 118.076 295.468 147.29 292.469 172.018C289.344 197.788 305.961 218.649 336.802 241.444C342.776 245.859 348.102 249.878 352.789 253.644ZM345.052 253.644H345.555C341.604 250.55 337.247 247.277 332.48 243.753C301.738 221.032 285.17 200.269 288.274 174.683C291.356 149.269 313.812 119.048 361 77.3874V76.9813C313.655 118.761 291.124 149.087 288.027 174.627C284.901 200.397 301.518 221.258 332.36 244.053C336.976 247.464 341.205 250.64 345.052 253.644ZM337.231 253.644H337.743C334.721 251.33 331.487 248.912 328.038 246.363C297.296 223.641 280.729 202.879 283.831 177.292C286.94 151.665 309.743 121.153 357.744 78.9493C358.855 77.9725 359.935 76.9943 361 76.0158V75.6048C359.892 76.6254 358.766 77.645 357.608 78.6633C309.543 120.923 286.705 151.507 283.585 177.236C280.459 203.006 297.076 223.867 327.918 246.662C331.219 249.102 334.323 251.422 337.231 253.644ZM329.348 253.644H329.864C327.859 252.134 325.77 250.579 323.595 248.972C292.854 226.25 276.286 205.487 279.39 179.901C282.497 154.274 305.3 123.761 353.302 81.5585C356.005 79.1813 358.564 76.7973 361 74.4089V73.988C358.524 76.4217 355.92 78.8505 353.165 81.2725C305.1 123.533 282.263 154.116 279.143 179.845C276.017 205.615 292.634 226.476 323.475 249.27C325.507 250.772 327.465 252.229 329.348 253.644ZM321.414 253.644H321.936C321.024 252.966 320.097 252.279 319.153 251.581C288.412 228.859 271.844 208.096 274.947 182.51C278.055 156.882 300.859 126.37 348.86 84.167C353.262 80.2966 357.298 76.4082 361 72.5114V72.0775C357.262 76.0237 353.181 79.9616 348.723 83.8813C300.658 126.141 277.821 156.725 274.701 182.454C271.575 208.224 288.192 229.085 319.034 251.88C319.839 252.475 320.632 253.063 321.414 253.644ZM313.456 253.644H313.978C283.708 231.136 267.426 210.5 270.505 185.119C273.613 159.492 296.417 128.979 344.418 86.7763C350.653 81.2942 356.15 75.776 361 70.2496V69.8033C356.119 75.3836 350.577 80.9554 344.281 86.491C296.216 128.75 273.379 159.334 270.259 185.063C267.172 210.515 283.344 231.178 313.456 253.644ZM305.569 253.644H306.077C278.031 232.138 263.104 212.126 266.064 187.728C269.171 162.1 291.974 131.588 339.975 89.3849C348.197 82.156 355.148 74.8653 361 67.5727V67.1078C355.124 74.4602 348.129 81.811 339.839 89.0994C291.774 131.359 268.936 161.943 265.816 187.672C262.849 212.135 277.675 232.175 305.569 253.644ZM298.292 253.644C272.41 233.117 258.782 213.746 261.621 190.337C264.729 164.71 287.532 134.198 335.533 91.9945C345.948 82.8371 354.321 73.5811 361 64.3474V63.8557C354.306 73.1572 345.89 82.4831 335.397 91.7087C287.332 133.969 264.494 164.552 261.374 190.282C258.527 213.751 272.059 233.149 297.794 253.644H298.292Z" fill="white"/>
</mask>
<g mask="url(#mask1_61_75)">
<path d="M361 63.8557H258.527V253.644H361V63.8557Z" fill="url(#paint0_linear_61_75)"/>
</g>
</g>
<mask id="mask2_61_75" style="mask-type:luminance" maskUnits="userSpaceOnUse" x="0" y="46" width="87" height="208">
<path d="M19.1369 46.2324C19.4478 57.3254 21.6036 70.2754 26.3399 85.4244C40.6649 131.243 44.6907 158.561 39.5359 173.676C34.5579 188.274 21.0444 191.487 3.25199e-05 188.975V188.757C20.9807 191.263 34.447 188.081 39.3899 173.585C44.5245 158.53 40.4979 131.266 26.1919 85.5087C21.4459 70.3287 19.2845 57.351 18.9712 46.2324H19.1369ZM20.7646 46.2324C20.6732 58.0856 22.7564 72.1802 28.0071 88.9741C42.3321 134.792 46.3579 162.111 41.2029 177.226C36.095 192.205 21.9989 195.197 3.25199e-05 192.316V192.097C21.9351 194.972 35.9843 192.01 41.0572 177.135C46.1916 162.079 42.165 134.815 27.8591 89.0582C22.5991 72.2346 20.5096 58.1116 20.5982 46.2324H20.7646ZM22.5261 46.2324C21.9478 58.7934 23.8894 74.0209 29.6742 92.5237C43.9992 138.342 48.025 165.66 42.8702 180.776C37.7074 195.915 23.3653 198.81 0.961157 195.772L3.25199e-05 195.643V195.424L0.976832 195.556C23.3085 198.583 37.5984 195.716 42.7244 180.684C47.8588 165.629 43.8323 138.365 29.5264 92.6078C23.7323 74.0757 21.7842 58.8198 22.3588 46.2324H22.5261ZM24.4313 46.2324C23.2785 59.4446 24.9997 75.7902 31.3414 96.0732C45.6664 141.892 49.6922 169.21 44.5372 184.325C39.3746 199.464 25.0325 202.359 2.62839 199.322C1.73279 199.201 0.857777 199.084 3.25199e-05 198.972V198.754C0.862687 198.866 1.74316 198.983 2.64387 199.105C24.9757 202.133 39.2656 199.266 44.3914 184.234C49.5258 169.179 45.4995 141.915 31.1934 96.1577C24.843 75.8464 23.1143 59.4723 24.2623 46.2324H24.4313ZM26.485 46.2324C24.6672 60.0339 26.0867 77.4839 33.0085 99.623C47.3335 145.441 51.3593 172.76 46.2045 187.875C41.0417 203.014 26.6996 205.909 4.29545 202.872C2.81099 202.67 1.38148 202.483 3.25199e-05 202.309V202.091C1.38694 202.265 2.82116 202.453 4.31109 202.655C26.6428 205.682 40.9328 202.815 46.0587 187.784C51.1931 172.728 47.1665 145.464 32.8606 99.7071C25.9305 77.5415 24.5019 60.0625 26.3135 46.2324H26.485ZM28.7025 46.2324C26.1256 60.5559 27.1466 79.0914 34.6756 103.173C49.0007 148.991 53.0265 176.309 47.8717 191.425C42.7089 206.564 28.3668 209.459 5.96265 206.421C3.87256 206.138 1.88732 205.88 0 205.654V205.435C1.8924 205.662 3.88294 205.921 5.97829 206.205C28.3098 209.232 42.5998 206.365 47.7257 191.333C52.8601 176.278 48.8337 149.014 34.5276 103.257C26.991 79.1513 25.9589 60.586 28.5279 46.2324H28.7025ZM31.0991 46.2324C27.6653 61.0045 28.1762 80.6017 36.3429 106.722C50.6677 152.541 54.6937 179.859 49.5388 194.974C44.3762 210.113 30.0339 213.008 7.62972 209.971C4.91379 209.603 2.37574 209.277 3.25199e-05 209.01V208.792C2.38101 209.06 4.92435 209.386 7.64539 209.754C29.9771 212.782 44.2669 209.915 49.393 194.883C54.5274 179.828 50.5008 152.564 36.1947 106.807C28.0215 80.6641 27.4967 61.0367 30.9207 46.2324H31.0991ZM33.6931 46.2324C29.3004 61.3728 29.1712 82.0017 38.0099 110.272C52.3349 156.09 56.3608 183.409 51.2058 198.524C46.0432 213.663 31.7011 216.558 9.29694 213.521C5.93572 213.065 2.84393 212.674 3.25199e-05 212.38V212.161C2.84939 212.456 5.94649 212.848 9.31262 213.304C31.6443 216.331 45.9342 213.464 51.06 198.433C56.1944 183.377 52.1679 156.113 37.862 110.356C29.0174 82.067 29.1293 61.4071 33.5101 46.2324H33.6931ZM36.502 46.2324C31.0463 61.6509 30.1267 83.2754 39.677 113.822C54.0022 159.64 58.028 186.958 52.8731 202.073C47.7105 217.213 33.3683 220.108 10.964 217.07C6.93402 216.524 3.29153 216.071 3.25199e-05 215.766V215.548C3.29755 215.853 6.94511 216.307 10.9797 216.854C33.3113 219.881 47.6012 217.014 52.7272 201.982C57.8616 186.927 53.8351 159.663 39.5292 113.906C29.9742 83.3445 30.873 61.6882 36.3138 46.2324H36.502ZM39.5465 46.2324C32.9227 61.8286 31.0374 84.4057 41.3442 117.371C55.6692 163.189 59.695 190.508 54.5402 205.623C49.3775 220.762 35.0354 223.657 12.6312 220.62C7.90893 219.98 3.71546 219.466 0 219.172V218.953C3.72183 219.248 7.92077 219.763 12.6468 220.403C34.9785 223.431 49.2684 220.563 54.3944 205.532C59.5286 190.476 55.5023 163.213 41.1962 117.455C30.8863 84.4795 32.746 61.8693 39.3522 46.2324H39.5465ZM42.8598 46.2324C34.9611 61.8931 31.8944 85.3642 43.0113 120.921C57.3365 166.739 61.3621 194.058 56.2073 209.173C51.0445 224.312 36.7024 227.207 14.2983 224.17C8.85497 223.432 4.11614 222.862 3.25199e-05 222.603V222.384C4.12323 222.645 8.86736 223.215 14.3139 223.953C36.6456 226.98 50.9357 224.113 56.0615 209.082C61.1959 194.026 57.1694 166.762 42.8635 121.005C31.7457 85.4456 34.7778 61.9378 42.6549 46.2324H42.8598ZM46.4699 46.2324C37.1948 61.8274 32.689 86.1222 44.6785 124.47C59.0035 170.289 63.0293 197.607 57.8745 212.722C52.7118 227.862 38.3696 230.757 15.9655 227.719C9.77115 226.88 4.4893 226.258 3.25199e-05 226.064V225.845C4.49714 226.04 9.78481 226.663 15.9812 227.503C38.3129 230.53 52.6027 227.663 57.7286 212.631C62.863 197.576 58.8366 170.312 44.5305 124.555C32.5421 86.21 37.0055 61.8777 46.2571 46.2324H46.4699ZM50.4298 46.2324C39.6814 61.611 33.4045 86.6291 46.3457 128.02C60.6705 173.838 64.6966 201.157 59.5416 216.272C54.379 231.411 40.0368 234.306 17.6327 231.269C10.6544 230.323 4.83281 229.654 3.25199e-05 229.56V229.34C4.84153 229.436 10.6693 230.106 17.6482 231.052C39.9799 234.08 54.2699 231.212 59.3958 216.181C64.5302 201.125 60.5036 173.862 46.1977 128.104C33.2613 86.7281 39.4813 61.668 50.2028 46.2324H50.4298ZM54.7882 46.2324C42.491 61.2162 34.0238 86.8269 48.0128 131.57C62.3378 177.388 66.3636 204.706 61.2088 219.822C56.046 234.961 41.7039 237.856 19.2998 234.819C11.4993 233.761 5.14315 233.049 0 233.102V232.88C5.15368 232.831 11.5161 233.545 19.3154 234.602C41.6471 237.629 55.9369 234.762 61.0628 219.731C66.1972 204.675 62.1708 177.411 47.8648 131.654C33.8862 86.944 42.2737 61.2816 54.5402 46.2324H54.7882ZM59.6191 46.2324C45.7361 60.6055 34.5177 86.6241 49.68 135.119C64.005 180.938 68.0309 208.256 62.8759 223.371C57.7133 238.511 43.3711 241.405 20.9668 238.368C12.3012 237.193 5.41749 236.445 3.25199e-05 236.698V236.475C5.42968 236.227 12.3198 236.977 20.9825 238.152C43.3142 241.179 57.604 238.312 62.7301 223.28C67.8645 208.225 63.8379 180.961 49.532 135.204C34.3859 86.7595 45.4986 60.6817 59.3517 46.2324H59.6191ZM65.0158 46.2324C49.5936 59.7261 34.8439 85.8842 51.3471 138.669C65.6721 184.487 69.6979 211.806 64.5431 226.921C59.3803 242.06 45.0382 244.955 22.6341 241.918C13.0535 240.619 5.65085 239.841 3.25199e-05 240.362V240.138C5.66506 239.624 13.0745 240.403 22.6497 241.701C44.9814 244.729 59.2713 241.861 64.3973 226.83C69.5317 211.774 65.5052 184.511 51.1991 138.753C34.7214 86.0498 49.3219 59.8167 64.7198 46.2324H65.0158ZM71.1187 46.2324C54.3825 58.4965 34.9254 84.3632 53.0141 142.219C67.3393 188.037 71.3651 215.355 66.2102 230.471C61.0476 245.61 46.7054 248.505 24.3011 245.468C13.7482 244.037 5.8367 243.237 3.25199e-05 244.112V243.885C5.8538 243.021 13.772 243.821 24.3168 245.251C46.6485 248.278 60.9385 245.411 66.0643 230.38C71.1987 215.324 67.1724 188.06 52.8663 142.303C34.8187 84.5791 54.0517 58.6082 70.7821 46.2324H71.1187ZM78.1078 46.2324C60.7357 56.7869 34.6212 81.6078 54.6813 145.768C69.0063 191.587 73.0322 218.905 67.8774 234.02C62.7146 249.159 48.3725 252.055 25.9683 249.017C14.3751 247.446 5.96827 246.635 0 247.969V247.736C5.98866 246.417 14.4042 247.231 25.984 248.801C48.3157 251.828 62.6055 248.961 67.7315 233.929C72.8657 218.874 68.8394 191.61 54.5333 145.853C34.5415 81.9094 60.295 56.9291 77.7189 46.2324H78.1078ZM3.25199e-05 251.731C6.06044 249.819 14.9518 250.629 27.6512 252.35C49.9827 255.377 64.2728 252.51 69.3986 237.479C74.533 222.423 70.5065 195.159 56.2005 149.402C35.3883 82.8354 64.1546 58.4913 81.4868 48.5328C83.003 47.6615 84.4305 46.9012 85.7291 46.2324H86.1833C84.78 46.9496 83.2167 47.7752 81.5489 48.7333C64.2703 58.6612 35.5931 82.9332 56.3486 149.318C70.6736 195.136 74.6994 222.455 69.5444 237.57C64.3818 252.709 50.0397 255.604 27.6356 252.567C14.9183 250.843 6.03549 250.034 3.25199e-05 251.969V251.731Z" fill="white"/>
</mask>
<g mask="url(#mask2_61_75)">
<path d="M86.1832 46.2324H0V255.604H86.1832V46.2324Z" fill="url(#paint1_linear_61_75)"/>
</g>
</g>
<defs>
<linearGradient id="paint0_linear_61_75" x1="273.019" y1="232.43" x2="469.238" y2="20.4184" gradientUnits="userSpaceOnUse">
<stop stop-color="#3882BF"/>
<stop offset="0.47" stop-color="#3882BF" stop-opacity="0.2"/>
<stop offset="1" stop-color="#3882BF" stop-opacity="0"/>
</linearGradient>
<linearGradient id="paint1_linear_61_75" x1="43.0916" y1="46.2324" x2="43.0916" y2="255.604" gradientUnits="userSpaceOnUse">
<stop stop-color="#3882BF" stop-opacity="0"/>
<stop offset="0.2" stop-color="#3882BF" stop-opacity="0.2"/>
<stop offset="1" stop-color="#3882BF"/>
</linearGradient>
</defs>
</svg>
