<svg width="40" height="26" viewBox="0 0 40 26" fill="none" xmlns="http://www.w3.org/2000/svg">
<path d="M4.80192 0.202209H35.1963C35.7215 0.202209 36.2417 0.305698 36.727 0.506755C37.2123 0.707812 37.6532 1.00249 38.0246 1.37399C38.3959 1.74548 38.6905 2.1865 38.8914 2.67185C39.0923 3.1572 39.1956 3.67737 39.1954 4.20266V21.7986C39.1954 22.8592 38.7741 23.8764 38.0241 24.6264C37.2741 25.3764 36.2569 25.7978 35.1963 25.7978H4.80192C3.74127 25.7978 2.72406 25.3764 1.97407 24.6264C1.22408 23.8764 0.802735 22.8592 0.802735 21.7986V4.20266C0.802569 3.67737 0.905888 3.1572 1.10679 2.67185C1.3077 2.1865 1.60225 1.74548 1.97362 1.37399C2.345 1.00249 2.78592 0.707812 3.27121 0.506755C3.75649 0.305698 4.27664 0.202209 4.80192 0.202209Z" fill="#2196F3"/>
<path d="M39.1954 5.00098H0.802734V11.4002H39.1954V5.00098Z" fill="#455A64"/>
<path d="M12.8019 17.7994H6.40118C6.18911 17.7994 5.98572 17.7152 5.83576 17.5652C5.68581 17.4153 5.60156 17.2119 5.60156 16.9998C5.60156 16.7877 5.68581 16.5843 5.83576 16.4344C5.98572 16.2844 6.18911 16.2002 6.40118 16.2002H12.8019C13.0139 16.2002 13.2173 16.2844 13.3673 16.4344C13.5172 16.5843 13.6015 16.7877 13.6015 16.9998C13.6015 17.2119 13.5172 17.4153 13.3673 17.5652C13.2173 17.7152 13.0139 17.7994 12.8019 17.7994Z" fill="#FAFAFA"/>
<path d="M17.6021 20.9991H6.40118C6.18911 20.9991 5.98572 20.9149 5.83576 20.7649C5.68581 20.615 5.60156 20.4116 5.60156 20.1995C5.60156 19.9874 5.68581 19.7841 5.83576 19.6341C5.98572 19.4841 6.18911 19.3999 6.40118 19.3999H17.6021C17.8141 19.3999 18.0175 19.4841 18.1675 19.6341C18.3174 19.7841 18.4017 19.9874 18.4017 20.1995C18.4017 20.4116 18.3174 20.615 18.1675 20.7649C18.0175 20.9149 17.8141 20.9991 17.6021 20.9991Z" fill="#FAFAFA"/>
</svg>
