<svg width="17" height="17" viewBox="0 0 17 17" fill="none" xmlns="http://www.w3.org/2000/svg">
<path d="M6.5013 7.16667C7.23768 7.16667 7.83464 6.56971 7.83464 5.83333C7.83464 5.09695 7.23768 4.5 6.5013 4.5C5.76492 4.5 5.16797 5.09695 5.16797 5.83333C5.16797 6.56971 5.76492 7.16667 6.5013 7.16667Z" stroke="white" stroke-linecap="round" stroke-linejoin="round"/>
<path d="M9.16536 1.83337H6.4987C3.16536 1.83337 1.83203 3.16671 1.83203 6.50004V10.5C1.83203 13.8334 3.16536 15.1667 6.4987 15.1667H10.4987C13.832 15.1667 15.1654 13.8334 15.1654 10.5V7.16671" stroke="white" stroke-linecap="round" stroke-linejoin="round"/>
<path d="M13.2593 2.22669L10.8393 4.64669C10.7459 4.74002 10.6526 4.92002 10.6393 5.05335L10.5059 5.98002C10.4593 6.31335 10.6926 6.54669 11.0259 6.50002L11.9526 6.36669C12.0793 6.34669 12.2659 6.26002 12.3593 6.16669L14.7793 3.74669C15.1993 3.32669 15.3926 2.84669 14.7793 2.23335C14.1593 1.60669 13.6793 1.80669 13.2593 2.22669Z" stroke="white" stroke-miterlimit="10" stroke-linecap="round" stroke-linejoin="round"/>
<path d="M12.9141 2.57336C13.1207 3.3067 13.6941 3.88003 14.4274 4.0867" stroke="white" stroke-miterlimit="10" stroke-linecap="round" stroke-linejoin="round"/>
<path d="M2.28125 13.1333L5.56792 10.9266C6.09458 10.5733 6.85458 10.6133 7.32792 11.02L7.54792 11.2133C8.06792 11.66 8.90792 11.66 9.42792 11.2133L12.2012 8.83329C12.7212 8.38662 13.5612 8.38662 14.0812 8.83329L15.1679 9.76662" stroke="white" stroke-linecap="round" stroke-linejoin="round"/>
</svg>
