<svg width="18" height="18" viewBox="0 0 18 18" fill="none" xmlns="http://www.w3.org/2000/svg">
<path d="M9 17.0626C7.40539 17.0626 5.84659 16.5898 4.52072 15.7039C3.19485 14.8179 2.16146 13.5587 1.55122 12.0855C0.940993 10.6123 0.781329 8.99118 1.09242 7.42721C1.40352 5.86324 2.17139 4.42664 3.29895 3.29908C4.42652 2.17152 5.86312 1.40364 7.42709 1.09254C8.99106 0.781451 10.6122 0.941115 12.0854 1.55135C13.5586 2.16158 14.8178 3.19497 15.7037 4.52084C16.5896 5.84671 17.0625 7.40551 17.0625 9.00013C17.0607 11.1379 16.2107 13.1876 14.6991 14.6992C13.1875 16.2108 11.1378 17.0608 9 17.0626ZM9 2.06263C7.6279 2.06263 6.2866 2.4695 5.14573 3.23181C4.00487 3.99411 3.11567 5.0776 2.59059 6.34526C2.06551 7.61292 1.92812 9.00782 2.19581 10.3536C2.46349 11.6993 3.12422 12.9355 4.09445 13.9057C5.06468 14.8759 6.30082 15.5366 7.64656 15.8043C8.99231 16.072 10.3872 15.9346 11.6549 15.4095C12.9225 14.8845 14.006 13.9953 14.7683 12.8544C15.5306 11.7135 15.9375 10.3722 15.9375 9.00013C15.9353 7.16086 15.2037 5.39754 13.9031 4.09698C12.6026 2.79642 10.8393 2.06481 9 2.06263Z" fill="#161618"/>
<path d="M6.75359 16.3125H6.00359C5.85471 16.3115 5.71221 16.2519 5.60693 16.1467C5.50166 16.0414 5.44208 15.8989 5.44109 15.75C5.44008 15.6031 5.49696 15.4617 5.59943 15.3564C5.7019 15.2511 5.84171 15.1905 5.98859 15.1875C4.81109 11.1465 4.81109 6.85347 5.98859 2.8125C5.84145 2.80994 5.70126 2.74942 5.59847 2.6441C5.49567 2.53878 5.43858 2.39716 5.43959 2.25C5.44058 2.10086 5.50037 1.95813 5.60597 1.85281C5.71157 1.74749 5.85445 1.68809 6.00359 1.6875H6.75359C6.84265 1.6882 6.93032 1.70956 7.00971 1.74991C7.0891 1.79025 7.15804 1.84848 7.21109 1.92C7.26328 1.9929 7.29732 2.07721 7.31036 2.16592C7.32341 2.25462 7.31509 2.34516 7.28609 2.43C5.8761 6.69909 5.8761 11.3084 7.28609 15.5775C7.31509 15.6623 7.32341 15.7529 7.31036 15.8416C7.29732 15.9303 7.26328 16.0146 7.21109 16.0875C7.1565 16.1568 7.08706 16.213 7.00789 16.2519C6.92872 16.2909 6.84182 16.3116 6.75359 16.3125Z" fill="#161618"/>
<path d="M11.2505 16.3125C11.1892 16.3136 11.1282 16.3034 11.0705 16.2825C11.0003 16.2593 10.9354 16.2223 10.8796 16.1738C10.8238 16.1253 10.7782 16.0662 10.7454 15.9999C10.7127 15.9336 10.6933 15.8615 10.6886 15.7877C10.6839 15.7139 10.6939 15.6399 10.718 15.57C12.128 11.3009 12.128 6.69161 10.718 2.42252C10.6703 2.28129 10.6806 2.12688 10.7467 1.99327C10.8128 1.85965 10.9293 1.75776 11.0705 1.71002C11.2117 1.66228 11.3661 1.6726 11.4998 1.73871C11.6334 1.80481 11.7353 1.92129 11.783 2.06252C13.2755 6.55942 13.2755 11.4181 11.783 15.915C11.7486 16.0296 11.6783 16.1301 11.5824 16.2017C11.4865 16.2732 11.3702 16.3121 11.2505 16.3125Z" fill="#161618"/>
<path d="M9.00005 12.9C6.90583 12.9026 4.82207 12.6046 2.81255 12.015C2.81056 12.1642 2.74939 12.3065 2.64249 12.4106C2.5356 12.5146 2.39173 12.572 2.24255 12.57C2.09337 12.568 1.95108 12.5069 1.847 12.4C1.74292 12.2931 1.68556 12.1492 1.68755 12V11.25C1.68825 11.161 1.70961 11.0733 1.74996 10.9939C1.7903 10.9145 1.84853 10.8456 1.92005 10.7925C1.99295 10.7403 2.07726 10.7063 2.16597 10.6932C2.25467 10.6802 2.34521 10.6885 2.43005 10.7175C6.69914 12.1275 11.3085 12.1275 15.5776 10.7175C15.6624 10.6885 15.7529 10.6802 15.8416 10.6932C15.9303 10.7063 16.0146 10.7403 16.0876 10.7925C16.1603 10.8444 16.2194 10.9131 16.2599 10.9928C16.3003 11.0724 16.321 11.1607 16.3201 11.25V12C16.3191 12.1489 16.2595 12.2914 16.1542 12.3967C16.0489 12.502 15.9064 12.5615 15.7576 12.5625C15.6106 12.5635 15.4692 12.5066 15.364 12.4042C15.2587 12.3017 15.198 12.1619 15.1951 12.015C13.1828 12.604 11.0967 12.9021 9.00005 12.9Z" fill="#161618"/>
<path d="M15.7498 7.3125C15.6885 7.31354 15.6275 7.30337 15.5698 7.2825C11.3008 5.8725 6.69143 5.8725 2.42234 7.2825C2.35242 7.30619 2.27851 7.31586 2.20484 7.31096C2.13117 7.30606 2.0592 7.28668 1.99302 7.25394C1.92685 7.22121 1.86778 7.17574 1.81919 7.12016C1.7706 7.06457 1.73344 6.99996 1.70984 6.93C1.66521 6.78774 1.67785 6.63368 1.74509 6.50061C1.81233 6.36754 1.92884 6.26596 2.06984 6.2175C6.56674 4.72503 11.4254 4.72503 15.9223 6.2175C15.9925 6.24076 16.0574 6.27771 16.1132 6.32623C16.169 6.37474 16.2146 6.43385 16.2474 6.50012C16.2802 6.5664 16.2995 6.63852 16.3042 6.71231C16.3089 6.7861 16.2989 6.8601 16.2748 6.93C16.2397 7.04151 16.1698 7.13882 16.0753 7.20766C15.9808 7.27651 15.8667 7.31325 15.7498 7.3125Z" fill="#161618"/>
</svg>
