<svg width="263" height="262" viewBox="0 0 263 262" fill="none" xmlns="http://www.w3.org/2000/svg">
<path d="M131.463 261.65C203.786 261.65 262.416 248.877 262.416 233.121C262.416 217.365 203.786 204.592 131.463 204.592C59.1394 204.592 0.509766 217.365 0.509766 233.121C0.509766 248.877 59.1394 261.65 131.463 261.65Z" fill="#FFF0E0"/>
<path d="M247.286 108.974C247.286 126.153 243.067 162.363 235.55 185.492C232.539 194.757 223.849 201.044 214.026 201.044H49.2249C39.4012 201.044 30.7114 194.757 27.7004 185.492C20.1835 162.363 15.9648 126.153 15.9648 108.974C15.9648 48.7896 67.7487 0 131.625 0C195.505 0 247.286 48.7896 247.286 108.974Z" fill="#FFF0E0"/>
<path d="M117.544 136.244C118.251 133.864 116.894 131.362 114.514 130.656C104.956 127.819 96.2487 122.477 89.3334 115.208C67.5333 92.2926 68.4405 55.9136 91.3561 34.1134C92.5876 32.942 93.8727 31.8254 95.2 30.7677L94.4251 38.8527L116.213 15.5727L84.358 16.9352L91.7136 22.1202C89.4218 23.8017 87.2254 25.6347 85.1595 27.5998C58.6524 52.8166 57.6027 94.8972 82.8199 121.404C90.8176 129.811 100.893 135.991 111.956 139.274C114.336 139.98 116.838 138.624 117.544 136.244Z" fill="#FFF0CD"/>
<path d="M113.241 139.793C112.779 139.793 112.316 139.726 111.861 139.591C100.742 136.291 90.6166 130.081 82.5792 121.633C76.3853 115.121 71.6513 107.583 68.5088 99.2274C65.4743 91.1584 64.0454 82.6741 64.2616 74.0099C64.4777 65.346 66.3279 56.9434 69.7609 49.0359C73.3159 40.8469 78.4198 33.5543 84.9307 27.3601C86.8764 25.5091 88.9664 23.7498 91.1477 22.1264L84.1667 17.2056C84.0511 17.1239 84 16.9778 84.04 16.842C84.0798 16.7061 84.2017 16.6107 84.3432 16.6046L116.199 15.2421C116.334 15.2385 116.457 15.3124 116.513 15.4347C116.569 15.5568 116.546 15.7006 116.454 15.7987L94.6658 39.0789C94.5691 39.1825 94.4174 39.2126 94.2881 39.1545C94.1591 39.0962 94.0814 38.9623 94.095 38.8214L94.7946 31.5198C93.6826 32.4305 92.605 33.3811 91.5833 34.3533C80.5642 44.8357 74.2864 59.005 73.9062 74.2508C73.5258 89.4965 79.0895 103.961 89.5723 114.98C96.4476 122.207 105.105 127.518 114.607 130.339C115.843 130.705 116.862 131.532 117.476 132.665C118.091 133.798 118.227 135.102 117.861 136.338C117.494 137.574 116.668 138.593 115.535 139.207C114.818 139.596 114.033 139.793 113.241 139.793ZM85.3412 17.2244L91.9033 21.8498C91.9902 21.9111 92.0424 22.0108 92.0433 22.1171C92.0445 22.2235 91.9942 22.3239 91.9083 22.387C89.6159 24.0689 87.4214 25.9036 85.3865 27.8398C72.6304 39.9747 65.3629 56.3775 64.9227 74.0266C64.4823 91.6757 70.9232 108.42 83.0585 121.177C91.0161 129.542 101.041 135.69 112.049 138.957C113.116 139.274 114.241 139.156 115.219 138.626C116.197 138.095 116.91 137.216 117.226 136.15C117.542 135.083 117.425 133.958 116.895 132.98C116.364 132.002 115.485 131.289 114.419 130.973C104.805 128.119 96.0477 122.747 89.0924 115.436C78.488 104.289 72.8598 89.6567 73.2445 74.2341C73.6293 58.8117 79.9798 44.478 91.1269 33.8735C92.3487 32.7112 93.6493 31.5792 94.9927 30.5089C95.0963 30.4261 95.2397 30.4135 95.3565 30.4767C95.4731 30.5402 95.5407 30.667 95.5279 30.7992L94.8458 37.9178L115.417 15.9376L85.3412 17.2244Z" fill="#27292B"/>
<path d="M170.286 129.064C172.499 127.427 174.623 125.648 176.623 123.745C203.131 98.5279 204.18 56.4474 178.963 29.9403C170.772 21.3301 160.431 15.0737 149.057 11.847C146.669 11.1694 144.183 12.5563 143.506 14.9447C142.828 17.3331 144.216 19.8185 146.603 20.496C156.43 23.2834 165.367 28.6921 172.45 36.1367C194.25 59.0523 193.342 95.4311 170.427 117.231C169.255 118.346 168.032 119.41 166.772 120.423L167.514 112.346L145.817 135.711L177.667 134.224L170.286 129.064Z" fill="#FFF0CD"/>
<path d="M145.817 136.042C145.689 136.042 145.571 135.967 145.517 135.85C145.46 135.728 145.483 135.584 145.575 135.486L167.272 112.121C167.368 112.017 167.52 111.986 167.649 112.044C167.779 112.102 167.857 112.235 167.844 112.376L167.173 119.669C168.23 118.797 169.245 117.899 170.199 116.991C192.982 95.3171 193.885 59.1478 172.21 36.3646C165.169 28.963 156.283 23.5856 146.513 20.814C143.954 20.0877 142.462 17.4143 143.187 14.8543C143.914 12.2941 146.587 10.8023 149.147 11.5285C160.578 14.7712 170.971 21.0591 179.203 29.7121C185.397 36.223 190.131 43.7612 193.273 52.1171C196.308 60.1859 197.737 68.6704 197.521 77.3344C197.304 85.9983 195.454 94.4011 192.021 102.309C188.466 110.497 183.362 117.79 176.851 123.984C174.972 125.773 172.955 127.477 170.851 129.056L177.856 133.953C177.972 134.034 178.024 134.18 177.984 134.316C177.945 134.452 177.823 134.548 177.682 134.555L145.832 136.041C145.827 136.042 145.822 136.042 145.817 136.042ZM167.096 113.283L146.61 135.343L176.681 133.939L170.097 129.336C170.009 129.275 169.957 129.175 169.956 129.069C169.954 128.962 170.004 128.862 170.089 128.799C172.304 127.16 174.426 125.379 176.395 123.505C189.151 111.37 196.419 94.9672 196.859 77.3179C197.299 59.669 190.859 42.9242 178.723 30.1683C170.573 21.601 160.284 15.3758 148.967 12.1651C147.896 11.8613 146.772 11.9927 145.801 12.5348C144.829 13.0769 144.128 13.9648 143.824 15.0347C143.197 17.2438 144.485 19.5509 146.693 20.1774C156.577 22.9812 165.566 28.4209 172.689 35.9084C183.294 47.0553 188.922 61.6878 188.537 77.1103C188.153 92.5327 181.802 106.866 170.655 117.471C169.506 118.564 168.269 119.644 166.979 120.681C166.875 120.764 166.732 120.777 166.616 120.714C166.499 120.651 166.43 120.525 166.443 120.393L167.096 113.283Z" fill="#27292B"/>
<path d="M132.023 189.226H75.3047V132.517H132.023C137.413 132.517 141.781 136.886 141.781 142.275V179.468C141.782 184.857 137.413 189.226 132.023 189.226Z" fill="#F38552"/>
<path d="M132.024 189.556H75.3055C75.1228 189.556 74.9746 189.408 74.9746 189.226V132.517C74.9746 132.334 75.1228 132.186 75.3055 132.186H132.024C137.587 132.186 142.113 136.712 142.113 142.275V179.468C142.113 185.031 137.587 189.556 132.024 189.556ZM75.6365 188.895H132.024C137.222 188.895 141.451 184.666 141.451 179.468V142.275C141.451 137.077 137.222 132.848 132.024 132.848H75.6365V188.895Z" fill="#27292B"/>
<path d="M99.7823 148.212H32.872L17.5879 85.8481H75.3073C80.6648 85.8481 85.2911 89.5986 86.3991 94.8404L99.7823 148.212Z" fill="#FFCA90"/>
<path d="M99.7811 148.543H32.8708C32.7185 148.543 32.5859 148.439 32.5495 148.291L17.2654 85.9267C17.2412 85.8281 17.2637 85.7239 17.3263 85.6439C17.389 85.5639 17.485 85.5172 17.5865 85.5172H75.3059C80.7869 85.5172 85.5879 89.4094 86.7216 94.772L100.102 148.132C100.127 148.231 100.105 148.335 100.042 148.416C99.9792 148.496 99.883 148.543 99.7811 148.543ZM33.1303 147.881H99.3569L86.077 94.9207C85.0048 89.8502 80.4762 86.1787 75.3059 86.1787H18.008L33.1303 147.881Z" fill="#27292B"/>
<path d="M28.6955 148.212C23.3379 148.212 18.7116 144.462 17.6034 139.22L7.11264 99.5301C5.62253 92.4809 10.9997 85.8481 18.2045 85.8481C23.5621 85.8481 28.1884 89.5986 29.2964 94.8404L39.7872 134.53C41.2775 141.579 35.9003 148.212 28.6955 148.212Z" fill="#F38552"/>
<path d="M28.695 148.543C23.214 148.543 18.4128 144.651 17.2793 139.288L6.79235 99.6144C6.05749 96.1405 6.91483 92.5825 9.14056 89.8372C11.3663 87.0916 14.6698 85.517 18.2041 85.517C23.6853 85.517 28.4863 89.4094 29.6198 94.7717L40.1068 134.446C40.8416 137.92 39.9843 141.477 37.7587 144.223C35.5328 146.968 32.2292 148.543 28.695 148.543ZM18.2041 86.1787C14.8701 86.1787 11.7541 87.6638 9.65447 90.2536C7.55502 92.8433 6.74608 96.1995 7.43561 99.4613L17.9226 139.135C18.9959 144.21 23.5245 147.881 28.6948 147.881C32.0288 147.881 35.145 146.396 37.2446 143.806C39.3439 141.216 40.1528 137.86 39.4631 134.598L28.9762 94.9243C27.9032 89.8501 23.3744 86.1787 18.2041 86.1787Z" fill="#27292B"/>
<path d="M118.407 160.872H75.304C67.4742 160.872 61.127 167.219 61.127 175.049C61.127 182.878 67.4742 189.226 75.304 189.226H118.407C126.237 189.226 132.584 182.878 132.584 175.049C132.585 167.219 126.237 160.872 118.407 160.872Z" fill="#FFCA90"/>
<path d="M118.408 189.556H75.305C67.3053 189.556 60.7969 183.048 60.7969 175.048C60.7969 167.049 67.3053 160.54 75.305 160.54H118.408C126.408 160.54 132.916 167.049 132.916 175.048C132.916 183.048 126.408 189.556 118.408 189.556ZM75.305 161.202C67.6701 161.202 61.4588 167.413 61.4588 175.048C61.4588 182.683 67.6701 188.894 75.305 188.894H118.408C126.043 188.894 132.254 182.683 132.254 175.048C132.254 167.413 126.043 161.202 118.408 161.202H75.305Z" fill="#27292B"/>
<path d="M95.958 132.516V189.226H24.2307C18.8415 189.226 14.4746 184.856 14.4746 179.467V142.275C14.4746 136.886 18.8417 132.515 24.2307 132.515H95.958V132.516Z" fill="#FFCA90"/>
<path d="M95.9568 189.557H24.2297C18.6678 189.557 14.1426 185.031 14.1426 179.467V142.275C14.1426 136.711 18.6678 132.185 24.2297 132.185H95.9568C96.1395 132.185 96.2877 132.333 96.2877 132.515V189.226C96.2877 189.409 96.1395 189.557 95.9568 189.557ZM24.2295 132.846C19.0323 132.846 14.8043 137.076 14.8043 142.275V179.467C14.8043 184.666 19.0323 188.896 24.2295 188.896H95.6259V132.846H24.2295Z" fill="#27292B"/>
<path d="M95.9592 189.226C90.57 189.226 86.2012 184.857 86.2012 179.468V142.275C86.2012 136.886 90.57 132.517 95.9592 132.517C101.348 132.517 105.717 136.886 105.717 142.275V179.468C105.717 184.857 101.348 189.226 95.9592 189.226Z" fill="#F38552"/>
<path d="M95.9582 189.557C90.3951 189.557 85.8691 185.031 85.8691 179.468V142.275C85.8691 136.712 90.3951 132.186 95.9582 132.186C101.521 132.186 106.047 136.712 106.047 142.275V179.468C106.047 185.031 101.521 189.557 95.9582 189.557ZM95.9582 132.848C90.76 132.848 86.5311 137.077 86.5311 142.275V179.468C86.5311 184.666 90.76 188.895 95.9582 188.895C101.156 188.895 105.385 184.666 105.385 179.468V142.275C105.385 137.077 101.156 132.848 95.9582 132.848Z" fill="#27292B"/>
<path d="M18.4195 231.939C16.4725 231.939 15.0658 230.077 15.5978 228.204L26.6699 189.226H32.7686L21.2411 229.807C20.883 231.069 19.731 231.939 18.4195 231.939Z" fill="#27292B"/>
<path d="M18.4189 232.27C17.3862 232.27 16.437 231.797 15.8143 230.973C15.1918 230.149 14.9966 229.107 15.2787 228.113L26.351 189.135C26.3914 188.993 26.5215 188.894 26.6693 188.894H32.7682C32.872 188.894 32.9697 188.943 33.0322 189.026C33.0947 189.109 33.1149 189.216 33.0865 189.315L21.5588 229.897C21.1622 231.294 19.8709 232.27 18.4189 232.27ZM26.9194 189.556L15.9153 228.294C15.6901 229.086 15.8459 229.917 16.3421 230.574C16.8385 231.231 17.5955 231.608 18.4187 231.608C19.5765 231.608 20.6058 230.83 20.9222 229.717L32.3303 189.556H26.9194Z" fill="#27292B"/>
<path d="M141.103 231.939C143.05 231.939 144.457 230.077 143.925 228.204L132.853 189.226H126.754L138.281 229.807C138.64 231.068 139.792 231.939 141.103 231.939Z" fill="#27292B"/>
<path d="M141.102 232.27C139.65 232.27 138.359 231.294 137.962 229.897L126.434 189.316C126.406 189.216 126.426 189.109 126.489 189.026C126.551 188.944 126.649 188.895 126.753 188.895H132.852C132.999 188.895 133.13 188.993 133.17 189.135L144.242 228.114C144.524 229.107 144.329 230.15 143.706 230.974C143.084 231.797 142.135 232.27 141.102 232.27ZM127.19 189.556L138.599 229.717C138.915 230.83 139.944 231.608 141.102 231.608C141.925 231.608 142.682 231.231 143.178 230.575C143.675 229.918 143.83 229.086 143.605 228.294L132.601 189.556H127.19Z" fill="#27292B"/>
<path d="M101.665 231.939C103.613 231.939 105.019 230.077 104.487 228.204L93.4151 189.226H87.3164L98.8439 229.807C99.202 231.068 100.354 231.939 101.665 231.939Z" fill="#27292B"/>
<path d="M101.664 232.27C100.212 232.27 98.9214 231.294 98.5246 229.897L86.9969 189.316C86.9687 189.216 86.9887 189.109 87.0512 189.026C87.1137 188.944 87.2114 188.895 87.3152 188.895H93.4141C93.5619 188.895 93.692 188.993 93.7324 189.135L104.805 228.114C105.087 229.107 104.892 230.15 104.269 230.973C103.646 231.797 102.697 232.27 101.664 232.27ZM87.7529 189.556L99.161 229.717C99.4772 230.83 100.507 231.608 101.664 231.608C102.488 231.608 103.245 231.231 103.741 230.574C104.237 229.917 104.393 229.086 104.168 228.294L93.1638 189.556H87.7529Z" fill="#27292B"/>
<path d="M59.9063 177.551L58.6623 180.797L56.6078 186.166L55.4367 189.226H29.5195L29.89 188.254L31.9478 182.884L34.0022 177.512L36.0567 172.142L37.3006 168.897L45.9187 172.195L51.2913 174.253L59.9063 177.551Z" fill="white"/>
<path d="M55.4374 189.557H29.5202C29.4115 189.557 29.3096 189.504 29.2478 189.414C29.1861 189.325 29.1724 189.211 29.2111 189.109L29.5816 188.136L36.9923 168.778C37.0578 168.608 37.2496 168.523 37.4195 168.588L60.0251 177.243C60.1072 177.274 60.1731 177.337 60.2089 177.417C60.2447 177.497 60.2472 177.588 60.2157 177.67L55.7464 189.345C55.6974 189.473 55.5745 189.557 55.4374 189.557ZM30.0002 188.896H55.2098L59.4796 177.742L37.4919 169.324L30.0002 188.896Z" fill="#27292B"/>
<path d="M39.7954 173.904C39.756 173.904 39.716 173.897 39.6771 173.882L32.4451 171.113C32.2744 171.048 32.1891 170.856 32.2544 170.686C32.3195 170.515 32.5117 170.43 32.6816 170.495L39.9137 173.264C40.0843 173.329 40.1697 173.521 40.1043 173.691C40.0539 173.823 39.9284 173.904 39.7954 173.904Z" fill="#27292B"/>
<path d="M37.7405 179.275C37.7011 179.275 37.6611 179.268 37.6222 179.253L30.3904 176.484C30.2197 176.419 30.1344 176.227 30.1997 176.057C30.265 175.886 30.457 175.801 30.6269 175.866L37.8588 178.635C38.0295 178.7 38.1148 178.892 38.0495 179.062C37.999 179.194 37.8735 179.275 37.7405 179.275Z" fill="#27292B"/>
<path d="M35.6841 184.645C35.6446 184.645 35.6046 184.638 35.5658 184.623L28.3337 181.854C28.1631 181.789 28.0777 181.598 28.1431 181.427C28.2084 181.257 28.4004 181.171 28.5703 181.237L35.8024 184.005C35.973 184.071 36.0584 184.262 35.993 184.433C35.9426 184.564 35.817 184.645 35.6841 184.645Z" fill="#27292B"/>
<path d="M62.2778 182.512C62.2384 182.512 62.1984 182.505 62.1595 182.49L54.9275 179.721C54.7568 179.656 54.6715 179.464 54.7368 179.294C54.8021 179.123 54.9937 179.038 55.164 179.103L62.3961 181.872C62.5668 181.937 62.6521 182.129 62.5868 182.299C62.5365 182.431 62.4108 182.512 62.2778 182.512Z" fill="#27292B"/>
<path d="M60.2229 187.882C60.1835 187.882 60.1435 187.875 60.1047 187.86L52.8728 185.091C52.7021 185.026 52.6168 184.835 52.6821 184.664C52.7476 184.493 52.9396 184.408 53.1093 184.474L60.3412 187.242C60.5119 187.308 60.5972 187.499 60.5319 187.67C60.4816 187.801 60.3559 187.882 60.2229 187.882Z" fill="#27292B"/>
<path d="M44.6747 175.772C44.6353 175.772 44.5952 175.765 44.5564 175.75C44.3857 175.685 44.3004 175.493 44.3657 175.323L47.1345 168.091C47.1999 167.92 47.3917 167.835 47.5618 167.9C47.7324 167.966 47.8178 168.157 47.7524 168.327L44.9836 175.56C44.9331 175.691 44.8076 175.772 44.6747 175.772Z" fill="#27292B"/>
<path d="M50.0457 177.828C50.0063 177.828 49.9663 177.821 49.9275 177.806C49.7568 177.741 49.6715 177.55 49.7368 177.379L52.5056 170.147C52.5709 169.976 52.7629 169.891 52.9328 169.956C53.1035 170.022 53.1888 170.213 53.1235 170.384L50.3547 177.616C50.3044 177.747 50.1789 177.828 50.0457 177.828Z" fill="#27292B"/>
<path d="M80.873 132.516L79.6886 135.609L77.6341 140.975L75.5764 146.351L73.5219 151.717L72.2781 154.966L63.6633 151.667L58.2905 149.61L49.6758 146.311L50.9196 143.066L52.9741 137.693L54.9593 132.516H80.873Z" fill="white"/>
<path d="M72.2789 155.297C72.2395 155.297 72.1994 155.29 72.1606 155.275L49.5583 146.62C49.4762 146.589 49.4103 146.526 49.3745 146.446C49.3387 146.366 49.3362 146.275 49.3676 146.193L54.6509 132.397C54.7 132.27 54.8227 132.185 54.9599 132.185H80.8738C80.9825 132.185 81.0845 132.239 81.1464 132.328C81.2083 132.418 81.2218 132.532 81.1827 132.634L72.5878 155.084C72.5375 155.216 72.4118 155.297 72.2789 155.297ZM50.1038 146.121L72.0882 154.538L80.393 132.847H55.1875L50.1038 146.121Z" fill="#27292B"/>
<path d="M54.6566 144.827C54.6171 144.827 54.5771 144.82 54.5383 144.805L47.3064 142.036C47.1357 141.971 47.0504 141.779 47.1157 141.609C47.1812 141.438 47.3732 141.353 47.5429 141.418L54.7748 144.187C54.9455 144.252 55.0308 144.444 54.9655 144.614C54.915 144.746 54.7895 144.827 54.6566 144.827Z" fill="#27292B"/>
<path d="M56.7134 139.456C56.674 139.456 56.6339 139.449 56.5951 139.435L49.363 136.666C49.1924 136.6 49.107 136.409 49.1724 136.239C49.2377 136.068 49.4293 135.983 49.5996 136.048L56.8317 138.817C57.0024 138.882 57.0877 139.073 57.0224 139.244C56.9719 139.376 56.8463 139.456 56.7134 139.456Z" fill="#27292B"/>
<path d="M77.1392 153.434C77.0997 153.434 77.0597 153.427 77.0209 153.412L69.7888 150.644C69.6181 150.578 69.5328 150.387 69.5981 150.216C69.6635 150.046 69.8553 149.96 70.0254 150.026L77.2574 152.794C77.4281 152.86 77.5134 153.051 77.4481 153.222C77.3976 153.353 77.2721 153.434 77.1392 153.434Z" fill="#27292B"/>
<path d="M83.3071 137.323C83.2677 137.323 83.2277 137.316 83.1888 137.301L75.9568 134.532C75.7861 134.467 75.7008 134.275 75.7661 134.105C75.8314 133.934 76.0232 133.849 76.1933 133.914L83.4254 136.683C83.5961 136.748 83.6814 136.94 83.6161 137.11C83.5656 137.242 83.4401 137.323 83.3071 137.323Z" fill="#27292B"/>
<path d="M81.2505 142.693C81.211 142.693 81.1711 142.686 81.1322 142.671L73.9001 139.902C73.7295 139.837 73.6441 139.646 73.7095 139.475C73.7748 139.305 73.9666 139.219 74.1367 139.285L81.3688 142.053C81.5394 142.119 81.6248 142.31 81.5594 142.481C81.5089 142.612 81.3834 142.693 81.2505 142.693Z" fill="#27292B"/>
<path d="M79.1939 148.064C79.1544 148.064 79.1144 148.057 79.0756 148.042L71.8435 145.273C71.6728 145.208 71.5875 145.016 71.6528 144.846C71.7182 144.675 71.91 144.59 72.0801 144.655L79.3122 147.424C79.4828 147.489 79.5682 147.681 79.5028 147.851C79.4524 147.983 79.3268 148.064 79.1939 148.064Z" fill="#27292B"/>
<path d="M56.9091 153.557C56.8696 153.557 56.8296 153.55 56.7908 153.535C56.6201 153.47 56.5348 153.278 56.6001 153.108L59.3689 145.876C59.4342 145.705 59.6262 145.62 59.7961 145.685C59.9668 145.75 60.0521 145.942 59.9868 146.112L57.218 153.344C57.1676 153.476 57.042 153.557 56.9091 153.557Z" fill="#27292B"/>
<path d="M62.2802 155.613C62.2407 155.613 62.2007 155.606 62.1618 155.591C61.9912 155.526 61.9059 155.334 61.9712 155.164L64.7399 147.932C64.8053 147.761 64.9973 147.676 65.1672 147.741C65.3379 147.806 65.4232 147.998 65.3579 148.168L62.5891 155.4C62.5388 155.532 62.4131 155.613 62.2802 155.613Z" fill="#27292B"/>
<path d="M188.239 137.057C188.223 137.057 188.206 137.056 188.19 137.054C188.068 137.036 185.2 136.588 184.011 134.32C183.448 133.246 183.35 131.992 183.736 130.79C184.132 129.558 184.999 128.528 186.117 127.965C188.152 126.939 190.109 125.397 190.129 125.382C190.272 125.268 190.48 125.292 190.593 125.436C190.707 125.579 190.682 125.787 190.539 125.9C190.457 125.965 188.511 127.499 186.415 128.555C185.455 129.039 184.708 129.928 184.366 130.992C184.035 132.024 184.117 133.097 184.597 134.013C185.628 135.979 188.261 136.395 188.287 136.399C188.468 136.426 188.592 136.594 188.565 136.775C188.541 136.939 188.4 137.057 188.239 137.057Z" fill="#27292B"/>
<path d="M222.32 130.965C222.211 130.965 222.105 130.912 222.042 130.814C221.942 130.661 221.986 130.456 222.14 130.357C222.161 130.343 224.265 128.964 225.076 127.073C225.757 125.488 225.093 123.339 222.987 120.312C220.957 117.394 218.803 110.567 218.712 110.278C218.658 110.104 218.755 109.918 218.929 109.863C219.103 109.809 219.289 109.906 219.344 110.08C219.366 110.15 221.558 117.099 223.53 119.934C225.81 123.211 226.475 125.494 225.685 127.334C224.792 129.413 222.593 130.852 222.499 130.912C222.444 130.948 222.381 130.965 222.32 130.965Z" fill="#27292B"/>
<path d="M195.378 100.289C195.378 100.289 190.909 97.2141 185.876 103.587C178.873 112.456 182.953 116.946 182.953 116.946L186.046 117.723C186.046 117.723 184.825 115.03 186.118 112.659C186.971 111.095 187.735 110.465 187.735 110.465C187.735 110.465 186.744 114.231 187.731 116.25C188.81 118.459 188.953 118.136 188.953 118.136L190.541 126.757C190.541 126.757 189.723 128.018 187.93 129.656C186.137 131.294 185.778 133.56 186.879 135.217C187.979 136.873 189.244 137.354 189.244 137.354C189.244 137.354 191.339 136.221 193.23 136.176C195.122 136.131 195.919 136.443 195.919 136.443L195.012 132.687L197.608 136.601L201.405 137.802L210.005 136.728C210.005 136.728 212.863 135.944 214.871 135.116C216.878 134.289 217.172 133.685 217.172 133.685L217.984 128.864L218.756 133.123C218.756 133.123 221.375 132.213 222.96 129.79C224.545 127.368 221.372 122.865 220.527 116.689C219.683 110.513 217.495 104.088 211.37 99.2958C205.245 94.5038 199.613 96.6575 198.02 97.4031C196.427 98.1486 195.378 100.289 195.378 100.289Z" fill="#27292B"/>
<path d="M201.405 138.133C201.371 138.133 201.337 138.127 201.305 138.117L197.508 136.916C197.436 136.893 197.374 136.847 197.332 136.784L195.773 134.435L196.24 136.365C196.268 136.485 196.228 136.611 196.135 136.692C196.043 136.773 195.912 136.796 195.797 136.751C195.792 136.749 195.017 136.464 193.237 136.507C191.45 136.549 189.421 137.634 189.401 137.645C189.316 137.69 189.215 137.697 189.126 137.663C189.07 137.642 187.749 137.125 186.603 135.4C185.39 133.575 185.844 131.113 187.706 129.412C189.15 128.093 189.956 127.015 190.19 126.682L188.664 118.402C188.448 118.242 188.105 117.771 187.433 116.396C186.761 115.021 186.941 112.945 187.158 111.626C186.932 111.935 186.675 112.329 186.408 112.818C185.212 115.011 186.336 117.561 186.347 117.587C186.399 117.703 186.381 117.838 186.299 117.936C186.218 118.033 186.089 118.075 185.965 118.044L182.872 117.267C182.809 117.251 182.751 117.216 182.708 117.168C182.663 117.119 181.608 115.933 181.458 113.614C181.261 110.569 182.66 107.127 185.616 103.383C190.011 97.8173 194.095 99.2615 195.245 99.8366C195.61 99.1935 196.557 97.7225 197.879 97.1038C199.99 96.1152 205.551 94.3245 211.573 99.0356C216.824 103.144 219.773 108.739 220.854 116.644C221.2 119.173 221.937 121.404 222.586 123.372C223.517 126.192 224.251 128.42 223.236 129.972C221.608 132.46 218.976 133.397 218.865 133.435C218.773 133.467 218.673 133.457 218.589 133.408C218.506 133.36 218.448 133.277 218.43 133.182L217.996 130.784L217.498 133.74C217.493 133.771 217.483 133.801 217.469 133.829C217.411 133.949 217.018 134.589 214.997 135.422C212.993 136.248 210.121 137.039 210.092 137.047C210.077 137.051 210.062 137.054 210.046 137.056L201.446 138.13C201.432 138.132 201.418 138.133 201.405 138.133ZM197.818 136.321L201.435 137.465L209.939 136.402C210.212 136.327 212.872 135.582 214.744 134.81C216.29 134.173 216.755 133.685 216.857 133.559L217.657 128.809C217.684 128.65 217.821 128.534 217.981 128.533C217.982 128.533 217.983 128.533 217.983 128.533C218.143 128.533 218.281 128.648 218.309 128.805L219.008 132.661C219.761 132.321 221.523 131.382 222.682 129.61C223.523 128.324 222.832 126.23 221.957 123.58C221.299 121.584 220.553 119.323 220.199 116.734C219.142 109.01 216.272 103.552 211.165 99.557C205.432 95.072 200.16 96.7666 198.159 97.7032C196.689 98.3912 195.685 100.414 195.675 100.434C195.633 100.521 195.555 100.584 195.462 100.609C195.369 100.633 195.27 100.616 195.191 100.562C195.018 100.445 190.902 97.7556 186.135 103.793C179.855 111.746 182.683 116.055 183.139 116.652L185.521 117.251C185.222 116.281 184.835 114.319 185.828 112.501C186.701 110.9 187.49 110.238 187.523 110.211C187.635 110.119 187.791 110.11 187.912 110.187C188.033 110.264 188.091 110.411 188.054 110.55C188.044 110.586 187.106 114.221 188.027 116.105C188.616 117.311 188.895 117.693 188.998 117.809C189.139 117.829 189.251 117.936 189.277 118.077L190.866 126.697C190.881 126.78 190.864 126.866 190.818 126.937C190.784 126.99 189.956 128.253 188.152 129.901C186.511 131.4 186.109 133.463 187.153 135.034C187.977 136.274 188.902 136.82 189.235 136.986C189.757 136.723 191.545 135.885 193.222 135.846C194.281 135.821 195.016 135.906 195.468 135.99L194.69 132.765C194.652 132.609 194.732 132.449 194.879 132.384C195.026 132.32 195.198 132.371 195.287 132.505L197.818 136.321Z" fill="#27292B"/>
<path d="M193.276 106.182C185.335 111.224 187.275 124.242 191.117 128.693C194.064 132.108 197.74 130.642 197.74 130.642C197.74 130.642 199.592 133.842 199.58 135.84C199.568 137.931 198.889 138.437 197.9 139.227C196.728 140.162 193.973 144.416 194.188 147.698C194.446 151.634 197.455 152.956 202.163 150.329C209.436 146.273 213.661 141.074 212.963 140.551C208.98 138.861 207.148 125.754 207.148 125.754C207.148 125.754 208.47 126.024 210.346 124.173C212.223 122.323 212.244 119.16 210.73 117.625C209.216 116.09 207.48 117.464 207.48 117.464C207.48 117.464 206.164 118.05 204.968 117.676C204.968 117.676 202.036 115.46 200.293 110.308C200.293 110.308 200.078 112.181 200.864 114.159L196.721 113.496C195.377 112.639 193.214 108.97 193.276 106.182Z" fill="white"/>
<path d="M197.854 152.028C197.125 152.028 196.471 151.875 195.904 151.566C194.687 150.904 193.979 149.574 193.858 147.72C193.637 144.355 196.413 139.99 197.692 138.969L197.741 138.93C198.674 138.186 199.238 137.736 199.249 135.838C199.259 134.254 197.995 131.799 197.582 131.039C196.633 131.308 193.454 131.909 190.866 128.91C188.682 126.38 186.812 120.64 187.646 114.987C188.064 112.157 189.349 108.283 193.098 105.903C193.201 105.837 193.331 105.834 193.438 105.894C193.544 105.954 193.609 106.067 193.606 106.19C193.548 108.787 195.53 112.281 196.843 113.181L200.364 113.744C199.784 111.927 199.955 110.344 199.964 110.271C199.981 110.117 200.103 109.996 200.257 109.979C200.411 109.964 200.556 110.056 200.606 110.203C202.176 114.845 204.756 117.078 205.123 117.378C206.069 117.645 207.112 117.256 207.312 117.176C208.014 116.643 209.627 116.037 210.965 117.393C211.768 118.207 212.196 119.447 212.14 120.795C212.082 122.169 211.513 123.486 210.578 124.409C209.227 125.742 208.119 126.039 207.532 126.089C207.871 128.24 209.695 138.806 213.092 140.247C213.117 140.257 213.14 140.271 213.161 140.287C213.246 140.35 213.386 140.5 213.367 140.788C213.276 142.132 209.015 146.886 202.323 150.618C200.644 151.555 199.133 152.028 197.854 152.028ZM197.739 130.311C197.854 130.311 197.966 130.371 198.026 130.476C198.104 130.61 199.923 133.778 199.911 135.842C199.897 138.057 199.128 138.67 198.154 139.447L198.105 139.486C196.942 140.414 194.315 144.579 194.518 147.677C194.624 149.293 195.212 150.437 196.22 150.985C197.555 151.711 199.608 151.376 202.001 150.041C208.815 146.239 212.56 141.672 212.703 140.796C208.686 138.843 206.895 126.337 206.819 125.8C206.805 125.693 206.842 125.586 206.92 125.513C206.999 125.439 207.108 125.408 207.213 125.43C207.22 125.43 208.412 125.615 210.113 123.938C210.93 123.132 211.428 121.976 211.478 120.767C211.527 119.602 211.168 118.541 210.494 117.858C209.212 116.557 207.746 117.676 207.684 117.724C207.663 117.741 207.639 117.755 207.614 117.766C207.556 117.792 206.169 118.398 204.869 117.992C204.832 117.981 204.798 117.964 204.768 117.941C204.661 117.859 202.431 116.14 200.698 112.257C200.78 112.8 200.924 113.415 201.171 114.037C201.215 114.147 201.197 114.273 201.122 114.366C201.047 114.459 200.93 114.504 200.812 114.486L196.668 113.823C196.623 113.816 196.58 113.8 196.542 113.775C195.178 112.905 193.183 109.575 192.963 106.792C189.801 109.056 188.679 112.519 188.301 115.084C187.495 120.543 189.279 126.058 191.367 128.477C194.118 131.665 197.477 130.39 197.618 130.335C197.658 130.319 197.699 130.311 197.739 130.311Z" fill="#27292B"/>
<path d="M207.655 121.626C207.643 121.626 207.63 121.626 207.617 121.624C207.436 121.603 207.305 121.439 207.326 121.258C207.334 121.194 207.517 119.702 208.619 118.992C208.958 118.774 209.31 118.704 209.667 118.782C210.355 118.934 210.788 119.603 210.806 119.632C210.904 119.786 210.858 119.99 210.704 120.089C210.549 120.186 210.345 120.141 210.247 119.987C210.189 119.897 209.655 119.112 208.978 119.549C208.136 120.091 207.986 121.321 207.984 121.333C207.964 121.502 207.821 121.626 207.655 121.626Z" fill="#27292B"/>
<path d="M192.994 120.876C192.861 120.876 192.722 120.867 192.578 120.845C191.766 120.725 191.19 120.254 191.037 119.587C190.889 118.941 191.176 118.263 191.767 117.859C192.574 117.308 193.636 117.274 194.142 117.294C194.263 116.827 194.495 115.793 194.474 114.843C194.439 113.288 193.849 112.345 192.615 111.875C191.046 111.277 190.04 112.484 189.998 112.535C189.884 112.677 189.676 112.699 189.534 112.585C189.392 112.471 189.369 112.263 189.482 112.121C189.938 111.552 191.228 110.638 192.851 111.256C194.347 111.827 195.094 112.995 195.135 114.828C195.166 116.206 194.725 117.678 194.706 117.74C194.66 117.894 194.51 117.991 194.349 117.972C194.336 117.971 193.004 117.816 192.14 118.405C191.775 118.655 191.595 119.06 191.682 119.439C191.773 119.837 192.135 120.111 192.676 120.191C193.611 120.33 194.288 119.812 194.294 119.807C194.438 119.694 194.646 119.72 194.758 119.864C194.871 120.008 194.845 120.216 194.701 120.328C194.669 120.353 193.986 120.876 192.994 120.876Z" fill="#27292B"/>
<path d="M203.167 112.468C202.998 112.468 202.854 112.339 202.838 112.167C202.834 112.128 202.709 111.138 201.327 110.498C199.893 109.834 199.143 110.662 199.112 110.698C198.992 110.834 198.784 110.85 198.647 110.731C198.509 110.613 198.492 110.407 198.609 110.268C198.653 110.217 199.701 109.015 201.605 109.898C203.35 110.706 203.492 112.05 203.497 112.107C203.514 112.289 203.38 112.45 203.198 112.467C203.187 112.467 203.177 112.468 203.167 112.468Z" fill="white"/>
<path d="M195.671 123.162C194.527 123.162 193.705 122.454 193.659 122.413C193.522 122.293 193.509 122.083 193.629 121.946C193.75 121.81 193.958 121.796 194.095 121.916C194.144 121.958 195.306 122.945 196.675 122.25C198.301 121.425 198.027 119.994 198.024 119.979C197.987 119.8 198.102 119.625 198.281 119.588C198.46 119.55 198.635 119.666 198.672 119.846C198.809 120.514 198.632 121.999 196.975 122.84C196.514 123.074 196.072 123.162 195.671 123.162Z" fill="#27292B"/>
<path d="M196.362 117.318C196.302 117.318 196.241 117.301 196.186 117.267C196.032 117.17 195.985 116.966 196.082 116.812C196.115 116.758 196.92 115.497 198.376 115.284C198.929 115.204 199.36 115.299 199.658 115.568C199.852 115.744 199.946 115.956 199.99 116.129L200.742 116.176C200.925 116.187 201.064 116.344 201.052 116.526C201.041 116.709 200.881 116.847 200.701 116.836L199.678 116.772C199.498 116.761 199.36 116.608 199.368 116.427C199.368 116.427 199.37 116.196 199.21 116.055C199.029 115.896 198.709 115.904 198.471 115.939C197.323 116.107 196.649 117.153 196.642 117.163C196.579 117.263 196.472 117.318 196.362 117.318Z" fill="#27292B"/>
<path d="M193.205 116.722C193.041 116.722 192.899 116.599 192.877 116.432C192.876 116.421 192.715 115.242 191.88 114.734C191.66 114.6 191.477 114.556 191.34 114.605C191.143 114.674 191.046 114.927 191.045 114.929C191.011 115.023 190.935 115.099 190.84 115.131C190.746 115.163 190.641 115.152 190.556 115.099L189.555 114.467C189.4 114.369 189.354 114.165 189.452 114.011C189.549 113.856 189.753 113.809 189.908 113.907L190.618 114.355C190.727 114.213 190.887 114.065 191.112 113.983C191.449 113.862 191.823 113.924 192.225 114.169C193.336 114.845 193.527 116.289 193.534 116.351C193.557 116.532 193.428 116.697 193.246 116.719C193.232 116.721 193.219 116.722 193.205 116.722Z" fill="#27292B"/>
<path d="M217.107 241.5C217.107 241.5 227.073 240.749 235.355 241.908C239.731 242.52 249.466 246.253 250.931 246.948C251.041 247 251.171 246.969 251.246 246.873L255.961 240.794C256.041 240.691 256.033 240.547 255.942 240.455C254.463 238.957 243.059 227.416 240.987 225.44C238.77 223.326 234.879 223.142 231.184 227.175C226.516 232.27 217.739 229.955 216.275 229.455L217.107 241.5Z" fill="white"/>
<path d="M251.043 247.304C250.958 247.304 250.872 247.286 250.79 247.247C249.504 246.637 239.68 242.847 235.309 242.236C227.157 241.095 217.231 241.822 217.132 241.83C217.043 241.837 216.958 241.808 216.891 241.75C216.824 241.692 216.783 241.61 216.777 241.523L215.946 229.477C215.938 229.367 215.987 229.26 216.075 229.192C216.162 229.125 216.278 229.105 216.383 229.141C219.041 230.051 226.837 231.43 230.941 226.951C233.368 224.302 235.625 223.687 237.091 223.637C238.64 223.585 240.104 224.14 241.216 225.2C243.31 227.198 254.867 238.895 256.178 240.222C256.384 240.431 256.404 240.764 256.223 240.996L251.507 247.076C251.392 247.224 251.22 247.304 251.043 247.304ZM224.536 240.933C227.842 240.933 231.792 241.076 235.401 241.581C239.868 242.205 249.486 245.917 251.02 246.624L255.662 240.641C254.153 239.113 242.825 227.649 240.759 225.679C239.777 224.743 238.483 224.251 237.114 224.299C235.193 224.363 233.227 225.435 231.428 227.398C226.849 232.396 218.678 230.488 216.639 229.91L217.414 241.148C218.337 241.088 221.085 240.933 224.536 240.933Z" fill="#27292B"/>
<path d="M261.184 243.206L239.214 221.305C238.98 221.071 238.528 221.145 238.205 221.469C237.882 221.793 237.81 222.245 238.044 222.479L260.862 245.227C261.508 244.578 261.652 243.674 261.184 243.206Z" fill="#C8D586"/>
<path d="M260.861 245.557C260.776 245.557 260.691 245.525 260.627 245.461L237.809 222.713C237.44 222.345 237.51 221.696 237.969 221.235C238.428 220.775 239.077 220.702 239.447 221.07L261.416 242.972C261.72 243.275 261.844 243.711 261.766 244.2C261.695 244.65 261.456 245.097 261.095 245.46C261.03 245.525 260.945 245.557 260.861 245.557ZM238.854 221.499C238.741 221.499 238.582 221.558 238.438 221.702C238.223 221.917 238.198 222.167 238.276 222.244L260.84 244.739C260.984 244.536 261.078 244.315 261.113 244.096C261.157 243.823 261.098 243.59 260.949 243.441L238.979 221.539C238.954 221.513 238.91 221.499 238.854 221.499Z" fill="#27292B"/>
<path d="M248.956 233.359C248.956 233.359 245.527 236.098 244.1 239.894C242.734 243.529 242.929 244.553 245.719 246.442C248.508 248.331 252.869 249.548 255.394 248.87C258.085 248.147 260.86 245.225 260.86 245.225L248.956 233.359Z" fill="#C8D586"/>
<path d="M253.806 249.384C251.293 249.384 247.942 248.347 245.533 246.716C242.649 244.763 242.356 243.596 243.791 239.778C245.233 235.941 248.607 233.214 248.75 233.1C248.881 232.995 249.071 233.005 249.19 233.124L261.094 244.991C261.221 245.118 261.224 245.323 261.1 245.453C260.984 245.575 258.229 248.45 255.48 249.189C254.99 249.321 254.423 249.384 253.806 249.384ZM248.938 233.808C248.162 234.485 245.578 236.903 244.41 240.011C243.085 243.537 243.295 244.4 245.904 246.168C248.766 248.106 252.986 249.175 255.308 248.55C257.445 247.976 259.684 245.918 260.392 245.226L248.938 233.808Z" fill="#27292B"/>
<path d="M162.319 210.077C162.319 210.077 162.519 221.168 160.48 223.293C157.429 226.471 147.463 229.575 145.887 230.042C145.766 230.077 145.69 230.196 145.705 230.321L146.657 237.944C146.673 238.073 146.781 238.169 146.91 238.17C149.016 238.186 165.24 238.305 168.102 238.241C171.165 238.173 174.455 235.523 173.818 230.091C172.877 222.065 173.898 211.349 173.898 211.349L162.319 210.077Z" fill="white"/>
<path d="M164.83 238.591C159.049 238.591 148.39 238.512 146.909 238.501C146.615 238.499 146.366 238.277 146.33 237.985L145.378 230.362C145.342 230.075 145.517 229.806 145.794 229.724C146.254 229.588 157.082 226.357 160.242 223.063C161.837 221.401 162.044 213.13 161.99 210.083C161.988 209.988 162.027 209.897 162.097 209.832C162.167 209.768 162.26 209.738 162.356 209.748L173.935 211.02C174.115 211.04 174.246 211.2 174.229 211.381C174.218 211.487 173.222 222.154 174.148 230.052C174.537 233.375 173.477 235.386 172.518 236.488C171.399 237.775 169.793 238.534 168.111 238.572C167.516 238.586 166.339 238.591 164.83 238.591ZM146.979 237.84C149.131 237.856 165.264 237.974 168.096 237.911C169.592 237.877 171.022 237.2 172.019 236.054C172.89 235.053 173.852 233.212 173.491 230.129C172.648 222.942 173.382 213.502 173.541 211.643L162.656 210.447C162.671 212.447 162.635 221.527 160.72 223.522C157.527 226.849 147.032 230.045 146.042 230.341L146.979 237.84Z" fill="#27292B"/>
<path d="M141.259 239.922L172.281 239.916C172.612 239.916 172.88 239.545 172.88 239.087C172.88 238.63 172.611 238.259 172.28 238.259L140.061 238.265C140.061 239.18 140.597 239.923 141.259 239.922Z" fill="#C8D586"/>
<path d="M141.258 240.253C140.829 240.253 140.433 240.032 140.143 239.631C139.876 239.262 139.729 238.777 139.729 238.265C139.729 238.177 139.764 238.093 139.825 238.031C139.888 237.969 139.972 237.934 140.06 237.934L172.279 237.928C172.801 237.928 173.21 238.437 173.21 239.088C173.21 239.378 173.125 239.655 172.972 239.868C172.797 240.109 172.545 240.248 172.28 240.248L141.258 240.253H141.258C141.258 240.253 141.258 240.253 141.258 240.253ZM140.418 238.595C140.46 238.841 140.549 239.064 140.679 239.243C140.841 239.468 141.047 239.591 141.258 239.591L172.28 239.586C172.351 239.586 172.412 239.512 172.435 239.48C172.507 239.381 172.548 239.238 172.548 239.087C172.548 238.783 172.389 238.589 172.279 238.589L140.418 238.595Z" fill="#27292B"/>
<path d="M156.868 238.262C156.868 238.262 157.362 233.9 155.691 230.205C154.092 226.667 153.232 226.079 149.922 226.712C146.613 227.344 142.666 229.561 141.357 231.825C139.962 234.237 140.06 238.265 140.06 238.265L156.868 238.262Z" fill="#C8D586"/>
<path d="M140.061 238.596C139.882 238.596 139.735 238.453 139.731 238.273C139.727 238.105 139.647 234.124 141.071 231.659C142.359 229.432 146.302 227.067 149.861 226.387C153.282 225.733 154.314 226.352 155.994 230.069C157.683 233.804 157.219 238.117 157.198 238.299C157.179 238.466 157.038 238.592 156.869 238.593L140.061 238.596ZM151.8 226.819C151.294 226.819 150.703 226.9 149.985 227.037C146.59 227.686 142.849 229.908 141.644 231.99C140.537 233.906 140.405 236.944 140.392 237.934L156.565 237.931C156.637 236.903 156.759 233.367 155.391 230.341C154.199 227.704 153.475 226.819 151.8 226.819Z" fill="#27292B"/>
<path d="M211.893 137.093C211.893 137.093 218 134.579 223.858 145.031C229.716 155.484 235.574 180.294 228.108 185.118C220.642 189.942 206.927 186.841 206.927 186.841L176.994 180.552C176.994 180.552 155.822 173.459 150.43 162.325C144.744 150.585 151.514 147.217 151.514 147.217L156.951 141.004C156.951 141.004 162.045 136.205 166.897 139.002C172.141 142.024 179.981 156.173 179.981 156.173C179.981 156.173 186.413 143.882 191.008 140.896C195.602 137.91 197.139 139.805 197.139 139.805L211.893 137.093Z" fill="#778429"/>
<path d="M216.389 188.169C211.399 188.169 207.166 187.234 206.853 187.164L176.926 180.876C176.913 180.873 176.901 180.87 176.889 180.866C176.835 180.848 171.501 179.048 165.579 175.906C157.596 171.672 152.399 167.151 150.131 162.469C147.141 156.293 147.612 152.41 148.535 150.239C149.458 148.067 150.975 147.135 151.304 146.954L156.702 140.786C156.709 140.778 156.716 140.771 156.724 140.763C156.777 140.714 162.055 135.83 167.062 138.716C171.808 141.45 178.472 152.845 179.972 155.484C181.283 153.052 186.71 143.295 190.827 140.619C194.888 137.979 196.734 139.019 197.244 139.449L211.802 136.773C212.058 136.677 213.592 136.17 215.773 136.825C217.893 137.462 221.066 139.374 224.146 144.869C227.204 150.326 230.081 159.273 231.306 167.134C232.168 172.669 232.922 182.401 228.287 185.396C224.938 187.56 220.417 188.168 216.389 188.169ZM177.081 180.233L206.994 186.517C207.135 186.549 220.666 189.533 227.928 184.84C235.104 180.203 229.473 155.727 223.569 145.193C220.615 139.922 217.623 138.086 215.633 137.474C213.5 136.818 212.032 137.393 212.017 137.399C211.997 137.407 211.974 137.414 211.952 137.418L197.198 140.13C197.078 140.153 196.957 140.107 196.881 140.013C196.87 140.001 195.427 138.418 191.187 141.174C186.718 144.079 180.337 156.204 180.273 156.326C180.217 156.434 180.106 156.502 179.984 156.504C179.863 156.498 179.75 156.439 179.691 156.333C179.613 156.193 171.836 142.23 166.732 139.289C162.254 136.709 157.447 140.998 157.188 141.235L151.762 147.435C151.734 147.468 151.699 147.494 151.66 147.513C151.645 147.521 150.04 148.351 149.125 150.541C147.903 153.468 148.456 157.493 150.727 162.181C155.93 172.925 176.365 179.989 177.081 180.233Z" fill="#27292B"/>
<path d="M228.108 185.118C228.108 185.118 236.876 198.327 232.587 210.119C228.299 221.912 201.192 223.965 201.192 223.965L219.417 226.49C219.417 226.49 221.714 231.107 220.948 235.775C220.183 240.443 217.446 243.965 217.446 243.965C217.446 243.965 181.436 241.821 172.706 239.371C163.977 236.92 164.743 224.515 172.247 216.552C179.751 208.588 189.247 204.147 189.247 204.147L176.688 191.282L176.076 210.732C176.076 210.732 172.945 212.565 168.078 212.261C163.211 211.957 158.311 209.354 158.311 209.354C158.311 209.354 157.545 178.571 158.77 168.769C159.995 158.968 168.227 156.364 178.048 161.724C187.868 167.085 206.927 186.841 206.927 186.841C215.505 188.424 222.85 188.254 228.108 185.118Z" fill="#27292B"/>
<path d="M217.445 244.296C217.439 244.296 217.432 244.296 217.425 244.295C217.065 244.274 181.28 242.121 172.616 239.689C169.488 238.811 167.369 236.67 166.489 233.496C165.038 228.267 167.255 221.366 172.005 216.324C178.579 209.348 186.769 205.014 188.69 204.05L176.994 192.069L176.406 210.742C176.402 210.856 176.34 210.96 176.242 211.017C176.111 211.094 172.97 212.897 168.057 212.591C163.175 212.286 158.357 209.753 158.155 209.646C158.049 209.589 157.982 209.481 157.979 209.362C157.971 209.054 157.227 178.442 158.441 168.728C158.981 164.41 160.872 161.304 163.911 159.748C167.639 157.838 172.715 158.437 178.206 161.434C187.648 166.588 205.775 185.18 207.09 186.534C216.354 188.231 223.174 187.674 227.938 184.834C228.089 184.743 228.285 184.787 228.383 184.934C228.405 184.968 230.617 188.327 232.268 193.088C233.796 197.496 235.146 204.049 232.898 210.232C231.081 215.23 225.183 219.116 215.368 221.783C210.884 223.002 206.565 223.671 203.903 224.006L219.462 226.162C219.57 226.177 219.664 226.245 219.713 226.342C219.809 226.535 222.049 231.109 221.274 235.828C220.504 240.525 217.82 244.021 217.707 244.168C217.643 244.249 217.547 244.296 217.445 244.296ZM176.687 190.951C176.775 190.951 176.861 190.986 176.924 191.051L189.483 203.915C189.557 203.992 189.59 204.1 189.571 204.205C189.552 204.311 189.483 204.4 189.386 204.446C189.292 204.49 179.859 208.955 172.487 216.778C167.961 221.581 165.756 228.383 167.126 233.319C167.942 236.258 169.902 238.24 172.795 239.052C181.076 241.376 214.525 243.456 217.286 243.624C217.785 242.934 219.962 239.739 220.621 235.721C221.284 231.682 219.573 227.628 219.193 226.793L201.146 224.292C200.978 224.269 200.855 224.123 200.861 223.954C200.866 223.785 200.998 223.648 201.166 223.635C201.435 223.614 228.11 221.463 232.276 210.006C236.13 199.407 229.181 187.475 227.998 185.564C223.089 188.36 216.172 188.884 206.865 187.166C206.798 187.154 206.735 187.12 206.687 187.07C206.497 186.873 187.552 167.289 177.888 162.015C172.596 159.126 167.74 158.53 164.212 160.337C161.377 161.789 159.609 164.719 159.097 168.81C157.94 178.068 158.573 206.497 158.636 209.148C159.538 209.601 163.863 211.666 168.098 211.931C172.208 212.188 175.067 210.88 175.75 210.53L176.357 191.272C176.361 191.139 176.444 191.022 176.567 190.974C176.606 190.959 176.647 190.951 176.687 190.951Z" fill="#27292B"/>
<path d="M216.637 229.443C216.622 229.443 216.607 229.441 216.592 229.439L215.893 229.343C215.712 229.317 215.585 229.15 215.61 228.969C215.635 228.788 215.801 228.663 215.983 228.687L216.683 228.784C216.863 228.809 216.99 228.976 216.965 229.157C216.942 229.323 216.8 229.443 216.637 229.443ZM213.233 228.972C213.218 228.972 213.203 228.971 213.187 228.969L210.482 228.595C210.301 228.569 210.175 228.402 210.2 228.221C210.225 228.04 210.39 227.915 210.573 227.939L213.278 228.313C213.459 228.338 213.586 228.505 213.561 228.686C213.538 228.852 213.396 228.972 213.233 228.972ZM207.823 228.224C207.808 228.224 207.792 228.223 207.777 228.22L205.072 227.846C204.891 227.821 204.765 227.654 204.789 227.473C204.814 227.292 204.98 227.167 205.163 227.191L207.868 227.565C208.049 227.59 208.175 227.757 208.15 227.938C208.127 228.104 207.985 228.224 207.823 228.224ZM202.412 227.476C202.397 227.476 202.382 227.475 202.367 227.472L199.661 227.098C199.48 227.073 199.354 226.906 199.379 226.725C199.404 226.544 199.57 226.419 199.752 226.443L202.457 226.817C202.638 226.842 202.765 227.009 202.74 227.19C202.717 227.356 202.575 227.476 202.412 227.476ZM197.002 226.728C196.987 226.728 196.971 226.727 196.956 226.724L194.251 226.35C194.07 226.325 193.944 226.158 193.969 225.977C193.994 225.796 194.159 225.669 194.342 225.695L197.047 226.069C197.228 226.094 197.354 226.261 197.329 226.442C197.306 226.608 197.164 226.728 197.002 226.728ZM192.368 225.895C192.233 225.895 192.106 225.812 192.057 225.678C191.995 225.506 192.083 225.316 192.255 225.254C192.671 225.102 193.561 224.782 194.837 224.342C195.009 224.283 195.198 224.375 195.258 224.547C195.317 224.72 195.225 224.909 195.052 224.968C193.782 225.406 192.896 225.724 192.481 225.875C192.444 225.889 192.406 225.895 192.368 225.895ZM197.533 224.112C197.394 224.112 197.265 224.024 197.219 223.885C197.162 223.712 197.255 223.525 197.429 223.467C198.274 223.187 199.149 222.903 200.03 222.621C200.204 222.565 200.39 222.661 200.446 222.835C200.501 223.009 200.406 223.195 200.231 223.251C199.353 223.532 198.48 223.816 197.637 224.095C197.603 224.107 197.567 224.112 197.533 224.112ZM202.736 222.447C202.595 222.447 202.464 222.356 202.42 222.214C202.366 222.039 202.464 221.854 202.639 221.8C203.493 221.535 204.373 221.268 205.255 221.004C205.429 220.951 205.614 221.051 205.666 221.226C205.719 221.401 205.619 221.585 205.444 221.638C204.565 221.901 203.687 222.168 202.834 222.432C202.802 222.442 202.769 222.447 202.736 222.447ZM207.965 220.863C207.824 220.863 207.693 220.772 207.649 220.629C207.595 220.455 207.693 220.27 207.868 220.216C208.797 219.929 209.647 219.659 210.466 219.39C210.64 219.333 210.827 219.427 210.884 219.601C210.941 219.774 210.846 219.962 210.673 220.019C209.85 220.289 208.996 220.56 208.063 220.848C208.03 220.858 207.997 220.863 207.965 220.863ZM213.155 219.151C213.019 219.151 212.892 219.066 212.843 218.931C212.782 218.759 212.872 218.57 213.044 218.508C213.932 218.191 214.79 217.87 215.593 217.553C215.763 217.485 215.955 217.569 216.022 217.739C216.089 217.909 216.006 218.101 215.835 218.168C215.026 218.488 214.162 218.812 213.266 219.132C213.23 219.145 213.192 219.151 213.155 219.151ZM218.233 217.136C218.106 217.136 217.985 217.062 217.93 216.939C217.856 216.773 217.931 216.577 218.098 216.503C218.959 216.118 219.783 215.724 220.544 215.33C220.706 215.246 220.905 215.309 220.99 215.472C221.074 215.634 221.01 215.833 220.848 215.917C220.075 216.317 219.241 216.717 218.367 217.107C218.323 217.126 218.278 217.136 218.233 217.136ZM223.073 214.609C222.963 214.609 222.855 214.554 222.792 214.453C222.696 214.298 222.743 214.094 222.898 213.998C223.706 213.496 224.449 212.977 225.107 212.457C225.251 212.344 225.459 212.368 225.572 212.511C225.685 212.655 225.661 212.863 225.517 212.976C224.84 213.512 224.076 214.044 223.248 214.559C223.193 214.593 223.133 214.609 223.073 214.609ZM227.313 211.194C227.234 211.194 227.155 211.166 227.092 211.109C226.956 210.987 226.945 210.778 227.068 210.642C227.663 209.982 228.154 209.299 228.527 208.612C228.549 208.572 228.57 208.531 228.592 208.49C228.676 208.327 228.877 208.265 229.038 208.349C229.2 208.433 229.263 208.632 229.179 208.795C229.156 208.84 229.132 208.884 229.108 208.928C228.71 209.661 228.189 210.387 227.559 211.085C227.494 211.157 227.404 211.194 227.313 211.194ZM229.781 206.403C229.759 206.403 229.736 206.4 229.714 206.396C229.535 206.359 229.42 206.184 229.457 206.005C229.625 205.191 229.714 204.299 229.72 203.356C229.721 203.174 229.869 203.027 230.051 203.027C230.052 203.027 230.052 203.027 230.053 203.027C230.236 203.028 230.383 203.178 230.382 203.36C230.375 204.347 230.282 205.282 230.105 206.139C230.073 206.295 229.935 206.403 229.781 206.403ZM229.871 200.965C229.708 200.965 229.565 200.843 229.544 200.677C229.433 199.832 229.267 198.939 229.053 198.023C229.011 197.845 229.121 197.667 229.299 197.625C229.477 197.584 229.655 197.694 229.697 197.872C229.917 198.809 230.086 199.724 230.2 200.59C230.223 200.771 230.096 200.938 229.915 200.961C229.9 200.964 229.885 200.965 229.871 200.965ZM228.645 195.645C228.505 195.645 228.375 195.555 228.33 195.414C228.065 194.578 227.761 193.718 227.427 192.856C227.361 192.685 227.445 192.494 227.616 192.428C227.785 192.362 227.978 192.447 228.044 192.617C228.383 193.491 228.691 194.365 228.961 195.214C229.016 195.388 228.919 195.574 228.745 195.629C228.712 195.64 228.678 195.645 228.645 195.645ZM226.675 190.547C226.549 190.547 226.429 190.475 226.374 190.353C225.698 188.865 225.18 187.929 225.175 187.92C225.087 187.76 225.144 187.559 225.304 187.47C225.465 187.381 225.665 187.44 225.754 187.599C225.775 187.638 226.288 188.566 226.976 190.079C227.052 190.246 226.978 190.442 226.812 190.517C226.767 190.538 226.721 190.547 226.675 190.547Z" fill="white"/>
<path d="M160.912 180.868C160.912 180.868 152.413 176.446 149.771 175.182C147.129 173.919 145.004 173.459 144.142 174.55C143.281 175.642 149.139 178.686 147.933 179.719C146.727 180.753 136.676 178.111 133.977 178.169C131.278 178.226 132.426 179.911 132.426 179.911C132.426 179.911 130.435 180.14 131.565 181.653C130.378 181.736 130.923 183.491 131.928 184.314C134.191 186.166 139.963 188.219 145.901 189.195C151.838 190.172 161.831 188.736 161.831 188.736L160.912 180.868Z" fill="white"/>
<path d="M150.947 189.863C149.136 189.863 147.359 189.77 145.847 189.522C139.895 188.543 134.085 186.507 131.72 184.57C130.984 183.968 130.366 182.792 130.618 182.002C130.695 181.758 130.845 181.574 131.054 181.458C130.865 181.081 130.836 180.736 130.969 180.429C131.154 180.001 131.603 179.784 131.949 179.678C131.85 179.396 131.788 179.012 131.974 178.651C132.24 178.134 132.912 177.861 133.971 177.838C135.083 177.811 137.334 178.222 139.724 178.654C142.666 179.185 147.111 179.988 147.718 179.468C147.763 179.429 147.767 179.404 147.767 179.377C147.766 178.95 146.654 178.005 145.843 177.315C144.461 176.139 143.268 175.125 143.883 174.345C144.788 173.199 146.76 173.375 149.914 174.883C152.53 176.135 160.98 180.53 161.065 180.574C161.163 180.625 161.228 180.72 161.241 180.829L162.16 188.698C162.181 188.876 162.056 189.038 161.878 189.063C161.804 189.074 156.232 189.863 150.947 189.863ZM134.069 178.499C134.04 178.499 134.012 178.499 133.985 178.5C133.211 178.516 132.706 178.677 132.563 178.953C132.401 179.262 132.698 179.721 132.701 179.726C132.765 179.822 132.775 179.944 132.727 180.049C132.679 180.154 132.58 180.226 132.465 180.24C132.275 180.262 131.703 180.395 131.576 180.692C131.481 180.914 131.662 181.229 131.831 181.455C131.903 181.552 131.917 181.681 131.867 181.791C131.816 181.901 131.71 181.974 131.589 181.983C131.345 182 131.28 182.104 131.248 182.202C131.117 182.616 131.477 183.516 132.139 184.058C134.388 185.899 140.198 187.922 145.955 188.869C151.182 189.729 159.714 188.683 161.465 188.452L160.605 181.081C159.436 180.474 152.039 176.634 149.629 175.481C146.875 174.164 145.068 173.914 144.403 174.756C144.183 175.035 145.594 176.235 146.272 176.811C147.428 177.795 148.427 178.644 148.429 179.377C148.429 179.608 148.332 179.814 148.149 179.971C147.36 180.647 144.395 180.171 139.606 179.305C137.313 178.891 135.142 178.499 134.069 178.499Z" fill="#27292B"/>
<path d="M144.229 184.185C144.225 184.185 144.221 184.185 144.216 184.185C144.125 184.181 141.949 184.084 138.219 182.965C134.476 181.842 133.094 180.861 133.037 180.82C132.889 180.713 132.856 180.506 132.963 180.358C133.07 180.21 133.276 180.177 133.425 180.284C133.446 180.299 134.806 181.25 138.409 182.331C142.049 183.423 144.221 183.523 144.242 183.524C144.425 183.531 144.567 183.685 144.56 183.868C144.552 184.045 144.406 184.185 144.229 184.185Z" fill="#27292B"/>
<path d="M143.137 186.77C143.118 186.77 143.097 186.768 143.077 186.764C143.057 186.76 141.078 186.391 139.077 185.779C134.511 184.381 132.323 182.81 132.232 182.743C132.084 182.636 132.052 182.429 132.159 182.282C132.266 182.134 132.473 182.101 132.621 182.208C132.642 182.224 134.823 183.784 139.271 185.146C141.235 185.747 143.178 186.11 143.197 186.113C143.377 186.147 143.496 186.319 143.463 186.499C143.433 186.658 143.294 186.77 143.137 186.77Z" fill="#27292B"/>
<path d="M214.237 143.853C210.793 141.047 201.941 142.849 196.647 151.463C191.352 160.078 186.069 169.841 178.833 170.99C171.596 172.138 168.227 174.665 167.27 176.159C166.313 177.652 165.738 180.552 165.738 180.552V189.535C165.738 189.535 167.002 198.327 176.535 198.212C186.069 198.097 201.729 190.597 208.823 178.461C215.918 166.325 219.78 148.368 214.237 143.853Z" fill="#778429"/>
<path d="M176.352 198.544C171.4 198.544 168.692 196.138 167.288 194.105C165.754 191.883 165.423 189.675 165.41 189.583C165.408 189.567 165.406 189.551 165.406 189.536V180.552C165.406 180.531 165.409 180.509 165.413 180.488C165.437 180.367 166.01 177.508 166.99 175.98C168.179 174.126 171.9 171.755 178.78 170.663C185.215 169.642 190.157 161.503 194.936 153.632C195.413 152.847 195.888 152.064 196.364 151.29C199.287 146.535 203.754 143.234 208.315 142.46C210.805 142.037 213.039 142.452 214.445 143.597C217.125 145.78 217.888 151.022 216.594 158.357C215.412 165.053 212.614 172.631 209.108 178.628C202.233 190.389 186.717 198.42 176.538 198.543C176.476 198.544 176.414 198.544 176.352 198.544ZM166.068 189.51C166.106 189.74 166.471 191.767 167.848 193.75C169.782 196.538 172.701 197.925 176.53 197.882C186.528 197.761 201.775 189.862 208.537 178.294C212.005 172.361 214.774 164.865 215.942 158.242C217.175 151.256 216.477 146.105 214.027 144.11C212.769 143.085 210.728 142.722 208.426 143.113C204.05 143.855 199.752 147.042 196.928 151.637C196.453 152.41 195.978 153.192 195.502 153.976C190.644 161.976 185.622 170.248 178.884 171.317C172.213 172.376 168.608 174.683 167.547 176.338C166.687 177.679 166.133 180.273 166.068 180.586V189.51Z" fill="#27292B"/>
<path d="M212.682 136.897C212.682 136.897 211.164 135.809 210.533 134.333C209.901 132.856 210.36 131.478 209.729 130.903C209.097 130.329 206.086 132.741 203.342 133.43C200.597 134.119 198.739 132.052 197.773 132.626C196.807 133.2 197.898 134.981 197.496 136.417C197.094 137.852 196.614 138.907 196.614 138.907C196.614 138.907 194.107 141.758 198.989 142.59C205.339 143.674 212.682 136.897 212.682 136.897Z" fill="#778429"/>
<path d="M200.425 143.04C199.925 143.04 199.427 143.001 198.932 142.916C197.14 142.611 196.066 141.989 195.74 141.071C195.362 140.002 196.148 138.952 196.33 138.729C196.419 138.526 196.83 137.566 197.176 136.327C197.332 135.772 197.233 135.138 197.137 134.526C197.003 133.668 196.865 132.781 197.603 132.342C198.152 132.015 198.822 132.286 199.599 132.6C200.57 132.992 201.779 133.48 203.26 133.109C204.531 132.79 205.905 132.067 207.01 131.486C208.53 130.686 209.448 130.202 209.95 130.658C210.373 131.043 210.415 131.63 210.463 132.308C210.505 132.884 210.551 133.537 210.836 134.202C211.422 135.573 212.86 136.618 212.874 136.628C212.955 136.686 213.005 136.777 213.012 136.877C213.018 136.976 212.979 137.073 212.906 137.14C212.625 137.4 206.437 143.04 200.425 143.04ZM198.175 132.856C198.084 132.856 198.005 132.872 197.941 132.91C197.604 133.11 197.665 133.615 197.791 134.423C197.893 135.074 198.008 135.812 197.814 136.506C197.409 137.95 196.934 138.999 196.914 139.043C196.901 139.073 196.883 139.1 196.862 139.125C196.854 139.133 196.076 140.041 196.365 140.852C196.603 141.517 197.529 142.006 199.044 142.264C204.465 143.188 210.749 138.126 212.165 136.911C211.664 136.491 210.711 135.592 210.228 134.463C209.899 133.694 209.846 132.952 209.804 132.355C209.764 131.796 209.732 131.354 209.505 131.148C209.271 131.043 208.143 131.637 207.318 132.071C206.183 132.669 204.77 133.412 203.422 133.751C201.733 134.175 200.356 133.619 199.351 133.213C198.884 133.025 198.466 132.856 198.175 132.856Z" fill="#27292B"/>
<path d="M108.288 152.698C108.105 152.698 107.957 152.55 107.957 152.367C107.957 152.184 108.105 152.036 108.287 152.036C108.441 152.035 112.085 151.944 112.77 146.614C113.629 139.942 116.763 136.254 121.595 136.229C123.325 136.221 124.678 136.668 125.652 137.321C127.143 135.672 129.227 134.164 131.247 133.667C136.204 132.446 138.297 128.558 138.317 128.519C138.402 128.357 138.601 128.295 138.764 128.379C138.925 128.464 138.988 128.663 138.903 128.825C138.814 128.996 136.663 133.015 131.405 134.31C129.501 134.778 127.569 136.211 126.185 137.729C127.126 138.552 127.595 139.577 127.625 140.433C127.67 141.734 126.78 142.634 125.359 142.726C123.958 142.817 123.626 142.057 123.554 141.595C123.406 140.635 124.081 139.219 125.207 137.838C124.337 137.274 123.141 136.877 121.598 136.891C115.583 136.921 113.896 143.049 113.427 146.699C112.664 152.623 108.332 152.697 108.288 152.697C108.288 152.698 108.288 152.698 108.288 152.698ZM125.742 138.24C124.71 139.496 124.092 140.743 124.208 141.495C124.235 141.669 124.307 142.131 125.315 142.066C126.38 141.997 126.996 141.395 126.963 140.456C126.939 139.771 126.537 138.932 125.742 138.24Z" fill="#27292B"/>
<path d="M150.675 135.876C150.675 135.876 149.266 129.657 146.931 126.934C144.597 124.211 142.447 122.934 141.74 123.431C141.069 123.903 141.783 125.619 142.99 126.786C144.197 127.953 143.17 128.809 140.935 127.493C138.7 126.177 137.804 124.889 138.693 123.704C139.474 122.663 140.552 123.631 140.996 122.726C141.643 121.409 138.956 120.472 137.685 121.296C135.937 122.43 135.521 124.059 135.843 125.537C136.165 127.015 137.202 127.92 137.202 127.92C137.202 127.92 135.779 127.068 135.149 128.095C134.491 129.168 135.823 130.13 135.823 130.13C135.823 130.13 134.363 129.617 133.751 130.722C133.298 131.539 134.145 132.676 134.145 132.676C134.145 132.676 131.568 133.705 133.38 135.781C135.157 137.814 137.487 138.797 140.536 139.556C143.2 140.219 144.074 140.233 144.074 140.233L150.29 146.018L155.727 139.805L150.675 135.876Z" fill="white"/>
<path d="M150.289 146.349C150.206 146.349 150.125 146.317 150.064 146.26L143.935 140.556C143.599 140.528 142.593 140.408 140.455 139.876C137.843 139.226 135.148 138.307 133.131 135.998C132.524 135.303 132.294 134.625 132.449 133.982C132.626 133.25 133.263 132.778 133.671 132.544C133.418 132.092 133.074 131.259 133.46 130.562C133.811 129.93 134.403 129.712 134.952 129.683C134.638 129.198 134.472 128.565 134.867 127.922C135.204 127.372 135.724 127.227 136.227 127.264C135.949 126.841 135.666 126.281 135.52 125.607C135.119 123.769 135.843 122.097 137.504 121.019C138.5 120.373 140.169 120.666 140.94 121.35C141.427 121.783 141.555 122.337 141.293 122.872C140.988 123.493 140.449 123.494 140.015 123.495C139.595 123.495 139.262 123.496 138.957 123.903C138.723 124.215 138.64 124.527 138.706 124.854C138.846 125.553 139.675 126.367 141.102 127.208C142.395 127.969 143.059 127.863 143.154 127.737C143.2 127.677 143.164 127.414 142.76 127.024C141.764 126.061 141.089 124.754 141.155 123.914C141.187 123.497 141.387 123.274 141.549 123.16C142.497 122.493 144.814 123.957 147.182 126.719C149.393 129.299 150.758 134.791 150.97 135.686L155.93 139.544C156.001 139.6 156.047 139.683 156.056 139.774C156.064 139.865 156.035 139.955 155.975 140.023L150.537 146.236C150.478 146.303 150.395 146.344 150.305 146.348C150.301 146.349 150.295 146.349 150.289 146.349ZM135.067 130.339C134.706 130.339 134.281 130.447 134.039 130.883C133.755 131.396 134.211 132.209 134.411 132.478C134.472 132.561 134.491 132.667 134.463 132.766C134.435 132.865 134.363 132.945 134.268 132.983C134.258 132.987 133.27 133.395 133.092 134.14C132.992 134.561 133.172 135.04 133.629 135.563C135.162 137.318 137.186 138.381 140.615 139.234C143.185 139.874 144.072 139.902 144.08 139.902C144.161 139.904 144.24 139.936 144.299 139.991L150.265 145.543L155.247 139.851L150.471 136.137C150.411 136.09 150.369 136.023 150.352 135.949C150.338 135.887 148.933 129.778 146.68 127.149C144.146 124.194 142.308 123.436 141.93 123.702C141.905 123.719 141.83 123.772 141.815 123.966C141.771 124.525 142.285 125.644 143.22 126.548C144.113 127.412 143.799 127.983 143.681 128.138C143.241 128.716 142.125 128.578 140.767 127.778C139.127 126.813 138.241 125.899 138.057 124.983C137.954 124.468 138.079 123.971 138.428 123.506C138.931 122.835 139.557 122.834 140.014 122.833C140.462 122.832 140.588 122.807 140.699 122.58C140.746 122.484 140.89 122.191 140.501 121.846C139.92 121.33 138.589 121.104 137.864 121.574C135.923 122.833 135.967 124.553 136.166 125.467C136.459 126.813 137.41 127.663 137.419 127.671C137.548 127.784 137.569 127.977 137.468 128.115C137.368 128.253 137.179 128.292 137.031 128.204C136.985 128.177 135.881 127.534 135.431 128.268C134.942 129.065 135.973 129.831 136.017 129.863C136.15 129.96 136.192 130.139 136.115 130.284C136.039 130.43 135.869 130.497 135.713 130.443C135.69 130.434 135.406 130.339 135.067 130.339Z" fill="#27292B"/>
<path d="M141.336 133.007C141.192 133.007 141.059 132.912 141.018 132.767C140.967 132.591 141.069 132.408 141.245 132.358C141.424 132.305 141.912 132.093 142.002 131.757C142.085 131.445 141.802 131.067 141.55 130.804C140.238 129.437 137.904 128.65 137.881 128.642C137.707 128.584 137.614 128.397 137.671 128.224C137.729 128.051 137.915 127.956 138.089 128.014C138.191 128.048 140.601 128.859 142.027 130.346C142.566 130.907 142.772 131.441 142.64 131.931C142.437 132.684 141.53 132.964 141.427 132.994C141.397 133.003 141.366 133.007 141.336 133.007Z" fill="#27292B"/>
<path d="M140.168 135.612C140.013 135.612 139.875 135.502 139.843 135.345C139.808 135.166 139.924 134.992 140.104 134.956C140.298 134.917 140.876 134.732 140.976 134.411C141.041 134.204 140.891 133.897 140.555 133.547C139.245 132.182 136.691 131.368 136.665 131.36C136.491 131.306 136.394 131.12 136.449 130.946C136.504 130.771 136.689 130.674 136.863 130.729C136.975 130.764 139.604 131.6 141.032 133.089C141.559 133.637 141.752 134.15 141.607 134.611C141.371 135.36 140.348 135.582 140.232 135.605C140.21 135.609 140.189 135.612 140.168 135.612Z" fill="#27292B"/>
<path d="M138.519 137.8C138.405 137.8 138.291 137.788 138.18 137.763C137.223 137.544 135.82 136.883 135.761 136.855C135.596 136.777 135.525 136.58 135.603 136.415C135.681 136.249 135.879 136.179 136.044 136.257C136.058 136.264 137.441 136.915 138.327 137.117C138.705 137.203 139.184 137.01 139.331 136.711C139.482 136.403 139.265 135.976 138.734 135.539C137.125 134.212 134.819 133.413 134.796 133.406C134.623 133.346 134.531 133.158 134.59 132.985C134.649 132.813 134.837 132.72 135.01 132.78C135.109 132.813 137.451 133.624 139.155 135.029C140.232 135.917 140.1 136.647 139.925 137.003C139.689 137.483 139.102 137.8 138.519 137.8Z" fill="#27292B"/>
<path d="M140.167 125.649C140.116 125.649 140.064 125.638 140.016 125.613C139.853 125.529 139.789 125.33 139.873 125.167L144.431 116.296C144.515 116.133 144.715 116.069 144.877 116.153C145.04 116.236 145.103 116.435 145.02 116.598L140.461 125.47C140.403 125.584 140.287 125.649 140.167 125.649Z" fill="#27292B"/>
<path d="M165.954 179.62C165.954 179.62 160.787 179.193 159.817 180.298C158.846 181.404 159.459 182.859 159.765 185.462C160.071 188.066 159.076 189.98 159.918 190.823C160.761 191.665 161.862 191.59 163.494 191.513C165.125 191.435 166.657 191.557 166.657 191.557C166.657 191.557 167.652 189.444 167.729 185.233C167.805 181.021 165.954 179.62 165.954 179.62Z" fill="#778429"/>
<path d="M166.656 191.888C166.648 191.888 166.639 191.887 166.63 191.887C166.615 191.885 165.099 191.767 163.509 191.843L163.387 191.849C161.774 191.926 160.608 191.981 159.684 191.057C159.105 190.477 159.211 189.592 159.346 188.471C159.45 187.607 159.568 186.627 159.436 185.501C159.362 184.871 159.268 184.3 159.186 183.798C158.922 182.192 158.731 181.032 159.567 180.08C160.618 178.884 165.435 179.245 165.981 179.29C166.043 179.295 166.103 179.318 166.153 179.356C166.234 179.418 168.138 180.909 168.059 185.239C167.982 189.473 166.997 191.609 166.956 191.698C166.901 191.814 166.784 191.888 166.656 191.888ZM163.834 179.867C162.189 179.867 160.495 180.026 160.065 180.517C159.435 181.234 159.587 182.158 159.839 183.69C159.922 184.2 160.017 184.778 160.093 185.424C160.235 186.628 160.107 187.694 160.003 188.55C159.885 189.529 159.8 190.237 160.152 190.589C160.87 191.307 161.859 191.259 163.356 191.188L163.477 191.182C164.748 191.122 165.943 191.179 166.441 191.21C166.678 190.592 167.337 188.58 167.397 185.227C167.462 181.683 166.134 180.233 165.819 179.941C165.236 179.896 164.539 179.867 163.834 179.867Z" fill="#27292B"/>
<path d="M190.439 203.482C190.311 203.482 190.19 203.408 190.136 203.284C190.062 203.117 190.138 202.922 190.305 202.848L205.69 196.071C205.857 195.998 206.052 196.074 206.126 196.241C206.2 196.408 206.124 196.603 205.956 196.677L190.572 203.454C190.529 203.473 190.483 203.482 190.439 203.482Z" fill="white"/>
<path d="M190.438 161.673C190.357 161.673 190.276 161.644 190.212 161.583C190.122 161.499 188.023 159.467 188.495 155.103C188.963 150.774 192.383 147.778 192.528 147.652C192.667 147.533 192.875 147.548 192.994 147.687C193.114 147.825 193.099 148.034 192.96 148.153C192.927 148.182 189.592 151.109 189.152 155.174C188.718 159.19 190.647 161.084 190.666 161.102C190.798 161.228 190.803 161.438 190.678 161.57C190.613 161.639 190.526 161.673 190.438 161.673Z" fill="#27292B"/>
<path d="M158.798 139.827C158.798 139.827 156.757 139.012 155.507 137.824C154.258 136.637 153.844 135.114 152.885 135.415C151.925 135.716 144.662 142.912 144.562 143.976C144.462 145.04 146.411 145.22 147.539 146.446C148.899 147.925 149.64 149.423 149.64 149.423C153.757 147.737 157.395 143.924 158.798 139.827Z" fill="#778429"/>
<path d="M149.64 149.754C149.517 149.754 149.401 149.686 149.343 149.57C149.336 149.555 148.605 148.093 147.294 146.669C146.849 146.185 146.24 145.866 145.703 145.584C144.907 145.167 144.154 144.772 144.232 143.945C144.349 142.706 151.679 135.446 152.785 135.099C153.619 134.836 154.13 135.545 154.669 136.294C154.964 136.705 155.298 137.17 155.734 137.584C156.922 138.713 158.901 139.512 158.92 139.52C159.084 139.585 159.168 139.767 159.111 139.934C157.667 144.15 153.999 147.995 149.765 149.729C149.724 149.746 149.682 149.754 149.64 149.754ZM153.116 135.709C153.073 135.709 153.029 135.716 152.983 135.73C152.217 135.974 145.057 142.992 144.891 144.009C144.857 144.374 145.273 144.611 146.011 144.999C146.596 145.305 147.258 145.653 147.782 146.222C148.826 147.357 149.508 148.491 149.79 149C153.585 147.346 156.98 143.792 158.382 140.009C157.759 139.733 156.287 139.022 155.279 138.064C154.798 137.607 154.444 137.115 154.132 136.681C153.657 136.021 153.401 135.709 153.116 135.709Z" fill="#27292B"/>
<path d="M108.289 99.037L105.038 88.0133C102.25 77.0323 103.394 66.3202 110.485 58.0104C112.987 55.0793 115.88 52.5265 119.083 50.4738L131.883 42.2701L135.53 57.7275C135.944 59.4813 136.231 61.268 136.392 63.0718C137.532 75.7713 132.708 85.5722 119.163 93.0414L108.289 99.037Z" fill="#C8D586"/>
<path d="M108.29 99.3681C108.247 99.3681 108.204 99.3597 108.164 99.3431C108.071 99.305 108.001 99.227 107.972 99.1308L104.721 88.107C101.666 76.0778 103.574 65.6006 110.234 57.7959C112.788 54.8026 115.706 52.2454 118.904 50.1955L131.705 41.992C131.796 41.9339 131.909 41.9238 132.008 41.9638C132.107 42.0042 132.181 42.0901 132.206 42.1947L135.853 57.6519C136.266 59.4047 136.559 61.2184 136.722 63.0426C137.929 76.4959 132.401 86.1204 119.323 93.3315L108.45 99.3271C108.4 99.354 108.345 99.3681 108.29 99.3681ZM131.669 42.8007L119.261 50.7522C116.117 52.7673 113.249 55.2816 110.737 58.2253C104.222 65.8594 102.363 76.1319 105.359 87.9318L108.49 98.5485L119.003 92.7517C131.823 85.6826 137.244 76.261 136.063 63.1013C135.902 61.3081 135.615 59.5256 135.208 57.8033L131.669 42.8007Z" fill="#27292B"/>
<path d="M109.669 98.6079C109.628 98.6079 109.587 98.6005 109.547 98.5847C109.377 98.5172 109.294 98.3252 109.361 98.1551L128.644 49.4536C128.711 49.2837 128.903 49.2004 129.073 49.2679C129.243 49.3351 129.326 49.5273 129.259 49.6974L109.977 98.3989C109.925 98.5285 109.801 98.6079 109.669 98.6079Z" fill="#27292B"/>
<path d="M121.922 67.659C121.881 67.659 121.839 67.6512 121.8 67.6358C121.713 67.6013 121.645 67.532 121.612 67.4446L117.033 55.2702C116.969 55.0993 117.055 54.9085 117.226 54.8441C117.397 54.7805 117.588 54.8664 117.652 55.0374L122.103 66.8705L133.425 61.3003C133.589 61.2201 133.787 61.2872 133.868 61.4512C133.949 61.615 133.881 61.8133 133.717 61.894L122.068 67.6251C122.022 67.6474 121.972 67.659 121.922 67.659Z" fill="#27292B"/>
<path d="M115.455 83.995C115.414 83.995 115.372 83.9872 115.333 83.9717C115.244 83.9365 115.175 83.8649 115.143 83.7752L109.123 66.8904C109.061 66.7184 109.151 66.5291 109.323 66.4678C109.495 66.4057 109.685 66.4962 109.746 66.6683L115.64 83.1969L131.201 75.1875C131.364 75.104 131.563 75.1677 131.647 75.3301C131.73 75.4924 131.667 75.692 131.504 75.7757L115.606 83.958C115.559 83.9824 115.507 83.995 115.455 83.995Z" fill="#27292B"/>
<path d="M108.287 99.1189L111.876 88.2007C115.821 77.5801 122.85 69.4156 133.407 66.6076C137.131 65.6171 140.962 65.1603 144.764 65.2914L159.959 65.8148L154.176 80.6066C153.52 82.2849 152.741 83.9178 151.849 85.494C145.57 96.5915 136.032 101.915 120.641 100.364L108.287 99.1189Z" fill="#C8D586"/>
<path d="M125.691 100.96C124.062 100.96 122.371 100.871 120.609 100.693L108.255 99.4484C108.155 99.4383 108.065 99.3835 108.011 99.2995C107.956 99.2155 107.942 99.1113 107.974 99.016L111.563 88.0978C115.884 76.4631 123.407 68.9257 133.323 66.2881C137.125 65.2767 140.978 64.8304 144.776 64.9609L159.971 65.4843C160.078 65.4879 160.177 65.5435 160.236 65.6331C160.295 65.7226 160.307 65.8354 160.268 65.9354L154.485 80.7269C153.83 82.4031 153.04 84.0618 152.138 85.6571C146.275 96.0189 137.794 100.96 125.691 100.96ZM108.731 98.8311L120.675 100.035C135.241 101.502 145.055 96.8309 151.562 85.3309C152.449 83.7631 153.225 82.1328 153.869 80.486L159.481 66.1293L144.753 65.6218C141.021 65.4938 137.232 65.9327 133.493 66.9274C123.794 69.5072 116.426 76.9033 112.187 88.3159L108.731 98.8311Z" fill="#27292B"/>
<path d="M109.855 99.6079C109.748 99.6079 109.643 99.5563 109.579 99.4608C109.478 99.3088 109.519 99.1035 109.67 99.002L153.211 69.8844C153.363 69.7825 153.569 69.8236 153.67 69.9752C153.772 70.1272 153.731 70.3326 153.579 70.4341L110.038 99.5519C109.982 99.5896 109.918 99.6079 109.855 99.6079Z" fill="#27292B"/>
<path d="M150.367 83.0079C150.351 83.0079 150.335 83.0066 150.318 83.0043L137.476 81.1007C137.383 81.0871 137.301 81.035 137.249 80.9574C137.197 80.8799 137.181 80.7839 137.203 80.6932L140.353 68.0731C140.397 67.896 140.575 67.7872 140.754 67.8322C140.932 67.8764 141.039 68.0562 140.995 68.2335L137.933 80.4995L150.415 82.3498C150.596 82.3767 150.721 82.5447 150.694 82.7256C150.67 82.8898 150.528 83.0079 150.367 83.0079Z" fill="#27292B"/>
<path d="M140.651 93.1718C140.636 93.1718 140.622 93.1709 140.608 93.169L122.876 90.8682C122.782 90.856 122.697 90.8034 122.644 90.724C122.591 90.6447 122.574 90.5465 122.599 90.4545L127.24 73.1396C127.287 72.9633 127.469 72.8585 127.645 72.9055C127.821 72.9528 127.926 73.1343 127.879 73.3107L123.336 90.2606L140.693 92.5126C140.874 92.5362 141.002 92.7021 140.978 92.8832C140.957 93.0503 140.815 93.1718 140.651 93.1718Z" fill="#27292B"/>
<path d="M25.7343 5.48138L3.03906 13.8895L11.4472 36.5847L34.1424 28.1766L25.7343 5.48138Z" fill="#F38552"/>
<path d="M11.4542 36.9161C11.3197 36.9161 11.1934 36.8335 11.1439 36.7002L2.73544 14.0045C2.70496 13.9222 2.7084 13.8312 2.74516 13.7516C2.78173 13.6718 2.84859 13.6099 2.93068 13.5794L25.6263 5.17112C25.7985 5.10826 25.988 5.1953 26.0515 5.36635L34.4597 28.062C34.5231 28.2332 34.4357 28.4237 34.2645 28.4871L11.5691 36.8954C11.5312 36.9095 11.4923 36.9161 11.4542 36.9161ZM3.47108 14.0849L11.6496 36.1601L33.7247 27.982L25.5463 5.90674L3.47108 14.0849Z" fill="#27292B"/>
<path d="M7.69511 16.7657C7.56063 16.7657 7.43434 16.683 7.38481 16.5497L4.6945 9.28811C4.63107 9.11668 4.71851 8.92621 4.88974 8.86278C5.06156 8.79973 5.25147 8.88698 5.3149 9.05803L8.00519 16.3196C8.06862 16.4908 7.98121 16.6813 7.80997 16.7448C7.77207 16.7589 7.7332 16.7657 7.69511 16.7657Z" fill="#27292B"/>
<path d="M23.8728 10.772C23.7384 10.772 23.6121 10.6893 23.5625 10.556L20.8722 3.29443C20.8088 3.12319 20.8962 2.9327 21.0675 2.86927C21.2393 2.80603 21.4292 2.89346 21.4926 3.06451L24.1829 10.3261C24.2464 10.4973 24.1589 10.6878 23.9877 10.7512C23.95 10.7653 23.9111 10.772 23.8728 10.772Z" fill="#27292B"/>
<path d="M18.4803 12.7699C18.3458 12.7699 18.2195 12.6874 18.17 12.5538L15.4797 5.29244C15.4162 5.12121 15.5037 4.93092 15.6749 4.8673C15.8467 4.80425 16.0366 4.89149 16.1001 5.06254L18.7904 12.3239C18.8538 12.4952 18.7664 12.6855 18.5951 12.7491C18.5572 12.7632 18.5184 12.7699 18.4803 12.7699Z" fill="#27292B"/>
<path d="M13.0877 14.7678C12.9532 14.7678 12.8269 14.6851 12.7774 14.5518L10.0871 7.29019C10.0236 7.11895 10.1111 6.92847 10.2823 6.86504C10.4541 6.80199 10.644 6.88923 10.7075 7.06028L13.3978 14.3219C13.4612 14.4931 13.3738 14.6836 13.2025 14.747C13.1648 14.7611 13.1259 14.7678 13.0877 14.7678Z" fill="#27292B"/>
<path d="M16.0584 39.3394C15.9239 39.3394 15.7976 39.2567 15.7481 39.1234L13.0578 31.8618C12.9944 31.6906 13.0818 31.5001 13.253 31.4367C13.425 31.3738 13.6145 31.4609 13.6782 31.6319L16.3685 38.8935C16.4319 39.0647 16.3445 39.2552 16.1733 39.3187C16.1353 39.3327 16.0965 39.3394 16.0584 39.3394Z" fill="#27292B"/>
<path d="M32.2359 33.3461C32.1015 33.3461 31.9752 33.2634 31.9256 33.1301L29.2355 25.8685C29.1721 25.6973 29.2595 25.5068 29.4308 25.4433C29.6024 25.3805 29.7925 25.4675 29.8559 25.6386L32.546 32.9002C32.6095 33.0714 32.522 33.2619 32.3508 33.3253C32.3129 33.3394 32.274 33.3461 32.2359 33.3461Z" fill="#27292B"/>
<path d="M25.6884 15.6711C25.5539 15.6711 25.4276 15.5884 25.3781 15.4551C25.3147 15.2838 25.4021 15.0934 25.5733 15.0299L32.8347 12.3398C33.0063 12.277 33.1966 12.364 33.26 12.5351C33.3235 12.7063 33.2361 12.8968 33.0648 12.9602L25.8034 15.6503C25.7653 15.6644 25.7265 15.6711 25.6884 15.6711Z" fill="#27292B"/>
<path d="M2.62001 24.2173C2.48553 24.2173 2.35926 24.1346 2.30974 24.0013C2.24631 23.83 2.33372 23.6396 2.50496 23.5761L9.76655 20.886C9.93836 20.8232 10.1281 20.9102 10.1917 21.0813C10.2551 21.2525 10.1677 21.443 9.99628 21.5064L2.73469 24.1965C2.69716 24.2104 2.6581 24.2173 2.62001 24.2173Z" fill="#27292B"/>
<path d="M4.61808 29.6098C4.4836 29.6098 4.35731 29.5271 4.30778 29.3938C4.24435 29.2225 4.33179 29.032 4.50303 28.9686L11.7644 26.2785C11.9359 26.2154 12.1261 26.3027 12.1896 26.4737C12.253 26.645 12.1656 26.8355 11.9943 26.8989L4.73294 29.589C4.69522 29.6031 4.65636 29.6098 4.61808 29.6098Z" fill="#27292B"/>
<path d="M52.366 29.98L32.2363 16.54L18.7964 36.6697L38.9261 50.1097L52.366 29.98Z" fill="#FFCA90"/>
<path d="M38.9206 50.422C38.8575 50.422 38.7937 50.4039 38.7372 50.3662L18.608 36.927C18.4562 36.8257 18.4151 36.6202 18.5168 36.4682L31.956 16.339C32.0573 16.1876 32.2624 16.1459 32.4148 16.2478L52.5439 29.687C52.6957 29.7883 52.7369 29.9938 52.6352 30.1458L39.196 50.275C39.1324 50.3702 39.0276 50.422 38.9206 50.422ZM19.2509 36.5604L38.8295 49.6321L51.9013 30.0534L32.3226 16.9817L19.2509 36.5604Z" fill="#27292B"/>
<path d="M32.8989 22.1117C32.8358 22.1117 32.772 22.0936 32.7155 22.0559C32.5637 21.9545 32.5225 21.749 32.6242 21.597L36.9241 15.1564C37.0256 15.0048 37.2306 14.9634 37.3829 15.0652C37.5347 15.1665 37.5759 15.372 37.4742 15.524L33.1743 21.9646C33.1105 22.0599 33.0059 22.1117 32.8989 22.1117Z" fill="#27292B"/>
<path d="M47.2465 31.691C47.1835 31.691 47.1197 31.6729 47.0631 31.6352C46.9113 31.5338 46.8702 31.3283 46.9719 31.1763L51.2717 24.7361C51.3732 24.5844 51.5784 24.5429 51.7306 24.6446C51.8824 24.746 51.9235 24.9515 51.8218 25.1035L47.522 31.5437C47.4583 31.6392 47.3536 31.691 47.2465 31.691Z" fill="#27292B"/>
<path d="M42.4653 28.4979C42.4023 28.4979 42.3384 28.4798 42.2819 28.4421C42.1301 28.3408 42.0889 28.1352 42.1906 27.9832L46.4903 21.5428C46.5918 21.3912 46.7969 21.3499 46.9491 21.4516C47.1009 21.5529 47.1421 21.7584 47.0404 21.9104L42.7407 28.3509C42.6769 28.4463 42.5722 28.4979 42.4653 28.4979Z" fill="#27292B"/>
<path d="M37.6821 25.3045C37.619 25.3045 37.5553 25.2864 37.4987 25.2487C37.3469 25.1474 37.3057 24.9418 37.4074 24.7898L41.7073 18.3494C41.8088 18.1978 42.0138 18.1563 42.1661 18.2582C42.3179 18.3595 42.3591 18.565 42.2574 18.717L37.9575 25.1575C37.8939 25.2529 37.7891 25.3045 37.6821 25.3045Z" fill="#27292B"/>
<path d="M19.5317 42.1327C19.4687 42.1327 19.4048 42.1146 19.3483 42.0769C19.1965 41.9756 19.1553 41.77 19.257 41.618L23.5569 35.1776C23.6584 35.0262 23.8634 34.9845 24.0157 35.0864C24.1676 35.1877 24.2087 35.3932 24.107 35.5452L19.8071 41.9857C19.7435 42.0811 19.6388 42.1327 19.5317 42.1327Z" fill="#27292B"/>
<path d="M33.8794 51.7123C33.8163 51.7123 33.7525 51.6942 33.6959 51.6565C33.5441 51.5551 33.503 51.3496 33.6047 51.1976L37.9046 44.7572C38.0061 44.6055 38.2112 44.5642 38.3634 44.6659C38.5152 44.7673 38.5564 44.9728 38.4546 45.1248L34.1548 51.5652C34.0912 51.6606 33.9864 51.7123 33.8794 51.7123Z" fill="#27292B"/>
<path d="M29.0981 48.5192C29.0351 48.5192 28.9713 48.5011 28.9147 48.4634C28.7629 48.362 28.7217 48.1565 28.8234 48.0045L33.1233 41.5641C33.2248 41.4126 33.4298 41.3709 33.5822 41.4728C33.734 41.5742 33.7751 41.7797 33.6734 41.9317L29.3736 48.3721C29.3097 48.4676 29.2052 48.5192 29.0981 48.5192Z" fill="#27292B"/>
<path d="M24.3149 45.3262C24.2519 45.3262 24.188 45.3081 24.1315 45.2704C23.9797 45.1691 23.9385 44.9636 24.0402 44.8116L28.3401 38.3709C28.4416 38.2193 28.6466 38.178 28.799 38.2797C28.9508 38.381 28.9919 38.5865 28.8902 38.7386L24.5903 45.1792C24.5265 45.2744 24.4218 45.3262 24.3149 45.3262Z" fill="#27292B"/>
<path d="M50.7868 40.3362C50.7238 40.3362 50.6599 40.3181 50.6034 40.2804L44.1627 35.9805C44.0109 35.8792 43.9698 35.6737 44.0715 35.5217C44.173 35.3701 44.378 35.3287 44.5304 35.4304L50.971 39.7303C51.1228 39.8316 51.164 40.0372 51.0622 40.1892C50.9986 40.2844 50.8939 40.3362 50.7868 40.3362Z" fill="#27292B"/>
<path d="M47.5933 45.1189C47.5302 45.1189 47.4664 45.1008 47.4098 45.0631L40.9694 40.7632C40.8176 40.6619 40.7764 40.4564 40.8781 40.3044C40.9797 40.1528 41.1848 40.1114 41.337 40.213L47.7774 44.5128C47.9292 44.6141 47.9704 44.8197 47.8687 44.9717C47.8048 45.0673 47.7001 45.1189 47.5933 45.1189Z" fill="#27292B"/>
<path d="M30.3278 26.677C30.2648 26.677 30.201 26.6589 30.1444 26.6212L23.7037 22.3214C23.5519 22.2201 23.5108 22.0145 23.6125 21.8625C23.714 21.7109 23.919 21.6694 24.0714 21.7713L30.512 26.0711C30.6638 26.1725 30.705 26.378 30.6032 26.53C30.5394 26.6252 30.4348 26.677 30.3278 26.677Z" fill="#27292B"/>
<path d="M27.1343 31.4594C27.0712 31.4594 27.0074 31.4413 26.9508 31.4036L20.5104 27.104C20.3586 27.0026 20.3174 26.7971 20.4191 26.6451C20.5207 26.4935 20.7258 26.452 20.878 26.5537L27.3184 30.8533C27.4702 30.9547 27.5114 31.1602 27.4097 31.3122C27.3461 31.4078 27.2413 31.4594 27.1343 31.4594Z" fill="#27292B"/>
<path d="M25.1695 205.003H5.53711V243.756H25.1695V205.003Z" fill="#F38552"/>
<path d="M25.17 244.087H5.53788C5.35521 244.087 5.20703 243.938 5.20703 243.756V205.003C5.20703 204.82 5.35521 204.672 5.53788 204.672H25.17C25.3527 204.672 25.5009 204.82 25.5009 205.003V243.756C25.5009 243.938 25.3527 244.087 25.17 244.087ZM5.86875 243.425H24.8392V205.334H5.86875V243.425Z" fill="#27292B"/>
<path d="M65.6315 205.003H25.1719V243.756H65.6315V205.003Z" fill="#FFCA90"/>
<path d="M65.6303 244.087H25.1707C24.988 244.087 24.8398 243.939 24.8398 243.756V205.003C24.8398 204.821 24.988 204.672 25.1707 204.672H65.6303C65.813 204.672 65.9612 204.821 65.9612 205.003V243.756C65.9612 243.939 65.813 244.087 65.6303 244.087ZM25.5016 243.425H65.2994V205.334H25.5016V243.425Z" fill="#27292B"/>
<path d="M25.1699 205.003H65.5057L71.773 214.051H31.4372L25.1699 205.003Z" fill="#FFCA90"/>
<path d="M71.7737 214.382H31.438C31.3296 214.382 31.2278 214.329 31.1659 214.24L24.8987 205.192C24.8286 205.091 24.8206 204.959 24.8777 204.85C24.9347 204.741 25.0476 204.672 25.1706 204.672H65.5064C65.6148 204.672 65.7167 204.726 65.7784 204.815L72.0457 213.863C72.1158 213.964 72.1238 214.096 72.0667 214.205C72.0097 214.314 71.8968 214.382 71.7737 214.382ZM31.6113 213.72H71.1421L65.3329 205.334H25.8021L31.6113 213.72Z" fill="#27292B"/>
<path d="M0.330078 214.051H19.2796L24.8278 205.003H5.53699L0.330078 214.051Z" fill="#FFCA90"/>
<path d="M19.2802 214.382H0.330897C0.2128 214.382 0.103651 214.319 0.0444126 214.217C-0.0146355 214.115 -0.0148403 213.989 0.0440173 213.886L5.25093 204.838C5.31017 204.736 5.4195 204.672 5.53779 204.672H24.8286C24.9484 204.672 25.0587 204.737 25.1174 204.842C25.1759 204.946 25.1734 205.074 25.1107 205.176L19.5623 214.224C19.5021 214.322 19.3952 214.382 19.2802 214.382ZM0.902702 213.72H19.0949L24.2376 205.334H5.72903L0.902702 213.72Z" fill="#27292B"/>
<path d="M20.3457 205.003C20.3457 205.003 25.0831 195.913 39.1672 193.736C53.2513 191.559 55.8121 194.76 58.5007 196.425C61.1895 198.089 69.896 199.882 69.5118 201.674C69.1278 203.467 65.5042 205.003 65.5042 205.003L52.9951 205.259C52.9951 205.259 43.6484 218.191 42.24 218.575C40.8316 218.959 39.6152 205.003 35.646 205.003C31.6769 205.003 20.3457 205.003 20.3457 205.003Z" fill="white"/>
<path d="M42.183 218.914C42.0841 218.914 41.9856 218.887 41.8927 218.833C41.3273 218.506 40.9336 217.092 40.2296 214.41C39.281 210.796 37.8469 205.334 35.6469 205.334H20.3464C20.2308 205.334 20.1235 205.274 20.0635 205.175C20.0037 205.076 19.9995 204.953 20.0531 204.85C20.1026 204.755 21.3007 202.492 24.2594 199.935C26.9788 197.585 31.7642 194.545 39.1172 193.409C51.796 191.45 55.2648 193.826 57.7981 195.561C58.1019 195.769 58.389 195.966 58.6755 196.144C59.6738 196.761 61.6182 197.429 63.4984 198.074C67.6274 199.491 70.1142 200.444 69.8358 201.744C69.4203 203.682 65.7881 205.242 65.6337 205.308C65.595 205.324 65.5535 205.333 65.5112 205.334L53.1669 205.587C51.3922 208.039 43.7475 218.507 42.3273 218.894C42.2797 218.907 42.2314 218.914 42.183 218.914ZM20.9319 204.672H35.6469C38.3574 204.672 39.7504 209.979 40.8696 214.242C41.3051 215.9 41.8441 217.954 42.1954 218.24C43.1626 217.81 48.3045 211.185 52.7278 205.065C52.7884 204.981 52.8854 204.93 52.9892 204.928L65.4337 204.674C66.4382 204.237 68.9095 202.91 69.1891 201.605C69.3645 200.786 65.7053 199.53 63.2837 198.699C61.2807 198.012 59.389 197.363 58.3273 196.706C58.0277 196.52 57.7345 196.32 57.4242 196.107C54.9823 194.435 51.6377 192.144 39.2184 194.063C27.3455 195.898 22.1533 202.779 20.9319 204.672Z" fill="#27292B"/>
<path d="M52.9958 205.259C52.9958 205.259 55.7272 203.211 51.8861 201.247C48.0449 199.284 39.6798 198.516 33.9609 199.369" fill="white"/>
<path d="M52.9968 205.59C52.8964 205.59 52.797 205.545 52.7319 205.458C52.6224 205.312 52.6519 205.105 52.7976 204.995C52.8159 204.981 53.6776 204.312 53.6029 203.467C53.5441 202.802 52.8987 202.136 51.7366 201.542C48.1135 199.69 39.83 198.828 34.0108 199.697C33.829 199.723 33.6616 199.599 33.6345 199.418C33.6075 199.238 33.7323 199.069 33.9128 199.042C39.9487 198.141 48.2488 199.016 52.0374 200.952C53.4349 201.667 54.1835 202.495 54.2624 203.414C54.3665 204.63 53.2429 205.488 53.1949 205.524C53.1355 205.569 53.066 205.59 52.9968 205.59Z" fill="#27292B"/>
<path d="M52.9961 197.065C52.9961 197.065 60.3369 199.626 61.532 201.247C62.727 202.869 61.532 205.084 61.532 205.084" fill="white"/>
<path d="M61.5322 205.415C61.4792 205.415 61.4253 205.403 61.3756 205.376C61.2146 205.289 61.1546 205.088 61.2415 204.928C61.2521 204.907 62.3202 202.874 61.2662 201.444C60.3358 200.181 54.9027 198.08 52.8879 197.377C52.7155 197.317 52.6243 197.128 52.6847 196.956C52.7447 196.783 52.9326 196.692 53.106 196.753C53.4096 196.859 60.5576 199.367 61.7992 201.051C63.1036 202.821 61.8767 205.144 61.824 205.241C61.764 205.352 61.6499 205.415 61.5322 205.415Z" fill="#27292B"/>
<path d="M261.193 68.889C261.193 80.598 251.701 90.0901 239.992 90.0901C237.195 90.0901 234.524 89.5484 232.079 88.5642L225.998 94.0128L227.693 86.1598C222.304 82.3155 218.791 76.0124 218.791 68.8888C218.791 57.1797 228.283 47.6876 239.992 47.6876C251.701 47.688 261.193 57.1799 261.193 68.889Z" fill="white"/>
<path d="M225.999 94.3439C225.942 94.3439 225.885 94.329 225.833 94.2991C225.709 94.2271 225.646 94.0833 225.676 93.9433L227.325 86.3019C221.77 82.2537 218.461 75.7612 218.461 68.8892C218.461 57.0165 228.12 47.3572 239.993 47.3572C251.866 47.3572 261.525 57.0165 261.525 68.8892C261.525 80.7618 251.866 90.4212 239.993 90.4212C237.285 90.4212 234.647 89.9254 232.148 88.9474L226.22 94.2597C226.158 94.3149 226.079 94.3439 225.999 94.3439ZM239.993 48.0189C228.485 48.0189 219.123 57.3811 219.123 68.889C219.123 75.6203 222.398 81.976 227.886 85.8907C227.993 85.9672 228.045 86.1006 228.017 86.2297L226.537 93.0863L231.859 88.3177C231.953 88.2337 232.087 88.2103 232.204 88.2573C234.679 89.2539 237.3 89.7593 239.993 89.7593C251.501 89.7593 260.863 80.3971 260.863 68.8892C260.863 57.3813 251.501 48.0189 239.993 48.0189Z" fill="#27292B"/>
<path d="M237.742 79.352C237.278 79.352 236.835 79.1526 236.528 78.8028L229.781 71.1285C229.192 70.458 229.258 69.4369 229.928 68.8473C230.599 68.258 231.62 68.3235 232.209 68.994L237.641 75.1731L249.773 58.9726C250.308 58.2581 251.321 58.1126 252.035 58.6476C252.75 59.1827 252.895 60.1956 252.36 60.9103L239.036 78.7044C238.744 79.0941 238.292 79.3314 237.805 79.3507C237.784 79.3516 237.763 79.352 237.742 79.352Z" fill="#C8D586"/>
<path d="M237.742 79.6829C237.182 79.6829 236.649 79.4415 236.279 79.0213L229.533 71.347C228.824 70.5407 228.903 69.3079 229.71 68.5988C230.516 67.8904 231.749 67.9696 232.458 68.7755L237.62 74.6485L249.507 58.7743C249.819 58.3579 250.274 58.088 250.789 58.0141C251.305 57.9408 251.817 58.0714 252.233 58.3833C253.092 59.0263 253.268 60.2492 252.625 61.109L239.3 78.9029C238.947 79.3747 238.407 79.6585 237.818 79.6813C237.793 79.6823 237.768 79.6829 237.742 79.6829ZM230.994 68.7765C230.693 68.7765 230.39 68.8818 230.146 69.0959C229.614 69.5639 229.562 70.3778 230.03 70.9102L236.776 78.5844C237.031 78.8741 237.401 79.0381 237.791 79.02C238.181 79.0048 238.537 78.8175 238.771 78.5061L252.095 60.7122C252.52 60.1448 252.404 59.3373 251.837 58.9128C251.562 58.7071 251.224 58.62 250.884 58.6692C250.544 58.7181 250.243 58.8962 250.037 59.1711L237.906 75.3716C237.846 75.4514 237.754 75.5 237.654 75.5038C237.55 75.5082 237.459 75.4664 237.393 75.3916L231.961 69.2127C231.707 68.9241 231.352 68.7765 230.994 68.7765Z" fill="#27292B"/>
</svg>
