<svg width="66" height="55" viewBox="0 0 66 55" fill="none" xmlns="http://www.w3.org/2000/svg">
<path d="M46.4254 4.26772C46.3456 3.90376 46.7367 3.81916 47.0081 4.08893C47.222 4.30283 47.5189 4.43054 47.8366 4.4481C47.8429 3.98358 47.7951 3.5446 47.6721 3.09764C47.1534 3.10083 46.4749 3.33229 45.996 3.20459C45.7598 3.14233 45.822 2.72889 46.0056 2.66344C46.5037 2.48785 47.0943 2.71931 47.5955 2.85659C47.4119 2.36174 47.1358 1.96107 46.7958 1.55881C46.6713 1.65778 46.6266 1.6913 46.443 1.73281C45.9785 1.83816 45.3974 2.26118 44.9489 1.85253C44.6647 1.59233 45.6081 1.51092 45.8476 1.58116C46.0104 1.62905 46.4861 1.53646 46.6617 1.43749C46.3999 1.09589 45.5746 0.597841 45.2474 0.561126C44.1012 0.428634 43.1642 0.747894 42.7236 1.76473C42.7029 1.73281 42.6805 1.70248 42.6534 1.67215C42.5624 1.57158 42.4491 1.48857 42.3294 1.42632C42.0755 1.29702 41.793 1.25392 41.5121 1.29542C40.8895 1.38801 40.4106 1.90361 40.1744 2.45752C39.8711 3.16468 39.895 3.97081 39.9349 4.72426C39.978 5.53358 40.1073 6.33012 40.2302 7.13146C40.3468 7.88811 40.4138 8.64635 40.4154 9.41257C40.4186 10.166 40.3707 10.9179 40.3005 11.6681C40.1584 13.175 39.9222 14.6723 39.7976 16.1808C39.6763 17.6478 39.646 19.1563 39.9764 20.601C40.0163 20.7766 40.0945 20.9442 40.1696 21.107C40.1855 21.1421 40.2462 21.1246 40.243 21.0878C40.2302 20.9123 40.227 20.7335 40.1951 20.5595C40.1632 20.3807 40.1376 20.2003 40.1105 20.0199C40.0594 19.6735 40.0243 19.3239 40.002 18.976C39.9557 18.2576 39.9684 17.5361 40.0115 16.8178C40.1009 15.3619 40.3196 13.9189 40.4824 12.4711C40.6453 11.036 40.7554 9.58337 40.6261 8.14192C40.5559 7.36612 40.4026 6.5999 40.3037 5.8273C40.2063 5.07544 40.1424 4.29805 40.1983 3.5414C40.2462 2.8997 40.4489 2.22766 40.9757 1.81262C41.4099 1.47102 42.0388 1.41994 42.4906 1.76314C42.5289 1.79187 42.5656 1.82539 42.6023 1.85891C42.5688 1.87966 42.5417 1.89882 42.5433 1.90361C41.7116 2.45273 41.014 2.79594 40.7251 3.8032C40.6165 4.18312 40.8001 4.63167 41.022 4.95253C41.1385 4.54707 41.4003 4.07297 41.7164 3.83512C42.1155 3.53342 43.0333 3.82874 42.5161 4.24697C42.074 4.60454 41.544 4.73703 41.2471 5.21751C41.5264 5.61818 42.5401 6.04279 42.8306 6.13538C43.0748 6.2136 43.1099 5.33085 43.351 5.13451C43.592 4.93816 44.3423 3.76967 44.5434 4.21983C44.7445 4.66998 44.0773 5.31169 43.6623 5.48888C43.3494 5.62138 43.2057 5.9119 43.1068 6.2136C43.4212 6.2966 43.7469 6.34769 44.0693 6.38121C44.3135 6.40675 44.5482 6.44027 44.7876 6.47379C44.9313 6.18486 45.075 5.90392 45.2298 5.62137C45.4453 5.22868 46.1397 5.66288 45.8428 5.88636C45.5459 6.10824 45.1963 6.16092 45.0111 6.51689C46.1301 6.79625 47.198 7.49701 47.6083 6.03481C47.7264 5.6102 47.736 5.29414 47.8014 4.8807C47.1709 4.83919 46.5978 5.0483 46.4254 4.26772ZM43.8251 3.38178C43.7852 3.6292 43.3254 3.78404 43.2855 3.62441C43.2456 3.46478 43.8937 2.95876 43.8251 3.38178Z" fill="#507E56"/>
<path d="M42.2496 5.1409C41.9942 4.51356 41.4499 3.95646 40.7587 3.83833C40.4139 3.77927 40.0739 3.84312 39.7674 4.01073C39.4466 4.18472 39.1832 4.44652 38.9278 4.70352C38.666 4.96691 38.4026 5.23189 38.1408 5.49688C38.1041 5.48091 38.0674 5.46655 38.0274 5.45058C38.0274 5.45058 36.685 3.58452 34.9578 4.1975C34.4677 4.37149 33.9904 4.80888 33.5578 5.38354C33.8132 5.4889 34.2602 5.64214 34.5539 5.5735C34.9849 5.47293 35.8565 5.5735 35.6458 5.92788C35.3153 6.48498 34.4262 5.90233 33.8675 5.75069C33.6472 5.69162 33.5211 5.60702 33.4509 5.52721C33.1284 5.97576 32.8331 6.49775 32.5745 7.04209C33.2577 6.9495 34.0255 6.6925 34.6832 6.96547C34.9259 7.06603 35.0839 7.64548 34.8381 7.69976C34.3432 7.8083 32.9433 7.32622 32.4548 7.2959C32.2441 7.75882 32.0621 8.23292 31.9152 8.68627C32.4101 8.80439 32.7804 8.76129 33.1811 8.56176C33.6887 8.30795 34.257 8.49311 34.0176 8.95285C33.5036 9.93935 32.442 9.28009 31.7891 9.14281C31.596 9.75738 31.5417 10.0335 31.497 10.4773C31.347 12.0066 32.9465 12.1933 35.5324 11.9603C35.3281 11.5372 34.6784 11.2052 34.2969 11.0153C33.8899 10.8109 35.2866 10.1293 35.4399 10.787C35.55 11.2611 35.807 11.6362 35.8932 11.9267C36.246 11.89 36.6179 11.8485 37.0042 11.8006C37.515 11.7384 37.978 11.6282 38.3946 11.4798C38.3148 11.1893 38.1009 10.68 37.7018 10.5843C37.1718 10.4581 36.4535 9.57221 36.7329 8.95285C37.0122 8.33189 37.4943 9.64883 38.1041 10.0623C38.7123 10.4741 38.6372 10.8125 38.6692 11.376C38.6692 11.376 38.6692 11.376 38.6692 11.3776C39.6764 10.9658 40.3852 10.34 40.813 9.69832C40.4969 9.29924 39.6174 9.00074 39.0938 8.75172C38.484 8.46119 39.1959 7.52576 39.9302 7.95516C40.5129 8.29517 40.88 8.91613 41.0397 9.30243C41.3429 8.69105 41.3924 8.10043 41.2089 7.70455C40.7204 6.65578 40.473 6.45306 38.318 5.5735C38.3914 5.50167 38.4648 5.43143 38.5383 5.3596C38.824 5.07865 39.1017 4.78333 39.405 4.51835C39.67 4.28689 39.9813 4.07458 40.3405 4.03627C41.0061 3.96284 41.6175 4.44971 41.9128 5.00841C42.2768 5.69162 42.2656 6.50892 42.2337 7.26078C42.1618 8.94327 41.9368 10.613 41.6718 12.2747C41.4084 13.9269 41.1051 15.5727 40.88 17.2296C40.7667 18.0597 40.6725 18.893 40.6118 19.7294C40.5512 20.5563 40.5145 21.3911 40.5544 22.2196C40.564 22.4271 40.6023 22.6219 40.6549 22.8214C40.6661 22.8629 40.738 22.8677 40.7443 22.8214C40.7779 22.6139 40.8002 22.4128 40.8002 22.2021C40.8002 21.9882 40.8002 21.7743 40.8018 21.5604C40.8034 21.1325 40.8178 20.7063 40.8401 20.2801C40.8864 19.4261 40.971 18.5753 41.0796 17.7261C41.2967 16.0196 41.6047 14.326 41.8777 12.6275C42.1507 10.9323 42.3949 9.22741 42.4763 7.5098C42.521 6.71964 42.5529 5.88637 42.2496 5.1409ZM37.5262 7.84023C37.2724 7.09636 38.1615 7.9823 38.1871 8.04775C38.2126 8.1148 37.6747 8.27442 37.5262 7.84023Z" fill="#38874D"/>
<path d="M51.0839 10.6082C50.9737 10.696 50.6688 10.9052 50.3608 11.4192C49.992 12.0321 48.2728 11.3697 49.2114 11.1989C49.9154 11.0712 50.5539 10.6178 50.8923 10.2571C50.4406 9.51479 49.7797 8.97524 49.0949 8.57297C49.1875 9.00716 49.2833 9.62014 49.13 9.80212C48.8826 10.0958 48.4644 9.8995 48.8108 9.43497C49.0933 9.05346 48.9289 8.76932 48.7517 8.38142H48.7501C48.5793 8.29203 48.4117 8.21062 48.2441 8.13559C46.9638 7.55933 46.7164 8.84435 45.8241 9.39028C45.6134 9.09018 45.2814 8.87787 44.9334 8.75814C44.4289 8.58574 43.8814 8.61767 43.3945 8.82679C42.2484 9.31685 41.653 10.5045 41.3736 11.6506C41.2108 12.3227 41.115 13.0139 41.0256 13.6987C40.9315 14.4202 40.858 15.1449 40.8054 15.8696C40.7 17.3111 40.6713 18.7557 40.6936 20.2004C40.7048 20.9235 40.7287 21.6466 40.7622 22.3681C40.7798 22.7321 40.799 23.096 40.8197 23.46C40.8293 23.6292 40.8261 23.8064 40.8548 23.974C40.874 24.0905 40.9442 24.231 41.0544 24.2853C41.1565 24.3348 41.2763 24.314 41.3321 24.2086C41.3688 24.1368 41.2922 24.0458 41.2156 24.0921C41.2044 24.0762 41.1901 24.0602 41.1789 24.0442C41.1517 24.0059 41.1326 23.9628 41.1262 23.9165C41.0991 23.7521 41.1039 23.5749 41.0943 23.4073C41.0735 23.0673 41.056 22.7273 41.04 22.3889C41.0081 21.7152 40.9841 21.0416 40.9714 20.3664C40.9458 19.0127 40.965 17.6591 41.048 16.307C41.1294 14.9661 41.2651 13.6205 41.5077 12.2987C41.712 11.1861 42.0856 9.99048 43.0577 9.30568C43.4712 9.01355 43.9564 8.84754 44.4672 8.88425C44.9334 8.91777 45.3707 9.1221 45.6852 9.4669C45.5495 9.53235 45.3979 9.58183 45.2287 9.60577C42.9875 9.91865 42.2995 11.3824 42.59 12.7281C43.2253 12.6212 43.3738 11.5421 43.9149 11.5916C44.4561 11.641 44.6045 12.278 43.9149 12.4488C43.3355 12.594 42.8821 12.8415 42.6794 13.049C42.9859 13.9637 43.7393 14.7698 44.7482 15.0491C45.0722 14.8017 44.8264 14.3851 45.1217 13.9205C45.417 13.4544 46.1242 12.9899 46.2136 13.5534C46.303 14.1185 45.3979 14.2398 45.3101 15.1465C45.9199 15.1896 46.5169 15.2423 47.0868 15.3045C47.2783 15.0858 47.6758 14.5431 47.6566 14.2159C47.6311 13.8232 47.9519 12.8638 48.0749 13.2948C48.1978 13.7242 47.7556 14.3627 47.7061 14.6564C47.6774 14.8209 47.6614 15.1258 47.6343 15.37C48.608 15.4945 49.486 15.6573 50.1915 15.8824C51.4255 16.2735 51.3473 15.2694 51.4702 12.6707C51.5085 11.8597 51.3568 11.1797 51.0839 10.6082ZM45.4841 12.3977C45.0355 12.7872 44.927 12.2828 45.3676 11.9763C45.8353 11.649 45.9342 12.0082 45.4841 12.3977ZM46.5089 12.3977C46.1976 12.5908 46.1162 11.9443 46.6957 11.8486C47.066 11.7879 46.8202 12.2029 46.5089 12.3977ZM49.7765 12.9883C49.462 12.7441 50.166 12.5222 50.5842 12.7185C51.0009 12.9133 50.2793 13.3794 49.7765 12.9883Z" fill="#315A2B"/>
<path d="M43.3076 25.3915C42.5063 25.9135 38.5938 25.6916 37.8547 25.2686L36.7197 15.5823H44.5623L43.3076 25.3915Z" fill="#CEAA96"/>
<path d="M44.6629 18.4381H36.6191V18.7031H44.6629V18.4381Z" fill="#3A362D"/>
<path d="M36.8666 18.4381H36.6191V25.4075H36.8666V18.4381Z" fill="#3A362D"/>
<path d="M44.6615 18.4381H44.4141V25.4075H44.6615V18.4381Z" fill="#3A362D"/>
<path d="M14.1614 49.5753C20.3965 45.7043 23.8062 44.5629 27.5798 42.7336C30.8251 41.1596 56.5206 42.9826 55.2516 45.2047C53.3328 48.5649 49.6406 52.0208 46.0761 53.6299C42.8005 55.108 9.45395 52.4981 14.1614 49.5753Z" fill="#CEAA96"/>
<path d="M19.6476 48.5569C24.5402 45.8831 27.2156 45.0945 30.1767 43.8302C32.7244 42.7432 52.8855 44.0026 51.8894 45.5367C50.3825 47.8577 47.4869 50.2441 44.6886 51.3567C42.1201 52.3784 15.9537 50.5746 19.6476 48.5569Z" fill="#1F7173"/>
<path d="M24.0309 47.6932C27.8046 45.8974 29.867 45.369 32.1513 44.5198C34.1163 43.7903 49.6658 44.6348 48.898 45.666C47.7359 47.2239 45.5027 48.8266 43.3445 49.5737C41.3619 50.2585 21.1816 49.0485 24.0309 47.6932Z" fill="#E4A46D"/>
<path d="M13.9776 50.158C14.0686 50.083 13.9521 49.9616 13.8419 50.0127C13.802 50.0303 13.7621 50.0478 13.7222 50.0654C13.7302 49.9984 13.6743 49.9201 13.5801 49.9265C13.4317 49.9361 13.2832 49.9393 13.1363 49.9377C12.9735 49.8802 12.7995 49.8483 12.6319 49.8627C12.5936 49.8627 12.5633 49.877 12.5393 49.8962C12.4787 49.8882 12.418 49.8818 12.359 49.8723C12.2009 49.8451 12.0716 50.0431 12.2408 50.1037C12.2536 50.1085 12.2664 50.1117 12.2775 50.1165C12.2791 50.1165 12.2807 50.1165 12.2823 50.1165C12.4739 50.1835 12.6686 50.2394 12.8666 50.2825C12.7085 50.332 12.5505 50.3815 12.3925 50.431C12.1051 50.5204 11.7971 50.597 11.5305 50.7231C11.4858 50.7438 11.5065 50.7997 11.556 50.8013L11.6023 50.8029C11.6215 50.8029 11.631 50.7965 11.6374 50.7853C11.8817 50.739 12.1227 50.6608 12.359 50.5874C12.1786 50.6768 11.9982 50.7662 11.8178 50.8556C11.6917 50.9178 11.8018 51.0631 11.9311 51.0152C12.2073 50.913 12.4803 50.8045 12.75 50.6943C12.6176 50.846 12.4994 51.0056 12.4021 51.1764C12.3398 51.285 12.4978 51.4015 12.6112 51.3089C12.8235 51.1333 13.0326 50.9561 13.2417 50.7774C13.2353 50.8141 13.2289 50.8492 13.2225 50.8859C13.1491 51.1748 13.0741 51.4638 13.0023 51.7527C12.9655 51.8995 13.2321 51.9634 13.2768 51.8149C13.3359 51.6202 13.3838 51.4254 13.4269 51.2275C13.4939 50.9689 13.5594 50.7103 13.6264 50.4517C13.7429 50.3559 13.8595 50.257 13.9776 50.158Z" fill="#E4A46D"/>
<path d="M57.6038 44.638C56.8567 44.6939 56.1113 44.7498 55.3642 44.8073C55.3866 44.7977 55.4073 44.7881 55.4297 44.7785C56.1177 44.6157 56.7658 44.3571 57.4123 44.1049C57.5144 44.065 57.4426 43.9293 57.3356 43.9548C56.8887 44.065 56.4465 44.2023 56.0155 44.3491C55.5861 44.4944 55.1679 44.6588 54.772 44.8615C54.6778 44.9094 54.7081 45.0531 54.8327 45.0451C54.8614 45.0435 54.8901 45.0403 54.9173 45.0387C54.8566 45.101 54.8901 45.2175 55.0162 45.2207C55.0881 45.2223 55.1583 45.2239 55.2301 45.2271C55.2349 45.2622 55.2525 45.2957 55.2908 45.3165C55.4121 45.3851 55.535 45.4506 55.6595 45.5128C55.5606 45.5096 55.46 45.508 55.3578 45.5144C55.3195 45.516 55.3147 45.5559 55.3498 45.5671C55.8287 45.7203 56.3172 45.8496 56.7961 46.0045C56.8711 46.0284 56.9589 45.9773 56.9797 45.9183C57.0004 45.8592 56.9637 45.8113 56.9094 45.7826L56.911 45.7794C56.8951 45.773 56.8791 45.7682 56.8631 45.7634C56.7147 45.714 56.5678 45.6565 56.4242 45.5958C56.7642 45.6389 57.1058 45.6293 57.4282 45.516C57.5416 45.4761 57.5687 45.334 57.4282 45.3021C57.1137 45.2303 56.7993 45.1712 56.4816 45.1233C56.8871 45.0659 57.2861 44.9749 57.6677 44.8296C57.7778 44.7881 57.7251 44.6285 57.6038 44.638ZM56.0554 45.2845C56.2789 45.3085 56.5008 45.3404 56.7195 45.3803C56.4976 45.3723 56.2741 45.3356 56.0554 45.2845Z" fill="#E4A46D"/>
<path d="M28.7843 42.657C28.754 42.6299 28.7268 42.6011 28.6997 42.5708C28.7205 42.5612 28.7348 42.5405 28.7109 42.5245C28.6837 42.5069 28.6566 42.4926 28.6295 42.475C28.5768 42.3936 28.5369 42.3042 28.5129 42.2132C28.505 42.1334 28.497 42.0536 28.4906 41.9738C28.4778 41.8349 28.2416 41.8333 28.2288 41.9738C28.2208 42.0616 28.2304 42.151 28.2543 42.2356C28.2559 42.2499 28.2575 42.2659 28.2591 42.2803C28.1825 42.2468 28.1043 42.218 28.0245 42.1909C27.8521 42.044 27.6733 41.9036 27.4881 41.7695C27.3604 41.6769 27.1992 41.8142 27.3045 41.9211C27.3461 41.9626 27.3907 42.0009 27.4338 42.0408C27.1944 41.9977 26.9502 41.9722 26.7091 41.9674C26.591 41.9642 26.5623 42.1191 26.6804 42.1414C27.097 42.2164 27.5025 42.3234 27.8952 42.4591C27.3876 42.4383 26.8783 42.4798 26.3819 42.5868C26.243 42.6171 26.2829 42.7751 26.4138 42.7847C27.0236 42.8278 27.6366 42.7991 28.2384 42.7129C28.2719 42.7464 28.307 42.7783 28.3405 42.8102C28.4108 42.8821 28.572 42.8246 28.564 42.7336C28.5624 42.7224 28.5624 42.7129 28.5608 42.7017C28.5896 42.6985 28.6135 42.6857 28.6327 42.6698C28.6662 42.6857 28.6997 42.7017 28.7332 42.7161C28.7763 42.7288 28.8194 42.6873 28.7843 42.657Z" fill="#E4A46D"/>
<path d="M47.6868 54.2174C47.0116 54.0226 46.3284 53.8726 45.6212 53.7816C45.6037 53.78 45.5925 53.7848 45.5829 53.7928C45.5223 53.7465 45.4632 53.697 45.4057 53.6459C45.3084 53.5581 45.1695 53.6539 45.187 53.7513C45.1886 53.7624 45.1918 53.7752 45.195 53.7864C45.1535 53.7848 45.1168 53.7991 45.0913 53.8231C45.0498 53.8071 45.0035 53.8119 44.9651 53.8311C44.9572 53.8263 44.9508 53.8215 44.9428 53.8167C44.8821 53.788 44.8135 53.8087 44.7752 53.8534C44.7353 53.9013 44.6938 53.946 44.6523 53.9923C44.6235 54.0242 44.6714 54.0721 44.7145 54.0593C44.748 54.0498 44.78 54.0402 44.8135 54.0306C44.8406 54.0881 44.8598 54.1439 44.863 54.2126C44.8662 54.302 44.8582 54.3914 44.871 54.4808C44.8981 54.6643 44.9907 54.8288 45.2094 54.8958C45.3163 54.9293 45.4009 54.8319 45.3818 54.7537C45.3674 54.6963 45.353 54.6388 45.3387 54.5797C45.4249 54.7011 45.5111 54.8224 45.5989 54.9437C45.6915 55.0714 45.9022 54.9597 45.8351 54.8304C45.7266 54.6212 45.6404 54.4073 45.5701 54.1886C45.6915 54.2301 45.8176 54.2637 45.9453 54.2924C46.2629 54.4568 46.6093 54.5797 46.9781 54.6516C47.0882 54.6739 47.1968 54.551 47.0978 54.4824C46.8903 54.3387 46.646 54.2557 46.3922 54.1902C46.8041 54.2621 47.2159 54.3323 47.6278 54.4025C47.773 54.4313 47.8305 54.2589 47.6868 54.2174Z" fill="#E4A46D"/>
<path d="M3.61512 32.4248H2.8457V38.3902H3.61512V32.4248Z" fill="#AD6948"/>
<path d="M45.1522 31.5916H44.3828V37.5569H45.1522V31.5916Z" fill="#AD6948"/>
<path d="M5.28019 43.2509C5.28019 43.2509 4.73106 46.7116 5.28019 47.2464C5.82931 47.7812 7.47828 42.8087 7.47828 42.8087L5.28019 43.2509Z" fill="#AD6948"/>
<path d="M44.1385 42.6985C44.1385 42.6985 44.6877 46.1593 44.1385 46.694C43.5894 47.2288 41.9404 42.2563 41.9404 42.2563L44.1385 42.6985Z" fill="#AD6948"/>
<path d="M46.1418 37.2855H2.07617V43.693H46.1418V37.2855Z" fill="#FAE8DA"/>
<path d="M46.9095 31.1541H1.30664V32.4231H46.9095V31.1541Z" fill="#FAE8DA"/>
<path d="M24.2042 37.2855H24.1084V43.693H24.2042V37.2855Z" fill="#3A362D"/>
<path d="M13.4656 40.2897H9.22266V41.1836H13.4656V40.2897Z" fill="#3A362D"/>
<path d="M37.7234 40.4893H33.4805V41.3832H37.7234V40.4893Z" fill="#3A362D"/>
<path d="M11.8624 2.23886C11.2382 2.42403 10.7465 2.98273 10.3507 3.47758C9.92445 4.00914 9.57806 4.59817 9.29392 5.21594C8.68413 6.54086 8.33934 7.97114 8.06797 9.39663C7.40231 12.8877 7.26184 16.4554 7.364 20.0008C7.42147 22.0201 7.52044 24.057 7.76786 26.0619C7.77904 26.1513 7.91472 26.1577 7.91153 26.0619C7.85087 24.3108 7.70561 22.5644 7.64495 20.8133C7.58429 19.0781 7.57471 17.3398 7.65293 15.6046C7.73115 13.8471 7.89716 12.0896 8.18769 10.3544C8.21802 10.1676 8.25154 9.98247 8.28506 9.7957C8.51333 9.46846 8.6969 9.1077 8.94114 8.79323C9.07523 8.62083 9.23326 8.47397 9.42641 8.36861C9.63552 8.25528 10.1064 8.0302 10.1463 7.99828C10.3395 7.84823 10.0601 7.85461 9.95957 7.88015C9.49026 7.99987 9.07363 8.21857 8.7831 8.60646C8.64103 8.79642 8.52929 9.00554 8.41596 9.21465C8.40478 9.2354 8.39361 9.25615 8.38244 9.2769C8.46864 8.83792 8.56122 8.39894 8.67136 7.96475C8.72404 7.87696 8.77672 7.78757 8.83259 7.70137C8.98104 7.47629 9.15344 7.27037 9.34181 7.07722C9.52538 6.89045 9.89891 6.55203 10.2661 6.37804C10.4049 6.31259 10.646 6.2679 10.6971 6.20724C10.9173 5.94545 10.1607 6.04601 9.89253 6.27588C9.66905 6.46743 9.42003 6.63983 9.2173 6.85214C9.09438 6.97984 8.97306 7.12351 8.85813 7.27516C8.93954 6.99581 9.02734 6.71805 9.12471 6.44349C9.20772 6.31578 9.29073 6.18648 9.38171 6.06357C9.54773 5.83849 9.72492 5.6214 9.92126 5.42346C10.1016 5.24308 10.2964 5.08026 10.5087 4.93978C10.6156 4.86955 10.7274 4.8041 10.8423 4.74663C10.8982 4.71949 11.3052 4.52155 11.3356 4.44972C11.3962 4.30765 11.1137 4.35554 10.9956 4.40343C10.8551 4.46089 10.7178 4.52634 10.5869 4.60296C10.3299 4.75301 10.0921 4.93978 9.87976 5.1489C9.71853 5.30693 9.57008 5.47773 9.43439 5.65971C9.68661 5.08185 9.9883 4.52315 10.357 4.01393C10.5821 3.70265 10.8359 3.41053 11.1137 3.14555C11.3883 2.88376 11.6947 2.66826 11.947 2.38093C11.9996 2.32027 11.9486 2.21332 11.8624 2.23886Z" fill="#A78860"/>
<path d="M11.4204 9.97606C11.0102 9.93775 10.5441 10.1373 10.2296 10.364C9.86085 10.6289 9.54957 10.9642 9.29896 11.3425C8.82805 12.0512 8.56786 12.8829 8.3747 13.7114C8.36193 13.7449 8.2885 14.0929 8.25977 14.2302C7.79685 16.4506 7.73619 18.7301 7.83356 20.9889C7.88943 22.2611 7.94371 23.5605 8.14963 24.8168C8.16559 24.9142 8.31883 24.8886 8.31883 24.7944C8.31085 23.7105 8.18634 22.6235 8.13686 21.5396C8.08737 20.4541 8.06822 19.367 8.10812 18.2816C8.14803 17.2025 8.24381 16.1234 8.42738 15.0586C8.51039 14.5718 8.60457 14.0737 8.72908 13.5837C8.79453 13.4911 8.86636 13.4049 8.94777 13.3251C9.05472 13.2213 9.16806 13.1239 9.29098 13.0393C9.35642 12.9946 9.42187 12.9531 9.48892 12.9116C9.55756 12.8701 9.8401 12.7616 9.80019 12.7185C9.74273 12.6546 9.50647 12.7552 9.42506 12.7871C9.34525 12.8175 9.26703 12.851 9.19201 12.8925C9.07548 12.9563 8.96533 13.033 8.86157 13.1176C8.95256 12.8222 9.05792 12.5333 9.18562 12.2556C9.19041 12.2508 9.1936 12.246 9.19839 12.2412C9.30534 12.1374 9.42666 12.0512 9.55277 11.9714C9.67728 11.89 9.80977 11.8246 9.94386 11.7591C10.0109 11.7272 10.0779 11.7001 10.1482 11.6761C10.2184 11.6522 10.295 11.6378 10.3605 11.6027C10.3956 11.5835 10.3892 11.5229 10.3493 11.5149C10.2679 11.4989 10.1785 11.5149 10.0971 11.5277C10.0093 11.5404 9.91991 11.558 9.83372 11.5803C9.7092 11.6123 9.5831 11.6633 9.46657 11.7256C9.6693 11.3968 9.89916 11.0552 10.1945 10.7997C10.3876 10.6321 10.5824 10.506 10.7979 10.3656C11.0134 10.2267 11.1203 10.2187 11.4571 10.1101C11.6327 10.0527 11.4763 9.98085 11.4204 9.97606Z" fill="#A78860"/>
<path d="M8.72461 18.8349C8.72934 18.8302 8.72934 18.8325 8.72461 18.8349V18.8349Z" fill="#A78860"/>
<path d="M9.07769 16.2065C8.87337 16.4379 8.74726 16.671 8.67064 16.9679C8.49186 17.6655 8.43599 18.4189 8.35617 19.1341C8.27157 19.8875 8.2141 20.6457 8.24283 21.404C8.2572 21.7759 8.28913 22.1479 8.3418 22.5166C8.3849 22.8215 8.40406 23.2493 8.61956 23.4887C8.63073 23.5015 8.65308 23.4951 8.65627 23.4792C8.7329 23.1854 8.6036 22.8231 8.57007 22.5278C8.53017 22.183 8.50942 21.835 8.50463 21.487C8.49505 20.8006 8.53655 20.111 8.60519 19.4278C8.62275 19.257 8.63233 18.9186 8.79675 18.5674C8.82867 18.4987 8.93084 18.3822 8.98032 18.3247C9.02981 18.2657 9.08408 18.2098 9.12558 18.1476C9.13516 18.1316 9.12239 18.1108 9.10483 18.1108C8.96436 18.1124 8.83346 18.2162 8.73609 18.3279C8.76642 18.0997 8.79675 17.8714 8.83346 17.6447C8.86379 17.5713 8.91328 17.5026 8.96595 17.442C9.02502 17.3718 9.09206 17.3095 9.16709 17.2552C9.207 17.2265 9.2485 17.1994 9.28681 17.1706C9.32193 17.1451 9.51987 17.0573 9.50869 17.0126C9.4624 16.936 9.14953 17.0365 9.05375 17.102C9.00586 17.1355 8.95638 17.1674 8.91168 17.2041C8.96436 16.9487 9.03779 16.6965 9.18465 16.4794C9.26606 16.3581 9.36982 16.248 9.49273 16.1682C9.59649 16.1011 9.83753 16.0245 9.72739 15.959C9.60447 15.8888 9.20859 16.0596 9.07769 16.2065Z" fill="#A78860"/>
<path d="M6.9194 22.5629C6.83639 22.1303 6.74062 21.6993 6.62728 21.2731C6.4038 20.4271 6.11966 19.5954 5.74932 18.802C5.50668 18.2801 5.22414 17.7724 4.90169 17.292C4.90009 17.2856 4.8953 17.2792 4.89051 17.276C4.35895 16.4858 3.72043 15.7675 2.97177 15.1817C2.64453 14.9247 2.29654 14.6788 1.92461 14.4889C1.5814 14.3133 1.19031 14.1297 0.802413 14.101C0.760909 14.0978 0.754523 14.1536 0.783257 14.1728C1.07697 14.3755 1.41858 14.5128 1.72666 14.6932C2.02996 14.8704 2.32687 15.0508 2.61101 15.2599C2.80097 15.4003 2.98295 15.552 3.16014 15.7084C2.9191 15.5887 2.67007 15.4834 2.40509 15.4211C2.17522 15.3684 1.94216 15.3461 1.70591 15.3525C1.4968 15.3588 1.24139 15.3748 1.05622 15.4818C1.01472 15.5057 1.03866 15.5584 1.07857 15.5632C1.2829 15.5887 1.49999 15.5552 1.70591 15.5664C1.91184 15.5775 2.11776 15.6111 2.31729 15.6621C2.7435 15.7675 3.12821 15.9638 3.49376 16.2001C4.25838 16.6933 4.26956 16.8849 4.31425 16.9424C4.20251 16.8833 4.08758 16.8322 3.96786 16.7923C3.80504 16.738 3.63583 16.7013 3.46662 16.6726C3.29901 16.6439 3.11544 16.6087 2.94623 16.6279C2.89515 16.6343 2.86003 16.7077 2.9175 16.7348C3.07872 16.8147 3.26868 16.8466 3.44108 16.8945C3.62146 16.9456 3.7795 16.9695 3.9487 17.0477C4.11472 17.1243 4.20571 17.1164 4.67023 17.4308C5.42048 18.5355 5.94566 19.7901 6.3192 21.0672C6.45488 21.5285 6.57141 21.9946 6.67676 22.4623C6.78052 22.9205 6.82043 23.4281 6.99762 23.8639C7.01678 23.9118 7.08542 23.907 7.0902 23.8511C7.12213 23.4281 6.99922 22.9763 6.9194 22.5629Z" fill="#A78860"/>
<path d="M10.2816 30.8224C10.1347 30.9884 9.77557 31.0937 9.31265 31.1544C9.27114 31.1592 9.23124 31.1656 9.18973 31.1687C8.89921 31.2007 8.57357 31.2166 8.23834 31.2198C8.19684 31.2214 8.15693 31.2214 8.11543 31.2214C7.82331 31.2214 7.52799 31.2118 7.24066 31.1991C7.21193 31.1975 7.18319 31.1959 7.15606 31.1959C6.84638 31.1767 6.55106 31.1512 6.29246 31.1193C6.24777 31.1161 6.20467 31.1097 6.16157 31.1049C5.70982 31.0458 5.39854 30.974 5.36183 30.9086C5.00745 30.2748 6.03067 24.5633 6.63886 23.1187H9.10034C9.10194 23.1171 10.8866 30.1407 10.2816 30.8224Z" fill="#1F7173"/>
<path d="M7.24476 23.1167C7.21603 23.2221 7.18729 23.3258 7.16335 23.4312C7.08513 23.7552 7.01489 24.0793 6.94625 24.4065C6.70841 25.5303 6.46577 26.6621 6.31093 27.8018C6.23112 28.3813 6.18003 28.9687 6.17524 29.5545C6.17205 30.0829 6.22473 30.5985 6.29497 31.1189C6.25027 31.1157 6.20717 31.1093 6.16407 31.1045C6.05233 30.5427 6.03796 29.9504 6.05073 29.3853C6.07947 28.2169 6.28379 27.0627 6.50887 25.9214C6.6238 25.3324 6.74033 24.7465 6.86644 24.1591C6.9271 23.8765 6.99095 23.594 7.05799 23.313C7.07396 23.2492 7.08832 23.1837 7.10269 23.1183H7.24476V23.1167Z" fill="#DCCDD2"/>
<path d="M7.58602 23.1167C7.57325 23.313 7.5525 23.511 7.53973 23.7057C7.52057 24.0122 7.50142 24.3187 7.48226 24.6284C7.41682 25.749 7.36414 26.8696 7.32583 27.9918C7.30667 28.5489 7.29071 29.1044 7.27794 29.6631C7.27155 29.9488 7.26517 30.2362 7.26038 30.5219C7.25559 30.7454 7.26517 30.9752 7.24282 31.1987C7.21409 31.1971 7.18535 31.1955 7.15822 31.1955C7.13587 30.929 7.15502 30.6528 7.15662 30.3894C7.15822 30.0733 7.1662 29.7605 7.17099 29.4444C7.19334 28.3222 7.23165 27.2 7.28273 26.0794C7.30986 25.5159 7.34019 24.9524 7.37372 24.3874C7.38968 24.1096 7.40724 23.8302 7.4248 23.5525C7.43437 23.4088 7.43916 23.2636 7.45034 23.1183H7.58602V23.1167Z" fill="#DCCDD2"/>
<path d="M8.28205 29.5992C8.27886 29.885 8.27567 30.1707 8.26928 30.4549C8.2629 30.7071 8.26609 30.9657 8.24055 31.2179C8.19905 31.2195 8.15914 31.2195 8.11764 31.2195C8.10646 30.929 8.12402 30.6368 8.13041 30.3447C8.1352 30.0302 8.13999 29.7158 8.14158 29.4013C8.14477 28.2807 8.12243 27.1601 8.07294 26.0411C8.0474 25.4792 8.01388 24.9157 7.97237 24.3538C7.95322 24.0777 7.93087 23.7983 7.91012 23.5222C7.89735 23.3849 7.88777 23.2492 7.875 23.1151H8.0474C8.06017 23.2731 8.07454 23.4312 8.08571 23.5892C8.11125 23.9101 8.132 24.2309 8.14956 24.5518C8.21501 25.6772 8.25971 26.8025 8.27727 27.9311C8.28365 28.4882 8.28525 29.0437 8.28205 29.5992Z" fill="#DCCDD2"/>
<path d="M9.43255 29.7207C9.43415 30.0064 9.42298 30.2953 9.39424 30.5795C9.37509 30.771 9.35593 30.9642 9.31443 31.1541C9.27292 31.1589 9.23302 31.1653 9.19151 31.1685C9.22025 30.9291 9.25696 30.6912 9.27612 30.4518C9.30166 30.1213 9.30804 29.7925 9.29368 29.4621C9.27133 28.8746 9.19151 28.292 9.1117 27.7125C9.03029 27.1315 8.94728 26.5488 8.86747 25.9678C8.78765 25.3788 8.70464 24.7913 8.62164 24.2023C8.58013 23.9118 8.54023 23.6212 8.49872 23.3307C8.48914 23.2605 8.47797 23.1886 8.4668 23.1184H8.64558C8.65675 23.219 8.66633 23.3211 8.6791 23.4185L8.8084 24.4226C8.96324 25.6022 9.11808 26.7787 9.27612 27.9552C9.35433 28.5394 9.42776 29.1285 9.43255 29.7207Z" fill="#DCCDD2"/>
<path d="M14.8704 27.6791H14.6006V30.1964H14.8704V27.6791Z" fill="#E0A56F"/>
<path d="M15.9779 26.7515C15.9779 27.5592 15.3873 28.2121 14.6594 28.2121C13.9314 28.2121 13.3408 27.5576 13.3408 26.7515C13.3408 25.9438 13.9314 25.2909 14.6594 25.2909C15.3889 25.2909 15.9779 25.9438 15.9779 26.7515Z" fill="#DCCDD2"/>
<path d="M14.6588 28.3718C13.8431 28.3718 13.1807 27.6439 13.1807 26.7516C13.1807 25.8577 13.8431 25.1313 14.6588 25.1313C15.4745 25.1313 16.137 25.8593 16.137 26.7516C16.137 27.6455 15.4745 28.3718 14.6588 28.3718ZM14.6588 25.4506C14.0203 25.4506 13.4999 26.0348 13.4999 26.7516C13.4999 27.4683 14.0203 28.0526 14.6588 28.0526C15.2973 28.0526 15.8177 27.4683 15.8177 26.7516C15.8177 26.0348 15.2989 25.4506 14.6588 25.4506Z" fill="#DDB366"/>
<path d="M18.6144 26.0524C18.5952 25.9758 18.5266 25.9407 18.4611 25.9566C18.4372 25.9614 18.343 25.9949 18.3286 26.0173C18.0206 26.1594 17.7173 26.319 17.4251 26.4994C17.0819 26.0285 16.7611 25.7076 16.3093 25.4506C16.3668 25.4538 16.6254 24.5375 16.8265 24.1911C16.8632 24.1289 16.8377 24.0379 16.7818 24.0028C16.7212 23.9629 16.6477 23.99 16.611 24.0523C16.3987 24.4178 16.0348 25.2447 16.0635 25.2798C15.8049 25.1425 15.599 25.1122 15.3244 25.0579C15.0882 25.01 14.8503 24.9957 14.6141 25.0116C14.6268 24.9909 14.5742 24.0634 14.5949 23.6276C14.6029 23.4505 14.3539 23.4505 14.3459 23.6276C14.3283 24.0251 14.4034 25.0164 14.4177 25.0324C13.9803 25.0946 13.5525 25.2607 13.1551 25.5272C13.1519 25.5177 12.598 24.8456 12.3729 24.5679C12.3282 24.512 12.242 24.5168 12.1973 24.5679C12.1478 24.6237 12.1526 24.7067 12.1973 24.7626C12.4447 25.0691 12.6921 25.3756 12.9396 25.6837C12.59 25.9566 12.2723 26.3078 12.0073 26.7197C11.7216 26.4882 11.4295 26.2647 11.131 26.0524C11.0751 26.0125 10.9937 26.0396 10.9602 26.1019C10.925 26.1689 10.9474 26.2503 11.0049 26.2903C11.2555 26.4674 11.87 26.9703 11.8908 26.9783C11.8924 26.9878 11.8924 26.9974 11.8956 27.0054C11.8828 27.0389 11.8844 27.0804 11.9068 27.1219C12.4064 28.019 13.2221 28.3798 14.025 28.4548C14.4656 28.4963 14.9126 28.474 15.3484 28.3814C15.7969 28.2856 16.2375 28.1579 16.643 27.8961C16.8457 27.7652 17.3565 27.4109 17.5848 26.8777C17.6103 26.817 17.5848 26.7644 17.5528 26.7356C17.8673 26.5425 18.193 26.3701 18.5282 26.2216C18.5904 26.1945 18.6335 26.1306 18.6144 26.0524ZM16.6222 27.6152C16.2439 27.8355 15.8448 27.9759 15.4378 28.0813C15.0275 28.1883 14.6029 28.2122 14.1847 28.1898C13.7856 28.1691 13.3865 28.0893 13.013 27.8945C12.6873 27.7253 12.3825 27.4571 12.1542 27.098C12.0472 26.8873 12.839 25.8194 13.9931 25.4043C14.7482 25.1329 15.5655 25.2798 16.2726 25.73C16.6206 25.9518 16.8441 26.129 17.1202 26.4882C17.299 26.6734 17.3709 26.7755 17.3533 26.8218C17.2064 27.1746 16.8792 27.4651 16.6222 27.6152Z" fill="#E0A56F"/>
<path d="M15.0961 27.6392C15.0738 27.5881 15.0354 27.5386 15.0035 27.4923C14.97 27.4444 14.9381 27.3949 14.9029 27.3486C14.8295 27.2513 14.7481 27.1603 14.6699 27.0677C14.515 26.8857 14.3458 26.7133 14.1718 26.5537C14.1415 26.525 14.0825 26.5633 14.1112 26.6048C14.2485 26.8027 14.3985 26.9959 14.5581 27.1762C14.6364 27.264 14.7146 27.3518 14.796 27.438C14.8375 27.4811 14.8838 27.521 14.9285 27.5625C14.97 27.6009 15.0163 27.6471 15.0642 27.6759C15.0849 27.6886 15.1073 27.6631 15.0961 27.6392Z" fill="#FFF2E9"/>
<path d="M15.5285 27.1076C15.4631 26.9703 15.3849 26.8442 15.2891 26.7309C15.1933 26.6175 15.08 26.5202 14.9666 26.4276C14.9379 26.4052 14.8948 26.4228 14.8788 26.4531C14.8597 26.4898 14.8741 26.5281 14.9028 26.5505C15.0081 26.6383 15.1039 26.7372 15.2013 26.8362C15.3003 26.9352 15.4008 27.0326 15.4982 27.1331C15.5142 27.1523 15.5397 27.1315 15.5285 27.1076Z" fill="#FFF2E9"/>
<path d="M16.6594 30.1964H12.8682V30.7822H16.6594V30.1964Z" fill="#E0A56F"/>
<path d="M32.5833 30.1453C31.4611 30.6513 31.2743 31.5085 33.5618 31.3329C35.8493 31.1573 43.4285 32.104 45.1908 31.2132C45.4414 31.0871 44.6912 31.0695 44.5204 30.72C44.3831 30.439 45.4526 30.0687 44.4964 29.7015C42.3606 28.8794 37.0561 29.229 34.8117 29.0949C34.4462 29.0726 32.6854 28.9848 32.0182 29.5722C31.7181 29.834 32.9456 29.9809 32.5833 30.1453Z" fill="#CC974D"/>
<path d="M33.6739 30.8525C33.5653 31.1462 32.1702 30.8637 32.2676 32.3163C32.3649 33.7689 33.0881 36.1075 33.5398 35.37C34.8344 33.2597 40.506 30.7615 39.9186 30.7168C39.3312 30.6721 33.6739 30.8525 33.6739 30.8525Z" fill="#CC974D"/>
<path d="M38.7785 31.5246C38.646 31.4129 38.4864 31.3586 38.3236 31.3075C38.1368 31.2484 37.9453 31.2053 37.7521 31.1766C37.3738 31.1191 36.9907 31.1064 36.6092 31.1111C35.7727 31.1223 34.9363 31.1718 34.0998 31.2085C33.6018 31.2309 33.0989 31.2357 32.6025 31.2772C32.5578 31.2804 32.5562 31.349 32.6025 31.349C33.0287 31.3506 33.4565 31.3203 33.8827 31.3027C34.3089 31.2867 34.7367 31.2708 35.1629 31.2532C35.9435 31.2229 36.7321 31.1511 37.5111 31.2357C37.7266 31.2596 37.9421 31.2963 38.1528 31.3522C38.3603 31.4065 38.5551 31.5022 38.7642 31.5469C38.7769 31.5501 38.7897 31.5342 38.7785 31.5246Z" fill="#AD6948"/>
<path d="M43.9893 30.7024C42.982 30.6019 41.9796 30.5923 40.9771 30.7328C40.9563 30.7359 40.9611 30.7711 40.9819 30.7695C41.9285 30.7184 42.8862 30.7152 43.8313 30.7982C43.5742 30.9562 43.2885 31.0217 42.9804 31.0169C42.6053 31.0121 42.2302 30.9722 41.8566 30.9387C41.1144 30.8716 40.3737 30.7806 39.6346 30.6833C38.1421 30.4869 36.6511 30.265 35.149 30.1709C34.3493 30.1214 33.5064 30.0575 32.7259 30.281C32.6843 30.2922 32.7019 30.356 32.7434 30.3465C33.4713 30.1788 34.2184 30.2092 34.9575 30.2539C35.7157 30.3002 36.4708 30.3784 37.2258 30.4694C38.7279 30.6513 40.2236 30.8892 41.7305 31.0329C42.1456 31.0728 42.5638 31.1175 42.9804 31.1238C43.3588 31.1286 43.7147 31.036 44.0164 30.8014C44.0595 30.7711 44.0452 30.7088 43.9893 30.7024Z" fill="#AD6948"/>
<path d="M33.6875 28.4181C32.9659 28.4708 33.5693 28.9226 33.48 29.2131C33.3906 29.5052 33.539 29.6154 34.2238 29.5754C34.9086 29.5355 40.0647 29.154 41.2188 29.2131C42.3729 29.2737 43.8862 29.6776 44.041 29.3967C44.1959 29.1157 44.0043 28.2282 43.1631 28.4181C42.3202 28.6081 34.2238 28.3782 33.6875 28.4181Z" fill="#40547B"/>
<path d="M34.4924 27.96C33.8985 28.0366 33.4212 28.7437 34.0757 28.7805C34.7302 28.8172 42.2902 28.8571 42.8569 28.9114C43.422 28.9656 44.1371 28.0605 42.4993 27.96C40.8616 27.8594 35.5635 27.8227 34.4924 27.96Z" fill="#40547B"/>
<path d="M35.2052 28.8044C34.3416 29.4716 36.5157 30.7295 36.6339 31.3297C36.7536 31.9299 37.1686 29.9984 38.5079 29.8563C39.8472 29.7142 42.936 30.2618 43.0334 29.8563C43.1292 29.4509 42.529 28.5298 41.635 28.6974C40.7395 28.865 35.2052 28.8044 35.2052 28.8044Z" fill="#40547B"/>
<path d="M28.7535 0.0615234H15.707V19.4549H28.7535V0.0615234Z" fill="#985846"/>
<path d="M28.4542 0.460571H16.1436V18.9983H28.4542V0.460571Z" fill="#D7935A"/>
<path d="M22.2988 9.77172L28.4541 2.91565V17.2966L22.2988 9.77172Z" fill="#A66A45"/>
<path d="M25.2432 9.75101L28.4533 6.4834V13.4161L25.2432 9.75101Z" fill="#401C1C"/>
<path d="M22.2989 9.77172L16.1436 2.91565V17.2966L22.2989 9.77172Z" fill="#A66A45"/>
<path d="M19.3537 9.75101L16.1436 6.4834V13.4161L19.3537 9.75101Z" fill="#401C1C"/>
<path d="M27.0747 18.9983H17.291L22.1837 13.0186L27.0747 18.9983Z" fill="#E5D1CA"/>
<path d="M27.397 0.460571V0.545175L22.233 6.29661L17.0674 0.545175V0.460571H27.397Z" fill="#E5D1CA"/>
<path d="M16.1483 4.34752L21.2214 9.72863L16.1436 15.9206V17.2966L22.2989 9.77172L16.1436 2.91565L16.1483 4.34752Z" fill="#F8E8DF"/>
<path d="M28.4541 2.91565L22.2988 9.77172L28.4541 17.2966L28.4797 16.0675L23.3332 9.72703L28.4797 4.0155L28.4541 2.91565Z" fill="#F8E8DF"/>
<path d="M22.2324 6.29663L20.7383 8.03499L22.2979 9.77176L23.8574 8.03499L22.2324 6.29663Z" fill="#401C1C"/>
<path d="M22.2986 9.77173L20.8779 11.5085L22.1837 13.0186L23.6267 11.3952L22.2986 9.77173Z" fill="#401C1C"/>
<path d="M19.3535 9.751L20.2187 8.66553L21.2212 9.72866L20.2873 10.8684L19.3535 9.751Z" fill="#BACFE9"/>
<path d="M23.333 9.72699L24.2988 8.65588L25.2438 9.75094L24.2589 10.8683L23.333 9.72699Z" fill="#BACFE9"/>
<path d="M21.0537 11.7159L21.6635 12.4502L16.3287 18.9982H16.1436V17.7324L21.0537 11.7159Z" fill="#E5D1CA"/>
<path d="M23.451 11.5931L22.7949 12.3306L28.184 18.9983H28.4538V17.6638L23.451 11.5931Z" fill="#E5D1CA"/>
<path d="M28.4533 2.4878L23.6788 7.84336L23.0371 7.15695L28.4533 1.07349V2.4878Z" fill="#E5D1CA"/>
<path d="M20.9037 7.84344C20.8925 7.8578 16.1436 2.50544 16.1436 2.50544V1.24756L21.563 7.07562L20.9037 7.84344Z" fill="#E5D1CA"/>
<path d="M22.2106 16.8593L20.4355 18.9983H23.9857L22.2106 16.8593Z" fill="#F8E8DF"/>
<path d="M22.1949 2.78473L24.1312 0.474899L20.2969 0.446167L22.1949 2.78473Z" fill="#F8E8DF"/>
<path d="M16.1543 8.86182L17.4074 9.7717L16.1543 11.1413V8.86182Z" fill="#B69C8F"/>
<path d="M27.0742 9.69186L28.4518 8.51221L28.479 11.1413L27.0742 9.69186Z" fill="#B69C8F"/>
<path d="M63.3464 38.5681L63.1885 38.5916L65.0693 51.2385L65.2272 51.215L63.3464 38.5681Z" fill="black"/>
<path d="M56.8082 37.7148L55.5117 49.7159L55.6704 49.7331L56.9669 37.7319L56.8082 37.7148Z" fill="black"/>
<path d="M60.3372 40.4491L60.1777 40.4574L60.6415 49.4169L60.801 49.4086L60.3372 40.4491Z" fill="black"/>
<path d="M54.3203 38.8314L52.8584 51.2188L53.0169 51.2375L54.4788 38.8501L54.3203 38.8314Z" fill="black"/>
<path d="M59.043 53.1206C55.5726 53.1206 52.8525 52.289 52.8525 51.2259C52.8525 50.1627 55.571 49.3311 59.043 49.3311C62.5149 49.3311 65.2334 50.1627 65.2334 51.2259C65.2334 52.289 62.5133 53.1206 59.043 53.1206ZM59.043 49.4907C55.7738 49.4907 53.0122 50.2856 53.0122 51.2259C53.0122 52.1661 55.7738 52.961 59.043 52.961C62.3122 52.961 65.0737 52.1661 65.0737 51.2259C65.0737 50.2856 62.3106 49.4907 59.043 49.4907Z" fill="black"/>
<path d="M53.999 36.2749C53.999 36.2749 54.8339 41.9561 55.2489 43.3608C55.664 44.7656 60.5215 44.6123 61.6628 44.0009C62.8042 43.3911 63.6263 36.7027 63.3916 36.2749C63.1569 35.8455 56.5818 35.2565 53.999 36.2749Z" fill="#D7935A"/>
<path d="M61.1799 39.8944L61.0215 39.9142L62.6198 52.6939L62.7782 52.6741L61.1799 39.8944Z" fill="black"/>
<path d="M57.6939 39.9946L56.8838 52.9305L57.0431 52.9405L57.8532 40.0046L57.6939 39.9946Z" fill="black"/>
<path d="M59.2522 40.162C59.1819 40.162 59.1117 40.162 59.0415 40.1604C55.6988 40.1013 54.4058 38.9488 54.3516 38.8993L54.4601 38.7812C54.4729 38.7924 55.7691 39.9417 59.0447 40.0008C62.3091 40.0646 63.1966 38.7174 63.2046 38.7046L63.3403 38.7892C63.3036 38.8467 62.4368 40.162 59.2522 40.162Z" fill="black"/>
<path d="M58.6953 37.3412C61.289 37.3412 63.3916 36.8831 63.3916 36.318C63.3916 35.7529 61.289 35.2948 58.6953 35.2948C56.1016 35.2948 53.999 35.7529 53.999 36.318C53.999 36.8831 56.1016 37.3412 58.6953 37.3412Z" fill="#5A2F24"/>
<path d="M54.9984 36.9487C54.9984 36.9487 53.4388 33.207 53.6703 31.475C53.9017 29.743 52.5561 26.6973 53.6703 26.4754C54.7845 26.2535 55.1373 28.284 56.2435 29.5163C57.3497 30.7487 57.08 37.2775 57.08 37.2775L54.9984 36.9487Z" fill="#6C7B4A"/>
<path d="M60.737 22.4974C61.872 21.123 60.4832 19.6145 62.2407 19.4325C62.983 19.3559 63.5002 21.2922 63.4316 22.997C63.3629 24.7019 63.3629 26.0204 63.7636 26.7962C64.1643 27.572 64.9784 29.5179 64.2106 30.5986C63.4428 31.6793 63.6838 33.2452 63.7636 34.1679C63.8434 35.0905 62.3924 36.9486 62.3924 36.9486L59.9469 37.303C59.9469 37.303 58.6491 34.7952 59.0418 34.1679C59.4329 33.5405 60.2358 32.2172 59.5941 31.2115C58.9524 30.2059 58.0888 28.7548 59.0418 27.813C59.9948 26.8728 58.9763 25.9677 59.0418 25.4537C59.3546 22.997 59.9421 23.4615 60.737 22.4974Z" fill="#6C7B4A"/>
<path d="M57.0785 37.2791C56.7624 37.2504 55.0241 32.9707 55.2635 31.6282C55.503 30.2857 56.1463 27.9376 55.6642 26.4754C55.1837 25.0132 53.7071 22.2963 54.4047 20.593C55.1023 18.8898 56.8997 16.8082 56.242 14.9805C55.5844 13.1527 55.6961 10.0655 56.242 9.2067C56.788 8.3463 58.1975 7.80356 58.6955 8.65598C59.1936 9.5084 59.3277 12.7409 59.5144 13.1735C60.892 16.3772 60.3222 17.4276 60.0763 18.8244C59.8289 20.2195 60.5568 20.5851 60.7978 22.9971C61.0389 25.4091 59.5942 26.4674 60.0763 27.5625C60.5584 28.6575 61.1187 29.2849 60.7978 31.7623C60.477 34.2381 59.9486 37.3046 59.9486 37.3046C59.0786 37.3669 58.1081 37.3461 57.0785 37.2791Z" fill="#88A163"/>
<path d="M58.3588 31.7207C58.5631 30.7837 58.6813 29.8466 58.5855 28.8889C58.4977 28.0125 58.2838 27.1537 58.0587 26.3013C57.824 25.4153 57.5734 24.531 57.4409 23.6243C57.3068 22.6969 57.3292 21.7742 57.5638 20.8643C57.7969 19.9592 58.1672 19.0908 58.3636 18.1746C58.5679 17.2184 58.4993 16.259 58.3412 15.3012C58.1545 14.1551 57.9246 13.0297 57.8879 11.866C57.8703 11.3057 57.8847 10.7438 57.9326 10.1835C57.9805 9.60248 58.1257 9.02462 58.1241 8.44517C58.1241 8.3893 58.0491 8.3877 58.03 8.4324C57.8368 8.89054 57.7985 9.40135 57.749 9.89301C57.6979 10.4022 57.6724 10.9146 57.674 11.427C57.6772 12.4423 57.8033 13.4432 57.9869 14.4424C58.1752 15.4673 58.3843 16.508 58.271 17.5536C58.1672 18.5098 57.7953 19.4117 57.516 20.328C57.2478 21.2091 57.1121 22.0919 57.1807 23.0113C57.2478 23.9068 57.4601 24.7832 57.6884 25.6516C57.923 26.5407 58.1784 27.4283 58.3253 28.3366C58.4833 29.3167 58.4562 30.2792 58.2678 31.253C57.8911 33.2052 57.069 35.4049 58.2343 37.2614C58.287 37.3444 58.4211 37.2694 58.37 37.1848C57.342 35.5023 57.9741 33.4846 58.3588 31.7207Z" fill="#6C7B4A"/>
<path d="M57.6372 37.1752C56.5725 35.713 56.4959 33.8741 56.6587 32.1517C56.7577 31.1157 56.9285 30.0845 56.9844 29.0453C57.0354 28.0668 56.9365 27.1154 56.7321 26.1576C56.5262 25.1934 56.258 24.2357 56.1798 23.2524C56.1 22.2674 56.2533 21.2937 56.4608 20.3311C56.6603 19.4069 56.9014 18.489 57.0227 17.5488C57.144 16.607 57.0961 15.6668 56.9892 14.7266C56.7593 12.72 56.2421 10.5618 57.1121 8.62872C57.1647 8.5106 56.986 8.40844 56.9317 8.52656C56.1591 10.2458 56.4464 12.1278 56.6874 13.9236C56.812 14.8495 56.9285 15.7833 56.895 16.7187C56.8583 17.726 56.6236 18.7125 56.4001 19.6942C56.1846 20.6456 55.9739 21.6082 55.9595 22.5851C55.9468 23.5556 56.1559 24.507 56.3698 25.4504C56.5981 26.4545 56.8072 27.4538 56.8024 28.4882C56.7976 29.5417 56.6364 30.5857 56.5198 31.6313C56.3091 33.5229 56.2549 35.6699 57.5303 37.2518C57.5782 37.3109 57.6819 37.2359 57.6372 37.1752Z" fill="#6C7B4A"/>
<path d="M62.1086 26.7994C61.9202 25.5096 62.0431 24.2325 62.3624 22.9731C62.5188 22.3553 62.68 21.72 62.6082 21.0783C62.5539 20.593 62.3767 20.0024 61.9282 19.7262C61.8819 19.6975 61.8164 19.7565 61.85 19.8028C61.9841 19.988 62.1293 20.1668 62.2251 20.3743C62.3416 20.6233 62.4023 20.8963 62.423 21.1676C62.4661 21.7391 62.3273 22.3042 62.1884 22.8549C61.8947 24.0218 61.7462 25.1903 61.8659 26.3923C61.925 26.9781 62.0575 27.5448 62.182 28.1195C62.3081 28.7021 62.364 29.2704 62.2874 29.8642C62.2091 30.466 62.0846 31.0551 62.0719 31.6649C62.0591 32.2826 62.115 32.9004 62.1357 33.5182C62.174 34.6834 62.0655 35.9812 61.1971 36.8736C61.1364 36.9358 61.2322 37.0284 61.2945 36.9677C62.0288 36.2414 62.2778 35.2182 62.3145 34.2317C62.3384 33.598 62.2842 32.9658 62.2634 32.3321C62.2411 31.6744 62.2874 31.0375 62.3959 30.3878C62.4933 29.8004 62.5587 29.2257 62.4709 28.6319C62.3799 28.0125 62.1996 27.4139 62.1086 26.7994Z" fill="#88A163"/>
</svg>
