<svg width="34" height="39" viewBox="0 0 34 39" fill="none" xmlns="http://www.w3.org/2000/svg">
<path d="M32.1536 10.8282H1.84668C0.940588 10.8282 0.206055 11.5628 0.206055 12.4689V15.7501C0.206055 16.6562 0.940588 17.3907 1.84668 17.3907H32.1536C33.0597 17.3907 33.7942 16.6562 33.7942 15.7501V12.4689C33.7942 11.5628 33.0597 10.8282 32.1536 10.8282Z" fill="#FF9800"/>
<path d="M2.5625 36.7797C2.5625 37.2148 2.73535 37.6321 3.04303 37.9397C3.3507 38.2474 3.768 38.4203 4.20312 38.4203H29.7969C30.232 38.4203 30.6493 38.2474 30.957 37.9397C31.2647 37.6321 31.4375 37.2148 31.4375 36.7797V17.3907H2.5625V36.7797Z" fill="#FFB74D"/>
<path d="M19.4609 17.3907H14.5391V38.4206H19.4609V17.3907Z" fill="#F35244"/>
<path d="M8.71622 1.03926L7.60519 2.00297C7.28156 2.28357 7.02202 2.63046 6.84414 3.02012C6.66627 3.40978 6.57422 3.83311 6.57422 4.26145V7.83802C6.57431 8.63095 6.88934 9.39139 7.45003 9.95208C8.01072 10.5128 8.77116 10.8278 9.56409 10.8279H16.9997L11.3688 1.46091C11.2369 1.24155 11.0587 1.05371 10.8465 0.910555C10.6344 0.7674 10.3935 0.672401 10.1407 0.632224C9.88795 0.592046 9.62947 0.607664 9.38338 0.67798C9.1373 0.748297 8.90959 0.871609 8.71622 1.03926Z" fill="#F35244"/>
<path d="M26.3945 2.00297L25.2835 1.03926C25.0901 0.871609 24.8624 0.748297 24.6163 0.67798C24.3703 0.607664 24.1118 0.592046 23.859 0.632224C23.6063 0.672401 23.3654 0.7674 23.1532 0.910555C22.9411 1.05371 22.7628 1.24155 22.631 1.46091L17 10.8282H24.4356C25.2286 10.8281 25.989 10.5131 26.5497 9.95241C27.1104 9.39172 27.4254 8.63128 27.4255 7.83834V4.26178C27.4256 3.83339 27.3335 3.40999 27.1557 3.02027C26.9778 2.63055 26.7182 2.28361 26.3945 2.00297Z" fill="#F35244"/>
<path d="M22.2635 7.58338L16.9997 10.189L11.7359 7.58338C11.6682 7.54992 11.5946 7.53012 11.5193 7.5251C11.444 7.52009 11.3684 7.52996 11.2969 7.55415C11.2254 7.57834 11.1593 7.61638 11.1025 7.6661C11.0457 7.71582 10.9993 7.77624 10.9658 7.84391C10.9323 7.91158 10.9125 7.98518 10.9075 8.06051C10.9025 8.13583 10.9124 8.21141 10.9366 8.28292C10.9608 8.35443 10.9988 8.42048 11.0485 8.47729C11.0982 8.5341 11.1587 8.58056 11.2263 8.61402L16.7451 11.3443C16.7664 11.3536 16.7883 11.3613 16.8107 11.3676C16.8264 11.3732 16.8412 11.3801 16.8573 11.3844C16.9038 11.3965 16.9516 11.4028 16.9997 11.4031C17.0479 11.4025 17.0959 11.3959 17.1424 11.3834C17.1588 11.3791 17.1736 11.3722 17.1893 11.3667C17.2117 11.3604 17.2336 11.3526 17.255 11.3434L22.7747 8.61402C22.8436 8.58137 22.9053 8.53533 22.9562 8.47858C23.0071 8.42183 23.0463 8.35551 23.0713 8.28348C23.0963 8.21145 23.1067 8.13517 23.1019 8.05907C23.0971 7.98297 23.0773 7.90859 23.0434 7.84027C23.0096 7.77194 22.9625 7.71103 22.9048 7.66111C22.8472 7.61118 22.7802 7.57323 22.7078 7.54947C22.6353 7.52571 22.5589 7.51661 22.4829 7.52272C22.4069 7.52882 22.3328 7.55 22.2651 7.58502L22.2635 7.58338Z" fill="#C12A23"/>
<path d="M20.5052 10.8282H13.4951V17.3907H20.5052V10.8282Z" fill="#D13D2F"/>
</svg>
