<svg width="298" height="206" viewBox="0 0 298 206" fill="none" xmlns="http://www.w3.org/2000/svg">
<path d="M292.916 161.365C294.356 147.065 295.546 132.695 296.476 118.345C297.416 103.845 297.956 89.2754 297.456 74.7354C297.206 67.3954 296.686 60.0554 295.806 52.7854C295.146 47.3554 294.346 42.0354 292.496 36.9354C289.076 27.5154 283.706 20.6754 276.356 14.9154C268.246 8.55537 247.606 7.22537 236.976 7.14537C138.886 6.40537 51.3361 8.50538 43.2261 13.1054C24.5661 23.6754 38.3161 109.245 32.1761 123.295C26.0361 137.345 17.4462 124.405 6.76616 124.405C-3.91384 124.405 1.24614 205.795 1.24614 205.795L287.136 205.845C289.416 191.075 291.396 176.255 292.906 161.365H292.916Z" fill="#EAF2F4"/>
<path d="M231.248 203.23C231.248 204.65 199.738 205.81 151.588 205.81C103.438 205.81 64.3984 204.66 64.3984 203.23C64.3984 201.8 103.438 200.65 151.588 200.65C199.738 200.65 231.248 201.8 231.248 203.23Z" fill="#6A516B"/>
<path d="M97.8496 43.5301C97.8496 43.5301 103.9 33.3601 107.77 29.1601C111.64 24.9601 117.35 23.2802 124.07 23.9502C130.79 24.6202 134.22 25.0301 134.22 25.0301L145.49 28.5401C145.49 28.5401 150.71 30.5601 152.19 31.6001C154.68 33.3701 158.28 36.0402 159.55 37.6202C161.57 40.1402 164.22 58.7001 164.22 58.7001C164.22 58.7001 157.02 60.5701 152.65 61.0701C152.65 61.0701 151.98 81.9002 151.81 84.0902C151.64 86.2802 108.8 78.8801 108.8 78.8801L109.3 50.8201L97.8696 43.5202L97.8496 43.5301Z" fill="#EA4450"/>
<path d="M86.209 167.14L79.259 153.82C73.429 161.89 68.549 168.48 67.149 170.07C66.669 170.36 62.169 173.08 60.769 174.24C59.289 175.48 57.059 175.48 62.249 189.81C67.439 204.15 72.029 203.46 73.239 203.12C74.969 202.63 75.099 201.92 74.359 194.76C73.619 187.61 73.129 184.89 74.599 179.47C76.249 176.72 80.649 172.28 86.199 167.14H86.209Z" fill="#A24B28"/>
<path d="M74.599 179.47C74.859 179.04 75.199 178.58 75.589 178.08C74.099 177.09 72.699 175.98 71.439 174.72C69.939 173.23 68.499 171.39 67.729 169.35C67.499 169.64 67.309 169.88 67.149 170.06C66.669 170.35 62.169 173.07 60.769 174.23C59.289 175.47 57.059 175.47 62.249 189.8C67.439 204.14 72.029 203.45 73.239 203.11C74.969 202.62 75.099 201.91 74.359 194.75C73.619 187.6 73.129 184.88 74.599 179.46V179.47Z" fill="#EFEFEF"/>
<path d="M71.6088 175.75C69.3888 174.51 66.4587 178.44 65.7187 174.49C65.4487 173.05 66.2687 171.4 66.9387 170.2C65.8987 170.83 62.0587 173.18 60.7787 174.24C59.2987 175.48 57.0688 175.48 62.2588 189.81C67.4488 204.15 72.0387 203.46 73.2487 203.12C74.9787 202.63 75.1087 201.92 74.3687 194.76C73.6287 187.61 73.1388 184.89 74.6088 179.47C74.6488 179.4 72.2987 176.13 71.6187 175.75H71.6088Z" fill="#4C4C4C"/>
<path d="M74.579 196.93C73.439 195.68 71.949 194.38 70.599 194.03C67.939 193.34 66.399 194.2 65.799 194.63C65.199 195.06 62.799 189.06 61.599 185.11C60.399 181.16 60.059 178.25 60.739 177.31C61.359 176.46 63.499 175.13 63.359 172.43C62.309 173.11 61.309 173.79 60.769 174.24C59.289 175.48 57.059 175.48 62.249 189.81C67.439 204.15 72.029 203.46 73.239 203.12C74.779 202.68 75.049 202.08 74.579 196.93Z" fill="#323232"/>
<path d="M121.679 23.8101C121.679 23.8101 124.179 27.3101 123.849 33.3101C123.529 39.3101 120.119 72.2601 118.979 74.8501C117.839 77.4401 108.109 77.2802 108.109 77.2802C108.109 77.2802 95.6087 127.1 95.4487 128.24C95.2887 129.38 69.1387 166.7 69.1387 166.7C69.1387 166.7 72.2187 174.33 76.6087 179.03C80.9887 183.74 84.7187 183.57 86.9987 181.63C89.2787 179.69 114.939 143.49 117.689 137.65C120.449 131.81 132.129 106.98 132.129 106.98C132.129 106.98 140.239 132.46 147.379 149.34C154.519 166.22 157.349 173.73 159.309 177.29C160.849 180.08 179.159 171.02 180.459 170.37C181.759 169.72 172.049 150.8 166.039 131.66C160.039 112.51 151.489 85.3902 151.789 84.1002C152.089 82.8102 151.849 78.9102 151.849 78.9102C151.849 78.9102 148.839 78.0702 148.839 71.6802C148.839 65.2902 154.649 40.5801 154.769 33.3501C154.769 33.3501 152.349 31.3102 152.319 31.7102C152.279 32.1102 150.039 46.5001 148.959 52.4101C148.959 52.4101 125.709 48.9201 125.469 48.5601C125.229 48.2001 127.039 38.5601 126.789 31.8201C126.549 25.0701 124.309 23.9901 124.009 23.9201C122.929 23.6701 121.669 23.8201 121.669 23.8201L121.679 23.8101Z" fill="#607CAF"/>
<path d="M114.719 82.2701C114.399 86.4401 112.829 90.6401 109.469 93.3001C108.619 93.9701 107.659 94.5202 106.639 94.9102C106.259 95.0502 106.419 95.6701 106.809 95.5201C110.869 94.0001 113.579 90.2701 114.699 86.1801C115.049 84.9001 115.259 83.5901 115.359 82.2701C115.389 81.8601 114.759 81.8601 114.719 82.2701Z" fill="#346A8B"/>
<path d="M104.859 97.7402C103.609 102.9 102.349 108.06 101.099 113.22C100.479 115.79 99.8486 118.36 99.2286 120.93C98.9186 122.22 98.5886 123.5 98.2986 124.79C98.1686 125.36 98.0585 125.96 98.1185 126.55C98.1685 127.04 98.3586 127.49 98.4886 127.97C98.5986 128.37 98.7686 129.04 98.1986 129.15C97.8886 129.21 97.5586 129.09 97.2386 129.15C97.0386 129.18 96.8486 129.27 96.6886 129.4C95.8186 130.14 96.2586 131.27 96.7486 132.1C95.2286 132.81 94.2985 134.29 93.3985 135.66C92.1985 137.48 90.9786 139.29 89.7286 141.08C87.2286 144.66 84.6285 148.16 81.9285 151.59C80.4085 153.53 78.8486 155.44 77.2586 157.32C77.0886 157.53 77.3785 157.83 77.5585 157.62C80.3185 154.34 82.9886 150.98 85.5585 147.55C88.1285 144.12 90.6086 140.62 92.9886 137.05C93.5886 136.14 94.1586 135.21 94.8186 134.34C95.4286 133.53 96.1586 132.78 97.1086 132.4C97.2286 132.35 97.3186 132.22 97.2386 132.09C96.9486 131.63 96.6086 131.11 96.6086 130.54C96.6086 130.06 96.9085 129.57 97.4285 129.55C97.8785 129.54 98.3386 129.7 98.7186 129.35C98.9886 129.11 99.0286 128.74 98.9886 128.4C98.9386 127.98 98.7886 127.58 98.6586 127.17C98.4686 126.56 98.4786 125.96 98.5986 125.34C98.8286 124.09 99.1886 122.86 99.4886 121.62C100.719 116.56 101.949 111.5 103.179 106.43L105.259 97.8502C105.319 97.5902 104.919 97.4702 104.849 97.7402H104.859Z" fill="#346A8B"/>
<path d="M164.199 58.7102C164.199 58.7102 162.389 57.6002 159.479 58.0202C156.559 58.4402 152.629 61.0902 152.629 61.0902L152.119 73.9902C152.119 73.9902 158.369 92.6002 160.169 96.3502C161.979 100.1 170.169 97.7402 170.169 97.7402C170.169 97.7402 163.229 72.8902 162.809 71.2202C162.389 69.5502 164.199 58.7202 164.199 58.7202V58.7102Z" fill="#B6522A"/>
<path d="M140.44 8.53013C140.44 8.53013 139.86 8.53013 139.25 8.78013C138.64 9.03013 138.78 10.5101 138.78 10.5101C138.78 10.5101 137.63 11.3401 137.34 11.9501C137.05 12.5601 137.56 13.9302 137.56 13.9302C137.56 13.9302 136.41 15.3701 136.73 16.1301C137.05 16.8901 137.63 17.5701 137.63 17.5701C137.63 17.5701 137.02 18.8701 137.34 19.4801C137.66 20.0901 138.67 20.6701 139.14 20.5601C139.61 20.4501 142.53 18.3201 142.53 18.3201C142.53 18.3201 144.73 18.3201 145.85 17.1301C146.97 15.9401 147.51 14.7901 148.3 14.5001C149.09 14.2101 150.86 14.6401 150.61 13.3801C150.36 12.1201 150.32 11.4001 149.74 10.5301C149.16 9.66013 146.85 7.54016 145.63 7.43016C144.4 7.32016 140.44 8.51014 140.44 8.51014V8.53013Z" fill="#1A1A1A"/>
<path d="M140.75 16.6702C140.75 16.9202 135.52 24.2602 134.34 25.0202C133.16 25.7802 135.6 30.9602 138.77 31.9502C141.17 32.7002 145.35 30.4402 145.6 28.5902C145.6 28.5902 145.01 28.1402 144.89 27.6402C144.89 27.2202 144.97 26.7402 145.21 26.2002C146.05 24.2602 147.82 21.9901 147.82 21.3102C147.82 20.6302 140.74 16.6702 140.74 16.6702H140.75Z" fill="#B6522A"/>
<path d="M140.64 18.1402C140.33 18.8902 140.1 19.6802 139.95 20.4802C139.74 21.6102 139.88 22.8702 140.19 24.0202C140.59 25.5102 141.84 27.1802 144.91 27.3302C144.94 26.9902 145.03 26.6102 145.21 26.1902C146.05 24.2502 147.82 21.9802 147.82 21.3002C147.82 20.7402 142.87 17.8802 141.25 16.9502C141.03 17.3402 140.8 17.7202 140.63 18.1302L140.64 18.1402Z" fill="#8E340D"/>
<path d="M154.49 16.4402C154.49 16.5202 157.79 17.1602 158.68 17.1002C159.57 17.0402 160.05 16.5102 159.79 15.9102C159.53 15.3102 154.57 14.5302 154.15 14.5102C153.73 14.4802 154.49 16.4402 154.49 16.4402Z" fill="#464E7A"/>
<path d="M156.11 13.0302C156.11 13.0302 154.57 24.4502 152 26.4702C150.64 27.5402 147.58 27.1202 146.17 26.6702C141.83 25.3102 139.6 22.1902 140.34 17.4702C140.34 17.4702 135.92 15.7502 139.38 11.7602C141.27 9.58016 142.5 14.0002 142.5 14.0002C142.5 14.0002 143.36 14.2902 143.97 12.7702C144.76 12.6302 145.39 12.1802 145.3 11.6202C146.28 11.3202 145.94 10.9902 146.2 10.3902C147.96 11.7302 153.39 11.5902 155.36 9.72015C155.36 9.72015 155.03 11.8102 156.1 13.0202L156.11 13.0302Z" fill="#B6522A"/>
<path d="M156.02 16.5102L155.99 16.4302C155.99 16.4302 155.95 16.3802 155.93 16.3602C155.71 16.1902 155.51 15.9902 155.33 15.7602C155.34 15.7802 155.36 15.8002 155.37 15.8202C155.35 15.7802 155.32 15.7502 155.29 15.7302C155.26 15.7002 155.22 15.6802 155.18 15.6702C155.1 15.6502 155 15.6602 154.94 15.7002C154.87 15.7402 154.81 15.8102 154.79 15.8902C154.77 15.9702 154.77 16.0702 154.82 16.1402C154.93 16.2802 155.03 16.4101 155.16 16.5301C155.28 16.6501 155.41 16.7602 155.55 16.8702C155.61 16.9202 155.73 16.9202 155.79 16.9002C155.86 16.8802 155.94 16.8201 155.98 16.7501C156.02 16.6801 156.04 16.5902 156.01 16.5102H156.02Z" fill="#1A1A1A"/>
<path d="M149.81 13.7802C149 13.8702 148.19 14.0302 147.41 14.2702C147.25 14.3202 147.14 14.4902 147.19 14.6602C147.23 14.8202 147.42 14.9302 147.58 14.8802C148.31 14.6602 149.06 14.5002 149.81 14.4102C149.98 14.3902 150.13 14.2802 150.13 14.0902C150.13 13.9302 149.98 13.7502 149.81 13.7702V13.7802Z" fill="#1A1A1A"/>
<path d="M151.05 0.36017C150.89 0.14017 150.64 0.000153628 150.36 0.000153628C149.83 -0.00984637 149.52 0.470157 149.34 0.910157C149.3 1.02016 149.39 1.14017 149.49 1.17017C149.54 1.18017 149.59 1.17016 149.63 1.16016C150.09 1.20016 150.55 1.25016 151 1.29016C151.08 1.29016 151.19 1.22016 151.2 1.13016C151.25 0.860159 151.2 0.580169 151.04 0.36017H151.05Z" fill="#464E7A"/>
<path d="M140.439 8.53018C140.439 8.53018 143.609 8.67018 144.259 9.03018C144.909 9.39017 146.499 12.6402 148.659 14.1502C150.819 15.6602 157.319 15.7402 158.829 16.1002C160.339 16.4602 159.259 16.9702 158.689 17.1102C158.689 17.1102 160.129 17.1102 160.349 16.4602C160.569 15.8102 157.239 10.6802 157.099 10.5302C156.959 10.3802 156.889 5.06018 155.739 3.19018C154.589 1.31018 148.019 0.0202035 144.919 0.590203C141.819 1.1702 140.449 8.5202 140.449 8.5202L140.439 8.53018Z" fill="#607CAF"/>
<path d="M144.79 8.91016C144.79 8.91016 148.59 9.11018 151.97 9.65018C155.35 10.1902 157 10.5302 157.02 10.4202C157.05 10.3102 155.71 9.94017 153.93 9.48017C152.14 9.03017 145.72 8.32018 145.16 8.37018C144.59 8.43018 144.45 8.88016 144.79 8.91016Z" fill="#464E7A"/>
<path opacity="0.5" d="M146.87 0.970141C145.23 3.05014 144.1 5.51016 143.61 8.11016C143.56 8.38016 143.97 8.49014 144.02 8.22014C144.49 5.69014 145.57 3.29015 147.17 1.26015C147.34 1.05015 147.04 0.750162 146.87 0.960162V0.970141Z" fill="#464E7A"/>
<path d="M149.27 17.2702C149.32 17.0902 149.27 16.9002 149.11 16.7902C149.11 16.7902 149.11 16.7902 149.1 16.7902C149.08 16.7602 149.07 16.7302 149.04 16.7102C148.91 16.5902 148.7 16.5802 148.55 16.6802C148.41 16.7802 148.35 16.9302 148.3 17.0802C148.3 17.0802 148.3 17.1002 148.3 17.1102C148.25 17.2402 148.23 17.3802 148.26 17.5202C148.28 17.6202 148.34 17.7102 148.42 17.7802C148.44 17.8202 148.46 17.8502 148.49 17.8802C148.64 18.0102 148.85 17.9902 149 17.8802C149.12 17.7902 149.22 17.6702 149.26 17.5202C149.28 17.4402 149.28 17.3602 149.27 17.2902V17.2702Z" fill="#1A1A1A"/>
<path d="M155.02 17.9602C154.95 17.8602 154.85 17.8102 154.73 17.8102C154.73 17.8102 154.72 17.8102 154.71 17.8102C154.7 17.8102 154.69 17.8102 154.68 17.8102C154.68 17.8102 154.67 17.8102 154.66 17.8102C154.66 17.8102 154.65 17.8102 154.64 17.8102C154.62 17.8102 154.61 17.8202 154.59 17.8302C154.54 17.8602 154.5 17.9102 154.46 17.9602C154.42 18.0202 154.39 18.1002 154.37 18.1702C154.34 18.2602 154.32 18.3602 154.32 18.4502C154.32 18.5302 154.34 18.6002 154.38 18.6702C154.4 18.7602 154.45 18.8402 154.53 18.8902C154.62 18.9402 154.72 18.9402 154.81 18.8902C154.81 18.8902 154.82 18.8902 154.83 18.8902C154.85 18.8802 154.87 18.8602 154.89 18.8402C154.89 18.8402 154.9 18.8402 154.91 18.8302C155.04 18.7002 155.1 18.5102 155.08 18.3302C155.1 18.2002 155.09 18.0602 155.02 17.9502V17.9602Z" fill="#1A1A1A"/>
<path d="M151.66 20.9802C151.6 20.9302 151.52 20.8802 151.44 20.8902C151.2 20.9102 150.95 20.9302 150.71 20.9502C150.62 20.9502 150.55 20.9802 150.49 21.0402C150.43 21.1002 150.39 21.1902 150.4 21.2602C150.4 21.3402 150.43 21.4302 150.49 21.4802C150.55 21.5302 150.63 21.5802 150.71 21.5702C150.95 21.5502 151.2 21.5302 151.44 21.5102C151.53 21.5102 151.6 21.4802 151.66 21.4202C151.72 21.3602 151.76 21.2702 151.75 21.2002C151.75 21.1202 151.72 21.0302 151.66 20.9802Z" fill="#923B16"/>
<path d="M151.899 23.3702C151.899 23.3702 150.809 23.1602 149.819 22.8502C148.829 22.5402 149.769 24.8302 150.499 24.7202C151.229 24.6102 151.909 23.3702 151.909 23.3702H151.899Z" fill="white"/>
<path d="M166.269 169.7C158.709 174.33 159.189 175.85 159.249 177.19C159.599 177.84 159.849 178.18 159.979 178.25C160.859 178.69 164.149 180.09 170.469 177.05C169.169 174.45 167.869 171.86 166.679 169.46C166.539 169.54 166.409 169.62 166.269 169.7Z" fill="#1A1A1A"/>
<path d="M204.13 169.4C200.63 167.48 189.99 175.93 187.77 176.38C185.03 176.93 183.84 175.18 183.34 174.18C182.48 172.19 180.7 169.58 179.55 166.51C179.44 166.22 179.33 165.93 179.22 165.64C178.17 164.17 176.57 163.48 166.67 169.46C167.86 171.86 169.16 174.45 170.46 177.05C174.98 186.08 179.56 195.16 180.1 196.15C181.65 198.98 182.75 200.11 182.75 200.11C182.75 200.11 205.88 170.36 204.12 169.4H204.13Z" fill="#A24B28"/>
<path d="M169 174.12C169.48 175.09 169.98 176.07 170.47 177.05C174.11 184.32 177.79 191.62 179.36 194.71L191.66 188.91C192.66 187.63 192.7 186.31 193.71 184.98C192.64 182.83 190.78 179.31 188.59 176.07C188.25 176.23 187.97 176.35 187.77 176.39C185.03 176.94 184.4 176.28 183.9 175.29C183.25 173.78 181.59 170.88 180.42 168.61C175.19 166.73 170.77 172.35 169 174.14V174.12Z" fill="#EFEFEF"/>
<path d="M204.129 169.4C198.949 165.32 189.989 175.93 187.769 176.38C185.299 176.88 184.089 175.5 183.509 174.5C183.509 174.5 182.099 173.43 179.839 176.21C178.889 177.38 180.109 178.61 178.879 181.82C177.809 184.59 174.349 184.78 174.509 185.1C177.409 190.87 179.739 195.47 180.119 196.16C181.669 198.99 182.769 200.12 182.769 200.12C182.769 200.12 205.709 170.65 204.139 169.41L204.129 169.4Z" fill="#4C4C4C"/>
<path d="M204.129 169.4C202.129 167.82 199.559 168.44 197.029 169.82C196.999 169.92 196.979 170.03 196.959 170.13C196.549 172.59 194.249 174.07 191.709 176.61C189.169 179.15 185.889 184.24 184.489 186.53C183.099 188.83 182.279 187.6 181.049 189.73C180.369 190.91 179.869 193.24 179.549 195.09C179.829 195.63 180.019 195.99 180.099 196.15C181.649 198.98 182.749 200.11 182.749 200.11C182.749 200.11 205.689 170.64 204.119 169.4H204.129Z" fill="#323232"/>
<path d="M179.839 181.43C179.019 183.1 177.939 184.89 176.049 185.46C175.789 185.54 175.899 185.95 176.159 185.87C178.159 185.26 179.329 183.42 180.199 181.64C180.319 181.4 179.949 181.18 179.829 181.43H179.839Z" fill="#323232"/>
<path d="M197.089 187.76C190.899 196.22 184.979 201.7 182.649 200C180.319 198.29 182.459 190.05 188.649 181.59C194.839 173.13 201.869 167.98 204.079 169.35C206.529 170.88 203.279 179.3 197.089 187.76Z" fill="#1A1A1A"/>
<path d="M186.78 178.25C186.67 178.32 186.55 178.39 186.43 178.45C186.52 177.78 186.74 177.12 187.08 176.53C187.22 176.29 186.85 176.08 186.71 176.32C186.29 177.03 186.05 177.83 185.98 178.65C185.19 178.96 184.35 179.03 183.55 178.89C183.87 177.83 184.46 176.88 185.28 176.14C185.48 175.96 185.18 175.66 184.98 175.84C184.11 176.64 183.47 177.67 183.13 178.8C182.61 178.66 182.11 178.42 181.66 178.1C181.89 177.56 182.18 177.04 182.53 176.57C182.92 176.04 183.4 175.46 184.03 175.21C184.28 175.11 184.17 174.7 183.92 174.8C183.21 175.08 182.69 175.67 182.24 176.26C181.87 176.74 181.57 177.27 181.33 177.82C181.16 177.67 181 177.51 180.85 177.33C180.67 177.12 180.38 177.42 180.55 177.63C180.74 177.85 180.94 178.06 181.16 178.24C181.16 178.25 181.16 178.26 181.15 178.27C181.07 178.48 181.33 178.59 181.48 178.48C181.96 178.82 182.49 179.06 183.04 179.21C183.04 179.23 183.03 179.25 183.03 179.27C182.97 179.54 183.38 179.65 183.44 179.38C183.44 179.35 183.45 179.33 183.46 179.31C184.31 179.47 185.2 179.4 186.03 179.1C186.14 179.22 186.4 179.18 186.4 178.96C186.4 178.96 186.4 178.95 186.4 178.94C186.6 178.85 186.81 178.74 187 178.62C187.23 178.47 187.02 178.11 186.79 178.25H186.78Z" fill="#323232"/>
<path d="M101.589 42.5002C101.589 42.5002 99.2788 41.9902 97.8488 43.5302C96.4188 45.0702 99.3888 49.0902 101.349 49.3602C103.309 49.6202 101.589 42.5002 101.589 42.5002Z" fill="black"/>
<path d="M113.408 90.5402C113.408 90.5402 110.978 90.5401 110.758 92.4301C110.538 94.3201 111.458 94.8602 113.898 95.4102C116.328 95.9502 113.408 90.5402 113.408 90.5402Z" fill="#E84854"/>
<path d="M108.968 56.3401C108.968 56.3401 109.988 55.0201 110.338 53.2201C110.678 51.4201 109.998 48.5901 107.418 46.1901C104.848 43.7901 101.588 42.5001 101.588 42.5001C101.588 42.5001 94.5581 55.3701 93.5281 60.5101C92.4981 65.6601 110.858 89.0701 111.968 89.9301C113.078 90.7901 112.658 96.0201 113.508 98.3401C114.368 100.66 116.428 98.6002 117.028 98.8502C117.628 99.1002 118.828 100.31 119.948 99.6201C121.058 98.9301 122.178 99.3601 123.208 99.6201C124.238 99.8801 124.748 98.5901 125.348 98.5101C125.948 98.4301 126.548 99.1101 127.238 98.7701C127.928 98.4301 128.008 97.7401 128.008 97.7401C128.008 97.7401 125.688 98.0001 124.748 96.0201C123.808 94.0501 125.688 91.9901 126.378 92.0701C127.068 92.1601 128.348 92.7601 128.608 92.9301C128.868 93.1001 127.918 89.3301 126.118 87.9601C124.318 86.5901 120.118 84.7901 119.258 84.2701C118.398 83.7601 106.798 63.7001 106.378 62.3301C105.948 60.9601 108.978 56.3401 108.978 56.3401H108.968Z" fill="#B6522A"/>
<path d="M127.629 97.9002C127.629 97.9002 126.169 97.6502 124.979 96.8102C123.779 95.9802 124.259 93.6402 124.729 92.5802C125.199 91.5202 126.679 91.7202 127.759 92.1902C128.839 92.6602 131.239 93.7202 132.289 95.1402C133.349 96.5602 133.849 100.4 133.959 101.17C134.069 101.95 129.929 103.06 129.229 102.56C128.529 102.06 127.629 97.8902 127.629 97.8902V97.9002Z" fill="#E84854"/>
<path d="M236.448 188.43C236.498 183.07 235.498 177.42 232.888 172.85C230.608 168.86 228.148 166.85 225.098 165.76C223.948 165.27 222.718 164.95 221.468 164.86C221.098 164.83 220.718 164.83 220.348 164.84C217.878 164.76 215.508 165.36 213.308 166.7C210.118 168.63 206.618 173.23 206.178 178.36C205.728 183.49 206.678 195.24 213.008 199.97C219.338 204.7 225.788 203.35 225.788 203.35C234.788 201.04 236.398 193.79 236.448 188.43Z" fill="#323232"/>
<path d="M213.459 196.24C213.459 196.24 210.209 191.17 209.709 183.42C209.209 175.67 214.219 173.81 217.329 176.64C220.439 179.47 222.499 185.33 222.489 191.95C222.489 196.8 220.829 198.02 219.169 198.57C217.509 199.12 214.909 198.52 213.459 196.24Z" fill="#E84854"/>
<path d="M217.068 198.12C217.068 198.12 217.008 198.1 216.988 198.09C216.868 198.03 213.968 196.46 212.578 190.98C211.038 184.94 210.748 181.19 211.648 179.19C212.618 177.04 214.028 176.03 215.618 176.35C215.788 176.38 215.898 176.55 215.868 176.72C215.838 176.89 215.668 177 215.498 176.97C214.228 176.71 213.068 177.59 212.238 179.45C211.408 181.29 211.728 185.01 213.208 190.82C214.528 196 217.268 197.51 217.298 197.53C217.448 197.61 217.508 197.8 217.428 197.96C217.358 198.09 217.218 198.15 217.088 198.12H217.068Z" fill="#BD2328"/>
<path d="M213.327 186.13C213.327 186.13 213.347 188.78 214.817 189.41C216.287 190.04 217.197 189.74 217.237 189.18C217.297 188.31 216.737 185.38 215.827 184.15C215.117 183.2 213.137 185.15 213.327 186.13Z" fill="#323232"/>
<path d="M145.069 158.73C145.069 158.73 130.599 91.9901 129.699 87.9601C128.799 83.9301 152.659 65.1401 156.629 65.1401C160.599 65.1401 196.739 71.2801 202.159 73.0901C207.579 74.9001 226.409 141.55 226.569 147.97C226.729 154.4 145.059 158.73 145.059 158.73H145.069Z" fill="#F1DCCB"/>
<path d="M155.099 199.62C155.099 199.62 144.619 162 143.759 155.95C142.889 149.89 158.909 134.31 162.799 133.01C166.689 131.71 215.649 134.74 221.709 135.61C227.769 136.48 238.469 182.78 238.899 184.94C239.329 187.1 219.459 196.16 216.829 196.19C212.029 196.24 155.099 199.62 155.099 199.62Z" fill="#D89C77"/>
<path d="M175.829 182.34C174.509 182.9 159.149 195.56 154.999 199.29C155.059 199.5 152.729 200.65 152.729 200.65C152.729 200.65 212.019 196.24 216.819 196.19C218.649 196.17 228.759 191.81 234.639 188.41C236.669 186.57 238.188 185.11 237.928 184.93C237.278 184.5 177.339 181.68 175.829 182.33V182.34Z" fill="#BE805F"/>
<path d="M132.62 100.5C132.62 100.5 156.63 197.22 157.44 198.51C158.25 199.81 173.51 191.86 174.8 191.21C176.1 190.56 232.35 189.53 233.17 189.7C234.6 189.99 212.61 199.68 206.77 200.82C205.75 201.02 156.95 202.25 155.17 201.61C153.38 200.96 130.02 101.48 130.02 101.48C130.02 101.48 130.32 100.66 130.95 100.36C131.58 100.06 132.54 100.18 132.62 100.51V100.5Z" fill="#2D2B2B"/>
<path d="M176.739 185.58C174.799 179.06 172.929 172.52 171.109 165.96C169.289 159.4 167.539 152.83 165.839 146.24C164.889 142.56 163.959 138.87 163.049 135.18C162.889 134.52 161.859 134.8 162.029 135.46C163.659 142.07 165.349 148.66 167.099 155.23C168.849 161.81 170.659 168.37 172.529 174.91C173.569 178.57 174.639 182.22 175.719 185.87C175.909 186.52 176.939 186.24 176.739 185.59V185.58Z" fill="#BE805F"/>
<path d="M149.109 145.31C149.109 145.31 140.219 156.52 139.259 158.44C138.299 160.35 151.529 199.46 152.489 200.66C153.449 201.86 174.529 183.22 174.529 183.22L149.109 145.32V145.31Z" fill="#D89C77"/>
<path d="M154.168 200.52C154.168 200.52 156.038 200.12 159.848 198.52C163.658 196.92 166.128 195.11 166.128 195.11L160.908 194.88C160.908 194.88 154.238 200.05 153.498 200.39C152.758 200.72 154.168 200.52 154.168 200.52Z" fill="#BE805F"/>
<path d="M156.369 149.07C155.979 148.85 155.439 148.96 155.029 149.07C154.189 149.28 153.459 149.77 152.789 150.31C152.099 150.86 151.449 151.46 150.809 152.07C149.669 153.14 148.629 154.31 147.869 155.68C147.369 156.38 146.879 157.14 146.699 157.98C146.509 158.82 146.569 160.19 147.749 160.11C148.639 160.05 149.369 159.51 149.999 158.92C150.679 158.29 151.319 157.62 151.959 156.94C153.249 155.56 154.469 154.1 155.599 152.59C156.139 151.87 156.759 151.13 156.849 150.2C156.889 149.78 156.769 149.3 156.379 149.08L156.369 149.07Z" fill="#BE805F"/>
<path d="M210.338 140.43C206.298 139.95 202.248 139.54 198.188 139.18C194.148 138.82 190.108 138.52 186.058 138.28C183.768 138.14 181.468 138.03 179.168 137.93C178.488 137.9 178.488 138.96 179.168 138.99C183.238 139.17 187.298 139.4 191.358 139.69C195.398 139.98 199.438 140.33 203.468 140.74C205.758 140.97 208.038 141.22 210.318 141.49C210.598 141.52 210.848 141.22 210.848 140.96C210.848 140.65 210.608 140.46 210.318 140.43H210.338Z" fill="#BE805F"/>
<path d="M222.999 146.91C218.409 146.35 213.819 145.88 209.219 145.48C204.619 145.08 200.009 144.76 195.399 144.52C192.809 144.38 190.229 144.27 187.639 144.19C186.959 144.17 186.959 145.23 187.639 145.25C192.259 145.4 196.869 145.63 201.479 145.95C206.089 146.26 210.689 146.65 215.289 147.12C217.869 147.38 220.439 147.67 223.009 147.98C223.289 148.01 223.539 147.71 223.539 147.45C223.539 147.14 223.299 146.95 223.009 146.92L222.999 146.91Z" fill="#BE805F"/>
<path d="M170.94 127.37C170.02 123.43 169.11 119.48 168.19 115.54C167.28 111.62 166.37 107.69 165.46 103.76C164.55 99.8201 163.64 95.8701 162.72 91.9201C161.81 87.9901 160.91 84.0701 160 80.1401C159.09 76.1901 158.18 72.2501 157.27 68.3001C157.16 67.8101 157.04 67.3201 156.93 66.8301C156.78 66.1701 155.76 66.4501 155.91 67.1101C156.82 71.0601 157.73 75.0001 158.64 78.9501C159.54 82.8801 160.45 86.8002 161.36 90.7302C162.27 94.6802 163.18 98.6201 164.1 102.57C165.01 106.5 165.92 110.42 166.83 114.35C167.74 118.29 168.66 122.24 169.58 126.18C169.69 126.67 169.81 127.16 169.92 127.65C170.07 128.31 171.1 128.03 170.94 127.37Z" fill="#E7C7AF"/>
<path d="M149.869 75.4701C149.489 74.8101 148.729 74.9502 148.139 75.2102C147.069 75.6802 146.029 76.2301 145.039 76.8501C143.039 78.0901 141.199 79.6001 139.599 81.3301C139.149 81.8101 138.729 82.3101 138.319 82.8201C137.909 83.3401 137.459 83.8801 137.129 84.4501C136.749 85.1001 136.759 85.9801 137.539 86.3101C137.629 86.3501 137.719 86.3801 137.809 86.3901C137.909 86.4501 138.039 86.4701 138.189 86.4201C138.229 86.4101 138.269 86.3901 138.309 86.3801C138.469 86.3501 138.619 86.2902 138.759 86.2202C139.749 85.8202 140.609 85.1801 141.479 84.5601C142.499 83.8301 143.519 83.0901 144.509 82.3201C145.489 81.5501 146.449 80.7402 147.329 79.8502C148.189 78.9902 149.059 78.0501 149.699 77.0101C149.969 76.5701 150.159 75.9502 149.879 75.4602L149.869 75.4701Z" fill="#E7C7AF"/>
<path d="M162.219 188.43C162.269 183.07 161.269 177.42 158.659 172.85C156.379 168.86 153.919 166.85 150.869 165.76C149.719 165.27 148.489 164.95 147.239 164.86C146.869 164.83 146.489 164.83 146.119 164.84C143.649 164.76 141.279 165.36 139.079 166.7C135.889 168.63 132.389 173.23 131.949 178.36C131.499 183.49 132.449 195.24 138.779 199.97C145.109 204.7 151.559 203.35 151.559 203.35C160.559 201.04 162.169 193.79 162.219 188.43Z" fill="#323232"/>
<path d="M139.24 196.24C139.24 196.24 135.99 191.17 135.49 183.42C134.99 175.67 140 173.81 143.11 176.64C146.22 179.47 148.28 185.33 148.27 191.95C148.27 196.8 146.61 198.02 144.95 198.57C143.29 199.12 140.69 198.52 139.24 196.24Z" fill="#E84854"/>
<path d="M142.849 198.12C142.849 198.12 142.789 198.1 142.769 198.09C142.649 198.03 139.749 196.46 138.359 190.98C136.819 184.94 136.529 181.19 137.429 179.19C138.399 177.04 139.809 176.03 141.399 176.35C141.569 176.38 141.679 176.55 141.649 176.72C141.619 176.89 141.449 177 141.279 176.97C140.009 176.71 138.849 177.59 138.019 179.45C137.189 181.29 137.509 185.01 138.989 190.82C140.309 196 143.049 197.51 143.079 197.53C143.229 197.61 143.289 197.8 143.209 197.96C143.139 198.09 142.999 198.15 142.869 198.12H142.849Z" fill="#BD2328"/>
<path d="M139.108 186.13C139.108 186.13 139.128 188.78 140.598 189.41C142.068 190.04 142.978 189.74 143.018 189.18C143.078 188.31 142.518 185.38 141.608 184.15C140.898 183.2 138.918 185.15 139.108 186.13Z" fill="#323232"/>
<path d="M118.908 43.3002C118.648 43.1402 118.348 43.2602 118.188 43.4902C115.638 47.1002 113.088 50.7102 110.538 54.3202C109.818 55.3402 109.098 56.3602 108.378 57.3802C108.208 57.6102 108.338 57.9702 108.568 58.1002C108.838 58.2602 109.128 58.1402 109.288 57.9102C111.838 54.3002 114.388 50.6902 116.938 47.0802C117.658 46.0602 118.378 45.0402 119.098 44.0202C119.268 43.7902 119.138 43.4302 118.908 43.3002Z" fill="#CDA282"/>
<path d="M116.42 24.3102C118.3 26.2302 119.86 28.4602 121.03 30.8902C121.55 31.9802 121.99 33.1102 122.35 34.2602C122.43 34.5202 122.84 34.4102 122.76 34.1502C121.62 30.4402 119.6 27.0102 116.92 24.2002C116.76 24.2302 116.59 24.2702 116.43 24.3002L116.42 24.3102Z" fill="#BD2328"/>
<path d="M155.049 41.8802C156.399 40.3102 157.839 38.8202 159.369 37.4302C159.279 37.3302 159.189 37.2202 159.079 37.1202C158.319 37.8102 157.579 38.5302 156.869 39.2602C156.139 40.0102 155.429 40.7902 154.749 41.5902C154.569 41.8002 154.869 42.1002 155.049 41.8902V41.8802Z" fill="#BD2328"/>
<path d="M146.598 30.5602C144.498 32.5101 142.018 34.7402 138.918 34.4102C137.428 34.2502 136.308 33.3602 135.388 32.2302C134.478 31.1102 133.758 29.8202 133.268 28.4602C132.848 27.2902 132.588 26.0702 132.508 24.8402C132.378 24.8302 132.228 24.8102 132.078 24.7902C132.248 27.4502 133.198 30.0502 134.808 32.1702C135.708 33.3502 136.808 34.4102 138.308 34.7402C139.778 35.0602 141.318 34.7402 142.658 34.0902C144.268 33.3002 145.598 32.0702 146.898 30.8602C147.098 30.6702 146.798 30.3702 146.598 30.5602Z" fill="#BD2328"/>
<path d="M146.669 54.8302C142.129 53.9502 137.539 53.3202 132.939 52.9402C131.629 52.8302 130.319 52.7402 129.009 52.6702C128.899 52.6702 128.829 52.7002 128.779 52.7602C128.669 52.8002 128.569 52.8902 128.559 53.0502C128.409 54.9302 128.099 56.7902 127.629 58.6202C127.529 59.0202 128.139 59.1902 128.239 58.7902C128.439 58.0002 128.619 57.2002 128.759 56.4002C128.779 56.4002 128.789 56.4102 128.809 56.4202C133.419 57.0802 138.029 57.7402 142.639 58.4002C143.609 58.5402 144.579 58.6802 145.519 58.9602C144.999 61.6602 144.379 64.9302 144.129 66.1302C144.029 66.6102 143.959 67.1002 143.829 67.5802C143.719 68.0002 143.179 68.1302 142.829 68.2902C141.969 68.6802 141.089 69.0201 140.189 69.3102C138.389 69.9002 136.519 70.3302 134.629 70.5202C134.399 70.5402 134.169 70.5602 133.949 70.4602C133.729 70.3602 133.519 70.2001 133.319 70.0602L132.019 69.1702C131.179 68.5902 130.339 68.0202 129.499 67.4402C129.039 67.1202 128.579 66.8202 128.119 66.4902C127.759 66.2402 127.399 65.9302 127.349 65.4702C127.279 64.9502 127.359 64.3802 127.379 63.8502L127.439 62.0802C127.449 61.6702 126.819 61.6702 126.799 62.0802C126.779 62.6402 126.769 63.1902 126.749 63.7502C126.729 64.2702 126.689 64.8102 126.709 65.3302C126.739 66.3202 127.489 66.8202 128.229 67.3302C129.129 67.9502 130.019 68.5602 130.919 69.1802C131.379 69.5002 131.849 69.8202 132.309 70.1302C132.739 70.4202 133.159 70.7802 133.629 71.0102C134.109 71.2402 134.609 71.1602 135.119 71.1002C135.609 71.0402 136.109 70.9602 136.599 70.8802C137.599 70.7002 138.599 70.4602 139.579 70.1702C140.559 69.8802 141.519 69.5402 142.459 69.1402C142.909 68.9502 143.359 68.7602 143.789 68.5402C144.199 68.3302 144.399 68.0202 144.489 67.5802C144.819 66.0002 146.749 55.9502 146.899 55.2202C146.929 55.0602 146.859 54.8602 146.679 54.8302H146.669ZM145.639 58.3302C144.849 58.0902 144.029 57.9602 143.209 57.8402C142.059 57.6702 140.919 57.5102 139.769 57.3502C137.469 57.0202 135.159 56.6902 132.859 56.3602C131.569 56.1702 130.279 55.9902 128.979 55.8002C128.939 55.8002 128.899 55.8002 128.859 55.8002C128.989 54.9802 129.089 54.1502 129.159 53.3102C133.689 53.5502 138.199 54.0302 142.669 54.7602C143.849 54.9502 145.029 55.1602 146.209 55.3902C146.089 55.9802 145.879 57.0602 145.639 58.3302Z" fill="#346A8B"/>
<path d="M74.3884 191.84C73.2684 190.95 72.1284 190.05 70.7784 189.56C69.5284 189.11 68.1584 189.07 66.8784 189.41C66.7084 188.45 66.5684 187.48 66.4684 186.51C66.9984 186.25 67.6184 186.26 68.1984 186.33C68.8884 186.42 69.5584 186.62 70.1984 186.88C71.5084 187.42 72.6884 188.25 73.7784 189.15C73.9884 189.32 74.2884 189.02 74.0784 188.85C72.9084 187.88 71.6484 187 70.2284 186.44C69.5284 186.16 68.7984 185.97 68.0484 185.89C67.4984 185.83 66.9284 185.85 66.4184 186.06C66.3684 185.52 66.3284 184.98 66.2984 184.43C66.2684 183.89 66.2484 183.35 66.2484 182.81C66.8584 182.54 67.5484 182.58 68.1984 182.67C68.8784 182.77 69.5484 182.93 70.1984 183.15C71.5184 183.61 72.7284 184.36 73.6084 185.45C73.7784 185.66 74.0784 185.36 73.9084 185.15C72.9584 183.98 71.6484 183.19 70.2284 182.71C69.5184 182.47 68.7884 182.31 68.0484 182.22C67.4484 182.15 66.8184 182.14 66.2484 182.35C66.2484 181.38 66.3184 180.41 66.5184 179.47C66.5684 179.24 66.6284 179.01 66.6884 178.78C67.3484 178.72 68.0184 178.93 68.6484 179.12C69.2984 179.32 69.9484 179.56 70.5684 179.84C71.8084 180.4 72.9684 181.11 74.0284 181.96C74.2384 182.13 74.5384 181.83 74.3284 181.66C73.1884 180.75 71.9484 179.98 70.6184 179.4C69.9584 179.11 69.2784 178.86 68.5884 178.66C68.0184 178.49 67.4284 178.34 66.8384 178.36C67.0084 177.88 67.2284 177.41 67.5084 176.97C67.6584 176.74 67.2884 176.53 67.1384 176.76C66.8084 177.28 66.5584 177.83 66.3784 178.41C66.1984 178.45 66.1984 178.64 66.2884 178.75C66.0484 179.61 65.9284 180.5 65.8784 181.39C65.8584 181.78 65.8484 182.17 65.8484 182.56C65.7084 182.65 65.7484 182.82 65.8484 182.91C65.8484 184.04 65.9284 185.17 66.0384 186.29C66.0284 186.29 66.0184 186.3 66.0084 186.31C65.8384 186.43 65.9284 186.69 66.0884 186.71C66.0884 186.76 66.0984 186.82 66.1084 186.87C66.2084 187.76 66.3384 188.65 66.4984 189.54C66.4884 189.54 66.4684 189.54 66.4584 189.55C66.1984 189.64 66.3084 190.05 66.5684 189.96C66.5684 189.97 66.5684 189.99 66.5684 190C66.6184 190.27 67.0284 190.15 66.9784 189.89C66.9784 189.87 66.9784 189.85 66.9784 189.84C68.1984 189.51 69.4984 189.54 70.6884 189.98C71.9684 190.44 73.0584 191.31 74.1084 192.15C74.3184 192.32 74.6184 192.02 74.4084 191.85L74.3884 191.84Z" fill="#323232"/>
<path d="M65.73 176C64.92 175.17 65.09 173.9 65.24 172.86C65.26 172.75 65.2099 172.63 65.0899 172.6C64.9899 172.57 64.85 172.63 64.83 172.75C64.65 173.96 64.4999 175.35 65.4299 176.31C65.6199 176.51 65.92 176.21 65.73 176.01V176Z" fill="#323232"/>
</svg>
