<svg width="320" height="196" viewBox="0 0 320 196" fill="none" xmlns="http://www.w3.org/2000/svg">
<path d="M319.34 40.566C319.34 40.566 318.68 26.996 280.09 17.486C241.5 7.966 208.1 0.646004 194.36 3.206C175.71 6.686 177.4 16.746 168.11 15.286C154.77 13.186 130.76 7.456 91.22 2.226C21.31 -7.014 42.1 15.406 31.19 16.866C20.27 18.326 7.80001 19.306 4.29001 27.116C0.780009 34.926 0 80.806 0 96.916C0 113.026 5.85001 122.786 5.46001 132.056C5.07001 141.326 18.62 191.566 34.65 192.316C50.68 193.066 241.7 191.116 241.7 191.116C241.7 191.116 297.81 182.816 306.2 155.976C314.6 129.136 319.35 40.566 319.35 40.566H319.34Z" fill="#FFF0E0"/>
<path d="M206.74 192.216H127.63C127.63 192.216 122.2 184.366 123.56 183.006C124.92 181.646 136.2 185.716 136.2 185.716C136.2 185.716 136.2 183.006 137.56 183.006C138.92 183.006 140.27 185.716 140.27 185.716C140.27 185.716 137.56 178.936 138.91 178.936C140.26 178.936 141.62 183.006 141.62 183.006C141.62 183.006 141.62 181.646 142.98 181.646C144.34 181.646 144.34 184.356 144.34 184.356C144.8 184.126 145.75 183.606 146.26 183.756C147.17 184.006 146.81 185.266 146.72 186.106C147.79 185.436 149.2 185.336 150.35 185.856C150.23 185.566 150.45 185.226 150.73 185.106C151.01 184.976 151.34 185.006 151.65 185.036C152.17 185.086 152.69 185.136 153.21 185.176C152.74 184.616 152.33 183.996 152 183.356C151.51 182.426 151.23 181.126 152.02 180.436C152.62 179.906 153.6 180.046 154.24 180.526C154.88 181.006 155.25 181.756 155.59 182.476C155.7 182.076 155.81 181.666 156.07 181.336C156.33 181.006 156.76 180.786 157.16 180.906C157.45 180.996 157.66 181.246 157.82 181.496C158.22 182.126 158.16 182.956 158.48 183.506C159.52 182.696 159.81 181.196 161.39 180.956C161.67 180.916 161.99 180.936 162.19 181.136C162.41 181.336 162.44 181.666 162.44 181.966C162.46 183.266 162.22 184.566 161.75 185.776C162.52 184.786 164.31 184.916 164.92 186.016C164.9 184.996 164.42 184.026 164.42 183.006C164.42 181.986 165.34 180.836 166.29 181.206C166.71 181.366 166.97 181.766 167.2 182.146C167.73 183.056 168.15 184.016 168.47 185.016C168.53 184.356 168.62 183.626 169.13 183.196C169.64 182.766 170.66 183.026 170.62 183.686C170.89 182.976 172.07 183.116 172.44 183.786C172.81 184.456 172.6 185.286 172.32 185.986C172.76 185.196 173.77 184.826 174.67 184.936C175.57 185.036 176.39 185.526 177.11 186.096C178.24 185.326 179.81 185.276 180.98 185.986C180.5 185.296 180.21 184.456 180.16 183.616C180.15 183.436 180.16 183.246 180.25 183.086C180.5 182.686 181.11 182.846 181.51 183.086C182.24 183.526 182.88 184.106 183.39 184.776C183.11 184.026 184 183.216 184.79 183.366C185.95 183.576 186.17 184.866 186.59 185.766C187.05 185.586 187.36 185.176 187.75 184.866C188.13 184.556 188.71 184.366 189.1 184.666C189.53 184.996 189.43 185.666 189.28 186.196C190.95 185.816 192.7 185.786 194.38 186.096C194.27 185.616 193.89 185.256 193.69 184.816C193.48 184.376 193.54 183.716 194 183.566C194.27 183.476 194.56 183.616 194.82 183.746C196.2 184.466 197.57 185.186 198.95 185.906C199.22 185.096 198.51 183.946 199.22 183.466C199.53 183.256 199.95 183.336 200.31 183.456C201.24 183.756 202.13 184.206 202.92 184.776C201.65 183.216 200.83 181.286 200.58 179.286C200.49 178.546 200.6 177.596 201.31 177.356C201.9 177.166 202.48 177.616 202.93 178.046C204.38 179.446 205.69 180.996 206.83 182.656C206.7 182.066 206.57 181.446 206.69 180.846C206.81 180.246 207.26 179.676 207.86 179.606C208.55 179.526 209.14 180.106 209.47 180.716C209.77 181.306 209.96 182.036 210.44 182.506C210.79 182.326 211.16 182.136 211.55 182.066C212.03 184.456 208.25 190.706 206.73 192.216H206.74Z" fill="#208E48"/>
<path d="M29.0998 192.216H127.76C127.76 192.216 134.53 184.366 132.84 183.006C131.15 181.646 117.08 185.716 117.08 185.716C117.08 185.716 117.08 183.006 115.39 183.006C113.7 183.006 112.01 185.716 112.01 185.716C112.01 185.716 115.39 178.936 113.7 178.936C112.01 178.936 110.32 183.006 110.32 183.006C110.32 183.006 110.32 181.646 108.63 181.646C106.94 181.646 106.94 184.356 106.94 184.356C106.37 184.126 105.18 183.606 104.54 183.756C103.4 184.006 103.85 185.266 103.96 186.106C102.63 185.436 100.87 185.336 99.4298 185.856C99.5798 185.566 99.3098 185.226 98.9498 185.106C98.5998 184.976 98.1898 185.006 97.7998 185.036C97.1498 185.086 96.4998 185.136 95.8498 185.176C96.4298 184.616 96.9398 183.996 97.3598 183.356C97.9698 182.426 98.3198 181.126 97.3298 180.436C96.5798 179.906 95.3598 180.046 94.5698 180.526C93.7798 181.006 93.2998 181.756 92.8898 182.476C92.7598 182.076 92.6098 181.666 92.2998 181.336C91.9798 181.006 91.4398 180.786 90.9398 180.906C90.5798 180.996 90.3098 181.246 90.1098 181.496C89.6198 182.126 89.6898 182.956 89.2798 183.506C87.9798 182.696 87.6198 181.196 85.6498 180.956C85.2998 180.916 84.9098 180.936 84.6498 181.136C84.3798 181.336 84.3398 181.666 84.3298 181.966C84.3098 183.266 84.5998 184.566 85.1898 185.776C84.2298 184.786 81.9998 184.916 81.2298 186.016C81.2498 184.996 81.8598 184.026 81.8498 183.006C81.8398 181.986 80.6998 180.836 79.5198 181.206C78.9998 181.366 78.6698 181.766 78.3898 182.146C77.7298 183.056 77.1998 184.016 76.8098 185.016C76.7398 184.356 76.6198 183.626 75.9898 183.196C75.3598 182.766 74.0798 183.026 74.1298 183.686C73.7898 182.976 72.3198 183.116 71.8598 183.786C71.3998 184.456 71.6498 185.286 72.0198 185.986C71.4698 185.196 70.2198 184.826 69.0898 184.936C67.9598 185.036 66.9398 185.526 66.0498 186.096C64.6498 185.326 62.6798 185.276 61.2198 185.986C61.8198 185.296 62.1798 184.456 62.2398 183.616C62.2498 183.436 62.2398 183.246 62.1298 183.086C61.8198 182.686 61.0598 182.846 60.5598 183.086C59.6498 183.526 58.8498 184.106 58.2098 184.776C58.5498 184.026 57.4498 183.216 56.4598 183.366C55.0098 183.576 54.7398 184.866 54.2198 185.766C53.6498 185.586 53.2598 185.176 52.7798 184.866C52.2998 184.556 51.5798 184.366 51.0998 184.666C50.5598 184.996 50.6898 185.666 50.8698 186.196C48.7898 185.816 46.6098 185.786 44.5098 186.096C44.6498 185.616 45.1198 185.256 45.3698 184.816C45.6298 184.376 45.5598 183.716 44.9798 183.566C44.6398 183.476 44.2798 183.616 43.9598 183.746C42.2398 184.466 40.5298 185.186 38.8098 185.906C38.4698 185.096 39.3598 183.946 38.4698 183.466C38.0798 183.256 37.5598 183.336 37.1098 183.456C35.9498 183.756 34.8398 184.206 33.8498 184.776C35.4398 183.216 36.4598 181.286 36.7698 179.286C36.8798 178.546 36.7398 177.596 35.8598 177.356C35.1298 177.166 34.3998 177.616 33.8398 178.046C32.0298 179.446 30.3998 180.996 28.9798 182.656C29.1398 182.066 29.2998 181.446 29.1498 180.846C28.9998 180.246 28.4398 179.676 27.6898 179.606C26.8298 179.526 26.0898 180.106 25.6798 180.716C25.3098 181.306 25.0698 182.036 24.4698 182.506C24.0298 182.326 23.5698 182.136 23.0898 182.066C22.4998 184.456 27.2098 190.706 29.0998 192.216Z" fill="#208E48"/>
<path d="M294.921 192.506H205.381V181.656C205.381 180.296 219.101 179.096 219.101 179.096L307.281 178.646L294.921 192.516V192.506Z" fill="#C8D1D9"/>
<path d="M134.42 47.976H62.6699V120.476H134.42V47.976Z" fill="#A58064"/>
<path d="M133.061 47.976H61.3105V120.476H133.061V47.976Z" fill="#CDA282"/>
<path d="M128.091 52.696H66.291V115.756H128.091V52.696Z" fill="#493333"/>
<path d="M132.101 48.806C130.961 49.906 129.821 50.986 128.601 51.996C128.321 52.226 128.721 52.606 128.991 52.386C130.221 51.396 131.421 50.356 132.481 49.186C132.721 48.926 132.351 48.556 132.101 48.806Z" fill="#A58064"/>
<path d="M65.731 51.806C64.441 50.706 63.211 49.546 62.091 48.276C61.861 48.016 61.471 48.396 61.701 48.666C62.811 49.946 64.011 51.146 65.341 52.196C65.611 52.406 66.001 52.036 65.731 51.806Z" fill="#A58064"/>
<path d="M65.7405 116.146C64.5605 117.186 63.3405 118.206 62.2405 119.326C62.0105 119.556 62.3505 119.866 62.5905 119.676C63.8305 118.706 64.9805 117.596 66.1405 116.546C66.4105 116.306 66.0105 115.906 65.7405 116.146Z" fill="#A58064"/>
<path d="M132.04 119.426C131.18 118.166 130 117.076 128.86 116.066C128.6 115.836 128.22 116.206 128.48 116.446C129.6 117.486 130.57 118.646 131.65 119.716C131.84 119.906 132.2 119.656 132.04 119.416V119.426Z" fill="#A58064"/>
<path d="M67.871 52.696H66.291V115.756H67.871V52.696Z" fill="#A58064"/>
<path d="M100.211 52.696H96.4414V115.756H100.211V52.696Z" fill="#A58064"/>
<path d="M98.6997 51.136H94.9297V117.916H98.6997V51.136Z" fill="#CDA282"/>
<g opacity="0.1">
<path d="M67.5 111.286C67.8 110.836 91.92 53.706 91.92 53.706H93.88L94.03 58.226L75.34 112.336L72.48 111.736L75.34 102.696L69.61 114.906L67.68 115.026L67.5 111.286Z" fill="white"/>
<path d="M75.3297 85.206C75.3297 84.606 89.3497 53.856 89.3497 53.856H86.6397L74.4297 85.206H75.3297Z" fill="white"/>
</g>
<g opacity="0.1">
<path d="M100.961 111.286C101.261 110.836 125.381 53.706 125.381 53.706H127.341L127.491 58.226L108.801 112.336L105.941 111.736L108.801 102.696L103.071 114.906L101.141 115.026L100.961 111.286Z" fill="white"/>
<path d="M108.8 85.206C108.8 84.606 122.82 53.856 122.82 53.856H120.11L107.9 85.206H108.8Z" fill="white"/>
</g>
<path d="M292.51 42.376H219.1V179.096H292.51V42.376Z" fill="#CDA282"/>
<path d="M292.509 47.576H224.449V179.096H292.509V47.576Z" fill="#493333"/>
<path d="M227.919 177.916V48.726L225.429 48.246H224.449V178.326H225.429L227.919 177.916Z" fill="#89664E"/>
<path d="M261 177.586L225.43 178.336V48.256L262.21 49.756L261 177.586Z" fill="#CDA282"/>
<path d="M225.13 66.336H224.82C224.495 66.336 224.23 66.6001 224.23 66.926V72.316C224.23 72.6418 224.495 72.906 224.82 72.906H225.13C225.456 72.906 225.72 72.6418 225.72 72.316V66.926C225.72 66.6001 225.456 66.336 225.13 66.336Z" fill="#BE997E"/>
<path d="M225.43 72.746C225.15 73.136 224.69 72.886 224.52 72.566C224.38 72.306 224.36 71.966 224.35 71.676C224.33 71.276 224.35 70.876 224.36 70.476C224.38 69.656 224.4 68.836 224.41 68.006C224.41 67.786 224.07 67.786 224.06 68.006C224.02 68.796 223.99 69.576 223.95 70.366C223.92 71.046 223.83 71.786 224.02 72.446C224.22 73.166 225.35 73.916 225.78 72.946C225.88 72.706 225.59 72.536 225.43 72.746Z" fill="#A58064"/>
<path d="M226.02 68.226C225.99 67.486 225.97 65.856 224.83 66.086C224.58 66.136 224.69 66.506 224.94 66.466C225.66 66.356 225.59 68.196 225.59 68.646C225.59 68.926 225.65 69.336 225.55 69.606C225.44 69.906 224.94 69.756 224.65 69.756C224.36 69.756 224.38 70.156 224.65 70.186C224.98 70.226 225.69 70.396 225.92 70.086C226.04 69.916 226 69.586 226.02 69.386C226.05 68.996 226.05 68.606 226.03 68.216L226.02 68.226Z" fill="#A58064"/>
<path d="M225.13 155.576H224.82C224.495 155.576 224.23 155.84 224.23 156.166V161.556C224.23 161.882 224.495 162.146 224.82 162.146H225.13C225.456 162.146 225.72 161.882 225.72 161.556V156.166C225.72 155.84 225.456 155.576 225.13 155.576Z" fill="#BE997E"/>
<path d="M225.43 161.976C225.15 162.366 224.69 162.116 224.52 161.796C224.38 161.536 224.36 161.196 224.35 160.906C224.33 160.506 224.35 160.106 224.36 159.706C224.38 158.886 224.4 158.066 224.41 157.236C224.41 157.016 224.07 157.016 224.06 157.236C224.02 158.026 223.99 158.806 223.95 159.596C223.92 160.276 223.83 161.016 224.02 161.676C224.22 162.396 225.35 163.146 225.78 162.176C225.88 161.936 225.59 161.766 225.43 161.976Z" fill="#A58064"/>
<path d="M226.02 157.466C225.99 156.726 225.97 155.096 224.83 155.326C224.58 155.376 224.69 155.746 224.94 155.706C225.66 155.596 225.59 157.436 225.59 157.886C225.59 158.166 225.65 158.576 225.55 158.846C225.44 159.146 224.94 158.996 224.65 158.996C224.36 158.996 224.38 159.396 224.65 159.426C224.98 159.466 225.69 159.636 225.92 159.326C226.04 159.156 226 158.826 226.02 158.626C226.05 158.236 226.05 157.846 226.03 157.456L226.02 157.466Z" fill="#A58064"/>
<path d="M224.08 46.976C222.76 45.766 221.43 44.596 220.22 43.256C219.99 43.006 219.62 43.376 219.85 43.626C221.05 44.966 222.33 46.296 223.77 47.366C224 47.536 224.29 47.156 224.08 46.966V46.976Z" fill="#A58064"/>
<path d="M259.8 107.346C260.11 107.436 260.37 107.596 260.54 107.846C260.66 108.026 260.67 108.266 260.68 108.486C260.78 110.956 260.81 113.436 260.77 115.906C260.75 117.146 260.72 118.376 260.67 119.616C260.64 120.236 260.62 120.856 260.58 121.466C260.56 121.836 260.65 122.406 260.19 122.526C259.56 122.696 258.89 122.736 258.24 122.656C257.88 122.616 257.48 122.506 257.31 122.186C257.23 122.036 257.21 121.856 257.19 121.696C257.09 120.646 257.17 119.546 257.15 118.476C257.13 117.316 257.12 116.156 257.11 114.996C257.09 112.696 257.1 110.406 257.1 108.106C257.1 107.626 257.2 107.466 257.64 107.376C258.19 107.276 259.1 107.136 259.79 107.336L259.8 107.346Z" fill="#F2B24E"/>
<path d="M257.9 122.076C257.43 121.066 257.591 119.606 257.561 118.516C257.531 117.316 257.511 116.106 257.511 114.906C257.501 112.566 257.391 110.186 257.631 107.846C257.661 107.556 257.151 107.476 257.111 107.776C256.751 110.256 256.88 112.846 256.9 115.356C256.9 116.656 256.931 117.966 256.981 119.266C257.021 120.266 256.901 121.466 257.391 122.386C257.581 122.736 258.071 122.426 257.911 122.086L257.9 122.076Z" fill="#D39639"/>
<path d="M259.63 113.206C259.51 112.836 259.08 112.886 258.74 112.856C257.63 112.776 256.52 112.736 255.41 112.746C254.94 112.746 254.49 112.666 254.03 112.846C253.95 112.876 253.86 112.926 253.81 112.996C253.74 113.096 253.74 113.226 253.74 113.346C253.76 113.776 253.84 114.196 253.92 114.616C253.98 114.956 253.84 115.256 254.31 115.266C254.77 115.266 255.21 115.256 255.66 115.236C256.12 115.226 256.58 115.206 257.04 115.196C257.72 115.186 258.78 115.426 259.38 114.996C259.93 114.596 259.82 113.766 259.63 113.206Z" fill="#F2B24E"/>
<path d="M260.281 113.016C260.081 112.616 259.361 112.596 258.961 112.606C258.831 112.606 258.621 112.716 258.631 112.866C258.841 112.976 259.101 112.976 259.341 113.006C259.581 113.036 259.841 113.116 259.961 113.336C260.011 113.426 260.031 113.526 260.041 113.636C260.081 113.936 260.111 114.246 260.111 114.546C260.111 114.606 260.111 114.656 260.091 114.716C260.061 114.796 260.001 114.866 259.941 114.916C259.891 114.956 259.811 115.026 259.751 115.026C258.891 115.046 258.031 115.026 257.161 115.076C256.881 115.096 256.781 115.546 257.091 115.596C257.631 115.676 258.221 115.706 258.781 115.656C259.521 115.676 260.311 115.506 260.381 114.756C260.431 114.276 260.491 113.456 260.271 113.006L260.281 113.016Z" fill="#D39639"/>
<path d="M259.63 118.136C259.5 117.946 259.27 117.846 259.04 117.926C258.82 117.996 258.67 118.216 258.66 118.446C258.66 118.646 258.74 118.826 258.86 118.986C258.86 119.266 258.86 119.546 258.86 119.826C258.87 120.216 259.45 120.216 259.47 119.826C259.47 119.586 259.47 119.336 259.47 119.096C259.54 119.056 259.59 118.986 259.62 118.906C259.62 118.896 259.63 118.876 259.63 118.856C259.64 118.836 259.66 118.826 259.67 118.796C259.76 118.586 259.76 118.326 259.63 118.126V118.136Z" fill="#A96F2F"/>
<path d="M292.21 40.566V40.756C292.03 40.706 291.84 40.756 291.67 40.956C290.46 42.426 290.89 44.606 291.24 46.326C291.36 46.936 291.5 47.626 291.71 48.276C291.5 48.496 291.34 48.786 291.25 49.136C291.08 49.836 291.09 50.616 291.05 51.336C291 52.166 290.97 52.986 290.95 53.816C290.91 55.426 290.93 57.026 291.01 58.626C291.07 59.996 291 61.636 291.82 62.806C291.38 63.876 290.66 64.916 290.73 66.126C290.78 66.976 291.22 67.946 292.07 68.236C291.94 68.416 291.84 68.636 291.78 68.866C291.38 70.456 291.19 72.156 290.98 73.786C290.77 75.426 290.65 77.086 290.71 78.736C290.75 79.926 290.78 81.356 291.77 82.166C290.92 83.406 291.09 85.036 291.48 86.496C291.23 86.586 291.02 86.736 290.86 86.956C290.55 87.406 290.53 88.046 290.46 88.566C290.37 89.216 290.29 89.866 290.21 90.516C290.07 91.756 289.81 93.136 290 94.376C290.17 95.436 290.87 96.066 291.73 96.596C290.75 97.906 290.45 99.906 291.47 101.186C291.37 101.246 291.28 101.316 291.18 101.396C290.7 101.806 290.52 102.346 290.46 102.966C290.38 103.816 290.36 104.676 290.32 105.526C290.25 107.096 290.14 108.696 290.26 110.256C290.36 111.566 290.67 112.976 291.67 113.906C291.67 113.906 291.67 113.906 291.66 113.906C291.4 114.146 291.27 114.456 291.26 114.786C290.46 118.426 288.76 123.016 291.85 126.046C291.87 126.066 291.88 126.076 291.9 126.096C291.22 126.636 290.87 127.526 290.72 128.416C290.43 130.136 290.44 131.946 290.43 133.686C290.43 135.586 290.52 137.476 290.71 139.366C290.87 140.906 291.02 142.536 292.08 143.746C292.08 143.746 292.09 143.756 292.1 143.766C291.12 145.206 290.72 147.076 292.15 148.366C291.59 148.776 291.29 149.556 291.19 150.216C291.05 151.086 291.23 151.956 291.71 152.696C291.37 153.126 291.04 153.566 290.79 154.056C289.95 155.666 290.02 157.526 290.02 159.286C290.02 161.086 290 162.916 290.21 164.706C290.32 165.616 290.56 166.556 291.13 167.246C291.18 167.346 291.26 167.426 291.36 167.486C291.54 167.656 291.75 167.806 291.99 167.926C291.37 169.106 290.78 170.296 290.53 171.606C290.08 173.986 290.83 176.546 291.83 178.716C291.8 178.746 291.78 178.776 291.75 178.816C291.15 179.786 290.93 180.896 291.06 181.986C285.83 181.856 280.59 181.956 275.36 181.956H225.45C219.19 181.956 212.92 181.856 206.66 181.976C205.91 181.986 206.74 183.016 209.45 183.016H224.37L273.25 183.156C279.27 183.156 285.3 183.276 291.32 183.116C291.43 183.416 291.57 183.716 291.74 183.996C290.47 186.516 290.32 189.676 291.94 192.036C292.01 192.136 292.1 192.206 292.2 192.246V192.506H319.33V40.566H292.2H292.21ZM292.18 78.156C292.18 77.676 292.18 77.196 292.21 76.716V79.746C292.15 79.196 292.19 78.616 292.18 78.156Z" fill="#B3BBC2"/>
<path d="M306.589 167.876C305.599 167.686 304.599 167.586 303.599 167.566C303.759 167.406 303.849 167.176 303.799 166.906C303.369 164.536 303.719 162.386 304.199 160.056C304.579 158.246 304.779 156.256 303.839 154.576C301.759 150.856 296.839 152.256 293.439 152.076C292.589 152.036 292.619 153.296 293.439 153.376C296.319 153.656 301.689 152.156 302.869 155.976C303.409 157.736 302.769 159.586 302.419 161.316C302.019 163.296 301.999 165.296 302.409 167.286C302.429 167.406 302.479 167.496 302.529 167.576C301.919 167.596 301.299 167.636 300.689 167.706C299.829 167.806 299.819 169.166 300.689 169.066C302.539 168.866 304.389 168.916 306.219 169.186C307.059 169.306 307.449 168.046 306.579 167.876H306.589Z" fill="#9CA5AB"/>
<path d="M314.569 176.606C313.159 176.416 311.729 176.476 310.339 176.796C309.209 177.056 307.939 177.516 307.359 178.596C306.729 179.766 307.029 181.446 307.039 182.716C307.039 183.506 307.059 184.286 307.069 185.076C307.079 185.856 307.009 186.686 307.289 187.426C307.469 187.916 308.139 187.936 308.309 187.426C308.699 186.306 308.479 184.916 308.469 183.746C308.459 182.466 308.309 181.116 308.439 179.846C308.569 178.636 309.839 178.316 310.849 178.086C312.079 177.816 313.339 177.796 314.579 177.956C315.449 178.066 315.439 176.706 314.579 176.586L314.569 176.606Z" fill="#9CA5AB"/>
<path d="M299.14 139.296C299.05 139.926 298.94 140.566 298.77 141.176C298.66 141.556 298.54 141.936 298.38 142.306C298.22 142.676 298.15 142.786 297.73 142.856C296.36 143.086 294.83 142.866 293.45 142.756C292.76 142.706 292.59 143.856 293.28 143.976C294.21 144.136 295.15 144.226 296.1 144.246C296.91 144.266 298.03 144.416 298.77 144.016C299.41 143.666 299.67 142.846 299.9 142.206C300.22 141.326 300.4 140.416 300.4 139.476C300.4 138.776 299.24 138.566 299.13 139.306L299.14 139.296Z" fill="#9CA5AB"/>
<path d="M311.31 121.686C308.82 121.416 304.71 121.516 304.15 124.636C303.88 126.126 303.93 127.726 303.93 129.246C303.93 130.856 303.95 132.506 304.2 134.096C303.69 134.106 303.19 134.126 302.68 134.136C301.81 134.156 301.8 135.506 302.68 135.496C304.9 135.476 307.11 135.456 309.33 135.416C310.26 135.406 310.26 133.956 309.33 133.976C308.06 134.006 306.79 134.026 305.52 134.066C305.52 132.756 305.38 131.446 305.35 130.126C305.32 128.706 305.35 127.296 305.43 125.876C305.51 124.556 305.78 123.696 307.16 123.306C308.51 122.926 309.92 122.876 311.31 123.016C312.17 123.096 312.15 121.776 311.31 121.686Z" fill="#9CA5AB"/>
<path d="M302.279 104.956C302.169 103.816 302.049 102.636 301.049 101.896C300.239 101.286 299.179 101.196 298.199 101.156C297.729 101.136 297.259 101.126 296.789 101.116C296.719 99.736 297.089 98.246 296.259 97.036C295.939 96.566 295.449 96.226 294.889 96.126C294.099 95.976 293.329 96.336 292.529 96.256C291.809 96.176 291.639 97.396 292.359 97.526C293.299 97.696 294.769 96.996 295.269 98.066C295.699 98.986 295.389 100.106 295.489 101.116C294.929 101.116 294.369 101.106 293.809 101.096C292.979 101.086 292.989 102.346 293.809 102.376C294.999 102.426 296.189 102.486 297.379 102.536C298.239 102.566 299.349 102.476 300.099 102.966C300.959 103.526 300.829 104.936 300.919 105.826C301.039 107.036 301.149 108.236 301.339 109.436C301.449 110.146 302.589 109.966 302.579 109.266C302.549 107.826 302.409 106.396 302.279 104.956Z" fill="#9CA5AB"/>
<path d="M313.519 74.916C313.519 72.946 313.649 70.926 313.469 68.966C313.419 68.206 312.379 68.226 312.299 68.966C312.129 70.586 312.189 72.246 312.159 73.876C312.129 75.516 312.109 77.146 312.079 78.786C312.079 79.366 312.159 80.286 311.629 80.686C311.089 81.096 310.079 81.036 309.439 81.096C307.769 81.256 306.079 81.246 304.419 81.426C304.179 81.456 304.009 81.566 303.889 81.716C303.399 80.616 302.439 79.756 301.249 79.416C300.409 79.176 300.069 80.456 300.889 80.716C302.029 81.076 302.879 82.206 302.799 83.426C302.709 84.856 301.539 85.756 300.789 86.856C300.439 87.366 301.149 88.086 301.659 87.726C303.089 86.716 304.369 84.836 304.219 83.016C304.219 82.946 304.199 82.866 304.189 82.796C304.259 82.816 304.329 82.836 304.409 82.836C306.299 82.936 308.289 82.686 310.169 82.476C311.709 82.306 313.109 81.936 313.399 80.196C313.689 78.506 313.509 76.646 313.519 74.936V74.916Z" fill="#9CA5AB"/>
<path d="M304.759 58.4859C304.719 57.1959 304.449 55.6559 303.689 54.5859C303.279 54.0059 302.209 54.3259 302.459 55.1059C302.799 56.1559 303.229 57.1059 303.299 58.2259C303.349 59.0759 303.319 60.1659 302.719 60.8459C302.029 61.6259 300.599 61.5559 299.649 61.6259C298.409 61.7159 297.159 61.726 295.909 61.686C295.049 61.656 295.059 62.9559 295.909 63.0059C297.449 63.0959 298.979 63.0859 300.509 62.9559C301.779 62.8459 303.079 62.7059 303.909 61.6259C304.599 60.7359 304.779 59.566 304.749 58.466L304.759 58.4859Z" fill="#9CA5AB"/>
<path d="M294.85 82.166C294.09 82.166 293.34 82.166 292.59 82.066C291.98 81.986 291.83 83.046 292.44 83.146C293.24 83.266 294.04 83.336 294.84 83.256C295.52 83.186 295.55 82.156 294.84 82.166H294.85Z" fill="#9CA5AB"/>
<path d="M306.711 64.786C305.671 64.696 303.731 64.506 303.441 65.856C303.301 66.516 303.331 67.246 303.291 67.916C303.241 68.766 303.201 69.626 303.171 70.476C303.141 71.196 304.221 71.176 304.281 70.476C304.371 69.386 304.431 68.296 304.491 67.196C304.501 66.956 304.501 66.716 304.531 66.486C304.571 66.116 304.511 66.056 304.831 65.926C305.351 65.716 306.161 65.816 306.711 65.846C307.401 65.896 307.391 64.826 306.711 64.776V64.786Z" fill="#9CA5AB"/>
<path d="M313.86 100.606C312.73 100.716 311.3 100.316 310.96 101.806C310.81 102.476 310.89 103.216 310.88 103.896C310.88 104.736 310.86 105.586 310.87 106.426C310.87 107.136 311.95 107.136 311.97 106.426C312 105.346 312 104.266 312.01 103.196C312.01 102.786 311.86 101.966 312.31 101.726C312.69 101.526 313.43 101.736 313.85 101.686C314.53 101.616 314.55 100.536 313.85 100.606H313.86Z" fill="#9CA5AB"/>
<path d="M296.67 126.236C295.61 125.816 294.35 125.786 293.22 125.636C292.51 125.536 292.2 126.616 292.92 126.726C294.09 126.896 295.37 127.256 296.55 127.136C297.08 127.086 297.16 126.436 296.67 126.236Z" fill="#9CA5AB"/>
<path d="M294.71 148.356C293.96 148.036 293.12 148.066 292.32 148.006C291.61 147.956 291.62 149.036 292.32 149.106C293.07 149.186 293.86 149.346 294.6 149.176C294.95 149.096 295.07 148.516 294.71 148.356Z" fill="#9CA5AB"/>
<path d="M298.999 183.926C298.139 183.826 297.269 183.766 296.399 183.746C296.659 183.026 296.679 182.176 296.779 181.416C296.849 180.876 296.919 180.316 296.569 179.856C295.799 178.846 293.839 178.676 292.689 178.726C292.049 178.756 292.039 179.706 292.689 179.726C293.239 179.746 293.779 179.806 294.309 179.946C294.699 180.056 295.499 180.196 295.699 180.606C295.849 180.906 295.609 181.646 295.569 181.956C295.499 182.506 295.369 183.086 295.419 183.646C295.419 183.676 295.419 183.696 295.429 183.726C294.799 183.726 294.169 183.746 293.539 183.766C292.839 183.796 292.839 184.876 293.539 184.856C295.369 184.806 297.179 184.906 298.999 185.066C299.739 185.126 299.719 183.996 298.999 183.916V183.926Z" fill="#9CA5AB"/>
<path d="M297.129 46.736C297.039 46.046 296.139 46.046 296.059 46.736C296.029 46.996 296.079 47.726 295.879 47.906C295.689 48.076 295.149 48.026 294.889 48.046C294.159 48.106 293.429 48.086 292.699 48.036C291.999 47.976 292.009 49.056 292.699 49.126C293.789 49.236 295.189 49.376 296.259 49.016C297.119 48.726 297.219 47.486 297.129 46.736Z" fill="#9CA5AB"/>
<path d="M315.509 52.936C314.179 53.316 312.889 52.826 311.659 52.326C310.529 51.866 309.639 51.336 309.289 50.086C308.629 47.766 309.169 45.286 308.419 42.956C308.199 42.276 307.139 42.566 307.349 43.256C307.799 44.716 307.769 46.236 307.829 47.756C307.879 49.036 307.969 50.466 308.669 51.586C308.699 51.636 308.729 51.676 308.759 51.726C308.069 51.976 307.509 52.416 307.089 53.036C306.919 53.286 307.039 53.646 307.289 53.786C307.569 53.946 307.869 53.836 308.039 53.586C308.329 53.186 308.759 52.886 309.229 52.736C309.369 52.696 309.469 52.616 309.529 52.516C310.139 52.986 310.869 53.286 311.599 53.576C312.939 54.116 314.399 54.546 315.819 54.046C316.509 53.806 316.239 52.726 315.509 52.936Z" fill="#9CA5AB"/>
<path d="M72.0599 96.556C72.0599 96.556 75.8999 102.206 76.4699 103.076C77.0499 103.946 92.7399 114.146 93.6999 114.816C94.6599 115.486 90.6199 117.796 89.9499 118.286C89.2799 118.766 73.2399 110.036 71.9499 108.946C68.1999 105.766 63.3799 97.776 63.2899 97.496C63.1899 97.206 72.0599 96.556 72.0599 96.556Z" fill="#D0714F"/>
<path d="M52.7595 86.826C52.7595 86.826 55.5695 85.206 56.1395 84.696C56.7095 84.186 56.9395 84.266 57.1295 84.246C57.3295 84.216 62.6995 85.926 63.7195 86.746C64.7395 87.566 72.2195 96.426 72.0495 96.546C69.6395 98.356 68.9495 99.816 68.2095 100.236C67.4695 100.656 51.4795 89.406 52.7495 86.816L52.7595 86.826Z" fill="#EA4450"/>
<path d="M72.5799 77.646C72.5799 77.646 72.4099 78.256 70.2799 78.256C68.1499 78.256 65.2299 78.526 65.1299 78.486C65.0299 78.456 65.1299 75.496 65.6899 74.996C66.2499 74.496 69.9699 75.826 70.8399 75.896C71.7099 75.966 73.0799 76.496 72.5699 77.636L72.5799 77.646Z" fill="#464E7A"/>
<path d="M68.3988 79.596C68.3988 79.596 70.5688 78.186 70.6988 77.156C70.8388 76.126 69.3388 72.946 68.3088 72.706C67.2788 72.466 67.0388 71.576 66.0088 71.266C64.9788 70.956 63.0988 71.436 62.5488 71.986C61.9988 72.536 60.6988 72.606 60.3188 72.946C59.9388 73.286 59.0188 76.146 59.0188 76.146C59.0188 76.146 57.9888 76.716 57.6188 77.436C57.2388 78.156 57.8288 80.286 57.8988 80.696C57.9688 81.106 57.6188 81.646 58.4388 81.956C59.2588 82.266 67.7788 81.236 68.3988 79.586V79.596Z" fill="#3A1714"/>
<path d="M59.3394 79.446C59.3394 79.446 58.2795 82.736 56.6895 84.536C56.6895 84.536 61.2495 87.396 63.1595 90.056C63.1595 90.056 62.4995 86.986 64.0495 82.676C64.6295 81.066 59.3495 79.446 59.3495 79.446H59.3394Z" fill="#E6916B"/>
<path d="M59.3301 81.706C59.3301 82.546 59.5201 83.356 59.9301 84.086C60.2801 84.706 60.7701 85.246 61.3201 85.696C61.8601 86.136 62.4701 86.486 63.0901 86.806C63.2101 85.656 63.4801 84.246 64.0401 82.676C64.5301 81.306 60.7601 79.926 59.6401 79.546C59.4801 80.256 59.3401 80.966 59.3301 81.706Z" fill="#1A1A1A"/>
<path d="M68.8586 76.8359C68.8586 76.8359 68.4486 83.9059 66.9686 85.2559C66.1886 85.9759 64.2886 85.8559 63.4086 85.6559C60.6886 85.0259 59.1786 83.216 59.4186 80.296C59.4186 80.296 56.6386 79.4459 58.5686 76.8459C59.6186 75.4259 60.5786 78.076 60.5786 78.076C60.5786 78.076 60.9086 78.046 61.3286 77.356C61.6886 76.766 62.3586 76.4459 63.0386 76.5159C64.6686 76.6959 65.3886 74.536 68.0286 75.296C68.0286 75.296 68.9886 75.8659 68.8686 76.8459L68.8586 76.8359Z" fill="#E6916B"/>
<path d="M67.3586 82.626C66.0286 82.846 64.6986 82.456 64.5486 82.476C63.4786 82.626 63.1386 84.506 62.5886 84.736C62.0386 84.956 61.0386 84.106 60.7786 82.256C60.5686 80.736 60.9286 78.476 61.0586 77.706C60.8486 77.956 60.6786 78.026 60.6086 78.056C60.4286 78.936 60.1586 80.386 60.1086 81.336C60.0686 82.026 59.9886 82.876 60.1886 83.686C60.8686 84.666 61.9686 85.326 63.4086 85.656C64.2886 85.856 66.1886 85.976 66.9686 85.256C67.3286 84.926 67.6186 84.266 67.8586 83.446C67.8186 83.236 67.6686 82.566 67.3486 82.616L67.3586 82.626Z" fill="#3A1714"/>
<path d="M64.7296 79.336C64.6696 79.216 64.5296 79.136 64.3896 79.166C64.2996 79.186 64.2396 79.246 64.2096 79.326C64.1396 79.406 64.1096 79.516 64.0996 79.616C64.0996 79.646 64.0996 79.686 64.0996 79.716C64.0996 79.796 64.1296 79.866 64.1796 79.926C64.2296 79.976 64.2996 80.016 64.3696 80.006C64.4196 80.006 64.4596 79.986 64.4996 79.966C64.5396 79.946 64.5896 79.926 64.6196 79.896C64.7796 79.766 64.8296 79.506 64.7296 79.326V79.336Z" fill="#1A1A1A"/>
<path d="M68.4487 80.036C68.4487 80.036 68.4487 79.936 68.4387 79.886C68.4287 79.846 68.3987 79.806 68.3587 79.776C68.3287 79.716 68.2687 79.666 68.1987 79.636C68.1587 79.616 68.0987 79.636 68.0687 79.666C68.0187 79.726 67.9787 79.796 67.9487 79.876C67.9487 79.876 67.9487 79.876 67.9487 79.886C67.8987 79.966 67.8887 80.076 67.8887 80.166C67.8887 80.226 67.9087 80.296 67.9387 80.346C67.9387 80.346 67.9387 80.356 67.9387 80.366C67.9687 80.436 68.0387 80.476 68.1087 80.446C68.1087 80.446 68.1187 80.446 68.1287 80.456C68.1787 80.486 68.2387 80.476 68.2887 80.436C68.4087 80.346 68.4687 80.166 68.4387 80.016L68.4487 80.036Z" fill="#1A1A1A"/>
<path d="M66.289 81.996L65.909 82.026C65.859 82.026 65.809 82.046 65.769 82.086C65.739 82.116 65.709 82.176 65.709 82.226C65.709 82.326 65.799 82.436 65.909 82.426L66.289 82.396C66.339 82.396 66.389 82.376 66.429 82.336C66.459 82.306 66.489 82.246 66.489 82.196C66.489 82.096 66.399 81.986 66.289 81.996Z" fill="#D15C48"/>
<path d="M66.7294 83.476C66.7294 83.476 65.4694 83.286 65.0994 83.436C64.7294 83.586 65.2794 84.846 65.7994 84.726C66.3194 84.616 66.7194 83.466 66.7194 83.466L66.7294 83.476Z" fill="white"/>
<path d="M65.4486 77.596C65.4386 77.486 65.3386 77.416 65.2386 77.416C64.6886 77.416 64.1386 77.616 63.7086 77.966C63.6286 78.036 63.5986 78.146 63.6586 78.236C63.7186 78.316 63.8486 78.346 63.9286 78.286C64.0286 78.206 64.1286 78.136 64.2386 78.076C64.2886 78.046 64.3186 78.036 64.3786 78.006C64.4386 77.976 64.4986 77.956 64.5586 77.936C64.7886 77.856 65.0086 77.816 65.2686 77.816C65.3786 77.816 65.4586 77.706 65.4486 77.606V77.596Z" fill="#3A1714"/>
<path d="M68.9097 78.676C68.6997 78.416 68.4897 78.156 68.2797 77.896C68.2197 77.816 68.0697 77.826 67.9997 77.896C67.9197 77.976 67.9297 78.086 67.9997 78.176C68.2097 78.436 68.4197 78.696 68.6297 78.956C68.6897 79.036 68.8397 79.026 68.9097 78.956C68.9897 78.876 68.9797 78.766 68.9097 78.676Z" fill="#3A1714"/>
<path d="M64.3691 70.086C64.3691 70.086 64.3891 69.666 64.7691 69.506C65.1491 69.346 65.7491 69.526 65.7591 70.006C65.7691 70.486 64.3691 70.086 64.3691 70.086Z" fill="#464E7A"/>
<path d="M62.0793 75.526C62.0793 75.526 63.6693 77.586 64.8693 77.656C66.0693 77.726 68.5893 76.266 69.8193 76.066C71.0493 75.866 72.1793 76.436 72.4093 76.826C72.6393 77.226 72.6393 77.526 72.5793 77.656C72.5093 77.786 72.9493 77.526 72.8493 76.896C72.7493 76.266 71.4493 75.736 70.7593 75.566C70.7593 75.566 69.2293 71.286 68.5293 70.586C67.8293 69.886 63.3993 69.696 61.6393 70.466C59.8793 71.226 59.0293 76.166 59.0293 76.166C59.0293 76.166 60.5893 75.566 62.0893 75.536L62.0793 75.526Z" fill="#607CAF"/>
<path opacity="0.5" d="M63.3486 70.456C62.5886 71.776 62.1086 73.236 61.9386 74.746C61.9186 74.916 62.1786 74.906 62.1986 74.746C62.3686 73.286 62.8386 71.866 63.5786 70.586C63.6586 70.436 63.4386 70.306 63.3586 70.456H63.3486Z" fill="#464E7A"/>
<path d="M70.2699 75.376C66.5099 74.996 65.0499 75.106 62.6099 75.276C62.4399 75.286 62.4399 75.546 62.6099 75.536C65.0599 75.366 68.0699 75.376 70.5099 75.566C70.6799 75.576 70.4399 75.396 70.2699 75.376Z" fill="#464E7A"/>
<path d="M92.1402 194.476C92.1402 194.986 91.4702 195.406 63.1902 195.406C34.9102 195.406 34.4102 194.686 34.4102 194.176C34.4102 193.666 34.8602 193.546 63.1902 193.546C91.5202 193.546 92.1402 193.966 92.1402 194.476Z" fill="#6A516B"/>
<path d="M73.129 181.686C73.129 181.686 73.729 187.916 73.489 188.376C73.239 188.826 72.069 193.916 72.279 194.536C72.479 195.146 88.769 194.716 90.339 194.386C91.919 194.056 92.549 192.176 91.289 191.786C90.039 191.396 88.319 191.256 87.869 191.186C87.429 191.116 81.119 187.176 81.269 186.546C81.419 185.916 81.149 182.876 81.389 182.246C81.629 181.616 73.129 181.696 73.129 181.696V181.686Z" fill="#E6916B"/>
<path d="M91.289 191.776C90.039 191.386 88.319 191.246 87.869 191.176C87.429 191.106 81.119 187.166 81.269 186.536C81.339 186.246 81.319 185.436 81.299 184.586C80.179 185.336 78.999 185.976 77.749 186.496C76.659 186.956 75.549 187.386 74.389 187.616C74.119 187.666 73.839 187.706 73.549 187.736C73.549 188.076 73.529 188.306 73.489 188.376C73.239 188.826 72.069 193.916 72.279 194.536C72.479 195.146 88.769 194.716 90.339 194.386C91.919 194.056 92.549 192.176 91.289 191.786V191.776Z" fill="white"/>
<path d="M91.2893 191.776C90.0393 191.386 88.3192 191.246 87.8692 191.176C87.4992 191.116 83.0993 188.396 81.6993 187.106C81.4793 187.086 81.2693 187.106 81.1093 187.206C80.6493 187.476 81.1093 188.406 81.2593 188.476C81.4093 188.556 81.6792 189.676 79.5592 190.366C77.4392 191.056 75.5892 189.746 75.1192 189.166C74.6992 188.636 74.1692 188.206 73.5192 188.196C73.5192 188.276 73.4993 188.336 73.4793 188.366C73.2293 188.816 72.0592 193.906 72.2692 194.526C72.4692 195.136 88.7592 194.706 90.3292 194.376C91.9092 194.046 92.5392 192.166 91.2792 191.776H91.2893Z" fill="#323232"/>
<path d="M91.29 191.776C90.4 191.496 89.28 191.346 88.54 191.266C87.6 192.166 86.28 194.036 85.64 194.186C84.86 194.376 77.49 194.286 77.01 194.246C76.53 194.206 75.97 193.136 74.86 192.646C74.17 192.346 73.23 192.076 72.62 191.916C72.37 193.136 72.2 194.276 72.29 194.536C72.49 195.146 88.78 194.716 90.35 194.386C91.93 194.056 92.56 192.176 91.3 191.786L91.29 191.776Z" fill="#1A1A1A"/>
<path d="M86.0596 191.346L85.4396 190.966C85.4396 190.966 85.4996 190.866 85.5396 190.816C85.5896 190.736 85.6296 190.696 85.6896 190.626C85.7396 190.556 85.7996 190.496 85.8596 190.436C85.8896 190.406 85.9196 190.376 85.9596 190.336C85.9696 190.326 85.9896 190.306 85.9996 190.296C85.9996 190.296 86.0196 190.296 86.0296 190.296C86.1096 190.276 86.1296 190.206 86.1196 190.126C86.1096 190.026 85.9896 189.996 85.9096 190.026C85.8596 190.046 85.8196 190.096 85.7696 190.136C85.6896 190.206 85.6196 190.286 85.5496 190.366C85.4296 190.506 85.3096 190.656 85.2096 190.816L83.6696 189.876C83.6696 189.876 83.6496 189.876 83.6496 189.866C83.7396 189.736 83.8296 189.606 83.9296 189.486C84.0496 189.346 84.1796 189.196 84.3296 189.106C84.3896 189.066 84.4096 188.986 84.3796 188.926C84.3396 188.866 84.2596 188.836 84.1996 188.876C84.0196 188.976 83.8796 189.136 83.7396 189.296C83.6196 189.436 83.5196 189.576 83.4196 189.726C82.9796 189.466 82.5296 189.196 82.1296 188.886C82.3096 188.536 82.5496 188.216 82.8496 187.956C82.8996 187.906 82.8996 187.816 82.8496 187.766C82.7996 187.716 82.7096 187.716 82.6596 187.766C82.3596 188.036 82.1096 188.356 81.9196 188.716C81.7996 188.616 81.6896 188.516 81.5896 188.406C81.4696 188.276 81.2796 188.466 81.3996 188.596C81.9896 189.226 82.7596 189.636 83.4796 190.086C84.2896 190.586 85.1096 191.086 85.9296 191.586C86.0796 191.676 86.2096 191.446 86.0696 191.356L86.0596 191.346Z" fill="#1A1A1A"/>
<path d="M78.59 190.856C77.72 191.006 76.8 190.836 76.03 190.406C75.64 190.196 75.3 189.916 75.01 189.586C74.72 189.256 74.45 188.906 74.05 188.706C73.9 188.626 73.76 188.856 73.91 188.936C74.35 189.156 74.62 189.586 74.95 189.936C75.26 190.256 75.63 190.516 76.02 190.716C76.83 191.126 77.75 191.266 78.65 191.116C78.82 191.086 78.75 190.826 78.58 190.856H78.59Z" fill="#1A1A1A"/>
<path d="M80.81 190.076C80.75 190.016 80.68 190.026 80.62 190.076C80.34 190.296 80.01 190.466 79.67 190.566C79.5 190.616 79.57 190.876 79.74 190.826C80.13 190.716 80.49 190.526 80.81 190.266C80.87 190.216 80.86 190.126 80.81 190.076Z" fill="#1A1A1A"/>
<path d="M41.921 179.726C41.921 179.726 37.771 187.556 37.501 187.996C37.241 188.436 34.761 193.476 34.941 194.086C35.121 194.696 50.751 194.886 52.341 194.616C53.931 194.356 54.641 192.496 53.401 192.056C52.161 191.616 48.451 190.026 48.011 189.936C47.571 189.846 45.831 187.956 46.011 187.346C46.191 186.726 48.571 183.286 48.841 182.666C49.101 182.046 41.921 179.726 41.921 179.726Z" fill="#E6916B"/>
<path d="M53.4105 192.066C52.1705 191.626 48.4605 190.036 48.0205 189.946C47.5805 189.856 45.8405 187.966 46.0205 187.356C46.0205 187.326 46.0405 187.296 46.0605 187.256C45.2805 187.336 44.5005 187.356 43.7205 187.326C42.4405 187.266 41.2005 186.976 39.9905 186.566C39.5205 186.406 39.0505 186.226 38.6105 185.996C38.0405 187.066 37.6005 187.876 37.5205 188.016C37.2605 188.456 34.7805 193.496 34.9605 194.106C35.1405 194.726 50.7705 194.906 52.3605 194.636C53.9505 194.376 54.6605 192.516 53.4205 192.076L53.4105 192.066Z" fill="white"/>
<path d="M53.4118 192.066C52.1718 191.626 48.4618 190.036 48.0218 189.946C47.5818 189.856 45.8418 187.966 46.0218 187.356C45.7918 187.266 43.7218 187.196 42.1418 187.406C40.5618 187.616 41.0418 188.646 40.8318 189.466C40.6218 190.296 39.3818 190.636 38.4918 190.226C37.7718 189.896 37.8518 188.686 37.4518 188.106C37.0018 188.936 34.7818 193.516 34.9418 194.106C35.1218 194.726 50.7518 194.906 52.3418 194.636C53.9318 194.376 54.6418 192.516 53.4018 192.076L53.4118 192.066Z" fill="#323232"/>
<path d="M52.3502 194.626C53.9402 194.366 54.6501 192.506 53.4101 192.066C53.1301 191.966 52.7301 191.806 52.2701 191.626C51.4401 191.556 50.4301 191.506 49.2301 191.536C45.6501 191.606 45.4401 193.806 44.4101 193.946C43.3801 194.086 37.4601 193.736 36.9101 193.736C36.4201 193.736 37.0201 191.666 36.1401 190.826C35.4801 192.266 34.8601 193.786 34.9501 194.106C35.1301 194.726 50.7602 194.906 52.3502 194.636V194.626Z" fill="#1A1A1A"/>
<path d="M48.6107 189.976C46.8307 190.106 45.1007 190.636 43.5507 191.536C43.1907 191.336 42.8507 191.106 42.5407 190.846C43.0707 190.356 43.7606 190.096 44.4506 189.906C45.3506 189.656 46.2706 189.486 47.2006 189.386C47.3706 189.366 47.3706 189.096 47.2006 189.116C46.2306 189.216 45.2707 189.396 44.3307 189.656C43.6107 189.856 42.8906 190.146 42.3406 190.656C42.1106 190.446 41.8907 190.226 41.6907 189.996C43.0107 188.816 44.9006 188.676 46.5906 188.566C46.7606 188.556 46.7606 188.286 46.5906 188.296C44.8306 188.406 42.8906 188.566 41.5106 189.786C41.3806 189.616 41.2507 189.446 41.1407 189.266C41.0507 189.116 40.8107 189.256 40.9107 189.406C41.0407 189.606 41.1707 189.796 41.3207 189.976C41.3207 189.976 41.3007 189.996 41.2907 190.006C41.1707 190.126 41.3606 190.326 41.4806 190.196C41.4806 190.196 41.4807 190.196 41.4907 190.196C41.7007 190.436 41.9207 190.666 42.1607 190.876C42.1507 190.966 42.2407 191.056 42.3307 191.026C42.6507 191.286 42.9806 191.526 43.3406 191.736C43.3406 191.826 43.4407 191.916 43.5407 191.856C43.6907 191.936 43.8407 192.006 44.0007 192.076C44.1607 192.146 44.2907 191.916 44.1407 191.846C44.0307 191.796 43.9307 191.746 43.8207 191.696C45.2807 190.876 46.9207 190.376 48.6007 190.256C48.7707 190.246 48.7707 189.976 48.6007 189.986L48.6107 189.976Z" fill="#1A1A1A"/>
<path d="M38.5616 190.506C38.2216 190.456 37.9216 190.256 37.7516 189.956C37.5616 189.606 37.6016 189.176 37.4516 188.806C37.4216 188.736 37.3616 188.686 37.2816 188.716C37.2216 188.736 37.1616 188.816 37.1916 188.886C37.3616 189.296 37.3116 189.756 37.5516 190.146C37.7516 190.476 38.1116 190.716 38.4916 190.776C38.5616 190.786 38.6316 190.756 38.6616 190.686C38.6816 190.626 38.6416 190.536 38.5716 190.516L38.5616 190.506Z" fill="#1A1A1A"/>
<path d="M72.1803 116.026C71.4803 110.446 68.5903 97.946 67.1403 94.616C65.8203 91.566 63.4303 88.106 63.0403 87.536C63.0403 87.716 63.0203 87.896 63.0203 88.056C63.1803 88.336 65.6503 92.766 65.8603 93.586C65.2603 93.746 63.9503 94.116 63.1703 94.346C62.6303 93.746 62.0503 92.736 60.9703 91.316C58.9003 88.586 56.6003 86.906 54.7203 86.566C52.8303 86.236 52.0603 87.356 52.0603 87.356C54.7003 86.296 58.0003 88.276 59.7103 92.106C61.4303 95.936 66.7903 109.686 65.0303 115.216C64.0103 118.416 59.1903 119.946 55.8903 118.886C52.5903 117.826 52.4603 114.136 52.4603 114.136C52.4603 114.136 51.5603 120.476 52.5603 128.056C53.5603 135.636 55.6203 154.696 54.9203 155.896C53.0103 159.166 38.9103 184.266 39.0103 184.666C39.1103 185.066 49.2703 189.446 50.4703 187.356C51.6703 185.266 66.5803 166.346 68.3103 160.056C68.4903 159.416 72.8903 121.606 72.1903 116.026H72.1803Z" fill="#6588B5"/>
<path d="M68.8901 102.836C68.5801 101.496 68.2201 100.176 67.8701 98.856L67.2801 96.586C67.2501 96.456 67.1001 96.416 66.9901 96.466C66.1501 96.876 65.2701 97.186 64.3501 97.386C64.2501 97.406 64.1801 97.526 64.2101 97.626C64.9701 99.666 65.7401 101.696 66.5001 103.736C66.5901 103.966 66.9601 103.866 66.8801 103.636L64.6601 97.716C65.4501 97.526 66.2201 97.256 66.9501 96.906C67.2801 98.156 67.6001 99.416 67.9301 100.666C68.2701 101.966 68.6201 103.276 68.8301 104.606C68.9501 105.356 69.0201 106.106 69.0101 106.866C69.0101 107.116 69.4001 107.116 69.4001 106.866C69.4001 105.506 69.1801 104.156 68.8801 102.836H68.8901Z" fill="#346A8B"/>
<path d="M70.721 123.046C70.721 123.046 83.301 148.866 85.681 153.636C88.061 158.406 81.441 185.806 81.441 185.806C81.441 185.806 80.121 186.206 76.011 186.466C71.911 186.726 69.521 186.996 69.391 185.936C69.261 184.876 72.441 158.926 72.441 158.396C72.441 157.866 62.911 144.756 61.451 141.846C59.991 138.936 70.721 123.046 70.721 123.046Z" fill="#6588B5"/>
<path d="M64.5706 98.036C64.5706 98.036 60.0706 91.766 58.5506 89.986C57.0306 88.206 55.6806 87.156 53.7206 87.116C51.7606 87.076 51.3306 87.636 50.5006 88.726C49.6706 89.816 48.8506 93.736 49.0206 96.386C49.1906 99.036 50.2806 106.136 51.1106 108.316C51.9406 110.496 51.1506 111.236 51.8106 111.626C52.4606 112.016 52.5306 112.776 52.4606 114.156C52.3806 115.536 53.3406 120.586 59.5606 119.456C65.7806 118.326 66.0006 113.976 66.0006 110.576C66.0006 107.176 64.5806 98.046 64.5806 98.046L64.5706 98.036Z" fill="#EA4450"/>
<path d="M56.2694 103.446C54.5094 101.616 52.7994 99.736 51.1494 97.806C50.6794 97.256 50.2194 96.7059 49.7594 96.1559C49.5994 95.9659 49.3194 96.236 49.4794 96.436C50.7994 98.036 52.1694 99.5959 53.5594 101.126C52.8294 100.726 52.1494 100.236 51.5194 99.6759C51.3294 99.5059 51.0594 99.7859 51.2394 99.9559C52.1194 100.756 53.1194 101.406 54.1994 101.886C54.2194 101.896 54.2494 101.896 54.2694 101.906C54.3494 101.986 54.4194 102.076 54.4994 102.156C54.9894 102.686 55.4894 103.206 55.9894 103.726C56.1594 103.906 56.4394 103.636 56.2694 103.446Z" fill="#BD2328"/>
<path d="M71.1494 135.656C70.9994 135.656 70.9094 135.776 70.8894 135.916C70.5794 138.436 70.2894 140.966 70.0294 143.486C69.7694 146.006 69.5294 148.526 69.3094 151.046C69.1894 152.476 68.7694 155.796 68.6594 157.226C68.6294 157.556 69.1594 157.556 69.1794 157.226C69.3694 154.696 69.8894 150.266 70.1294 147.736C70.3694 145.216 70.6294 142.696 70.9094 140.186C71.0694 138.766 71.2394 137.336 71.4094 135.916C71.4294 135.776 71.2794 135.656 71.1494 135.656Z" fill="#DEE3E5"/>
<path d="M71.9998 123.936C71.8498 125.506 71.6998 127.076 71.5398 128.646C71.5198 128.896 71.9098 128.896 71.9298 128.646C72.0798 127.076 72.2298 125.506 72.3898 123.936C72.4098 123.686 72.0198 123.686 71.9998 123.936Z" fill="#346A8B"/>
<path d="M66.5 120.526C64.06 121.026 61.56 121.156 59.08 120.906C57.68 120.766 56.3 120.506 54.95 120.116C54.71 120.046 54.59 120.416 54.83 120.486C57.26 121.176 59.8 121.486 62.33 121.406C64.86 121.326 67.37 120.866 69.76 120.026C70.6 119.736 71.42 119.396 72.22 119.016C72.22 118.866 72.22 118.716 72.23 118.576C70.41 119.466 68.48 120.116 66.49 120.526H66.5Z" fill="#346A8B"/>
<path d="M66.1202 123.116C63.5402 123.626 60.8803 123.716 58.2703 123.386C56.8103 123.206 55.3603 122.886 53.9603 122.436C53.7203 122.356 53.6203 122.736 53.8603 122.816C56.4103 123.636 59.0902 124.016 61.7602 123.966C62.4702 123.956 63.1702 123.916 63.8702 123.846C63.8002 125.726 63.7303 127.596 63.6603 129.476C63.6403 129.956 63.6203 130.426 63.6103 130.906C63.6103 131.126 63.6103 131.346 63.5703 131.566C63.5303 131.786 63.4203 131.956 63.2703 132.116C62.6403 132.816 61.9903 133.506 61.3503 134.196C60.6203 134.986 59.8903 135.776 59.1603 136.576C58.9903 136.756 59.2703 137.036 59.4403 136.856C60.7703 135.416 62.1003 133.976 63.4303 132.536C63.5603 132.386 63.7003 132.246 63.8003 132.076C63.9103 131.886 63.9503 131.676 63.9703 131.466C64.0203 130.986 64.0103 130.496 64.0303 130.016L64.1403 127.096C64.1803 126.006 64.2202 124.916 64.2602 123.826C66.0802 123.616 67.8703 123.206 69.6003 122.606C70.4603 122.306 71.3003 121.956 72.1303 121.566C72.1303 121.416 72.1502 121.266 72.1502 121.126C70.2402 122.056 68.2103 122.736 66.1303 123.146L66.1202 123.116Z" fill="#346A8B"/>
<path d="M76.4294 154.496C75.0794 151.306 73.7295 148.106 72.3795 144.916C71.9995 144.016 71.6194 143.116 71.2394 142.226C71.1694 142.076 70.9494 142.206 71.0194 142.356C72.3694 145.546 73.7195 148.746 75.0695 151.936C75.4495 152.836 75.8294 153.736 76.2094 154.626C76.2694 154.776 76.4994 154.646 76.4294 154.496Z" fill="#346A8B"/>
<path d="M77.1306 157.586C76.8306 157.406 76.3106 157.436 76.2306 157.006C76.1306 156.496 76.6506 156.206 77.0806 156.186C77.2506 156.186 77.2506 155.916 77.0806 155.926C76.7006 155.946 76.3006 156.096 76.0906 156.436C75.9206 156.716 75.9106 157.096 76.1206 157.366C76.3506 157.656 76.7206 157.636 77.0106 157.816C77.4206 158.066 77.0706 158.576 76.8206 158.806C76.5406 159.056 76.2106 159.266 76.0706 159.626C75.9306 159.976 76.0906 160.306 76.2706 160.606C76.3606 160.756 76.4606 160.896 76.5106 161.066C76.5806 161.326 76.4907 161.616 76.4507 161.876C76.3607 162.386 76.2706 162.886 76.1806 163.396C75.4806 167.486 74.8606 171.586 74.3306 175.706C74.0306 178.026 73.7606 180.346 73.5206 182.666C73.5006 182.836 73.7606 182.836 73.7806 182.666C74.2006 178.606 74.7106 174.556 75.3106 170.516C75.6006 168.526 75.9206 166.536 76.2506 164.546C76.4206 163.556 76.6106 162.566 76.7606 161.576C76.7906 161.366 76.8106 161.156 76.7506 160.956C76.7006 160.786 76.6006 160.626 76.5006 160.476C76.4106 160.336 76.3106 160.186 76.2806 160.016C76.2406 159.806 76.3406 159.616 76.4806 159.456C76.7606 159.146 77.1306 158.956 77.3406 158.576C77.5306 158.226 77.5206 157.806 77.1506 157.586H77.1306Z" fill="#346A8B"/>
<path d="M59.2193 138.436C59.2193 138.266 58.9593 138.266 58.9593 138.436C58.9793 140.786 58.9593 143.146 58.8793 145.496C58.7993 147.846 58.6793 150.196 58.4993 152.546C58.3993 153.876 58.2893 155.206 58.1593 156.526C58.1393 156.696 58.3993 156.696 58.4193 156.526C58.6493 154.186 58.8293 151.836 58.9593 149.486C59.0893 147.136 59.1693 144.786 59.2093 142.426C59.2293 141.096 59.2293 139.756 59.2093 138.426L59.2193 138.436Z" fill="#346A8B"/>
<path d="M208.181 89.626C206.401 91.096 204.631 92.566 202.851 94.036C200.811 95.726 198.771 97.406 196.741 99.096C195.771 99.896 194.781 100.686 193.851 101.536C192.961 102.346 192.161 103.226 191.471 104.216C190.791 105.196 190.221 106.246 189.681 107.306C189.111 108.426 188.561 109.566 188.031 110.706C186.951 113.006 185.951 115.346 185.021 117.706C184.911 117.996 184.611 118.946 184.771 119.006C186.991 119.826 188.951 120.536 191.171 121.356C191.241 121.386 191.311 121.326 191.331 121.266C192.051 119.086 193.011 116.996 194.111 114.986C195.211 112.956 196.451 111.006 197.711 109.076C198.971 107.146 200.261 105.236 201.471 103.276C202.771 101.186 207.501 93.736 208.631 91.546C209.761 89.366 209.161 89.026 208.181 89.656V89.626Z" fill="#D0714F"/>
<path d="M245.332 194.226C245.332 194.836 232.482 195.326 216.632 195.326C200.782 195.326 187.932 194.836 187.932 194.226C187.932 193.616 200.782 193.126 216.632 193.126C232.482 193.126 245.332 193.616 245.332 194.226Z" fill="#6A516B"/>
<path d="M207.431 81.826C207.431 81.826 206.151 79.766 208.491 78.206C210.831 76.646 210.791 74.316 210.761 73.806C210.681 72.586 216.291 71.776 218.721 74.196C221.151 76.616 222.691 81.796 223.041 84.346C223.391 86.896 223.181 91.396 222.821 93.666C222.471 95.936 207.421 81.816 207.421 81.816L207.431 81.826Z" fill="#EA4450"/>
<path d="M229.672 68.496C229.672 68.496 230.562 68.366 231.832 68.496C233.102 68.626 234.832 69.096 234.032 67.526C233.232 65.956 230.312 65.826 230.312 65.826L229.682 68.496H229.672Z" fill="#464E7A"/>
<path d="M229.672 68.586C229.672 68.586 231.402 67.326 230.662 64.216C229.872 60.886 226.762 62.276 226.762 62.276C227.262 61.976 227.872 61.416 226.372 61.196C224.862 60.976 222.942 63.216 222.942 63.216C222.942 63.216 222.992 63.066 222.592 62.796C221.902 62.336 220.022 66.236 220.022 66.236C220.022 66.236 219.032 67.296 218.602 68.466C218.182 69.636 218.822 70.296 219.622 71.236C220.702 72.496 226.102 71.446 226.102 71.446L229.682 68.576L229.672 68.586Z" fill="#812A2E"/>
<path d="M222.642 79.876C222.612 79.486 222.632 79.006 222.702 78.436C222.792 77.716 222.982 76.856 223.292 75.856C223.322 75.766 223.352 75.666 223.382 75.566C223.502 75.186 222.802 75.476 222.232 74.336C222.222 74.316 222.212 74.286 222.192 74.266C221.292 72.356 220.082 69.416 220.042 69.346C220.042 69.416 220.002 72.776 218.182 75.436C218.812 75.766 221.502 78.306 222.622 79.876H222.642Z" fill="#E6916B"/>
<path d="M222.702 78.436C219.562 76.606 220.212 72.656 220.212 72.656L222.202 74.266C222.202 74.266 222.222 74.316 222.242 74.336C222.722 75.326 223.192 75.556 223.302 75.846C222.992 76.856 222.802 77.716 222.712 78.426L222.702 78.436Z" fill="#1A1A1A"/>
<path d="M229.842 67.926C229.842 67.926 228.902 74.936 227.322 76.186C226.492 76.846 224.612 76.586 223.742 76.316C221.072 75.486 219.702 73.566 220.162 70.666C220.162 70.666 217.452 69.616 219.572 67.156C220.732 65.816 221.492 68.526 221.492 68.526C221.492 68.526 222.702 67.886 223.472 66.096C224.552 66.926 228.172 67.046 229.382 65.896C229.382 65.896 229.182 67.186 229.842 67.926Z" fill="#E6916B"/>
<path d="M227.472 72.456C227.502 72.346 227.432 72.226 227.322 72.196C227.212 72.166 227.102 72.136 226.992 72.106C226.882 72.076 226.762 72.146 226.732 72.256C226.702 72.366 226.772 72.486 226.882 72.516C226.992 72.546 227.102 72.576 227.212 72.606C227.322 72.636 227.442 72.566 227.472 72.456Z" fill="#D15C48"/>
<path d="M226.661 67.686C226.371 67.726 226.071 67.706 225.781 67.766C225.481 67.816 225.191 67.906 224.901 67.976C224.631 68.036 224.711 68.456 224.981 68.396C225.271 68.336 225.561 68.246 225.861 68.186C226.151 68.136 226.451 68.146 226.751 68.106C227.021 68.076 226.941 67.656 226.671 67.686H226.661Z" fill="#812A2E"/>
<path d="M228.772 69.086C228.742 69.026 228.742 68.946 228.772 68.886C228.832 68.786 228.962 68.766 229.052 68.826C229.072 68.836 229.613 69.186 229.953 69.766C230.013 69.866 229.973 69.996 229.883 70.046C229.783 70.106 229.653 70.066 229.603 69.976C229.323 69.486 228.843 69.186 228.843 69.176C228.813 69.156 228.782 69.126 228.772 69.096V69.086Z" fill="#812A2E"/>
<path d="M223.972 65.796C223.972 65.796 223.632 67.206 222.512 67.456C222.512 67.456 222.102 71.156 223.772 72.346C224.652 72.976 225.482 72.536 226.562 72.726C227.612 72.906 228.482 73.946 228.272 74.876C227.992 76.156 227.022 79.026 224.352 77.736C222.962 77.066 221.692 76.066 220.822 74.776C220.472 74.256 220.052 73.586 219.992 72.956C219.922 72.286 220.142 71.616 220.412 71.006C220.912 69.886 221.572 68.866 221.252 67.596C220.972 66.466 222.772 66.076 222.772 66.076L223.962 65.786L223.972 65.796Z" fill="#812A2E"/>
<path d="M226.181 69.456C226.181 69.456 226.161 69.366 226.131 69.336C226.081 69.256 226.001 69.226 225.921 69.216C225.781 69.186 225.641 69.266 225.571 69.386C225.541 69.436 225.521 69.486 225.511 69.546C225.461 69.616 225.431 69.696 225.441 69.786C225.451 69.876 225.481 69.956 225.551 70.006C225.621 70.066 225.701 70.096 225.781 70.096C225.941 70.106 226.091 70.016 226.161 69.876C226.221 69.746 226.231 69.586 226.161 69.456H226.181Z" fill="#1A1A1A"/>
<path d="M229.171 70.716C229.171 70.716 229.141 70.656 229.111 70.636C229.091 70.616 229.071 70.596 229.051 70.586C228.971 70.546 228.871 70.556 228.801 70.616C228.761 70.646 228.731 70.696 228.711 70.746C228.691 70.786 228.681 70.826 228.671 70.866C228.651 70.896 228.641 70.926 228.631 70.966C228.601 71.066 228.631 71.176 228.701 71.256C228.701 71.276 228.721 71.296 228.731 71.316C228.761 71.356 228.791 71.376 228.841 71.386C228.891 71.386 228.931 71.386 228.961 71.346C228.961 71.346 228.961 71.346 228.971 71.336C228.991 71.336 229.001 71.326 229.011 71.316C229.101 71.256 229.151 71.156 229.171 71.056C229.201 70.946 229.191 70.836 229.171 70.736V70.716Z" fill="#1A1A1A"/>
<path d="M227.432 74.526C227.392 74.406 227.242 74.356 227.142 74.306C227.012 74.246 226.882 74.176 226.752 74.116C226.482 73.986 226.222 73.846 225.952 73.716C225.862 73.676 225.772 73.726 225.762 73.816C225.762 73.816 225.762 73.836 225.762 73.846C225.722 74.136 225.722 74.426 225.762 74.726C225.792 74.936 225.842 75.156 225.962 75.346C226.082 75.526 226.302 75.726 226.532 75.656C226.742 75.586 227.002 75.306 227.132 75.156C227.202 75.076 227.272 74.986 227.332 74.896C227.392 74.806 227.472 74.666 227.432 74.546V74.526Z" fill="white"/>
<path d="M195.101 171.746C195.101 171.746 193.211 179.766 192.771 180.576C192.331 181.386 187.861 186.166 187.881 186.776C187.891 187.216 192.151 190.016 195.781 192.246C197.201 193.116 198.411 194.246 199.461 194.426C199.901 194.496 204.911 195.566 205.441 193.856C205.751 192.846 203.361 191.946 202.561 191.336C201.761 190.726 200.011 185.796 199.181 184.746C198.351 183.706 203.641 173.706 203.641 173.706L195.091 171.746H195.101Z" fill="white"/>
<path d="M202.571 191.326C201.951 190.856 200.761 187.776 199.871 185.936C199.681 185.876 199.491 185.846 199.301 185.846C198.921 185.846 198.591 186.016 198.331 186.286C198.131 186.486 197.991 186.726 197.831 186.946C197.701 187.126 197.551 187.276 197.341 187.346C197.071 187.446 196.771 187.396 196.501 187.326C196.091 187.216 195.741 187.026 195.451 186.716C194.861 186.086 194.561 185.206 194.271 184.406C193.971 183.586 193.731 182.706 193.261 181.966C193.071 181.666 192.831 181.396 192.511 181.246C192.451 181.216 192.401 181.206 192.341 181.186C191.101 182.736 187.881 186.256 187.891 186.776C187.901 187.216 192.161 190.016 195.791 192.246C197.211 193.116 198.421 194.246 199.471 194.426C199.911 194.496 204.921 195.566 205.451 193.856C205.761 192.846 203.371 191.946 202.571 191.336V191.326Z" fill="#4C4C4C"/>
<path d="M202.581 191.336C201.731 191.616 201.241 192.386 200.931 192.866C200.541 193.456 199.401 193.906 198.711 193.456C198.021 193.016 193.881 190.246 193.091 189.556C192.301 188.866 192.451 187.736 191.611 186.346C191.061 185.436 190.321 184.576 189.871 184.086C188.811 185.336 187.881 186.486 187.881 186.766C187.891 187.206 192.151 190.006 195.781 192.236C197.201 193.106 198.411 194.236 199.461 194.416C199.901 194.486 204.911 195.556 205.441 193.846C205.751 192.846 203.381 191.946 202.571 191.336H202.581Z" fill="#323232"/>
<path d="M201.61 189.756C201.2 189.976 200.75 190.256 200.38 190.536C200.1 190.196 199.84 189.846 199.59 189.486C199.49 189.336 199.39 189.186 199.3 189.036C199.82 188.666 200.28 188.466 200.91 188.356C201.07 188.326 201 188.076 200.84 188.106C200.18 188.216 199.71 188.436 199.16 188.816C198.91 188.396 198.66 187.976 198.42 187.556C199.03 187.166 199.55 186.936 200.28 186.936C200.45 186.936 200.45 186.676 200.28 186.676C199.51 186.676 198.94 186.916 198.29 187.326C198.25 187.256 198.21 187.186 198.17 187.116C198.09 186.976 197.86 187.106 197.95 187.246C197.99 187.316 198.04 187.396 198.08 187.466C198.07 187.466 198.05 187.486 198.04 187.496C197.91 187.596 198.04 187.816 198.17 187.716C198.18 187.716 198.2 187.696 198.21 187.686C198.46 188.106 198.7 188.536 198.96 188.956C198.94 188.966 198.92 188.986 198.91 188.996C198.78 189.096 198.96 189.286 199.09 189.176C199.19 189.336 199.29 189.496 199.4 189.656C199.64 190.016 199.9 190.356 200.18 190.696C200.12 190.746 200.06 190.796 200 190.846C199.87 190.956 200.06 191.136 200.18 191.026C200.23 190.976 200.29 190.936 200.35 190.886C200.58 191.156 200.82 191.416 201.07 191.656C201.19 191.776 201.37 191.586 201.25 191.476C201.01 191.236 200.77 190.986 200.55 190.726C200.9 190.456 201.34 190.186 201.74 189.966C201.89 189.886 201.76 189.666 201.61 189.746V189.756Z" fill="#323232"/>
<path d="M196.4 187.726C195.47 187.636 194.82 186.816 194.47 186.016C194.08 185.116 193.92 184.126 193.46 183.256C193.23 182.816 192.92 182.426 192.51 182.126C192.37 182.026 192.24 182.256 192.38 182.346C193.18 182.926 193.51 183.906 193.78 184.816C194.07 185.736 194.36 186.716 195.1 187.386C195.47 187.716 195.91 187.936 196.4 187.986C196.57 188.006 196.57 187.746 196.4 187.726Z" fill="#323232"/>
<path d="M201.291 122.616C201.291 122.616 199.541 148.216 199.541 148.516C199.541 148.816 192.381 179.726 192.381 179.726C192.381 179.726 198.161 186.276 202.391 185.626C203.291 185.486 208.951 172.066 209.291 171.106C210.591 167.466 211.621 164.326 212.031 162.676C213.451 156.896 201.291 122.616 201.291 122.616Z" fill="#6588B5"/>
<path d="M192.99 177.036C192.99 177.036 191.93 180.136 192.05 180.376C192.17 180.616 194.81 183.056 197.58 184.446C200.35 185.836 202.641 186.086 202.881 185.546C203.121 185.006 203.92 183.856 204.15 183.416C204.44 182.876 204.171 182.826 204.171 182.826C204.171 182.826 202.441 182.536 198.761 180.846C195.081 179.156 192.981 177.046 192.981 177.046L192.99 177.036Z" fill="#5079A0"/>
<path d="M202.572 147.406C203.382 150.036 204.102 152.706 205.012 155.296C206.012 158.136 206.982 160.986 207.962 163.836C208.602 165.696 209.242 167.556 209.892 169.416C210.902 166.506 211.692 164.076 212.032 162.686C213.452 156.906 201.292 122.626 201.292 122.626C201.292 122.626 200.702 131.406 200.102 140.466C201.072 142.706 201.852 145.056 202.572 147.416V147.406Z" fill="#5079A0"/>
<path d="M201.141 91.826C201.141 91.826 205.611 83.366 208.221 80.826C210.831 78.286 213.171 77.176 215.101 77.176C217.031 77.176 218.471 78.556 219.711 81.096C220.951 83.636 222.321 87.146 222.461 91.756C222.601 96.366 220.051 108.126 219.091 110.396C218.131 112.666 212.691 114.936 207.601 114.106C202.511 113.276 201.411 102.756 201.411 100.486C201.411 98.216 202.371 92.576 202.371 92.576L201.131 91.816L201.141 91.826Z" fill="#EA4450"/>
<path d="M222.64 79.876C222.64 79.876 223.02 83.376 223.03 84.376C223.03 84.856 221.97 80.686 220.26 78.696C218.56 76.706 217.47 76.556 218.19 75.426C218.91 74.296 222.63 79.866 222.63 79.866L222.64 79.876Z" fill="#E6916B"/>
<path d="M221.291 79.756C219.651 77.406 217.411 75.486 214.841 74.226C214.191 73.906 213.521 73.636 212.841 73.406C212.971 73.366 213.181 73.386 213.261 73.386C213.631 73.416 214.001 73.446 214.361 73.486C215.091 73.576 215.811 73.696 216.531 73.856C216.771 73.906 216.881 73.536 216.631 73.476C215.781 73.286 214.911 73.146 214.041 73.056C213.671 73.016 213.251 72.936 212.881 72.996C212.611 73.036 212.331 73.196 212.351 73.506C212.351 73.596 212.411 73.666 212.491 73.696C215.141 74.546 217.551 76.076 219.461 78.106C220.001 78.686 220.501 79.296 220.951 79.946C221.091 80.146 221.431 79.946 221.291 79.746V79.756Z" fill="#BD2328"/>
<path d="M222.5 178.696C222.5 178.696 225.72 186.066 226.06 186.926C226.4 187.786 227.19 194.286 227.66 194.656C228.14 195.036 237.41 192.066 240.97 190.706C244.55 189.336 246.48 188.886 245.51 187.376C244.94 186.496 243.45 186.276 242.47 186.496C241.49 186.716 234.72 184.726 233.38 184.696C232.04 184.666 229.5 173.416 229.5 173.416L222.5 178.706V178.696Z" fill="#E6916B"/>
<path d="M245.499 187.376C244.929 186.496 243.439 186.276 242.459 186.496C241.479 186.716 234.709 184.726 233.369 184.696C233.079 184.696 232.729 184.146 232.359 183.296C231.629 184.106 230.799 184.816 229.889 185.406C229.179 185.866 228.419 186.266 227.649 186.606C227.249 186.786 226.839 186.936 226.419 187.036C226.319 187.066 226.209 187.086 226.109 187.106C226.479 188.426 227.209 194.316 227.659 194.666C228.139 195.046 237.409 192.076 240.969 190.716C244.549 189.346 246.479 188.896 245.509 187.386L245.499 187.376Z" fill="white"/>
<path d="M245.5 187.376C244.93 186.496 243.44 186.276 242.46 186.496C241.6 186.686 236.19 185.156 234.03 184.776C234.03 184.846 234.04 184.906 234.06 184.976C234.13 185.316 234.29 185.636 234.35 185.986C234.41 186.346 234.27 186.616 234.01 186.866C233.7 187.156 233.33 187.376 232.98 187.596C232.51 187.886 231.99 188.096 231.48 188.316C230.95 188.546 230.42 188.776 229.85 188.906C229.31 189.026 228.75 189.036 228.23 188.826C228 188.736 227.79 188.616 227.6 188.456C227.42 188.316 227.26 188.146 227.07 188.016C226.82 187.846 226.54 187.776 226.26 187.766C226.65 189.776 227.26 194.346 227.66 194.656C228.14 195.036 237.41 192.066 240.97 190.706C244.55 189.336 246.48 188.886 245.51 187.376H245.5Z" fill="#4C4C4C"/>
<path d="M242.461 186.496C242.351 186.526 242.151 186.516 241.891 186.496C240.741 187.766 241.841 189.596 241.401 189.786C240.941 189.986 237.411 191.186 235.021 191.976C232.631 192.766 231.831 192.776 230.371 192.046C229.241 191.486 227.641 191.436 226.881 191.436C227.151 193.046 227.441 194.496 227.651 194.666C228.131 195.046 237.401 192.076 240.961 190.716C244.541 189.346 246.471 188.896 245.501 187.386C244.931 186.506 243.441 186.286 242.461 186.506V186.496Z" fill="#323232"/>
<path d="M233.629 187.746C232.709 188.466 231.589 188.826 230.499 189.166C229.909 189.346 229.309 189.546 228.689 189.416C228.119 189.296 227.619 188.986 227.149 188.646C227.009 188.546 226.879 188.776 227.019 188.866C227.389 189.136 227.789 189.386 228.229 189.546C228.689 189.716 229.169 189.746 229.649 189.666C230.149 189.576 230.629 189.406 231.109 189.246C231.559 189.096 231.999 188.936 232.429 188.746C232.929 188.526 233.389 188.256 233.819 187.926C233.949 187.826 233.769 187.636 233.639 187.746H233.629Z" fill="#323232"/>
<path d="M240.83 186.576C240.55 186.536 240.26 186.506 239.98 186.466C239.98 186.456 239.98 186.446 239.99 186.426C239.99 186.406 240.01 186.386 240.02 186.356C240.04 186.316 240.06 186.276 240.09 186.236C240.13 186.176 240.1 186.086 240.04 186.056C239.98 186.026 239.9 186.036 239.86 186.106C239.8 186.206 239.75 186.326 239.71 186.446C239.27 186.386 238.84 186.336 238.4 186.276C238.44 186.096 238.46 186.036 238.53 185.876C238.56 185.816 238.55 185.736 238.48 185.696C238.42 185.666 238.33 185.676 238.3 185.746C238.21 185.946 238.19 186.026 238.14 186.246C237.94 186.216 237.73 186.196 237.53 186.166C237.05 186.106 236.56 186.046 236.08 185.976C236.11 185.726 236.12 185.536 236.25 185.316C236.33 185.166 236.11 185.036 236.03 185.186C235.89 185.436 235.87 185.656 235.83 185.946C235.4 185.886 234.97 185.806 234.61 185.546C234.47 185.446 234.34 185.676 234.48 185.766C234.86 186.046 235.33 186.136 235.79 186.196C235.79 186.196 235.81 186.196 235.82 186.196C235.82 186.236 235.82 186.266 235.82 186.306C235.82 186.476 236.09 186.476 236.08 186.306C236.08 186.286 236.08 186.256 236.08 186.236C236.53 186.296 236.98 186.346 237.42 186.406L238.11 186.496C238.11 186.496 238.11 186.516 238.11 186.536C238.11 186.606 238.18 186.666 238.24 186.666C238.32 186.666 238.36 186.606 238.37 186.536L239.67 186.706C239.67 186.706 239.67 186.766 239.68 186.786C239.7 186.816 239.73 186.836 239.76 186.846C239.82 186.856 239.91 186.826 239.92 186.756C239.92 186.756 239.92 186.746 239.92 186.736L240.84 186.856C241.01 186.876 241 186.616 240.84 186.596L240.83 186.576Z" fill="#323232"/>
<path d="M209.91 79.596C209.91 79.596 215.93 73.816 219.59 79.216C222.8 83.956 223.48 91.576 223.18 97.556C222.88 103.536 217.2 125.756 217 129.146C216.8 132.536 226.13 161.816 229.32 172.476C232.51 183.136 231.63 180.036 231.71 180.386C232.21 182.576 219.55 183.676 218.96 183.576C218.62 183.516 216.54 176.376 210.14 160.726C205.26 148.796 199.36 138.146 198.28 134.916C195.79 127.446 195.29 120.566 196.39 116.186C197.49 111.806 199.08 106.716 199.08 106.716L202.67 99.146C202.67 99.146 200.52 110.096 206.26 111.206C212.6 112.436 216.91 109.246 218.7 104.966C220.49 100.686 222.3 94.566 222 90.186C221.7 85.806 219.11 78.826 216.72 77.726C214.33 76.626 209.93 79.606 209.93 79.606L209.91 79.596Z" fill="#6588B5"/>
<path d="M199.12 130.916C198.89 131.116 198.66 131.326 198.45 131.546C198.13 131.866 197.83 132.196 197.54 132.546C197.58 132.696 197.63 132.846 197.67 133.006C197.93 132.686 198.2 132.366 198.49 132.066C198.7 131.846 198.92 131.626 199.15 131.416C199.37 131.216 199.61 131.036 199.79 130.796C200.17 130.276 199.94 129.626 199.78 129.066C199.04 126.486 198.64 123.816 198.6 121.126C198.58 119.606 198.66 118.096 198.87 116.586C198.88 116.486 198.85 116.376 198.73 116.346C197.98 116.136 197.24 115.936 196.49 115.726C196.46 115.856 196.43 115.976 196.39 116.106C197.08 116.296 197.77 116.486 198.46 116.676C198.31 117.846 198.22 119.026 198.21 120.216C198.21 120.216 198.19 120.216 198.18 120.216C197.38 120.306 196.58 120.176 195.86 119.836C195.86 119.976 195.85 120.116 195.84 120.256C196.57 120.566 197.38 120.696 198.17 120.606C198.17 120.606 198.19 120.606 198.2 120.606C198.2 121.896 198.27 123.186 198.43 124.466C198.59 125.786 198.84 127.086 199.17 128.376C199.25 128.706 199.34 129.026 199.44 129.356C199.52 129.636 199.63 129.936 199.59 130.236C199.55 130.536 199.33 130.726 199.11 130.916H199.12Z" fill="#346A8B"/>
<path d="M220.79 152.246C220.66 151.866 220.49 151.496 220.33 151.126L219.84 149.966C219.52 149.216 219.2 148.456 218.88 147.706C218.23 146.176 217.58 144.646 216.93 143.116C216.69 142.546 216.48 141.716 215.75 141.616C215.39 141.566 215.03 141.676 214.68 141.756C214.29 141.846 213.91 141.936 213.52 142.046C212.01 142.446 210.53 142.936 209.08 143.516C208.72 143.656 208.37 143.806 208.02 143.966C207.79 144.066 207.99 144.406 208.22 144.306C209.59 143.706 210.99 143.196 212.42 142.766C213.14 142.546 213.87 142.356 214.61 142.186C214.94 142.106 215.31 141.976 215.65 142.006C215.98 142.026 216.14 142.286 216.27 142.556C216.6 143.256 216.88 143.986 217.18 144.696C217.23 144.816 217.28 144.936 217.33 145.046C214.89 145.706 212.54 146.666 210.23 147.686C209.56 147.976 208.9 148.276 208.23 148.576C208 148.676 208.2 149.016 208.43 148.916C210.75 147.866 213.08 146.826 215.5 146.016C216.15 145.796 216.81 145.596 217.48 145.416C217.68 145.896 217.88 146.366 218.09 146.846C218.71 148.296 219.32 149.746 219.94 151.196C220.09 151.556 220.26 151.916 220.39 152.286C220.51 152.626 220.61 152.996 220.54 153.356C220.48 153.716 220.3 154.046 220.13 154.366C219.98 154.646 219.83 154.926 219.67 155.196C219.35 155.746 218.98 156.266 218.49 156.676C218.02 157.076 217.45 157.316 216.85 157.436C215.61 157.686 214.31 157.406 213.12 157.046C212.5 156.856 211.78 156.686 211.3 156.226C210.82 155.756 210.55 155.086 210.25 154.496C208.9 151.786 207.69 149.006 206.62 146.176C206.5 145.876 206.39 145.566 206.28 145.266C206.3 145.216 206.19 145.136 206.67 144.946C206.9 144.856 207.14 144.766 207.38 144.696C207.48 144.666 207.55 144.556 207.52 144.456C207.49 144.356 207.38 144.286 207.28 144.316C206.97 144.416 206.67 144.526 206.37 144.656C206.24 144.716 206.1 144.786 205.97 144.866C205.79 144.976 205.83 145.186 205.85 145.246C206.94 148.236 208.19 151.176 209.58 154.036C209.9 154.696 210.2 155.396 210.6 156.006C210.79 156.286 211 156.536 211.28 156.736C211.57 156.946 211.91 157.076 212.25 157.196C213.51 157.626 214.86 157.996 216.2 157.926C216.83 157.896 217.46 157.746 218.02 157.466C218.62 157.156 219.11 156.696 219.51 156.156C219.91 155.616 220.23 155.016 220.55 154.426C220.72 154.106 220.88 153.766 220.93 153.396C220.98 153.016 220.91 152.646 220.79 152.286V152.246Z" fill="#346A8B"/>
<path d="M211.26 142.786C210.32 140.116 209.36 137.456 208.46 134.776C207.6 132.206 206.84 129.566 206.65 126.856C206.55 125.336 206.63 123.816 206.98 122.326C207.02 122.166 206.77 122.096 206.73 122.256C206.11 124.896 206.32 127.636 206.9 130.266C207.5 132.996 208.47 135.626 209.4 138.256C209.94 139.786 210.48 141.326 211.01 142.856C211.06 143.016 211.32 142.946 211.26 142.786Z" fill="#346A8B"/>
<path d="M218.241 116.306C218.491 116.336 218.491 115.946 218.241 115.916C215.331 115.566 212.431 115.096 209.551 114.516C206.681 113.926 203.831 113.226 201.021 112.406C199.911 112.076 198.751 111.756 197.731 111.176C197.691 111.296 197.661 111.426 197.621 111.556C198.441 112.016 199.341 112.316 200.241 112.586C201.661 113.016 203.081 113.406 204.521 113.766C207.411 114.506 210.331 115.116 213.281 115.606C214.931 115.876 216.581 116.116 218.241 116.316V116.306Z" fill="#346A8B"/>
<path d="M211.62 129.116C211.97 128.796 212.14 128.386 212.26 127.926C212.77 125.866 213.26 123.806 213.75 121.746C214.03 120.586 214.31 119.426 214.59 118.266C214.61 118.196 214.59 118.136 214.55 118.096C215.19 118.176 215.83 118.256 216.47 118.326C216.72 118.356 216.72 117.966 216.47 117.936C213.77 117.646 211.09 117.216 208.43 116.666C205.77 116.116 203.15 115.436 200.56 114.626C199.39 114.266 198.24 113.876 197.09 113.466C197.06 113.596 197.02 113.716 196.99 113.846C199.28 114.666 201.6 115.386 203.95 116.006C206.57 116.696 209.23 117.266 211.9 117.706C212.69 117.836 213.48 117.956 214.27 118.056C214.24 118.076 214.22 118.116 214.21 118.156L212.74 124.226C212.5 125.236 212.25 126.246 212.01 127.256C211.9 127.696 211.84 128.216 211.56 128.586C211.3 128.936 210.88 129.176 210.51 129.416C209.6 130.006 208.25 130.716 207.27 131.186C207.14 131.246 207.24 131.636 207.43 131.556C208.35 131.166 209.63 130.436 210.48 129.896C210.87 129.646 211.28 129.406 211.62 129.096V129.116Z" fill="#346A8B"/>
<path d="M226.79 180.306C225.49 177.236 224.21 174.156 222.97 171.056C221.73 167.976 220.96 165.996 219.78 162.886C219.12 161.136 218.46 159.386 217.81 157.626C217.75 157.466 217.51 157.556 217.57 157.716C218.72 160.846 219.9 163.966 221.11 167.076C222.32 170.176 223.12 172.136 224.38 175.206C225.09 176.936 225.82 178.666 226.55 180.386C226.62 180.536 226.86 180.456 226.79 180.296V180.306Z" fill="#346A8B"/>
<path d="M222.971 94.446C222.921 94.726 222.871 94.996 222.811 95.276C222.711 95.786 222.621 96.296 222.521 96.806C222.321 97.846 222.121 98.886 221.931 99.926C221.741 100.926 221.481 101.956 221.471 102.986C221.471 103.696 221.621 104.436 222.021 105.026C222.041 104.906 222.071 104.786 222.091 104.656C221.361 103.316 221.901 101.456 222.171 100.066L222.741 97.066C222.911 96.176 223.061 95.286 223.241 94.406C223.241 94.106 223.241 93.806 223.221 93.506C223.181 93.576 223.141 93.656 223.121 93.736C223.051 93.966 223.021 94.216 222.971 94.446Z" fill="#346A8B"/>
<path d="M218.591 183.036C218.591 183.036 218.431 183.036 218.801 184.566C219.171 186.096 219.431 186.676 221.061 186.616C222.691 186.566 227.961 186.036 230.221 185.506C232.481 184.976 233.491 183.976 233.381 183.556C233.271 183.136 232.011 179.656 231.641 179.716C231.271 179.766 232.011 181.246 226.691 182.196C221.371 183.146 218.531 182.406 218.581 183.036H218.591Z" fill="#5079A0"/>
<path d="M217.91 85.026C218.03 84.806 217.69 84.606 217.57 84.826C216.23 87.326 214.84 89.786 213.39 92.226C213.35 92.256 213.34 92.296 213.33 92.326C212.94 92.976 212.55 93.626 212.16 94.276C212.03 94.496 212.37 94.686 212.5 94.476C212.91 93.806 213.31 93.146 213.7 92.476C215 91.306 216.24 90.046 217.39 88.726C217.55 88.536 217.28 88.256 217.11 88.446C216.25 89.436 215.34 90.396 214.39 91.306C215.2 89.926 215.99 88.526 216.77 87.126C217.16 86.426 217.54 85.716 217.92 85.006L217.91 85.026Z" fill="#BD2328"/>
<path d="M226.07 60.896C225.96 60.466 224.85 60.576 224.83 61.026C224.83 61.156 224.87 61.126 225 61.126C225.29 61.126 225.62 61.026 225.92 61.006C226.02 61.006 226.1 61.006 226.07 60.896Z" fill="#464E7A"/>
<path d="M224.4 65.386C224.34 65.386 224.28 65.386 224.21 65.386C224.04 65.386 223.88 65.386 223.71 65.386C223.47 65.386 223.23 65.406 222.99 65.426C222.7 65.446 222.42 65.486 222.14 65.526C221.84 65.576 221.54 65.636 221.24 65.716C220.95 65.796 220.67 65.896 220.39 66.026C220.29 66.076 220.2 66.116 220.11 66.176C220.08 66.186 220.06 66.206 220.04 66.226C220.01 66.246 219.98 66.266 219.98 66.226C219.98 66.086 220.05 65.946 220.09 65.816C220.12 65.716 220.15 65.616 220.19 65.526C220.28 65.276 220.37 65.036 220.47 64.796C220.59 64.506 220.73 64.226 220.87 63.946C221.03 63.646 221.21 63.346 221.4 63.066C221.6 62.776 221.83 62.506 222.07 62.256C222.12 62.206 222.18 62.156 222.23 62.106C223.88 60.586 228.45 60.836 229.34 61.346C230.8 62.176 230.86 63.886 230.99 65.786C230.99 65.786 231.24 65.836 231.25 65.846C231.79 65.976 232.33 66.166 232.82 66.436C233.12 66.596 233.4 66.796 233.63 67.036C233.88 67.286 234.15 67.656 234.21 68.026C234.24 68.196 234.21 68.386 234.09 68.516C234.16 68.316 234.13 68.086 234.04 67.886C233.95 67.696 233.81 67.536 233.65 67.396C232.98 66.846 232.24 66.416 231.37 66.296C229.59 66.046 228.94 67.036 227.31 66.676C226.17 66.426 224.39 65.406 224.39 65.406L224.4 65.386Z" fill="#607CAF"/>
<path d="M230.591 65.546C228.901 65.116 227.191 65.116 225.441 65.146C225.031 65.146 223.991 65.356 225.601 65.446C227.161 65.536 230.541 65.666 230.681 65.696C230.931 65.566 230.811 65.566 230.591 65.546Z" fill="#464E7A"/>
<path opacity="0.5" d="M225.361 61.026C224.691 62.126 224.261 63.526 224.451 64.816C224.471 64.926 224.641 64.896 224.641 64.786C224.661 64.146 224.671 63.516 224.831 62.896C224.981 62.276 225.231 61.686 225.561 61.136C225.631 61.006 225.441 60.896 225.361 61.026Z" fill="#464E7A"/>
<path d="M193.469 128.506C193.469 128.656 193.219 137.936 193.319 138.136C193.419 138.336 194.699 138.396 194.859 138.286C195.009 138.186 195.729 128.036 195.729 128.036L193.479 128.496L193.469 128.506Z" fill="#6C4E4E"/>
<path d="M80.6697 120.636C80.6697 120.786 80.4197 130.066 80.5197 130.266C80.6197 130.466 81.8997 130.526 82.0597 130.416C82.2197 130.306 82.9297 120.166 82.9297 120.166L80.6797 120.626L80.6697 120.636Z" fill="#6C4E4E"/>
<path d="M73.8689 113.036C73.8689 113.186 73.6189 122.466 73.7189 122.666C73.8189 122.866 75.0989 122.926 75.2589 122.816C75.4089 122.716 76.1289 112.566 76.1289 112.566L73.8789 113.026L73.8689 113.036Z" fill="#6C4E4E"/>
<path d="M72.4893 111.936C72.4893 111.936 76.3393 120.436 78.4693 121.106C80.5993 121.766 191.409 129.206 194.989 129.076C198.579 128.946 199.509 128.416 200.039 121.236C200.569 114.066 200.699 104.366 199.769 103.436C198.839 102.506 183.089 95.876 183.089 95.876C183.089 95.876 183.429 91.476 181.699 89.216C179.969 86.956 173.599 87.756 170.539 88.286C167.479 88.816 153.529 85.766 147.419 84.296C141.309 82.836 133.469 84.026 133.469 84.026C133.469 84.026 129.349 81.636 119.789 81.236C110.229 80.836 98.2693 82.696 94.2793 81.766C90.2893 80.836 82.0593 79.776 79.5293 80.836C77.0093 81.896 76.7393 85.616 76.7393 85.616C76.7393 85.616 73.4193 85.346 72.6193 85.886C71.8193 86.416 71.8193 110.066 72.4893 111.926V111.936Z" fill="#ECB14B"/>
<path d="M91.5894 114.546C88.8794 114.436 87.4994 114.406 85.3994 114.376C85.4494 112.226 85.5294 110.076 85.6394 107.926C85.6694 107.366 85.6994 106.806 85.7394 106.246C85.7594 105.966 85.7794 105.686 85.7894 105.406C85.7994 105.206 85.8294 105.146 85.8694 104.956C85.9094 104.766 86.0694 104.746 86.2294 104.756C86.5494 104.766 86.6094 104.756 86.8494 104.756C87.2894 104.776 87.7094 104.526 87.9794 104.206C88.7294 103.296 88.4094 101.916 88.4594 100.906C88.4594 100.676 88.4594 100.436 88.4494 100.206C88.3994 99.486 88.4494 98.746 88.3794 98.026C88.3294 97.506 88.2094 97.016 87.9494 96.566C87.6994 96.126 87.3694 95.736 87.0594 95.346C86.3594 94.466 85.6694 93.586 84.9694 92.706C83.5794 90.946 82.1794 89.186 80.7894 87.426C80.6194 87.206 80.4394 86.986 80.2694 86.766C80.1794 86.656 79.9894 86.676 79.8994 86.766C79.7894 86.876 79.8094 87.026 79.8994 87.136L84.0394 92.366C84.7294 93.236 85.4194 94.106 86.1094 94.976C86.4394 95.396 86.7794 95.806 87.0994 96.226C87.3894 96.606 87.6494 97.016 87.7794 97.476C87.9094 97.976 87.8994 98.506 87.9094 99.026C87.9194 99.576 87.9294 100.116 87.9394 100.666C87.9494 101.216 87.9694 101.756 87.9694 102.306C87.9694 102.756 87.9694 103.256 87.7394 103.666C87.5594 103.986 87.2094 104.286 86.8194 104.236C85.7094 104.096 85.5694 104.416 85.5594 104.436C85.3194 104.746 85.3094 105.096 85.2894 105.496C85.2494 106.056 85.2194 106.616 85.1794 107.176C85.0494 109.376 84.9594 111.586 84.9094 113.786C84.9094 114.066 84.8994 114.346 84.8894 114.626C84.8894 114.766 85.0094 114.886 85.1494 114.886C87.3194 114.886 89.1394 114.986 91.5894 115.026C91.9394 115.026 91.8094 114.546 91.6094 114.536L91.5894 114.546Z" fill="#D59839"/>
<path d="M196.94 103.506C196.9 103.356 196.76 103.296 196.62 103.326C195.73 103.486 194.84 103.646 193.95 103.806C193.53 103.886 193.1 103.956 192.68 104.036C192.35 104.096 192.03 104.166 191.72 104.286C191.41 104.406 191.12 104.586 190.91 104.846L190.79 105.006C190.68 104.956 189.81 104.496 189.63 104.406C189.28 104.206 188.92 104.006 188.57 103.806C187.87 103.396 187.18 102.976 186.49 102.536C186.21 102.356 185.95 102.806 186.23 102.986C187.17 103.586 188.12 104.156 189.09 104.706C189.33 104.846 189.58 104.976 189.83 105.116C190.04 105.236 190.56 105.506 190.59 105.506C190.56 105.636 190.54 105.726 190.52 105.856C190.39 106.736 190.32 107.616 190.27 108.496C190.24 108.916 190.23 109.346 190.22 109.766C190.21 110.156 190.14 110.636 190.35 110.976C190.51 111.236 190.8 111.356 191.09 111.426C191.31 111.476 191.61 111.506 191.76 111.696C191.96 111.946 192.03 113.366 192.01 113.656C191.98 114.106 191.94 114.566 191.91 115.016C191.84 115.896 191.78 116.786 191.71 117.666L191.6 119.156C191.58 119.416 191.56 119.676 191.54 119.936C191.53 120.126 191.53 120.336 191.49 120.526C191.46 120.686 191.41 120.806 191.24 120.816C191.02 120.836 190.8 120.786 190.58 120.776C190.06 120.736 189.54 120.696 189.02 120.656C188.69 120.626 188.69 121.146 189.02 121.176L190.38 121.276C190.6 121.296 190.81 121.306 191.03 121.326C191.23 121.336 191.43 121.336 191.61 121.236C191.92 121.056 192 120.696 192.03 120.356C192.07 119.936 192.09 119.506 192.12 119.086C192.25 117.296 192.38 115.506 192.52 113.716C192.55 113.366 192.45 111.986 192.32 111.646C192.2 111.326 191.94 111.126 191.62 111.016C191.38 110.936 191.06 110.936 190.86 110.776C190.75 110.696 190.73 110.556 190.73 110.426C190.73 110.216 190.73 109.996 190.73 109.786C190.75 108.906 190.81 108.026 190.89 107.146C190.93 106.716 190.97 106.286 191.03 105.866C191.09 105.526 191.19 105.206 191.47 104.986C191.75 104.766 192.1 104.666 192.44 104.596C192.88 104.496 193.32 104.426 193.77 104.346L196.76 103.806C196.9 103.786 196.98 103.616 196.94 103.486V103.506Z" fill="#D59839"/>
<path d="M86.0901 96.296C83.7601 96.056 82.4202 95.956 80.6102 96.126C80.4402 96.146 80.1101 96.126 80.0801 96.086C78.6801 94.036 77.3401 91.946 76.0501 89.826C75.6901 89.226 75.3301 88.626 74.9701 88.016C74.8001 87.726 74.3501 87.986 74.5201 88.276C75.7801 90.416 77.0902 92.526 78.4502 94.596C78.8402 95.186 79.2301 95.766 79.6201 96.346C79.6501 96.386 79.6101 96.536 79.5501 96.606C79.3001 96.926 79.1801 97.336 79.0601 97.706C78.8001 98.556 78.6702 99.446 78.6002 100.336C78.5202 101.246 78.4902 102.156 78.4502 103.066C78.4102 104.016 78.3701 104.966 78.3301 105.916C78.2601 107.816 78.2002 109.716 78.1602 111.616C78.1102 113.756 78.0801 115.896 78.0601 118.036C78.0601 118.366 78.5801 118.376 78.5801 118.036C78.6101 114.336 78.6801 110.646 78.8101 106.956C78.8701 105.116 78.9502 103.286 79.0402 101.446C79.0802 100.596 79.1402 99.756 79.2902 98.916C79.3702 98.496 79.4702 98.076 79.6002 97.676C79.7002 97.366 79.8202 96.926 80.1302 96.756C80.3102 96.656 80.5201 96.646 80.7201 96.626C80.9701 96.606 81.2101 96.596 81.4601 96.586C81.9501 96.576 84.4902 96.766 85.9202 96.786C86.2602 96.786 86.3901 96.316 86.0601 96.286L86.0901 96.296Z" fill="#D59839"/>
<path d="M186.46 120.726C174.32 120.246 162.21 119.206 150.11 118.136C138.08 117.076 126.04 115.996 113.97 115.426C107.21 115.106 99.1698 114.796 93.7298 114.726C93.3998 114.726 93.3898 115.236 93.7298 115.246C105.32 115.436 117.94 116.026 130.04 116.956C142.09 117.876 154.13 119.066 166.18 120.006C172.93 120.526 179.7 120.976 186.46 121.246C186.79 121.256 186.79 120.736 186.46 120.726Z" fill="#D59839"/>
<path d="M139.34 117.056C139.34 117.056 139.31 117.056 139.29 117.056C139.15 117.026 139.06 116.886 139.09 116.746C139.1 116.686 140.33 110.516 138.55 108.126C138.15 107.586 137.63 107.296 136.98 107.226C132.78 106.836 87.45 104.806 87 104.786C86.86 104.786 86.75 104.656 86.75 104.516C86.75 104.376 86.87 104.266 87.01 104.266C87.01 104.266 87.01 104.266 87.02 104.266C87.48 104.286 132.82 106.316 137.03 106.716C137.83 106.786 138.48 107.166 138.97 107.816C140.88 110.396 139.66 116.586 139.6 116.856C139.58 116.976 139.47 117.066 139.35 117.066L139.34 117.056Z" fill="#D59839"/>
<path d="M188.839 111.446C188.839 111.446 188.829 111.446 188.819 111.446C188.409 111.416 147.489 108.266 142.219 107.786C139.519 107.536 139.269 108.416 139.269 108.426C139.249 108.566 139.109 108.656 138.969 108.636C138.829 108.616 138.729 108.476 138.759 108.336C138.779 108.196 139.079 106.986 142.269 107.276C147.539 107.766 188.449 110.906 188.859 110.936C188.999 110.946 189.109 111.076 189.099 111.216C189.089 111.356 188.979 111.456 188.839 111.456V111.446Z" fill="#D59839"/>
<path d="M190.339 110.866C190.339 110.866 190.269 110.866 190.239 110.846C190.149 110.806 180.959 106.856 179.289 106.266C178.599 106.026 170.049 105.106 156.959 103.886C146.009 102.856 135.569 101.956 135.059 101.996C134.669 102.036 134.529 102.166 134.499 102.256L138.229 107.166C138.319 107.276 138.289 107.446 138.179 107.526C138.069 107.616 137.899 107.586 137.819 107.476L134.029 102.496C134.029 102.496 133.989 102.426 133.979 102.386C133.979 102.346 133.939 102.126 134.099 101.896C134.269 101.666 134.569 101.526 134.999 101.476C135.509 101.416 146.749 102.406 156.929 103.356C163.349 103.956 178.399 105.396 179.459 105.776C181.139 106.366 190.059 110.206 190.439 110.366C190.569 110.426 190.629 110.576 190.579 110.706C190.539 110.806 190.439 110.866 190.339 110.866Z" fill="#D59839"/>
<path d="M134.239 102.596C134.239 102.596 134.189 102.596 134.159 102.586C134.149 102.586 132.959 102.196 131.129 101.996C129.269 101.796 88.619 99.936 88.209 99.916C88.069 99.916 87.959 99.786 87.959 99.646C87.959 99.506 88.089 99.396 88.229 99.396C89.909 99.476 129.299 101.276 131.179 101.476C133.079 101.676 134.269 102.066 134.319 102.086C134.459 102.136 134.529 102.276 134.479 102.416C134.439 102.526 134.339 102.596 134.229 102.596H134.239Z" fill="#D59839"/>
<path d="M183.659 95.056C183.659 94.916 183.509 94.806 183.389 94.806C183.239 94.806 183.149 94.936 183.139 95.076C182.999 97.586 182.679 100.086 182.189 102.546C182.129 102.876 182.629 102.986 182.699 102.656C183.199 100.146 183.519 97.596 183.659 95.046V95.056Z" fill="#DEE3E5"/>
<path d="M138.87 92.716C138.81 90.606 138.6 88.336 137.11 86.696C136.43 85.946 135.53 85.406 134.52 85.276C134.13 84.476 133.44 83.816 132.52 83.706C132.38 83.686 132.26 83.836 132.26 83.966C132.26 84.116 132.38 84.206 132.52 84.226C133.37 84.326 133.96 85.126 134.21 85.876C134.37 86.366 134.44 86.886 134.48 87.396C134.53 87.946 134.57 88.506 134.61 89.056C134.78 91.346 134.96 93.646 135.13 95.936L135.42 99.816C135.45 100.146 135.97 100.146 135.94 99.816C135.76 97.426 135.58 95.036 135.4 92.646C135.31 91.436 135.22 90.236 135.13 89.026C135.09 88.456 135.05 87.876 135 87.306C134.95 86.806 134.89 86.306 134.74 85.816C136.4 86.156 137.52 87.776 137.95 89.336C138.24 90.376 138.31 91.466 138.34 92.546C138.37 93.716 138.39 94.886 138.42 96.066C138.45 97.406 138.48 98.756 138.5 100.096C138.5 100.426 139.03 100.436 139.02 100.096C138.97 97.626 138.93 95.166 138.86 92.696L138.87 92.716Z" fill="#D59839"/>
<path d="M203.35 90.176C203.35 90.176 201.7 90.526 201.15 91.826C200.6 93.126 201.84 93.546 203.49 94.166C205.14 94.786 203.35 90.176 203.35 90.176Z" fill="#1A1A1A"/>
<path d="M203.35 90.176C203.35 90.176 206.24 89.276 209.03 90.576C211.82 91.876 212.42 93.166 211.72 94.366C211.02 95.566 206.94 100.046 206.44 100.746C205.94 101.446 194.73 118.326 194.67 119.276C194.64 119.706 195.46 120.766 195.98 122.016C196.59 123.486 196.94 125.176 197.34 125.626C198.08 126.466 198.13 126.986 197.19 127.416C196.13 127.906 195.78 126.296 195.2 125.616C194.76 125.106 194.39 125.036 193.98 125.846C193.67 126.456 192.92 129.146 192.29 129.666C191.66 130.186 190.95 129.456 190.57 129.396C190.19 129.336 189.8 129.966 189.16 129.846C188.53 129.736 188.88 129.236 188.35 129.376C187.82 129.516 187.35 129.676 187.06 129.196C186.77 128.706 187.46 125.826 187.63 124.936C187.1 125.946 186.94 127.756 186.08 127.706C185.22 127.656 186.05 124.406 186.37 123.206C186.94 121.076 187.93 119.666 188.86 118.406C189.79 117.146 194.28 106.616 196.74 100.906C199.2 95.196 203.35 90.176 203.35 90.176Z" fill="#E6916B"/>
<path d="M56.66 101.936C56.66 101.936 56.08 103.316 57.04 104.376C57.99 105.426 61.63 104.516 62.15 103.136C62.67 101.756 56.66 101.936 56.66 101.936Z" fill="#1A1A1A"/>
<path d="M64.5697 98.036C64.5697 98.036 72.1497 104.916 73.6197 105.866C75.0897 106.816 83.2997 112.766 83.2997 112.766C83.2997 112.766 86.3397 112.826 87.0797 113.096C87.8197 113.366 89.3397 113.906 89.8897 113.866C90.4397 113.826 89.9997 115.086 89.3097 115.326C88.6197 115.566 87.2497 115.356 87.2497 115.356C87.2497 115.356 90.0497 121.686 90.6397 122.276C91.2297 122.866 90.9297 123.086 90.1297 123.066C89.3297 123.046 89.1197 122.746 88.9097 122.766C88.6997 122.796 88.8197 123.056 87.9897 122.766C87.0997 122.466 87.0797 121.996 86.7597 122.256C86.1897 122.716 85.9597 122.136 84.8097 122.206C83.3897 122.296 80.7397 117.246 80.4197 117.016C80.0997 116.776 71.9597 112.276 67.3897 109.966C62.8197 107.656 56.9297 102.136 56.6797 101.946C56.6797 101.946 58.3297 99.546 60.1697 98.176C62.0097 96.806 63.9297 97.5261 64.5897 98.0461L64.5697 98.036Z" fill="#E6916B"/>
</svg>
