<svg width="55" height="50" viewBox="0 0 55 50" fill="none" xmlns="http://www.w3.org/2000/svg">
<path d="M2.33673 43.8658C2.15796 43.902 1.98144 43.9767 1.80945 44.04C1.63294 44.1057 1.46096 44.1803 1.29124 44.2573C1.10341 44.3433 0.922378 44.4361 0.745865 44.5402C0.653083 44.5945 0.562562 44.6465 0.474305 44.7099C0.390575 44.7687 0.295528 44.823 0.245742 44.9158C0.193694 45.0131 0.259327 45.115 0.365687 45.124C0.530884 45.1376 0.727754 45.0222 0.879373 44.9656C1.04457 44.9045 1.20977 44.8434 1.37723 44.7868C1.72573 44.6624 2.08328 44.5718 2.43404 44.4587C2.6015 44.4066 2.84816 44.298 2.84364 44.0853C2.83911 43.8386 2.50645 43.8319 2.33673 43.8658Z" fill="#CEAA96"/>
<path d="M4.57347 41.4851C4.42185 41.3176 4.15482 41.3108 3.9421 41.2655C3.69091 41.2135 3.43066 41.1999 3.17495 41.2112C2.91923 41.2225 2.6703 41.2633 2.42137 41.3153C2.30596 41.3402 2.19281 41.3674 2.07966 41.4036C1.98461 41.433 1.88279 41.4579 1.81943 41.5416C1.80358 41.5643 1.81717 41.5937 1.83753 41.6073C1.92805 41.6729 2.05703 41.6525 2.16339 41.6548C2.28106 41.657 2.39875 41.648 2.51643 41.6457C2.76762 41.6389 3.02333 41.6389 3.27452 41.6593C3.52118 41.6774 3.75653 41.7385 3.99641 41.7951C4.22271 41.8471 4.51237 41.872 4.60289 41.605C4.62099 41.562 4.60288 41.5145 4.57347 41.4851Z" fill="#CEAA96"/>
<path d="M9.20038 38.9279C9.01255 38.8849 8.83829 38.8057 8.65499 38.7469C8.4649 38.688 8.2703 38.6541 8.07342 38.6315C7.85391 38.6043 7.62761 38.5998 7.4081 38.6224C7.31532 38.6314 6.91929 38.6971 7.01886 38.8736C7.10259 39.0207 7.35604 39.0003 7.49861 39.0116C7.68644 39.0252 7.87201 39.0591 8.05531 39.1021C8.24993 39.1474 8.44227 39.2085 8.62784 39.2809C8.80435 39.3488 8.9786 39.4303 9.16416 39.4597C9.35878 39.4914 9.66202 39.4688 9.66202 39.204C9.66428 38.9437 9.37236 38.9686 9.20038 38.9279Z" fill="#CEAA96"/>
<path d="M15.3267 38.2014C15.2158 38.0227 15.0009 37.9616 14.8153 37.8914C14.6524 37.8281 14.4849 37.7692 14.3174 37.724C14.1477 37.6764 13.978 37.6334 13.8037 37.604C13.6544 37.5791 13.4507 37.5248 13.3217 37.6334C13.3014 37.6493 13.2923 37.6878 13.3014 37.7104C13.3579 37.862 13.548 37.9186 13.6838 37.9774C13.8377 38.0453 13.9938 38.1087 14.1454 38.1743C14.3016 38.2422 14.4555 38.3078 14.6116 38.3757C14.8017 38.4617 14.9782 38.568 15.1932 38.5364C15.338 38.5137 15.3969 38.3146 15.3267 38.2014Z" fill="#CEAA96"/>
<path d="M4.5438 46.0292C4.42386 45.9409 4.24736 45.9884 4.12742 46.0495C4.05501 46.088 3.98484 46.1332 3.91695 46.1808C3.76986 46.2826 3.6273 46.3935 3.5051 46.527C3.38743 46.656 3.27201 46.7963 3.20186 46.957C3.16791 47.0316 3.12945 47.1109 3.10908 47.1901C3.10003 47.2285 3.08871 47.2738 3.08644 47.3123C3.08418 47.3485 3.09776 47.3847 3.08418 47.4186C3.0706 47.4548 3.12492 47.4865 3.14981 47.4571C3.17018 47.4322 3.19506 47.4254 3.22448 47.4118C3.2539 47.396 3.2788 47.3756 3.30596 47.3553C3.36932 47.31 3.42589 47.2557 3.48699 47.2059C3.60693 47.1086 3.72008 47.0067 3.83775 46.9094C3.84907 46.9004 3.86039 46.8913 3.8717 46.8823C3.87623 46.8778 3.88527 46.8732 3.89206 46.8664C3.93506 46.8348 3.97579 46.8031 4.01652 46.7714C4.01879 46.7691 4.02106 46.7691 4.02332 46.7669C4.03916 46.7556 4.05274 46.7443 4.06858 46.7329C4.098 46.7103 4.12968 46.6899 4.16136 46.6696C4.22472 46.6288 4.28809 46.5904 4.35372 46.5542C4.36956 46.5451 4.38766 46.536 4.40576 46.527C4.34919 46.5564 4.43065 46.5179 4.46007 46.5021C4.50759 46.4772 4.55739 46.4568 4.59359 46.4138C4.70674 46.2849 4.67505 46.1265 4.5438 46.0292Z" fill="#CEAA96"/>
<path d="M8.6191 46.8348C8.59421 46.8258 8.54669 46.8212 8.53764 46.819C8.49238 46.8077 8.45617 46.7896 8.40638 46.7896C8.39733 46.7896 8.30228 46.8009 8.35886 46.7941C8.32944 46.7986 8.29777 46.7963 8.27061 46.8054C8.18688 46.828 8.11672 46.8982 8.0692 46.9661C7.94926 47.1358 7.87911 47.353 7.8248 47.5522C7.7637 47.7762 7.72523 48.0025 7.71165 48.2333C7.70486 48.3465 7.71165 48.4596 7.72523 48.5728C7.7388 48.6927 7.77049 48.7787 7.82706 48.8828C7.8429 48.91 7.88137 48.9077 7.89721 48.8828C7.94474 48.8036 7.98321 48.738 8.01263 48.6475C8.04431 48.5524 8.07598 48.4551 8.10314 48.3578C8.15971 48.1677 8.21855 47.9776 8.2887 47.792C8.34528 47.6404 8.40638 47.482 8.48785 47.3417C8.54216 47.2467 8.601 47.1697 8.60779 47.0543C8.61005 47.0136 8.59874 47.1267 8.60779 47.034C8.61005 47.0159 8.61005 46.9977 8.61231 46.9796C8.61231 46.9774 8.61231 46.9728 8.61457 46.9706C8.62136 46.9661 8.64626 46.9389 8.64399 46.9412C8.6802 46.9027 8.6621 46.8529 8.6191 46.8348Z" fill="#CEAA96"/>
<path d="M12.8916 47.4049C12.8328 47.3574 12.7491 47.3167 12.6699 47.3461C12.5183 47.405 12.4413 47.5204 12.4232 47.681C12.4119 47.7851 12.4074 47.8892 12.4051 47.9933C12.4006 48.2106 12.4051 48.4278 12.4142 48.6451C12.4232 48.8533 12.4345 49.0615 12.4345 49.2697C12.4345 49.367 12.4232 49.4824 12.4639 49.5752C12.482 49.6181 12.525 49.6928 12.5793 49.6815C12.7626 49.6476 12.8215 49.4258 12.8622 49.2697C12.9143 49.066 12.9369 48.8533 12.9482 48.6451C12.9595 48.4482 12.955 48.2491 12.9663 48.0522C12.9799 47.8508 13.0749 47.5566 12.8916 47.4049Z" fill="#CEAA96"/>
<path d="M18.406 48.5501C18.3879 48.36 18.3562 48.1722 18.3268 47.9821C18.2997 47.8078 18.2793 47.62 18.2273 47.4503C18.1752 47.2851 17.9942 47.1629 17.8222 47.2195C17.657 47.2738 17.537 47.448 17.5914 47.6245C17.6457 47.7965 17.7203 47.9617 17.7724 48.1337C17.8222 48.2921 17.8539 48.4573 17.8878 48.6202C17.9218 48.7832 17.9444 48.9461 17.9693 49.1113C17.9828 49.195 17.9964 49.2878 18.0281 49.3693C18.0598 49.4553 18.1209 49.5051 18.1707 49.5775C18.1933 49.6114 18.2408 49.6114 18.2635 49.5775C18.311 49.5051 18.3698 49.4553 18.397 49.3693C18.4264 49.2833 18.4287 49.1792 18.4332 49.0887C18.44 48.9076 18.4219 48.7266 18.406 48.5501Z" fill="#CEAA96"/>
<path d="M23.6745 48.8465C23.6654 48.7945 23.6496 48.7017 23.6315 48.618C23.5975 48.4528 23.5523 48.2898 23.4979 48.1314C23.4391 47.9617 23.3667 47.7988 23.2852 47.6403C23.2513 47.5747 23.2151 47.5114 23.1721 47.4525C23.1427 47.414 23.1155 47.3733 23.077 47.3416C22.9978 47.276 22.9254 47.2579 22.8281 47.2443C22.6493 47.2194 22.5 47.4457 22.5543 47.6041C22.5769 47.672 22.6063 47.7286 22.6539 47.7829C22.6652 47.7942 22.6968 47.8327 22.7014 47.8372C22.7398 47.8915 22.7761 47.9481 22.81 48.0047C22.8983 48.154 22.9797 48.3057 23.0499 48.4641C23.0567 48.4822 23.0657 48.498 23.0725 48.5161C23.0725 48.5184 23.0748 48.5206 23.0748 48.5206C23.0748 48.5229 23.077 48.5274 23.0793 48.532C23.0951 48.5727 23.111 48.6134 23.1268 48.6542C23.154 48.7311 23.1766 48.808 23.206 48.885C23.24 48.971 23.2852 49.0524 23.3554 49.1135C23.4368 49.186 23.602 49.2335 23.6677 49.1067C23.6926 49.0592 23.6993 49.0117 23.6926 48.9597C23.6858 48.9302 23.6813 48.8918 23.6745 48.8465Z" fill="#CEAA96"/>
<path d="M28.9062 48.9868C28.8881 48.9121 28.9017 48.8261 28.8971 48.7492C28.8949 48.6722 28.8813 48.5953 28.8745 48.5184C28.8609 48.3464 28.8315 48.1676 28.7885 48.0001C28.75 47.8485 28.6844 47.6879 28.5962 47.5589C28.5486 47.4887 28.4898 47.4185 28.4264 47.362C28.3857 47.3258 28.3404 47.2828 28.2929 47.2579C28.2069 47.2126 28.1187 47.2104 28.0236 47.2262C27.8743 47.2534 27.7905 47.4367 27.8268 47.5724C27.8471 47.6471 27.8901 47.715 27.9512 47.7648C27.9444 47.7603 27.9806 47.7874 27.9942 47.7987C28.001 47.8055 28.0078 47.8101 28.0101 47.8123C28.0576 47.8553 28.096 47.9074 28.139 47.9549C28.1413 47.9571 28.1413 47.9571 28.1436 47.9594C28.1526 47.973 28.1617 47.9843 28.1707 47.9979C28.1888 48.0273 28.2069 48.0567 28.225 48.0884C28.259 48.1495 28.2907 48.2106 28.3201 48.274C28.3269 48.2875 28.3337 48.3011 28.3382 48.3147C28.3405 48.317 28.3472 48.3351 28.3495 48.3418C28.354 48.3509 28.3676 48.3826 28.3676 48.3871C28.3744 48.4029 28.3812 48.421 28.388 48.4369C28.4219 48.5206 28.4559 48.6044 28.4943 48.6858C28.526 48.7537 28.5577 48.8193 28.603 48.8782C28.655 48.9461 28.7161 49.0004 28.7681 49.066C28.8225 49.1339 28.922 49.0592 28.9062 48.9868Z" fill="#CEAA96"/>
<path d="M33.2217 47.5522C33.1447 47.439 33.052 47.3417 32.9524 47.2467C32.7646 47.0679 32.5428 46.9163 32.3165 46.7873C32.0924 46.6605 31.8141 46.4908 31.5448 46.5112C31.4882 46.5157 31.4769 46.5135 31.4249 46.5248C31.3819 46.5361 31.3411 46.5542 31.3095 46.5859C31.2981 46.5994 31.2868 46.613 31.2778 46.6266C31.2936 46.6062 31.2914 46.604 31.2687 46.6243C31.2574 46.6357 31.2483 46.6492 31.2438 46.6651C31.2393 46.6809 31.2416 46.699 31.2438 46.7149C31.2461 46.7216 31.2484 46.7284 31.2529 46.7352C31.271 46.8167 31.2959 46.8665 31.3502 46.914C31.4724 47.0566 31.6489 47.1199 31.8164 47.2014C31.9838 47.2806 32.1422 47.3757 32.3006 47.4707C32.4545 47.5612 32.6039 47.6608 32.7487 47.7626C32.889 47.8622 33.0723 48.0002 33.2533 47.9731C33.2896 47.9685 33.3235 47.9301 33.3303 47.8961C33.3597 47.7717 33.2896 47.654 33.2217 47.5522Z" fill="#CEAA96"/>
<path d="M36.4948 46.837C36.393 46.6627 36.2052 46.545 36.0422 46.4342C35.8725 46.321 35.6937 46.2192 35.5082 46.1332C35.3271 46.0494 35.1371 45.9657 34.9402 45.925C34.7546 45.8865 34.5894 45.925 34.4287 45.8775C34.3948 45.8684 34.3518 45.9024 34.3676 45.9386C34.431 46.0947 34.5306 46.2124 34.6799 46.3097C34.8496 46.4206 35.0669 46.45 35.2547 46.5134C35.4358 46.5745 35.6123 46.6514 35.782 46.7397C35.9676 46.837 36.1373 46.975 36.3364 47.0406C36.4564 47.0814 36.5559 46.9388 36.4948 46.837Z" fill="#CEAA96"/>
<path d="M37.2138 43.9177C36.9083 43.7865 36.5824 43.6869 36.2588 43.619C35.9375 43.5511 35.6048 43.4991 35.2789 43.4855C34.9779 43.4742 34.6204 43.5081 34.4258 43.7661C34.4054 43.7933 34.4167 43.834 34.4371 43.8566C34.6227 44.0626 34.9282 44.1033 35.1907 44.1237C35.4735 44.1463 35.7564 44.1599 36.037 44.2029C36.3267 44.2481 36.6141 44.3024 36.9015 44.3658C37.13 44.4178 37.3744 44.4835 37.6098 44.4835C37.6415 44.4835 37.6664 44.4608 37.6754 44.4337C37.7705 44.1621 37.4039 43.9992 37.2138 43.9177Z" fill="#CEAA96"/>
<path d="M35.0192 41.4466C34.9898 41.2995 34.8337 41.2158 34.7137 41.1479C34.5712 41.0665 34.4173 41.0031 34.2657 40.942C33.9421 40.8085 33.6026 40.7044 33.2586 40.6365C32.9192 40.5709 32.5639 40.5324 32.2177 40.5437C31.9009 40.5528 31.5003 40.5935 31.3328 40.9126C31.317 40.9442 31.317 40.9895 31.3464 41.0144C31.584 41.2226 31.8986 41.1977 32.1905 41.1864C32.5232 41.1705 32.8513 41.1751 33.184 41.2045C33.5008 41.2317 33.8131 41.2882 34.1186 41.372C34.2679 41.4127 34.415 41.4647 34.5621 41.5123C34.7002 41.5575 34.8382 41.6164 34.9785 41.553C35.0147 41.5326 35.026 41.4851 35.0192 41.4466Z" fill="#CEAA96"/>
<path d="M30.0788 38.9052C29.8458 38.7265 29.4678 38.7197 29.1872 38.6835C28.884 38.6427 28.5762 38.6133 28.2685 38.5997C27.9607 38.5862 27.6348 38.5658 27.3316 38.6201C27.0397 38.6699 26.8518 38.8057 26.6708 39.0297C26.6436 39.0637 26.6572 39.1361 26.7115 39.1293C26.8269 39.1134 26.9039 39.1519 27.0057 39.1859C27.1279 39.2266 27.2886 39.2447 27.4176 39.2515C27.7208 39.2651 28.0331 39.2243 28.3364 39.2062C28.6419 39.1859 28.9474 39.17 29.2551 39.1587C29.5199 39.1474 29.8412 39.1791 30.0811 39.0546C30.14 39.0161 30.1241 38.9392 30.0788 38.9052Z" fill="#CEAA96"/>
<path d="M24.0435 37.7081C23.9462 37.5859 23.7335 37.5882 23.5909 37.5972C23.4031 37.6108 23.2175 37.647 23.0365 37.6991C22.8554 37.7489 22.6835 37.8122 22.5137 37.8937C22.3599 37.9661 22.1471 38.0974 22.1494 38.292C22.1403 38.3169 22.1358 38.3395 22.1313 38.3689C22.1268 38.4006 22.1584 38.43 22.1856 38.4391C22.2082 38.4459 22.2286 38.4504 22.249 38.4526C22.4096 38.5341 22.6088 38.4345 22.7536 38.3644C22.8939 38.2942 23.041 38.2241 23.1836 38.1675C23.342 38.1042 23.5026 38.0544 23.6611 37.9955C23.7946 37.948 23.9824 37.896 24.0503 37.7602C24.0593 37.7398 24.0548 37.724 24.0435 37.7081Z" fill="#CEAA96"/>
<path d="M19.6923 37.2941C19.5158 37.2759 19.3348 37.3529 19.1809 37.4344C19.0225 37.5181 18.8663 37.6267 18.7306 37.7444C18.5948 37.8621 18.4567 37.9933 18.3617 38.1449C18.3006 38.2422 18.2508 38.3509 18.2666 38.4708C18.278 38.5545 18.3255 38.6428 18.4047 38.6835C18.4364 38.7062 18.4771 38.7175 18.5133 38.6948C18.4952 38.7062 18.511 38.6971 18.5201 38.6948C18.5382 38.6903 18.5993 38.6609 18.5608 38.679C18.5156 38.6994 18.6038 38.6586 18.6174 38.6496C18.6423 38.6337 18.6649 38.6156 18.6853 38.5953C18.7464 38.5319 18.7826 38.4459 18.8324 38.3735C18.8437 38.3554 18.855 38.3396 18.8663 38.3215C18.8686 38.3192 18.8799 38.3034 18.8867 38.2943C18.8935 38.2852 18.9003 38.2762 18.9025 38.2739C18.9161 38.2581 18.9297 38.2422 18.9433 38.2264C18.9953 38.1676 19.0496 38.111 19.1039 38.0567C19.2126 37.9458 19.328 37.844 19.4457 37.7421C19.5611 37.6426 19.6833 37.552 19.767 37.4253C19.8077 37.3642 19.7534 37.2986 19.6923 37.2941Z" fill="#CEAA96"/>
<path d="M15.2768 38.1902C5.64784 38.9211 -1.38096 43.171 4.01171 45.8843C9.40439 48.5976 24.4034 48.2197 32.5592 47.0022C40.7149 45.7847 31.5001 36.9591 15.2768 38.1902Z" fill="#FAE8DA"/>
<path d="M16.1616 39.1542C8.911 39.7041 3.62015 42.904 7.67993 44.9474C11.742 46.9909 23.0343 46.7058 29.1737 45.7893C35.3154 44.8728 28.3771 38.2287 16.1616 39.1542Z" fill="#CEAA96"/>
<path d="M17.4022 40.0979C12.3965 40.4781 8.74176 42.6867 11.5456 44.0966C14.3494 45.5064 22.1454 45.3118 26.3862 44.6782C30.627 44.0445 25.8363 39.4575 17.4022 40.0979Z" fill="#FAE8DA"/>
<path d="M22.8556 36.8233C23.3557 37.4977 25.5101 37.7783 29.459 38.5839C31.9098 39.084 43.236 40.1476 45.4175 39.7018C50.8712 38.5839 52.5821 30.4213 53.2836 27.7442C53.9874 25.0649 19.7576 32.6368 22.8556 36.8233Z" fill="#3A362D"/>
<path d="M22.6812 35.4565C21.6153 39.1361 21.6697 40.3219 23.1021 39.4054C24.5323 38.4889 26.6708 38.0386 25.6118 37.061C24.5504 36.0857 22.6812 35.4565 22.6812 35.4565Z" fill="#3A362D"/>
<path d="M46.8814 37.9163C47.2096 41.7316 46.9244 42.8858 45.7002 41.7067C44.4759 40.5277 42.4664 39.6701 43.6952 38.9188C44.9262 38.1674 46.8814 37.9163 46.8814 37.9163Z" fill="#3A362D"/>
<path d="M53.5777 27.699C53.684 30.7834 53.4215 32.4263 52.3715 31.4827C51.1065 30.3467 49.1513 29.4234 50.3846 28.6811C51.6202 27.9388 53.5777 27.699 53.5777 27.699Z" fill="#3A362D"/>
<path d="M28.1194 15.1734C24.5054 16.3931 21.817 19.7152 19.8934 22.2543C16.3994 26.873 18.8344 35.9317 22.7289 36.726C29.0246 38.0068 38.8029 21.5731 36.0126 17.4273C33.2224 13.2838 31.5727 14.008 28.1194 15.1734Z" fill="#877E81"/>
<path d="M28.6147 7.51103C26.6935 9.83058 26.7613 10.609 26.6233 13.483C26.4762 16.5675 26.4219 21.4102 28.4337 23.112C29.9748 24.4155 33.6046 21.7746 36.9244 21.9873C48.977 22.7612 53.6455 26.1942 54.3878 20.539C55.13 14.8861 56.0284 9.13811 51.55 6.83213C48.6421 5.33404 31.8734 3.57571 28.6147 7.51103Z" fill="#B5A7AC"/>
<path d="M18.6254 24.5218C19.1504 22.4105 20.9925 22.8359 21.7529 24.6938C22.5132 26.5517 24.4005 35.9453 22.5743 36.4794C20.7458 37.0112 16.7856 31.915 18.6254 24.5218Z" fill="#B5A7AC"/>
<path d="M34.1383 10.4755C34.1383 10.8399 33.8441 11.1341 33.4798 11.1341C33.1155 11.1341 32.8213 10.8399 32.8213 10.4755C32.8213 10.1112 33.1155 9.81702 33.4798 9.81702C33.8441 9.81702 34.1383 10.1135 34.1383 10.4755Z" fill="#877E81"/>
<path d="M33.4801 17.3414C33.4801 17.7057 33.186 17.9999 32.8216 17.9999C32.4573 17.9999 32.1631 17.7057 32.1631 17.3414C32.1631 16.9771 32.4573 16.6829 32.8216 16.6829C33.186 16.6806 33.4801 16.9771 33.4801 17.3414Z" fill="#877E81"/>
<path d="M47.0055 18.6517C47.0055 19.016 46.7113 19.3102 46.347 19.3102C45.9827 19.3102 45.6885 19.016 45.6885 18.6517C45.6885 18.2873 45.9827 17.9932 46.347 17.9932C46.7113 17.9932 47.0055 18.2873 47.0055 18.6517Z" fill="#877E81"/>
<path d="M47.0055 10.4755C47.0055 10.8399 46.7113 11.1341 46.347 11.1341C45.9827 11.1341 45.6885 10.8399 45.6885 10.4755C45.6885 10.1112 45.9827 9.81702 46.347 9.81702C46.7113 9.81702 47.0055 10.1135 47.0055 10.4755Z" fill="#877E81"/>
<path d="M21.6333 29.0522C23.412 27.1672 41.6742 28.5499 45.1592 30.6884C48.8298 32.9423 48.5899 38.6427 45.1592 39.1451C41.5928 39.6679 33.5818 38.9279 27.8135 37.9141C22.2873 36.9432 21.0427 36.8029 20.6218 32.94C20.443 31.3288 20.6761 30.0661 21.6333 29.0522Z" fill="#877E81"/>
<path d="M28.1681 22.2068C22.5401 24.3951 19.8313 26.0719 20.3993 31.1252C20.7636 34.3793 24.2418 34.5038 29.6662 35.3479C36.6384 36.4318 46.2561 37.1583 47.6342 35.7054C50.085 33.1234 54.9368 25.1939 48.8608 23.2455C42.7847 21.2948 33.649 20.075 28.1681 22.2068Z" fill="#DCCDD2"/>
<path d="M48.1741 21.0368C44.1731 24.0013 42.5438 28.1403 42.5868 32.5282C42.6094 35.0152 42.7067 37.2985 43.6277 38.5975C44.6053 39.9779 46.6103 40.0435 47.984 38.8351C51.2517 35.9611 54.5059 27.1197 54.5964 21.7202C54.6598 17.7962 52.6638 17.7102 48.1741 21.0368Z" fill="#877E81"/>
<path d="M42.9687 28.7422C43.5435 25.5853 46.628 25.9406 47.0964 28.0135C47.5648 30.0864 48.7733 37.9797 45.845 39.3601C42.6587 40.865 42.0341 33.8792 42.9687 28.7422Z" fill="#B5A7AC"/>
<path d="M29.3975 15.7211C29.4007 15.7211 29.4007 15.7243 29.404 15.7243C29.4007 15.7243 29.4007 15.7243 29.3975 15.7211Z" fill="#40547B"/>
<path d="M40.3261 17.7193C40.3193 17.7125 40.2831 17.6129 40.3012 17.6491C40.2922 17.6333 40.2831 17.6174 40.2741 17.6016C40.2809 17.622 40.2876 17.64 40.2944 17.6604C40.2446 17.4771 40.0704 17.3572 39.9029 17.2893C39.8531 17.2689 39.8011 17.2554 39.7468 17.2463C39.7264 17.0562 39.6947 16.8752 39.654 16.7032C39.4933 16.0469 39.0023 15.4427 38.3437 14.9177C38.4162 14.8566 38.484 14.7887 38.5429 14.7095C38.6492 14.5692 38.7239 14.413 38.7466 14.2388C38.7669 14.0849 38.7782 13.9356 38.7217 13.7885C38.699 13.7319 38.6176 13.7387 38.5881 13.7817C38.5203 13.888 38.4705 14.0057 38.3958 14.1076C38.3551 14.1641 38.3098 14.2184 38.2691 14.2727C38.2487 14.2976 38.2306 14.3248 38.2125 14.3497C38.2012 14.3633 38.1921 14.3791 38.1808 14.3927C38.1785 14.3949 38.174 14.4017 38.1672 14.4108C38.1627 14.4153 38.1514 14.4312 38.1469 14.4334C38.1288 14.4538 38.1107 14.4809 38.0903 14.5036C38.0858 14.5081 38.0812 14.5126 38.079 14.5149C38.0677 14.5285 38.0541 14.5398 38.0428 14.5534C38.0156 14.5805 37.9862 14.6054 37.9568 14.6303C37.4363 14.2682 36.8434 13.9514 36.2414 13.6866C36.2414 13.6844 36.2414 13.6798 36.2437 13.6776C36.2437 13.6731 36.246 13.6663 36.246 13.664C36.2505 13.6436 36.255 13.6255 36.2573 13.6052C36.2618 13.5803 36.2641 13.5576 36.2663 13.5327C36.2686 13.5214 36.2709 13.5124 36.2709 13.5011C36.2709 13.4988 36.2709 13.4965 36.2731 13.4943C36.2822 13.4468 36.2935 13.4015 36.3071 13.354C36.332 13.2657 36.3568 13.1775 36.3795 13.0869C36.3953 13.0258 36.3953 13.001 36.4089 12.9444C36.4202 12.8946 36.4315 12.8493 36.4315 12.7995C36.4315 12.7452 36.3772 12.709 36.3274 12.7339C36.2392 12.7792 36.1622 12.8697 36.1057 12.9512C36.0446 13.0417 35.9993 13.1503 35.9744 13.2567C35.9518 13.354 35.9314 13.4558 35.9269 13.5554C35.0194 13.1843 34.121 12.9353 33.4421 12.838C33.4444 12.8312 33.4467 12.8244 33.4489 12.8177C33.4897 12.6457 33.5032 12.4669 33.4783 12.2904C33.467 12.2134 33.4557 12.1342 33.4331 12.0573C33.4218 12.0166 33.4037 11.9758 33.3856 11.9351C33.3765 11.917 33.3697 11.8944 33.3539 11.8808C33.3471 11.874 33.338 11.8672 33.3313 11.8627C33.329 11.8604 33.3267 11.8604 33.3245 11.8582C33.2905 11.7948 33.1728 11.7948 33.1796 11.883C33.1842 11.8808 33.1887 11.8763 33.1909 11.874C33.1796 11.883 33.1706 11.8966 33.166 11.9102C33.157 11.9283 33.1547 11.9441 33.1525 11.9645C33.1479 12.0007 33.1412 12.0347 33.1344 12.0709C33.1253 12.1433 33.1208 12.2134 33.1072 12.2858C33.0823 12.4194 33.0529 12.5484 33.0167 12.6909C33.0076 12.7271 32.9963 12.7611 32.985 12.7973C32.8221 12.7928 32.6795 12.7995 32.5709 12.8244C32.1432 12.9172 31.7381 13.1186 31.3625 13.3992C31.3421 13.3789 31.3195 13.3585 31.3014 13.3381C31.2832 13.3178 31.2674 13.2974 31.2516 13.277C31.247 13.2725 31.2425 13.2657 31.2403 13.2612C31.238 13.2589 31.2335 13.2521 31.2289 13.2454C31.1769 13.1662 31.1384 13.0802 31.0886 13.001C31.0615 12.958 31.0321 12.9127 31.0049 12.8674C30.9891 12.8425 30.9642 12.7995 30.9529 12.7611C30.9325 12.7022 30.8329 12.6773 30.8171 12.7543C30.8103 12.7882 30.8035 12.8199 30.799 12.8539C30.7831 12.8946 30.7741 12.9353 30.7741 12.9783C30.7718 13.0349 30.7764 13.096 30.7877 13.1503C30.8148 13.2725 30.8804 13.3789 30.9529 13.4784C30.9913 13.5327 31.0366 13.5825 31.0841 13.6278C30.5772 14.0781 30.1337 14.6778 29.7784 15.3431C29.7761 15.3409 29.7738 15.3386 29.7716 15.3386C29.6494 15.2549 29.5113 15.2051 29.3665 15.1802C29.2466 15.1598 29.1153 15.1553 28.9954 15.187C28.8664 15.2232 28.6899 15.2979 28.6446 15.4359C28.6197 15.5129 28.665 15.5875 28.7351 15.617C28.7555 15.626 28.7713 15.6328 28.7962 15.6328C28.803 15.6328 28.8302 15.6305 28.8347 15.6305C28.8551 15.6305 28.8732 15.6283 28.8936 15.6305C28.9411 15.6328 28.9886 15.6328 29.0361 15.6373C29.0814 15.6418 29.1289 15.6486 29.1742 15.6532C29.181 15.6554 29.1877 15.6554 29.1945 15.6577C29.2194 15.6645 29.2443 15.6713 29.2692 15.6803C29.3122 15.6939 29.3529 15.712 29.3937 15.7301C29.3914 15.7278 29.3869 15.7256 29.3846 15.7256C29.3869 15.7278 29.3914 15.7301 29.3937 15.7301C29.3959 15.7301 29.3982 15.7324 29.4005 15.7324C29.4299 15.7437 29.414 15.7392 29.3982 15.7324C29.4072 15.7369 29.414 15.7414 29.4208 15.7437C29.4412 15.755 29.4616 15.7686 29.4819 15.7799C29.5023 15.7912 29.5227 15.8048 29.5453 15.8138C29.3212 16.3072 29.1447 16.8277 29.0225 17.3459C28.9931 17.3595 28.966 17.3753 28.9366 17.3866C28.9298 17.3889 28.9207 17.3934 28.9139 17.3957C28.9071 17.3957 28.8641 17.4115 28.8596 17.4115C28.8189 17.4228 28.7781 17.4296 28.7351 17.4364C28.7329 17.4364 28.7329 17.4364 28.7306 17.4364C28.7238 17.4364 28.7125 17.4364 28.708 17.4386C28.674 17.4409 28.6424 17.4454 28.6107 17.45C28.5564 17.4567 28.5043 17.4703 28.4613 17.5043C28.4477 17.5111 28.4342 17.5201 28.4229 17.5314C28.4183 17.5337 28.4161 17.5382 28.4115 17.5428C28.4048 17.5473 28.3957 17.5541 28.3912 17.5608C28.3889 17.5631 28.3866 17.5631 28.3844 17.5654C28.3663 17.5744 28.3595 17.5948 28.3617 17.6129C28.3617 17.6129 28.3617 17.6152 28.3617 17.6265C28.3617 17.6287 28.3617 17.6287 28.3617 17.631C28.3617 17.6355 28.364 17.6378 28.364 17.6446C28.3663 17.6604 28.3753 17.6717 28.3844 17.6831C28.3912 17.6944 28.398 17.7057 28.4047 17.717C28.4138 17.7306 28.4251 17.7419 28.4387 17.7532C28.4862 17.803 28.5428 17.8279 28.6175 17.8392C28.6763 17.8483 28.7374 17.8437 28.7962 17.8347C28.8415 17.8279 28.8845 17.8166 28.9275 17.803C28.7985 18.543 28.7872 19.2649 28.9184 19.8804C28.9637 20.0954 29.0339 20.2991 29.1244 20.4959C29.0723 20.5208 29.0225 20.5457 28.975 20.5751C28.8143 20.677 28.6854 20.7969 28.5813 20.9553C28.5337 21.0277 28.493 21.1205 28.5202 21.2065C28.5405 21.2721 28.5971 21.3151 28.665 21.297C28.6763 21.2948 28.6808 21.2857 28.6831 21.2767C28.6921 21.2699 28.6989 21.2653 28.7057 21.2586C28.7284 21.2405 28.7487 21.2201 28.7736 21.202C28.8189 21.1658 28.8664 21.1205 28.9094 21.0888C29.018 21.0119 29.1357 20.9463 29.2579 20.8942C29.2624 20.892 29.2715 20.8897 29.2737 20.8874C29.2918 20.8806 29.3099 20.8739 29.328 20.8671C29.6358 21.3536 30.0726 21.7723 30.5908 22.123C30.403 22.3629 30.2717 22.6842 30.3328 22.9875C30.3464 23.0508 30.4097 23.0961 30.4731 23.0916C30.5433 23.0848 30.584 23.035 30.5953 22.9671C30.6157 22.8404 30.636 22.7227 30.6904 22.596C30.7062 22.5598 30.7039 22.562 30.7266 22.5236C30.7424 22.4941 30.7582 22.467 30.7763 22.4398C30.7944 22.4127 30.8126 22.3855 30.8307 22.3584C30.842 22.3448 30.851 22.3289 30.8623 22.3154C30.8623 22.3154 30.8691 22.3086 30.8737 22.3018C31.8558 22.8856 33.0687 23.2387 34.2116 23.345C34.207 23.3609 34.2048 23.3767 34.198 23.3903C34.1912 23.4129 34.1821 23.4333 34.1731 23.4536C34.1685 23.465 34.164 23.474 34.1595 23.4853C34.1595 23.4853 34.1595 23.4853 34.1595 23.4876C34.1346 23.5328 34.112 23.5781 34.0848 23.6211C34.0712 23.6415 34.0577 23.6641 34.0441 23.6845C34.0373 23.6935 34.0328 23.7003 34.026 23.7094C34.0237 23.7139 33.9898 23.7478 34.0169 23.7207C33.9762 23.7637 33.9468 23.8112 33.9128 23.861C33.8449 23.9606 33.9423 24.0828 34.0531 24.0624C34.3428 24.0126 34.5419 23.7275 34.6438 23.4718C34.6574 23.4401 34.6664 23.4061 34.6755 23.3722C34.9583 23.3812 35.2344 23.3767 35.4992 23.3541C36.1849 23.2952 36.7845 23.0848 37.2982 22.7725C37.3231 22.8517 37.348 22.9332 37.3661 23.0124C37.3888 23.1051 37.4114 23.2002 37.4318 23.293C37.4453 23.3495 37.4657 23.379 37.4748 23.4333C37.4702 23.4197 37.468 23.4242 37.4725 23.4446C37.4725 23.4604 37.4725 23.4763 37.4748 23.4921C37.477 23.5147 37.4838 23.5396 37.4906 23.5623C37.5042 23.6256 37.5856 23.6369 37.6218 23.5872C37.6558 23.5419 37.6694 23.4989 37.692 23.4491C37.7146 23.3993 37.7441 23.3563 37.7554 23.302C37.7667 23.2432 37.778 23.1844 37.7848 23.1255C37.7916 23.0599 37.7848 22.992 37.7757 22.9264C37.7622 22.811 37.7237 22.7001 37.6762 22.5937C37.6671 22.5734 37.6558 22.5552 37.6445 22.5371C38.1378 22.1638 38.5406 21.6885 38.8597 21.159C38.9525 21.2382 39.0679 21.3038 39.1765 21.3355C39.3395 21.3853 39.5295 21.3989 39.6902 21.331C39.688 21.331 39.6857 21.3332 39.6812 21.3332C39.6857 21.331 39.688 21.331 39.6925 21.3287C39.7083 21.3242 39.7242 21.3174 39.7377 21.3129C39.7513 21.3083 39.7626 21.3038 39.7762 21.297C39.8056 21.2812 39.8373 21.2699 39.869 21.254C39.9346 21.2223 39.9889 21.1612 40.0319 21.1047C40.0613 21.0662 40.0297 20.996 39.9776 20.9983C39.9165 21.0028 39.8532 20.9983 39.7921 21.0028C39.7853 21.0028 39.7536 21.0142 39.7694 21.0051C39.7513 21.0028 39.7491 21.0051 39.7649 21.0119C39.7604 21.0119 39.7558 21.0096 39.7513 21.0096C39.7287 21.0096 39.7038 21.0006 39.6812 20.9961C39.6653 20.9938 39.6404 20.9847 39.6676 20.9938C39.5522 20.9553 39.4322 20.9327 39.3191 20.8897C39.2897 20.8784 39.2625 20.8671 39.2331 20.8558C39.2195 20.8512 39.2059 20.8444 39.1901 20.8376C39.1878 20.8376 39.1878 20.8376 39.1878 20.8376C39.1494 20.8128 39.1086 20.7901 39.0702 20.7675C39.5476 19.8148 39.7717 18.7399 39.7649 17.7939C39.7785 17.8053 39.7943 17.812 39.8079 17.8234C39.8396 17.8483 39.8713 17.8709 39.9052 17.8912C39.9165 17.898 39.9278 17.9026 39.9391 17.9071C39.9437 17.9093 39.9527 17.9161 39.9572 17.9207C39.9708 17.932 39.9821 17.9388 40.0002 17.9456C40.0025 17.9478 40.0048 17.9478 40.007 17.9478C40.0116 17.9501 40.0138 17.9546 40.0183 17.9569C40.0274 17.9637 40.0229 17.9591 40.0093 17.9478C40.0274 17.9637 40.0455 17.9772 40.0681 17.9886C40.0704 17.9908 40.0749 17.9931 40.0749 17.9953C40.1066 18.0225 40.1451 18.0519 40.1881 18.0678C40.1903 18.07 40.1949 18.0723 40.1971 18.0768C40.2084 18.0881 40.2198 18.0972 40.2333 18.1062C40.265 18.1289 40.3125 18.1108 40.3238 18.0745C40.3306 18.0564 40.3329 18.0361 40.3352 18.018C40.3352 18.0134 40.3352 18.0112 40.3352 18.0067C40.3352 18.0044 40.3352 18.0044 40.3352 18.0021C40.3374 17.9976 40.3397 17.9931 40.342 17.9863C40.3533 17.941 40.3555 17.8822 40.342 17.8392C40.3397 17.8347 40.3374 17.8166 40.3352 17.8143C40.3487 17.7826 40.3397 17.7487 40.3261 17.7193Z" fill="#40547B"/>
<path d="M40.3196 17.704C40.322 17.7089 40.3244 17.7161 40.3268 17.721C40.334 17.7282 40.3051 17.6726 40.3196 17.704Z" fill="#40547B"/>
<path d="M33.6454 19.7876C33.1837 20.5479 34.0323 21.082 33.4824 22.5054C33.0842 23.5396 32.5297 23.2273 31.9617 23.7274C31.138 24.4516 31.5566 25.0196 29.8843 25.531C28.8569 25.8456 28.3364 25.092 27.3588 25.5106C25.9897 26.099 25.3493 26.0062 24.4554 25.531C23.9327 25.2527 23.9644 24.1529 23.3488 23.7274C22.7718 23.3291 22.154 23.6369 21.5928 22.5756C21.0904 21.6274 21.7308 21.0481 21.7308 19.9618C21.7308 19.1879 21.1469 17.9998 22.3757 17.1014C23.634 16.1827 23.0637 15.5038 23.7335 14.9109C24.5256 14.2093 25.9739 13.8948 26.9447 14.2659C27.8499 14.6121 28.0173 13.8495 28.6781 13.7228C29.7033 13.5259 30.2305 13.7183 31.2376 14.6574C31.5182 14.9199 31.8395 15.7459 32.1676 16.1057C32.446 16.4112 33.2177 16.3795 33.4847 16.6805C34.2858 17.588 34.3039 18.7014 33.6454 19.7876Z" fill="#E4A46D"/>
<path d="M28.0776 19.9595C27.7835 18.7443 26.9326 17.8029 25.7966 17.3232C24.871 16.9317 23.5585 16.3433 22.6012 16.9023C22.5401 16.9385 22.5809 17.0267 22.6488 17.0131C23.7259 16.7733 24.9298 17.1964 25.8893 17.6966C26.9529 18.2487 27.2698 19.1019 27.8468 20.0568C27.9192 20.179 28.1116 20.0976 28.0776 19.9595Z" fill="#C6725A"/>
<path d="M27.9063 20.0726C27.3519 19.0656 25.9828 18.7556 24.9124 18.7533C23.8895 18.7511 22.4593 18.9321 21.8732 19.8893C21.7918 20.0206 21.9705 20.1631 22.0701 20.0364C22.7716 19.1222 24.2516 18.9774 25.3243 19.0837C26.3109 19.181 27.0124 19.6744 27.8497 20.1292C27.8814 20.1473 27.9244 20.1043 27.9063 20.0726Z" fill="#C6725A"/>
<path d="M27.7731 20.1564C26.0261 19.9007 24.6638 21.8468 24.046 23.2114C24.0211 23.2657 24.0958 23.3133 24.1275 23.2589C24.5575 22.5597 24.9965 21.8514 25.6142 21.3015C26.2501 20.738 26.9811 20.5185 27.7709 20.2605C27.8184 20.2469 27.8297 20.1654 27.7731 20.1564Z" fill="#C6725A"/>
<path d="M28.0714 20.2855C28.1009 20.1474 27.9266 20.0773 27.8474 20.1904C27.0621 21.3264 27.3179 22.9762 27.8248 24.1597C27.8316 24.1755 27.8565 24.1642 27.8519 24.1484C27.6618 23.5261 27.5917 22.8404 27.6302 22.1909C27.6709 21.5007 27.9289 20.944 28.0714 20.2855Z" fill="#C6725A"/>
<path d="M28.149 20.0886C28.0675 20.0818 28.0517 20.1927 28.1105 20.2311C28.7442 20.6611 29.3959 20.9168 29.973 21.4531C30.5591 21.9962 30.8012 22.6525 31.1995 23.3156C31.2108 23.3359 31.2493 23.3291 31.247 23.302C31.1248 21.9714 29.5113 20.1949 28.149 20.0886Z" fill="#C6725A"/>
<path d="M32.9867 19.7808C32.3938 19.326 31.6266 19.3554 30.9115 19.4233C30.3051 19.4798 29.685 19.5477 29.0763 19.6496C29.5809 19.3644 30.0448 18.9186 30.4024 18.5362C30.9274 17.975 31.4931 17.2621 31.6628 16.4972C31.6764 16.4339 31.5972 16.4022 31.561 16.4542C31.079 17.1218 30.7396 17.8301 30.1512 18.4298C29.6307 18.9593 28.9722 19.292 28.429 19.7763C28.377 19.7876 28.3249 19.7989 28.2729 19.8125C28.6644 19.2309 28.5897 18.4185 28.5128 17.7487C28.3951 16.7348 28.1914 15.4902 27.5917 14.6461C27.5782 14.6258 27.5329 14.628 27.5374 14.6597C27.6438 15.4676 27.9764 16.2347 28.1077 17.0449C28.1892 17.5405 28.2525 18.0451 28.2322 18.5475C28.2163 18.9978 28.0919 19.4233 28.1009 19.8713C28.1009 19.8826 28.1054 19.894 28.1145 19.9053C28.0964 19.9709 28.1349 20.0501 28.2163 20.0478C28.9314 20.0207 29.642 19.8804 30.3503 19.7808C31.2691 19.6518 32.0408 19.6948 32.9595 19.8577C33.0025 19.8645 33.0229 19.8102 32.9867 19.7808Z" fill="#C6725A"/>
<path d="M19.9432 42.4672L19.5902 42.5554L12.8193 13.8088L13.1701 13.7206L19.9432 42.4672Z" fill="#3A362D"/>
<path d="M2.04084 42.698L1.68555 42.6279L7.10085 13.578L7.45614 13.6482L2.04084 42.698Z" fill="#3A362D"/>
<path d="M8.88324 44.1396L8.52344 44.1215L9.94911 14.576L10.3089 14.5941L8.88324 44.1396Z" fill="#3A362D"/>
<path d="M19.9425 14.4244C18.7612 16.0447 1.10323 15.8229 0.356445 14.4244V11.7111H19.9425V14.4244Z" fill="#5A2F24"/>
<path d="M19.9428 11.7087C19.9428 12.3311 15.5572 12.8357 10.1487 12.8357C4.74015 12.8357 0.354492 12.3311 0.354492 11.7087C0.354492 11.0864 4.74015 10.5818 10.1487 10.5818C15.5572 10.5841 19.9428 11.0887 19.9428 11.7087Z" fill="#BF7259"/>
<path d="M10.6418 35.3139C7.04815 35.3139 3.33008 34.5898 3.33008 33.3768C3.33008 32.1638 7.04815 31.4397 10.6418 31.4397C14.2354 31.4397 17.9534 32.1638 17.9534 33.3768C17.9534 34.5875 14.2354 35.3139 10.6418 35.3139ZM10.6418 31.6637C6.4032 31.6637 3.55638 32.5486 3.55638 33.3745C3.55638 34.2005 6.4032 35.0854 10.6418 35.0854C14.8803 35.0854 17.7271 34.2005 17.7271 33.3745C17.7271 32.5486 14.8803 31.6637 10.6418 31.6637Z" fill="#3A362D"/>
<path d="M12.9736 11.4645C12.4938 12.3652 7.82984 12.3561 7.3252 11.4645V5.63959C7.74158 5.26846 12.039 5.23678 12.9736 5.63959V11.4645Z" fill="#FAE8DA"/>
<path d="M12.9736 5.68257C12.9736 6.09443 11.7086 6.42936 10.1494 6.42936C8.5902 6.42936 7.3252 6.09443 7.3252 5.68257C7.3252 5.27071 8.5902 4.93579 10.1494 4.93579C11.7086 4.93579 12.9736 5.27071 12.9736 5.68257Z" fill="#B5A7AC"/>
<path d="M10.2912 5.98123H10.1645C10.1215 5.98123 10.0785 5.98124 10.0355 5.97672C9.99025 5.97672 9.94047 5.97218 9.89295 5.96992C9.52408 5.9405 9.05564 5.85225 8.92438 5.60105L8.91081 5.55353L8.87234 4.56009C8.16177 4.17312 7.70465 3.46254 7.6775 2.69087C7.62771 1.43718 8.66868 0.373584 9.99705 0.319272C10.6556 0.292116 11.305 0.525195 11.7757 0.96195C12.2148 1.36702 12.4682 1.91241 12.4886 2.49399C12.518 3.22041 12.174 3.91513 11.5698 4.36546L11.6151 5.59201L11.6015 5.61916C11.4453 5.90656 10.6782 5.96766 10.4451 5.98123C10.4157 5.98123 10.3931 5.98124 10.3704 5.9835C10.3433 5.98124 10.3184 5.98123 10.2912 5.98123ZM9.13485 5.5128C9.20274 5.60331 9.43809 5.70515 9.91105 5.74362C9.95405 5.74815 9.9993 5.75042 10.0468 5.75042C10.0943 5.75494 10.1328 5.75494 10.1668 5.75494H10.2935C10.3184 5.75494 10.341 5.75493 10.3636 5.75267C10.3885 5.75267 10.4157 5.75042 10.4428 5.75042C10.9882 5.721 11.3096 5.6101 11.391 5.52637L11.3435 4.2478L11.3933 4.21158C11.9658 3.80651 12.294 3.1661 12.2668 2.49626C12.2487 1.97577 12.0201 1.48697 11.6264 1.12263C11.1987 0.726605 10.6103 0.516147 10.0106 0.541039C8.80672 0.590825 7.86305 1.55033 7.90604 2.67956C7.9332 3.39013 8.36543 4.04413 9.03753 4.3881L9.09637 4.41752L9.13485 5.5128Z" fill="#40547B"/>
<path d="M10.4001 4.23871C10.3322 4.12103 10.2893 4.11651 10.1784 4.07578C10.1897 3.97168 10.1829 3.85627 10.1852 3.76575C10.1874 3.58471 10.1897 3.40367 10.1897 3.22263C10.1897 3.04159 10.1897 2.86056 10.1874 2.67952C10.1874 2.58674 10.1874 2.4917 10.1852 2.39665C10.1829 2.31066 10.1874 2.21787 10.1444 2.14545C10.1082 2.08435 10.029 2.07756 9.99507 2.14545C9.9566 2.22239 9.96339 2.31066 9.96565 2.39665C9.96791 2.4917 9.97243 2.58448 9.9747 2.67952C9.97922 2.86056 9.98375 3.04159 9.98827 3.22263C9.99054 3.40367 9.99507 3.58471 9.99507 3.76575C9.99507 3.85174 9.98828 3.9581 9.99507 4.05767C9.88871 4.0803 9.79819 4.17762 9.76877 4.29303C9.76425 4.31113 9.75292 5.26384 9.75971 5.31815C9.76197 5.34983 9.75293 5.49013 9.75293 5.52634C9.75746 5.66665 10.4544 5.62817 10.468 5.5535C10.4861 5.47882 10.4771 4.3677 10.4001 4.23871Z" fill="#3A362D"/>
<path d="M10.8645 3.77712C10.8011 3.75902 10.7355 3.79522 10.6767 3.81785C10.6156 3.84274 10.5567 3.86764 10.4956 3.89253C10.439 3.91516 10.3825 3.93779 10.3259 3.96042C10.2987 3.97174 10.2693 3.98305 10.2422 3.99211C10.2105 4.00116 10.1448 4.0102 10.1018 4.01246C10.0928 4.01246 10.0385 4.00569 9.99776 3.99437C9.90271 3.96948 9.79861 3.92421 9.70356 3.90385C9.60625 3.88348 9.50668 3.86538 9.40938 3.84727C9.35959 3.83822 9.31208 3.83144 9.26229 3.82691C9.2193 3.82239 9.17856 3.81332 9.14461 3.84501C9.13556 3.8518 9.13104 3.86764 9.13557 3.87896C9.15367 3.91969 9.18534 3.92874 9.22608 3.94231C9.2736 3.95815 9.32112 3.97173 9.37091 3.98304C9.46596 4.00567 9.561 4.02831 9.65605 4.04868C9.65378 4.04868 9.65378 4.04868 9.65152 4.04868C9.63568 4.04868 9.6221 4.04868 9.60625 4.04868C9.5972 4.04868 9.58815 4.04868 9.5791 4.05095C9.56779 4.05321 9.55873 4.06225 9.54968 4.06904C9.53384 4.08262 9.53384 4.11204 9.54968 4.12561C9.56778 4.14145 9.58136 4.14599 9.60399 4.14825C9.61757 4.14825 9.62889 4.15052 9.64247 4.15052C9.67189 4.15278 9.70131 4.15504 9.72846 4.1573C9.75562 4.1573 9.78504 4.15956 9.81219 4.15956C9.82577 4.15956 9.83935 4.16183 9.85293 4.15956C9.87329 4.15956 10.559 4.20935 10.4866 4.05773C10.4798 4.04189 10.3983 4.04868 10.3734 4.05321C10.3576 4.05547 10.4707 4.04189 10.5296 4.02153C10.5907 4.00116 10.6518 3.98079 10.7151 3.95816C10.7785 3.93553 10.8599 3.91742 10.8962 3.85632C10.921 3.83143 10.9007 3.78843 10.8645 3.77712Z" fill="#3A362D"/>
<path d="M10.4003 2.15679C10.3958 2.15 10.389 2.14547 10.3822 2.14095C10.3754 2.13642 10.3686 2.13415 10.3619 2.13188C10.3415 2.12962 10.337 2.12963 10.3528 2.12963C10.3347 2.12737 10.3166 2.12284 10.2985 2.12284C10.294 2.12284 10.2894 2.12284 10.2826 2.12057C10.2804 2.12057 10.2759 2.12057 10.2736 2.11831C10.2827 2.12057 10.2849 2.12057 10.2759 2.11831C10.251 2.11378 10.1378 2.09794 10.1061 2.08889C10.036 2.06852 9.73728 2.17489 9.71239 2.18621C9.70107 2.19073 9.69654 2.20656 9.69881 2.21788C9.70107 2.23146 9.71012 2.25183 9.72143 2.25636C9.74859 2.26767 9.78027 2.26541 9.80969 2.26767C9.83685 2.26993 9.86853 2.25861 9.89569 2.25861C9.91379 2.25861 9.93189 2.25636 9.95 2.25636C9.94321 2.27446 9.93415 2.29257 9.92962 2.31067C9.92057 2.34009 9.91152 2.37176 9.907 2.40118C9.90474 2.41928 9.9002 2.43739 9.9002 2.45549C9.90247 2.46907 9.91152 2.48265 9.92058 2.49397C9.9251 2.4985 9.93189 2.4985 9.93642 2.49623C9.95 2.48945 9.96357 2.48266 9.97035 2.46908C9.97941 2.4555 9.98394 2.43739 9.98846 2.42155C9.99978 2.3944 10.0088 2.36498 10.0179 2.33556C10.0269 2.30614 10.0428 2.27898 10.0473 2.24956C10.0473 2.24504 10.0496 2.23825 10.0496 2.23372C10.0564 2.2292 10.0609 2.22694 10.0677 2.22241C10.079 2.25409 10.0903 2.28352 10.1039 2.31293C10.1175 2.34009 10.131 2.36724 10.1446 2.39213C10.1491 2.40118 10.1537 2.41023 10.1605 2.41702C10.165 2.42155 10.1718 2.42607 10.1786 2.4306C10.1899 2.43965 10.2012 2.4487 10.2125 2.45775C10.2238 2.46681 10.2374 2.45549 10.2374 2.44191C10.2374 2.41476 10.2397 2.38534 10.2306 2.36045C10.2216 2.33329 10.2125 2.3084 10.2034 2.28125C10.1989 2.26541 10.1921 2.2473 10.1853 2.23146C10.1989 2.23598 10.2148 2.24277 10.2283 2.2473C10.2578 2.25635 10.2872 2.26314 10.3166 2.26541C10.3324 2.26541 10.3483 2.26767 10.3641 2.26314C10.3777 2.25862 10.389 2.25183 10.3981 2.24052C10.4094 2.2292 10.4116 2.21788 10.4139 2.20657C10.4162 2.19978 10.4162 2.19299 10.4139 2.18846C10.4139 2.17941 10.4094 2.1681 10.4003 2.15679Z" fill="#3A362D"/>
<path d="M9.78944 2.26094C9.7917 2.21115 9.76455 2.15684 9.71024 2.15005C9.70119 2.15005 9.69214 2.14779 9.68535 2.15005C9.64915 2.15458 9.60388 2.19078 9.60388 2.23152C9.59709 2.52344 9.48168 2.80405 9.39569 3.07787C9.35269 3.21591 9.30969 3.35395 9.26669 3.48973C9.24859 3.54857 9.22823 3.60741 9.21238 3.66625C9.19428 3.73188 9.16713 3.80429 9.17392 3.87218C9.17844 3.91291 9.22596 3.92197 9.25085 3.89481C9.29611 3.84729 9.31875 3.76808 9.34138 3.70698C9.36401 3.64588 9.38437 3.58252 9.407 3.51915C9.45678 3.37885 9.50431 3.23854 9.5541 3.09598C9.6514 2.82895 9.77813 2.5506 9.78944 2.26094Z" fill="#F1A551"/>
<path d="M10.4997 3.70232C10.4793 3.55297 10.4612 3.40362 10.4408 3.25426C10.4205 3.1049 10.4024 2.95555 10.382 2.80619C10.3729 2.73152 10.3616 2.65684 10.3526 2.58216C10.3435 2.50748 10.3435 2.43958 10.287 2.38527C10.2417 2.34227 10.1693 2.34907 10.1376 2.40564C10.0991 2.47579 10.1172 2.53915 10.1285 2.61383C10.1399 2.68851 10.1512 2.7632 10.1625 2.83561C10.1851 2.98497 10.2078 3.13206 10.2304 3.28141C10.253 3.43077 10.2756 3.57787 10.2983 3.72723C10.3164 3.84943 10.3232 4.0282 10.4182 4.11645C10.4386 4.13682 10.4748 4.13456 10.4884 4.10741C10.5563 3.99199 10.5155 3.82679 10.4997 3.70232Z" fill="#F1A551"/>
<path d="M10.8527 3.34484C10.8187 3.19095 10.7825 3.03706 10.7418 2.88545C10.7033 2.74061 10.6513 2.59579 10.6173 2.44869C10.5857 2.31744 10.6219 2.14771 10.4725 2.08887C10.4023 2.06172 10.3164 2.14771 10.3458 2.22013C10.3888 2.33328 10.3865 2.46227 10.4227 2.57995C10.4657 2.72025 10.5155 2.85829 10.5608 2.99859C10.6038 3.13437 10.6422 3.27015 10.6807 3.40819C10.7169 3.54397 10.7486 3.68655 10.8165 3.81101C10.8414 3.85853 10.9047 3.83137 10.9093 3.78611C10.9183 3.63901 10.8844 3.48967 10.8527 3.34484Z" fill="#F1A551"/>
<path d="M9.83416 2.45547C9.80475 3.01216 9.66897 3.54171 9.52414 4.07803C9.51056 4.13234 9.58298 4.18665 9.61466 4.13008C9.68255 4.00335 9.74591 3.88115 9.79343 3.74537C9.84095 3.61185 9.87943 3.47381 9.91111 3.33577C9.979 3.05516 10.0265 2.77003 10.0514 2.48037C10.065 2.33328 9.84095 2.30837 9.83416 2.45547Z" fill="#F1A551"/>
</svg>
