<svg width="67" height="65" viewBox="0 0 67 65" fill="none" xmlns="http://www.w3.org/2000/svg">
<path d="M29.8938 21.4743C29.7341 20.746 30.5168 20.5767 31.0598 21.1166C31.4879 21.5446 32.082 21.8002 32.7177 21.8353C32.7305 20.9057 32.6347 20.0273 32.3887 19.1328C31.3505 19.1392 29.9929 19.6024 29.0345 19.3469C28.5618 19.2223 28.6863 18.3949 29.0537 18.2639C30.0504 17.9125 31.2323 18.3757 32.2354 18.6505C31.868 17.6602 31.3154 16.8584 30.635 16.0534C30.3858 16.2514 30.2963 16.3185 29.929 16.4016C28.9994 16.6124 27.8366 17.4589 26.939 16.6412C26.3704 16.1205 28.2583 15.9576 28.7375 16.0981C29.0633 16.1939 30.0152 16.0087 30.3666 15.8106C29.8427 15.127 28.1912 14.1303 27.5363 14.0569C25.2427 13.7917 23.3676 14.4306 22.4859 16.4655C22.4444 16.4016 22.3997 16.3409 22.3454 16.2802C22.1633 16.0789 21.9365 15.9128 21.6969 15.7882C21.189 15.5295 20.6236 15.4432 20.0614 15.5263C18.8155 15.7116 17.8572 16.7434 17.3844 17.8519C16.7775 19.267 16.8254 20.8802 16.9053 22.388C16.9915 24.0075 17.2503 25.6016 17.4962 27.2052C17.7294 28.7193 17.8636 30.2367 17.8668 31.77C17.8732 33.2778 17.7773 34.7824 17.6368 36.2838C17.3525 39.2993 16.8797 42.2957 16.6305 45.3144C16.3878 48.2501 16.3271 51.2689 16.9883 54.1599C17.0682 54.5112 17.2247 54.8467 17.3748 55.1725C17.4068 55.2428 17.5282 55.2076 17.5218 55.1342C17.4962 54.7828 17.4898 54.425 17.4259 54.0768C17.3621 53.719 17.3109 53.358 17.2566 52.9971C17.1544 52.3039 17.0841 51.6043 17.0394 50.9079C16.9468 49.4704 16.9723 48.0265 17.0586 46.589C17.2375 43.6757 17.6751 40.7879 18.0009 37.8906C18.3268 35.0188 18.5472 32.1118 18.2885 29.2273C18.1479 27.6748 17.8412 26.1414 17.6432 24.5953C17.4483 23.0907 17.3205 21.535 17.4323 20.0209C17.5282 18.7367 17.9339 17.3919 18.988 16.5613C19.8569 15.8777 21.1155 15.7755 22.0196 16.4623C22.0962 16.5198 22.1697 16.5869 22.2432 16.6539C22.1761 16.6955 22.1218 16.7338 22.125 16.7434C20.4607 17.8423 19.0647 18.5291 18.4865 20.5448C18.2693 21.305 18.6366 22.2027 19.0807 22.8448C19.3139 22.0334 19.8377 21.0846 20.4702 20.6087C21.2689 20.0049 23.1057 20.5959 22.0707 21.4328C21.1858 22.1484 20.1252 22.4135 19.5311 23.375C20.0901 24.1768 22.1186 25.0266 22.7 25.2118C23.1887 25.3684 23.259 23.6018 23.7414 23.2089C24.2237 22.816 25.7251 20.4777 26.1276 21.3785C26.5301 22.2793 25.1948 23.5635 24.3643 23.9181C23.7382 24.1832 23.4507 24.7646 23.2526 25.3684C23.8819 25.5345 24.5336 25.6367 25.1788 25.7038C25.6676 25.7549 26.1372 25.822 26.6163 25.8891C26.9038 25.3109 27.1914 24.7486 27.5012 24.1832C27.9325 23.3974 29.322 24.2663 28.7279 24.7135C28.1337 25.1575 27.4341 25.263 27.0636 25.9753C29.3029 26.5343 31.44 27.9367 32.2609 25.0106C32.4973 24.1609 32.5165 23.5284 32.6474 22.701C31.3856 22.618 30.2388 23.0364 29.8938 21.4743ZM24.6901 19.7014C24.6102 20.1966 23.6902 20.5064 23.6104 20.187C23.5305 19.8675 24.8275 18.8549 24.6901 19.7014Z" fill="#507E56"/>
<path d="M21.5372 23.2217C21.0261 21.9663 19.9368 20.8514 18.5536 20.615C17.8636 20.4968 17.1832 20.6246 16.5698 20.96C15.9277 21.3082 15.4007 21.8321 14.8896 22.3464C14.3657 22.8735 13.8386 23.4038 13.3147 23.9341C13.2412 23.9021 13.1678 23.8734 13.0879 23.8414C13.0879 23.8414 10.4014 20.1071 6.94498 21.3338C5.96429 21.682 5.00915 22.5573 4.14346 23.7073C4.65457 23.9181 5.54901 24.2248 6.13679 24.0874C6.99929 23.8861 8.74345 24.0874 8.32179 24.7966C7.66054 25.9114 5.88123 24.7454 4.76318 24.442C4.32235 24.3238 4.06999 24.1545 3.92943 23.9948C3.28416 24.8924 2.69318 25.937 2.17568 27.0263C3.5429 26.841 5.07943 26.3267 6.39554 26.8729C6.88109 27.0742 7.19734 28.2338 6.7054 28.3424C5.71512 28.5596 2.9136 27.5949 1.9361 27.5342C1.51443 28.4606 1.15027 29.4093 0.856384 30.3166C1.84666 30.5529 2.58777 30.4667 3.38957 30.0674C4.4054 29.5595 5.54262 29.93 5.06346 30.85C4.03485 32.8242 1.91055 31.5049 0.60402 31.2302C0.217493 32.46 0.108882 33.0127 0.0194374 33.9007C-0.28084 36.961 2.91999 37.3347 8.09498 36.8683C7.68609 36.0218 6.38596 35.3574 5.62249 34.9772C4.8079 34.5683 7.60304 33.2043 7.90971 34.5204C8.13012 35.4692 8.64443 36.2199 8.81693 36.8013C9.5229 36.7278 10.2672 36.6447 11.0403 36.5489C12.0625 36.4243 12.9889 36.2039 13.8226 35.9068C13.6629 35.3254 13.2348 34.3064 12.4362 34.1147C11.3757 33.8624 9.93817 32.0895 10.4972 30.85C11.0562 29.6074 12.0209 32.2428 13.2412 33.0702C14.4583 33.8943 14.3082 34.5715 14.3721 35.6992C14.3721 35.6992 14.3721 35.6992 14.3721 35.7024C16.3877 34.8782 17.8061 33.626 18.6622 32.3418C18.0297 31.5432 16.2696 30.9459 15.2218 30.4475C14.0015 29.8661 15.4262 27.9942 16.8957 28.8535C18.0616 29.5339 18.7964 30.7765 19.1158 31.5496C19.7227 30.3261 19.8218 29.1442 19.4544 28.352C18.4769 26.2532 17.9818 25.8475 13.6693 24.0874C13.8162 23.9436 13.9632 23.8031 14.1101 23.6593C14.6819 23.0971 15.2377 22.5061 15.8447 21.9759C16.375 21.5127 16.9979 21.0878 17.7166 21.0112C19.0487 20.8642 20.2722 21.8385 20.8632 22.9566C21.5915 24.3238 21.5691 25.9593 21.5052 27.4639C21.3615 30.8308 20.9111 34.1722 20.3808 37.4976C19.8537 40.8039 19.2468 44.0974 18.7964 47.4132C18.5695 49.0743 18.3811 50.7418 18.2597 52.4157C18.1383 54.0704 18.0648 55.7411 18.1447 57.399C18.1639 57.8143 18.2405 58.204 18.3459 58.6033C18.3683 58.6864 18.512 58.6959 18.5248 58.6033C18.5919 58.188 18.6366 57.7855 18.6366 57.3639C18.6366 56.9358 18.6366 56.5077 18.6398 56.0797C18.643 55.2236 18.6718 54.3707 18.7165 53.5178C18.8091 51.8087 18.9784 50.1061 19.1957 48.4067C19.6301 44.9918 20.2466 41.6025 20.7929 38.2036C21.3391 34.8111 21.8279 31.3995 21.9908 27.9623C22.0802 26.381 22.1441 24.7135 21.5372 23.2217ZM12.0848 28.6235C11.5769 27.1349 13.3562 28.9078 13.4073 29.0388C13.4584 29.1729 12.3819 29.4924 12.0848 28.6235Z" fill="#38874D"/>
<path d="M39.215 34.1626C38.9946 34.3383 38.3844 34.7568 37.7679 35.7854C37.03 37.0121 33.5896 35.6864 35.4679 35.3446C36.8767 35.089 38.1544 34.1818 38.8317 33.4599C37.9276 31.9745 36.6051 30.8947 35.2347 30.0897C35.42 30.9586 35.6117 32.1853 35.305 32.5495C34.8099 33.1372 33.9729 32.7443 34.6661 31.8147C35.2315 31.0513 34.9025 30.4827 34.5479 29.7064H34.5447C34.2029 29.5275 33.8675 29.3646 33.5321 29.2145C30.9701 28.0613 30.475 30.6328 28.6893 31.7253C28.2676 31.1247 27.6032 30.6999 26.9068 30.4603C25.8974 30.1153 24.8017 30.1792 23.8274 30.5977C21.5338 31.5784 20.3422 33.955 19.7832 36.2486C19.4574 37.5935 19.2657 38.9767 19.0868 40.3471C18.8984 41.791 18.7514 43.2413 18.646 44.6915C18.4352 47.5761 18.3777 50.4671 18.4224 53.358C18.4447 54.8051 18.4927 56.2522 18.5597 57.6961C18.5949 58.4244 18.6332 59.1527 18.6747 59.8811C18.6939 60.2197 18.6875 60.5743 18.745 60.9097C18.7834 61.1429 18.9239 61.424 19.1443 61.5326C19.3488 61.6316 19.5884 61.5901 19.7002 61.3793C19.7736 61.2355 19.6203 61.0534 19.467 61.1461C19.4446 61.1141 19.4159 61.0822 19.3935 61.0502C19.3392 60.9736 19.3008 60.8873 19.2881 60.7947C19.2338 60.4657 19.2434 60.1111 19.2242 59.7757C19.1827 59.0952 19.1475 58.4148 19.1156 57.7376C19.0517 56.3895 19.0038 55.0415 18.9782 53.6903C18.9271 50.9814 18.9654 48.2725 19.1315 45.5668C19.2945 42.8835 19.566 40.1906 20.0515 37.5456C20.4604 35.319 21.2079 32.9264 23.1533 31.556C23.9807 30.9714 24.9518 30.6392 25.974 30.7127C26.9068 30.7797 27.7821 31.1886 28.4114 31.8786C28.1399 32.0096 27.8364 32.1086 27.4978 32.1565C23.0128 32.7827 21.636 35.712 22.2174 38.4049C23.4888 38.1908 23.7858 36.0314 24.8688 36.1304C25.9517 36.2295 26.2488 37.504 24.8688 37.8458C23.7092 38.1365 22.802 38.6317 22.3963 39.0469C23.0096 40.8774 24.5174 42.4906 26.5363 43.0496C27.1847 42.5544 26.6928 41.7207 27.2838 40.7911C27.8747 39.8583 29.2899 38.9288 29.4688 40.0564C29.6476 41.1872 27.8364 41.43 27.6607 43.2444C28.881 43.3307 30.0757 43.4361 31.2161 43.5607C31.5994 43.1231 32.3949 42.0369 32.3565 41.3821C32.3054 40.5963 32.9475 38.6764 33.1935 39.5389C33.4394 40.3982 32.5546 41.676 32.4555 42.2638C32.398 42.5928 32.3661 43.2029 32.3118 43.6917C34.2604 43.9408 36.0174 44.2667 37.4293 44.7171C39.8986 45.4997 39.7421 43.4904 39.988 38.2899C40.0647 36.6671 39.7612 35.3063 39.215 34.1626ZM28.0089 37.7436C27.1113 38.5231 26.894 37.5136 27.7757 36.9003C28.7117 36.2454 28.9097 36.9642 28.0089 37.7436ZM30.0597 37.7436C29.4368 38.1301 29.2739 36.8364 30.4335 36.6447C31.1746 36.5233 30.6826 37.3539 30.0597 37.7436ZM36.5987 38.9256C35.9694 38.4368 37.3782 37.9928 38.2151 38.3857C39.0489 38.7754 37.605 39.7082 36.5987 38.9256Z" fill="#315A2B"/>
<path d="M23.6551 63.7463C22.0515 64.7909 14.2219 64.3468 12.7429 63.5003L10.4717 44.1165H26.1659L23.6551 63.7463Z" fill="#CEAA96"/>
<path d="M26.3673 49.8313H10.2705V50.3616H26.3673V49.8313Z" fill="#3A362D"/>
<path d="M10.7656 49.8313H10.2705V63.7782H10.7656V49.8313Z" fill="#3A362D"/>
<path d="M26.3643 49.8313H25.8691V63.7782H26.3643V49.8313Z" fill="#3A362D"/>
<path d="M57.4526 59.8522L56.8785 59.8571L56.207 11.1485L56.7812 11.1437L57.4526 59.8522Z" fill="#3A362D"/>
<path d="M48.3349 64L47.7656 63.9149L55.5845 15.7975L56.1537 15.8802L48.3349 64Z" fill="#3A362D"/>
<path d="M66.2716 63.764L65.7048 63.8564L56.9834 15.8388L57.5478 15.7463L66.2716 63.764Z" fill="#3A362D"/>
<path d="M65.875 11.871C65.0162 12.1532 47.6561 12.8782 47.0698 12.0608C46.9311 11.871 47.009 11.1728 47.2158 10.2046C47.3252 9.69615 47.4736 9.11229 47.6439 8.48707C48.5343 5.24665 50.0937 0.923647 50.6411 0.390875C50.6411 0.390875 61.5398 -0.404635 62.2696 0.274103C62.7246 0.699834 64.3691 5.05203 65.3154 8.30218C65.4955 8.92496 65.6536 9.50639 65.7704 10.0124C66.0161 11.0731 66.0915 11.8005 65.875 11.871Z" fill="#C4725A"/>
<path d="M58.4063 16.5127L54.6088 16.5516L54.5869 15.0433L58.3869 15.0044L58.4063 16.5127Z" fill="#C47357"/>
<path d="M62.1937 44.0515L51.188 44.1634L51.1807 43.6452L62.1864 43.5333L62.1937 44.0515Z" fill="#3A362D"/>
<path d="M62.1551 43.9151L56.752 39.8427L57.1412 39.451L62.5419 43.5235L62.1551 43.9151Z" fill="#3A362D"/>
<path d="M57.0679 39.9621L51.5577 43.9177L51.1807 43.5163L56.6909 39.5607L57.0679 39.9621Z" fill="#3A362D"/>
<path d="M65.7704 10.0149C59.7372 10.8712 53.5556 10.9613 47.2158 10.2071C47.3253 9.69865 47.4737 9.11479 47.644 8.48958C53.5458 9.28022 59.438 9.2194 65.3155 8.30469C65.4955 8.9299 65.6536 9.5089 65.7704 10.0149Z" fill="#E4A46D"/>
</svg>
