<svg width="302" height="206" viewBox="0 0 302 206" fill="none" xmlns="http://www.w3.org/2000/svg">
<path d="M297.113 154.365C298.553 140.065 299.743 125.695 300.673 111.345C301.613 96.8454 302.153 82.2754 301.653 67.7354C301.403 60.3954 300.883 53.0554 300.003 45.7854C299.343 40.3554 298.543 35.0354 296.693 29.9354C293.273 20.5154 287.903 13.6754 280.553 7.91537C272.443 1.55537 251.803 0.225373 241.173 0.145373C143.083 -0.594627 55.5334 1.50538 47.4234 6.10538C28.7634 16.6754 42.5134 102.245 36.3734 116.295C30.2334 130.345 21.6434 117.405 10.9634 117.405C0.283426 117.405 5.44341 198.795 5.44341 198.795L291.333 198.845C293.613 184.075 295.593 169.255 297.103 154.365H297.113Z" fill="#EAF2F4"/>
<path d="M291.933 194.965C181.553 194.945 25.6432 194.915 1.8932 194.915C1.0332 194.915 -0.686842 201.875 0.293158 201.875C63.4932 201.875 141.543 202.055 204.733 202.055C233.433 202.055 264.483 202.055 293.183 202.055C293.553 199.695 293.793 194.965 291.923 194.965H291.933Z" fill="#DEE5E7"/>
<path d="M62.7139 22.0054C62.7139 22.0054 60.8139 143.025 63.0739 144.915C65.3339 146.805 141.524 147.075 142.354 144.915C143.184 142.755 143.304 23.0854 142.354 21.7354C141.404 20.3854 62.7139 22.0054 62.7139 22.0054Z" fill="#DEE5E7"/>
<path d="M67.8932 28.2854C67.8932 28.2854 66.1032 137.295 67.8932 138.645C69.6832 139.995 135.983 139.855 136.463 138.105C136.943 136.355 137.533 29.2254 136.703 28.4154C135.873 27.6054 68.0232 27.3354 67.9032 28.2854H67.8932Z" fill="white"/>
<path d="M141.974 101.425C132.254 100.945 122.494 100.915 112.754 100.875C110.274 100.875 107.804 100.875 105.324 100.875V68.3354C111.384 68.3354 117.444 68.3354 123.504 68.3354H131.584C134.274 68.3354 136.984 68.4454 139.664 68.1754C140.704 68.0754 140.704 66.4454 139.664 66.3454C137.294 66.1054 134.914 66.1854 132.534 66.1854H125.284C120.534 66.1854 115.784 66.1854 111.034 66.1854C109.134 66.1854 107.224 66.1854 105.324 66.1854V24.0154L99.9643 23.6154L99.8743 66.1954C94.0543 66.1954 88.2243 66.1954 82.4043 66.2054C77.0243 66.2054 71.6243 66.1154 66.2543 66.3254C65.2043 66.3654 65.2043 68.1354 66.2543 68.1854C71.0343 68.3754 75.8343 68.2854 80.6243 68.3054C85.3743 68.3254 90.1243 68.3154 94.8743 68.3154C96.5343 68.3154 98.2043 68.3154 99.8743 68.3154L99.8043 100.895C94.3743 100.945 88.9543 101.035 83.5243 101.165C80.8343 101.235 78.1443 101.305 75.4543 101.395C72.6943 101.485 69.9043 101.505 67.1443 101.765C66.0743 101.865 66.0443 103.665 67.1443 103.675C69.5943 103.715 72.0543 103.555 74.5043 103.475C76.9143 103.395 79.3343 103.325 81.7443 103.265C86.6143 103.145 91.4843 103.055 96.3543 102.995C97.5043 102.985 98.6543 102.975 99.8043 102.965L99.7243 142.455L105.314 142.995V102.935C112.064 102.915 118.824 102.965 125.574 103.085C131.034 103.185 136.504 103.385 141.964 103.475C143.154 103.495 143.144 101.445 141.964 101.385L141.974 101.425Z" fill="#DEE5E7"/>
<path d="M177.112 30.1154H159.332C159.332 30.1154 153.852 29.7854 152.352 20.4754C150.852 11.1654 156.842 11.3354 161.492 11.3354C166.142 11.3354 219.162 11.6654 222.982 12.1654C225.782 12.5254 229.792 19.3154 229.632 22.9654C229.472 26.6154 229.632 29.4454 225.312 29.7754C220.992 30.1054 177.112 30.1054 177.112 30.1054V30.1154Z" fill="#ECB14B"/>
<path d="M160.903 20.3154L161.333 22.1854L159.253 22.6954L157.813 22.8554C157.813 22.8554 156.963 21.0654 156.853 19.7654C156.743 18.4554 157.043 17.0154 157.493 16.5954C157.943 16.1654 158.613 15.8454 158.963 16.0854C159.313 16.3254 160.483 18.3754 160.913 20.3254L160.903 20.3154Z" fill="#D59839"/>
<path d="M159.763 28.7853C159.183 28.7853 158.533 28.4753 157.803 27.8553C155.283 25.6953 153.583 19.9053 154.363 16.1653C154.693 14.5653 155.463 13.5453 156.583 13.2053C157.783 12.8453 158.873 12.9253 159.843 13.4453C161.983 14.6053 163.113 17.7753 163.783 20.0653C164.643 23.0053 164.353 24.7453 164.113 25.4953L226.823 25.8253C226.993 25.8253 227.123 25.9653 227.123 26.1353C227.123 26.3053 226.983 26.4353 226.823 26.4353L163.663 26.1053C163.553 26.1053 163.453 26.0453 163.403 25.9453C163.353 25.8453 163.353 25.7353 163.403 25.6353C163.403 25.6253 164.303 24.0053 163.203 20.2253C162.563 18.0453 161.493 15.0253 159.563 13.9753C158.733 13.5253 157.823 13.4653 156.773 13.7853C155.653 14.1253 155.173 15.3353 154.973 16.2853C154.243 19.7853 155.873 25.3853 158.213 27.3853C159.073 28.1153 159.753 28.3353 160.243 28.0353C161.333 27.3653 161.623 24.1653 160.873 21.0353C159.903 16.9953 158.943 16.3653 158.573 16.2853C158.273 16.2153 157.933 16.4053 157.583 16.8353C156.413 18.2653 157.513 21.5153 157.863 22.4253L160.093 21.8353C160.253 21.7953 160.423 21.8853 160.463 22.0553C160.503 22.2153 160.413 22.3853 160.243 22.4253L157.753 23.0853C157.603 23.1253 157.453 23.0453 157.393 22.9053C157.313 22.7253 155.513 18.3953 157.103 16.4453C157.623 15.8153 158.153 15.5553 158.703 15.6853C159.773 15.9353 160.673 17.6353 161.453 20.8853C162.183 23.9353 162.043 27.6253 160.543 28.5453C160.303 28.6953 160.033 28.7653 159.753 28.7653L159.763 28.7853Z" fill="#D59839"/>
<path d="M223.393 12.4054C223.393 12.4054 225.163 12.3154 227.213 15.2954C229.263 18.2754 230.943 22.4654 231.223 24.7954C231.503 27.1254 229.263 26.4754 228.803 26.4754C228.343 26.4754 223.403 12.4054 223.403 12.4054H223.393Z" fill="#ECB14B"/>
<path d="M265.173 202.785C265.173 203.745 240.143 204.515 209.273 204.515C178.403 204.515 153.373 203.735 153.373 202.785C153.373 201.835 178.403 201.055 209.273 201.055C240.143 201.055 265.173 201.835 265.173 202.785Z" fill="#817892"/>
<path d="M250.712 37.2953H183.322V180.265H250.712V37.2953Z" fill="#471C1A"/>
<path d="M261.662 180.185V30.9354H185.812L186.323 44.6154H244.193C244.193 44.6154 243.253 83.1154 244.193 82.1654C245.133 81.2254 186.323 82.1654 186.323 82.1654V88.7754H244.193V132.705H185.812L186.792 135.065H244.182V182.305L261.662 180.175V180.185Z" fill="#3F1210"/>
<path d="M155.732 181.215C155.732 181.215 156.032 32.0553 156.242 30.3653C156.282 30.0153 186.792 29.6754 188.052 29.6754C189.312 29.6754 187.702 179.955 187.702 179.955L155.742 181.215H155.732Z" fill="#471C1A"/>
<path d="M156.623 202.835L157.013 183.575H163.693C163.693 183.575 159.493 202.015 159.193 202.635C158.983 203.055 156.623 202.845 156.623 202.845V202.835Z" fill="#471C1A"/>
<path d="M187.293 202.835L187.683 183.575H194.363C194.363 183.575 190.163 202.015 189.863 202.635C189.653 203.055 187.293 202.845 187.293 202.845V202.835Z" fill="#7F2B30"/>
<path d="M261.433 202.835L261.043 183.575H254.363C254.363 183.575 258.563 202.015 258.863 202.635C259.073 203.055 261.433 202.845 261.433 202.845V202.835Z" fill="#7F2B30"/>
<path d="M242.763 202.835L242.373 183.575H235.693C235.693 183.575 239.893 202.015 240.193 202.635C240.403 203.055 242.763 202.845 242.763 202.845V202.835Z" fill="#471C1A"/>
<path d="M230.693 179.145H156.363C155.668 179.145 155.104 179.71 155.104 180.405V182.415C155.104 183.111 155.668 183.675 156.363 183.675H230.693C231.389 183.675 231.953 183.111 231.953 182.415V180.405C231.953 179.71 231.389 179.145 230.693 179.145Z" fill="#471C1A"/>
<path d="M261.393 179.145H187.063C186.367 179.145 185.803 179.71 185.803 180.405V182.415C185.803 183.111 186.367 183.675 187.063 183.675H261.393C262.089 183.675 262.653 183.111 262.653 182.415V180.405C262.653 179.71 262.089 179.145 261.393 179.145Z" fill="#7F2B30"/>
<path d="M261.393 129.325H187.063C186.367 129.325 185.803 129.889 185.803 130.585V132.595C185.803 133.291 186.367 133.855 187.063 133.855H261.393C262.089 133.855 262.653 133.291 262.653 132.595V130.585C262.653 129.889 262.089 129.325 261.393 129.325Z" fill="#7F2B30"/>
<path d="M261.393 79.4954H187.063C186.367 79.4954 185.803 80.0595 185.803 80.7554V82.7654C185.803 83.4612 186.367 84.0254 187.063 84.0254H261.393C262.089 84.0254 262.653 83.4612 262.653 82.7654V80.7554C262.653 80.0595 262.089 79.4954 261.393 79.4954Z" fill="#7F2B30"/>
<path d="M187.063 29.6754H261.393C262.093 29.6754 262.653 30.2353 262.653 30.9353V32.9554C262.653 33.6554 262.093 34.2154 261.393 34.2154H187.063C186.363 34.2154 185.803 33.6554 185.803 32.9554V30.9353C185.803 30.2353 186.363 29.6754 187.063 29.6754Z" fill="#7F2B30"/>
<path d="M222.433 123.045L222.623 128.785L204.203 129.075L205.123 123.045H222.433Z" fill="white"/>
<path d="M223.193 129.285H188.213C188.213 129.285 187.303 123.265 188.813 122.965C190.083 122.715 222.833 122.245 223.033 122.655C223.233 123.055 223.233 123.465 223.233 123.465C223.233 123.465 207.533 123.065 207.333 123.465C207.133 123.865 207.133 128.295 207.533 128.495C207.933 128.695 223.233 128.495 223.233 128.495L223.193 129.295V129.285Z" fill="#6C85B5"/>
<path d="M215.863 112.915L216.013 115.825L202.713 116.055L203.373 112.915H215.863Z" fill="white"/>
<path d="M216.422 116.215H191.182C191.182 116.215 190.532 113.075 191.612 112.835C192.522 112.635 216.162 112.265 216.312 112.585C216.462 112.905 216.462 113.225 216.462 113.225C216.462 113.225 205.132 112.905 204.992 113.225C204.842 113.545 204.842 115.425 205.142 115.585C205.432 115.745 216.472 115.585 216.472 115.585L216.442 116.215H216.422Z" fill="#388B61"/>
<path d="M191.433 116.585L191.283 122.325L209.703 122.455L208.743 116.435L191.433 116.585Z" fill="white"/>
<path d="M190.723 122.825L218.883 122.505C218.993 121.825 219.723 117.105 218.413 116.555C217.003 115.965 191.023 115.795 190.823 116.195C190.623 116.595 190.633 117.005 190.633 117.005C190.633 117.005 206.323 116.465 206.533 116.865C206.733 117.265 206.773 121.695 206.373 121.895C205.973 122.095 190.673 122.035 190.673 122.035L190.723 122.835V122.825Z" fill="#056A00"/>
<path d="M185.803 180.405V30.9353L189.623 30.9153L189.383 180.665L185.803 180.405Z" fill="#7F2B30"/>
<path d="M258.844 180.405V30.9353L262.654 30.9153L262.424 180.665L258.844 180.405Z" fill="#7F2B30"/>
<path d="M108.585 107.325C106.055 107.325 103.525 107.325 100.995 107.325C100.585 107.325 100.585 107.965 100.995 107.965C103.525 107.975 106.055 107.985 108.585 107.995C109.015 107.995 109.025 107.315 108.585 107.315V107.325Z" fill="#EAB895"/>
<path d="M113.884 123.395L89.4441 124.005L76.0641 123.835C76.0641 123.835 75.4941 102.675 75.8441 101.615C75.9941 101.175 82.3941 100.995 89.9141 100.965C100.484 100.915 113.254 101.125 113.874 101.265C114.934 101.505 113.874 123.405 113.874 123.405L113.884 123.395Z" fill="#EFCAAE"/>
<path d="M86.7441 103.535C90.5741 103.255 94.4142 103.155 98.2642 103.185C102.154 103.215 106.044 103.365 109.924 103.565C111.384 103.645 112.834 103.725 114.294 103.815C114.224 102.295 114.104 101.315 113.884 101.265C113.264 101.125 100.494 100.905 89.9241 100.965C82.4041 101.005 75.9942 101.175 75.8542 101.615C75.7942 101.805 75.7541 102.645 75.7441 103.905C79.4241 104.085 83.0842 103.805 86.7542 103.535H86.7441Z" fill="#EAB895"/>
<path d="M110.223 109.735C107.223 109.665 104.223 109.585 101.223 109.515C100.803 109.505 100.803 110.155 101.223 110.165C104.223 110.245 107.223 110.325 110.223 110.405C110.653 110.415 110.653 109.745 110.223 109.735Z" fill="#EAB895"/>
<path d="M109.995 107.265C106.995 107.195 103.995 107.115 100.995 107.045C100.575 107.035 100.575 107.685 100.995 107.695C103.995 107.775 106.995 107.855 109.995 107.935C110.425 107.945 110.425 107.275 109.995 107.265Z" fill="#EAB895"/>
<path d="M109.995 105.025C106.995 104.955 103.995 104.875 100.995 104.805C100.575 104.795 100.575 105.445 100.995 105.455C103.995 105.535 106.995 105.615 109.995 105.695C110.425 105.705 110.425 105.035 109.995 105.025Z" fill="#EAB895"/>
<path d="M89.9241 100.965L89.4441 124.015L76.0641 123.845C76.0641 123.845 75.4941 102.685 75.8441 101.625C75.9941 101.185 82.3941 101.005 89.9141 100.975L89.9241 100.965Z" fill="#EAB895"/>
<path d="M118.583 78.5553C117.943 78.2353 91.7131 77.3353 90.7431 77.3353C89.9831 77.3353 81.2931 78.0953 77.3331 78.7653C76.8431 83.4453 76.5431 101.295 77.2731 101.295H82.9331C82.9331 101.295 86.6231 101.915 91.1931 101.885C101.273 101.815 117.443 101.665 117.683 101.335C117.913 101.035 118.093 91.2753 118.063 84.3253C118.063 83.9853 118.943 84.3553 118.983 84.0253C119.163 82.2953 119.223 80.6053 119.193 79.3853C119.093 79.0653 118.913 78.7253 118.583 78.5553Z" fill="#EFCAAE"/>
<path d="M75.4036 79.2653C75.4036 79.2653 75.3735 79.3053 75.3635 79.3253C75.3035 81.0153 75.4036 83.5253 75.5336 83.7653C75.7136 84.1253 76.8336 83.5453 76.9736 84.1653C77.1036 84.7953 76.7936 85.7353 77.7836 85.1553C78.5536 84.7053 78.8036 80.4253 78.8736 78.5153C76.9836 78.7753 75.5836 79.0453 75.4036 79.2553V79.2653Z" fill="#EAB895"/>
<path d="M116.754 83.4853C112.374 83.4653 107.994 83.5353 103.604 83.4653C99.4639 83.3953 94.6239 83.1853 90.4839 83.1053V77.3453C88.8339 77.4353 81.0239 78.1353 77.3339 78.7653C76.8439 83.4553 76.5139 101.345 77.2439 101.345C78.0639 101.345 82.4039 101.375 82.4039 101.375C82.4039 101.375 86.6239 101.905 91.1939 101.875V83.7353C95.3139 84.0253 99.4739 84.0753 103.604 84.1453C107.984 84.2253 112.374 84.3053 116.754 84.1853C117.204 84.1753 117.204 83.4953 116.754 83.4853Z" fill="#EAB895"/>
<path d="M80.1843 84.4254C80.1843 84.4254 80.0643 86.1954 80.3043 86.4254C80.5443 86.6654 86.2543 87.0753 86.4843 86.7153C86.7243 86.3653 87.0743 84.4754 86.3643 84.3654C85.6543 84.2454 80.1843 84.0754 80.1843 84.4254Z" fill="#6C4E4E"/>
<path d="M160.954 102.155L123.434 102.655L116.074 102.755C116.074 102.755 115.474 76.4253 115.874 75.8253C116.274 75.2253 127.334 71.0553 127.734 70.8553C127.734 70.8553 127.784 70.8453 127.844 70.8453C130.134 70.7253 162.374 74.0453 162.954 74.4353C163.124 74.5453 163.154 77.8253 162.754 80.8153C162.714 81.1053 161.534 80.6453 161.534 80.9453C161.434 89.1453 160.964 102.155 160.964 102.155H160.954Z" fill="#EFCAAE"/>
<path d="M161.104 80.0453C150.314 78.9253 138.594 78.2653 127.844 76.8253V70.8453C127.784 70.8453 127.744 70.8453 127.734 70.8553C127.334 71.0553 116.274 75.2253 115.874 75.8253C115.474 76.4253 116.074 102.755 116.074 102.755L129.044 102.655L128.814 77.8153C139.554 79.3753 150.324 80.0853 161.114 81.2353C161.874 81.3153 161.864 80.1253 161.114 80.0453H161.104Z" fill="#EAB895"/>
<path d="M118.613 82.1953C118.613 82.1953 118.443 84.4053 118.953 84.4053C119.463 84.4053 124.563 82.8753 124.733 82.3653C124.903 81.8553 125.073 79.8153 124.733 79.8153C124.393 79.8153 118.613 82.0253 118.613 82.1953Z" fill="#6C4E4E"/>
<path d="M163.923 124.015C163.623 124.635 146.063 124.995 144.673 124.995C144.613 124.995 144.493 124.995 144.333 124.995C140.543 124.905 110.223 123.805 110.223 123.805C110.283 123.805 110.363 100.065 110.363 100.065C110.363 100.065 141.803 98.5253 143.993 98.4753C144.033 98.4753 144.063 98.4753 144.083 98.4753C145.283 98.4753 163.633 100.075 163.633 100.075C163.633 100.075 164.233 123.415 163.933 124.035L163.923 124.015Z" fill="#F1DCCB"/>
<path d="M163.922 124.015C163.622 124.635 146.062 124.995 144.672 124.995C144.612 124.995 144.492 124.995 144.332 124.995L143.992 98.4753C143.992 98.4753 144.062 98.4753 144.082 98.4753C145.282 98.4753 163.632 100.075 163.632 100.075C163.632 100.075 164.232 123.415 163.932 124.035L163.922 124.015Z" fill="#E7C7AF"/>
<path opacity="0.5" d="M153.262 99.1754C153.162 101.755 153.032 104.375 153.222 106.955C153.222 107.015 153.232 107.075 153.272 107.125C153.372 107.245 153.562 107.135 153.672 107.035C153.822 106.895 153.972 106.755 154.122 106.615C154.232 106.785 154.342 106.965 154.502 107.085C154.662 107.205 154.892 107.265 155.072 107.175C155.312 107.055 155.462 106.715 155.722 106.765C155.962 106.805 156.052 107.165 156.292 107.175C156.482 107.185 156.602 106.985 156.712 106.825C156.732 106.795 156.762 106.765 156.792 106.755C156.822 106.755 156.862 106.755 156.892 106.775C157.022 106.835 157.112 106.955 157.242 107.015C157.702 107.205 157.582 105.705 157.592 105.435C157.612 104.625 157.632 103.825 157.652 103.015C157.682 101.865 157.712 100.725 157.742 99.5753C157.742 99.5753 157.742 99.5654 157.742 99.5554L153.282 99.1754H153.262Z" fill="#F1DCCB"/>
<path d="M121.592 122.155C121.292 122.755 120.282 122.555 119.732 122.565C119.462 122.565 118.932 122.675 118.702 122.595C118.262 122.445 118.302 122.175 118.252 121.825C118.072 120.685 118.212 119.405 118.242 118.215C119.112 118.135 121.232 117.825 121.682 118.445C121.982 118.865 121.772 119.685 121.742 120.195C121.712 120.685 121.822 121.695 121.602 122.145L121.592 122.155ZM122.342 118.235C122.202 117.785 121.842 117.775 121.412 117.725C120.372 117.595 119.312 117.565 118.262 117.685C118.242 117.685 118.232 117.685 118.212 117.685C118.032 117.615 117.792 117.705 117.792 117.955C117.792 119.015 117.792 120.075 117.792 121.135C117.792 121.625 117.642 122.415 118.052 122.795C118.542 123.245 119.562 123.025 120.142 123.015C120.632 123.015 121.602 123.215 121.972 122.785C122.322 122.365 122.202 121.425 122.242 120.925C122.302 120.165 122.572 118.975 122.352 118.235H122.342Z" fill="#E7C7AF"/>
<path d="M115.612 121.955C115.312 122.555 114.302 122.355 113.752 122.365C113.482 122.365 112.952 122.475 112.722 122.395C112.282 122.245 112.322 121.975 112.272 121.625C112.092 120.485 112.232 119.205 112.262 118.015C113.132 117.935 115.252 117.625 115.702 118.245C116.002 118.665 115.792 119.485 115.762 119.995C115.732 120.485 115.842 121.495 115.622 121.945L115.612 121.955ZM116.352 118.035C116.212 117.585 115.852 117.575 115.422 117.525C114.382 117.395 113.322 117.365 112.272 117.485C112.252 117.485 112.242 117.485 112.222 117.485C112.042 117.415 111.802 117.505 111.802 117.755C111.802 118.815 111.802 119.875 111.802 120.935C111.802 121.425 111.652 122.215 112.062 122.595C112.552 123.045 113.572 122.825 114.152 122.815C114.642 122.815 115.612 123.015 115.982 122.585C116.332 122.165 116.212 121.225 116.252 120.725C116.312 119.965 116.582 118.775 116.362 118.035H116.352Z" fill="#E7C7AF"/>
<path d="M141.392 107.115C136.232 107.005 131.072 107.565 125.922 107.795C125.482 107.815 125.502 108.485 125.942 108.485C130.942 108.395 135.922 107.815 140.932 107.905C140.972 107.915 141.012 107.925 141.062 107.925H141.402C141.912 107.895 141.882 107.135 141.382 107.125L141.392 107.115Z" fill="#E7C7AF"/>
<path d="M141.282 103.655C136.122 103.545 130.962 104.105 125.812 104.335C125.372 104.355 125.392 105.025 125.832 105.025C130.832 104.935 135.812 104.355 140.822 104.445C140.862 104.455 140.902 104.465 140.952 104.465C141.062 104.465 141.182 104.465 141.292 104.455C141.802 104.435 141.772 103.675 141.272 103.665L141.282 103.655Z" fill="#E7C7AF"/>
<path d="M92.7533 119.775L92.6133 123.605L104.913 123.815L104.303 119.795L92.7533 119.775Z" fill="white"/>
<path d="M92.2331 123.935L115.583 123.985C115.583 123.985 116.193 119.965 115.193 119.765C114.353 119.595 92.4831 119.245 92.3531 119.515C92.2231 119.785 92.2131 120.055 92.2131 120.055C92.2131 120.055 102.693 119.805 102.823 120.075C102.953 120.345 102.953 123.295 102.683 123.435C102.413 123.565 92.2031 123.415 92.2031 123.415L92.2331 123.945V123.935Z" fill="#E58B33"/>
<path d="M112.942 115.495L113.032 119.325L100.742 119.385L101.392 115.375L112.942 115.495Z" fill="white"/>
<path d="M113.413 119.665L94.6228 119.415C94.5528 118.965 94.0628 115.805 94.9428 115.445C95.8828 115.055 113.223 114.965 113.353 115.235C113.483 115.505 113.483 115.775 113.483 115.775C113.483 115.775 103.013 115.395 102.873 115.665C102.733 115.935 102.703 118.885 102.973 119.025C103.243 119.165 113.453 119.135 113.453 119.135L113.423 119.665H113.413Z" fill="#E64854"/>
<path d="M128.502 139.085L130.232 200.905H126.362L121.742 137.065L128.502 139.085Z" fill="#471C1A"/>
<path d="M72.2832 128.785H75.0832C74.9332 131.755 74.6332 138.635 75.1632 139.425C75.4632 139.875 95.3932 140.095 114.933 140.135C115.573 140.135 116.213 140.135 116.863 140.135L115.163 200.905H119.033L123.423 140.145C137.313 140.145 160.713 140.055 169.093 139.915L173.503 200.925H177.373L175.663 139.745C176.603 139.705 177.143 139.655 177.203 139.605C177.883 139.065 177.593 131.695 177.453 128.795H182.103V123.895H72.2932V128.795L72.2832 128.785Z" fill="#7F2B30"/>
<path d="M72.2832 123.885H109.623V129.625H115.033C115.033 129.625 114.493 139.825 114.933 140.125C103.613 140.105 90.5932 140.015 83.5732 139.865L79.1632 200.915H75.2932L77.0032 139.645C75.8632 139.575 75.2132 139.505 75.1632 139.415C74.6332 138.625 74.9332 131.735 75.0832 128.775H72.2832V123.875V123.885Z" fill="#471C1A"/>
<path d="M84.2734 129.795L175.693 129.135C175.883 129.135 176.033 129.285 176.033 129.475C176.033 129.665 175.883 129.815 175.693 129.815L84.2734 130.475H81.7634C81.6334 130.475 81.5534 130.375 81.5634 130.245C81.5834 130.015 81.2434 129.805 84.2634 129.795H84.2734Z" fill="#471C1A"/>
<path d="M266.415 204.455C266.525 205.305 253.555 205.385 237.435 205.385C221.315 205.385 208.785 205.505 208.665 204.455C208.565 203.645 221.155 203.525 237.275 203.525C253.395 203.525 266.275 203.275 266.425 204.455H266.415Z" fill="#837894"/>
<path d="M267.805 190.315C267.805 190.075 267.805 189.835 267.805 189.605C267.655 188.595 267.295 187.645 266.455 186.825C265.695 186.075 264.925 185.395 264.305 184.525C264.125 184.275 263.955 184.015 263.795 183.745C262.905 182.645 262.455 181.515 262.455 181.515L253.125 180.725C253.125 180.725 256.475 185.475 257.765 190.115C259.245 195.465 255.305 203.175 258.805 204.055C262.105 204.885 267.085 194.235 267.765 190.575C267.785 190.485 267.795 190.395 267.815 190.305L267.805 190.315Z" fill="#D0714F"/>
<path d="M262.425 181.495C262.425 181.495 257.345 193.145 252.955 191.785C252.955 191.785 252.935 191.785 252.925 191.775C252.905 191.765 252.875 191.745 252.835 191.725C252.805 191.705 252.765 191.685 252.725 191.645C252.705 191.635 252.685 191.615 252.675 191.605C250.705 189.995 242.485 178.125 235.435 166.725C230.225 158.295 225.645 150.115 224.695 146.495C223.085 140.375 226.975 108.685 226.975 108.685L243.305 108.495L241.535 143.865C241.535 143.865 242.375 145.335 243.715 147.705C248.835 156.725 261.265 178.715 262.385 181.415C262.395 181.445 262.405 181.465 262.415 181.485L262.425 181.495Z" fill="#6588B5"/>
<path d="M262.426 181.495C262.426 181.495 257.346 193.145 252.956 191.785C252.956 191.785 252.936 191.785 252.926 191.775C252.906 191.765 252.876 191.745 252.836 191.725C252.806 191.705 252.766 191.675 252.726 191.645C252.706 191.635 252.686 191.615 252.676 191.605C250.706 189.995 242.486 178.125 235.436 166.725C237.636 161.855 241.146 153.695 243.726 147.715C248.846 156.735 261.276 178.725 262.396 181.425C262.406 181.455 262.416 181.475 262.426 181.495Z" fill="#5079A0"/>
<path d="M225.525 191.235C225.525 191.235 229.075 192.835 232.455 193.895L232.625 193.135C232.755 192.555 233.335 192.205 233.905 192.335C233.915 192.335 233.935 192.335 233.945 192.335C235.325 192.705 237.685 193.285 238.775 193.215C239.495 191.025 240.985 185.005 242.715 177.145C242.765 176.935 242.805 176.735 242.845 176.525C244.265 170.025 245.845 162.325 247.295 154.495C247.315 154.375 247.335 154.255 247.365 154.135C248.585 147.535 249.705 140.865 250.565 134.755C250.655 134.085 250.745 133.425 250.835 132.765C251.085 130.915 251.325 129.695 251.515 127.985C252.315 120.765 253.925 113.345 253.215 110.405L243.295 108.495L235.555 105.805C235.555 105.805 235.465 106.885 235.305 108.755C234.875 113.835 233.945 124.805 232.935 136.175C232.935 136.215 232.935 136.255 232.935 136.295C232.405 142.205 231.865 148.225 231.355 153.575C231.265 154.565 231.165 155.545 231.055 156.525C231.015 156.905 230.975 157.285 230.935 157.665C229.085 174.425 225.955 189.275 225.575 191.055C225.555 191.125 225.545 191.175 225.545 191.205C225.545 191.205 225.545 191.215 225.545 191.225V191.235H225.525Z" fill="#6588B5"/>
<path d="M267.805 190.315C267.805 190.075 267.805 189.835 267.805 189.605C267.655 188.595 267.295 187.645 266.455 186.825C265.695 186.075 264.925 185.395 264.305 184.525C264.125 184.265 263.955 184.005 263.785 183.735C263.605 183.505 263.435 183.285 263.295 183.065C260.675 188.605 258.565 189.755 257.725 189.995C257.735 190.035 257.755 190.075 257.765 190.125C259.245 195.475 255.305 203.185 258.805 204.065C262.105 204.895 267.085 194.245 267.765 190.585C267.785 190.495 267.795 190.405 267.815 190.315H267.805Z" fill="white"/>
<path d="M230.744 156.745C230.744 156.745 230.724 156.745 230.704 156.745C230.524 156.725 230.394 156.565 230.414 156.385C231.134 149.755 231.914 140.515 232.604 132.355C232.994 127.805 233.324 123.875 233.584 121.075C233.604 120.895 233.754 120.765 233.934 120.785C234.114 120.805 234.244 120.965 234.224 121.135C233.964 123.935 233.624 127.865 233.244 132.405C232.554 140.565 231.774 149.815 231.054 156.445C231.034 156.615 230.894 156.735 230.734 156.735L230.744 156.745Z" fill="#346A8B"/>
<path d="M254.925 204.565C254.495 204.315 254.185 203.945 254.115 203.275C253.985 201.995 254.965 201.125 256.025 200.665C256.235 200.575 256.455 200.495 256.615 200.335C256.805 200.145 256.895 199.875 256.975 199.615C257.565 197.545 257.925 195.185 257.285 193.085C257.145 192.625 256.965 192.145 257.095 191.685C257.215 191.275 257.555 190.985 257.915 190.735C257.975 190.695 258.035 190.655 258.105 190.605C258.805 190.135 259.575 189.655 260.415 189.705C260.995 189.745 261.535 190.045 262.115 190.105C262.985 190.195 263.865 189.705 264.335 188.975C264.815 188.245 264.915 187.305 264.725 186.455C264.675 186.215 264.375 185.135 264.565 184.845C264.635 184.735 264.775 184.745 265.015 184.935C265.705 185.495 266.175 186.285 266.755 186.945C267.315 187.585 267.885 188.225 268.425 188.885C268.425 188.885 268.435 188.895 268.445 188.905C268.715 189.235 268.985 189.585 269.135 189.995C269.395 190.705 269.255 191.505 269.035 192.235C268.735 193.265 264.785 200.205 262.965 202.685C262.315 203.575 261.335 204.405 260.215 204.605C259.545 204.725 258.825 204.675 258.145 204.685C257.325 204.705 256.505 204.715 255.675 204.735C255.415 204.715 255.175 204.645 254.935 204.565H254.925Z" fill="#ECB14B"/>
<path d="M234.096 198.535C233.966 197.665 233.866 196.675 233.826 195.535C233.796 194.575 233.826 193.515 233.916 192.345C231.806 191.725 225.716 190.775 225.576 191.045C225.556 191.115 225.545 191.175 225.525 191.245C225.415 191.685 225.306 192.105 225.196 192.495C224.936 193.405 224.666 194.205 224.416 194.695C223.346 196.745 220.776 198.855 218.056 199.935C217.966 199.975 217.876 200.005 217.786 200.035C217.696 200.075 217.605 200.105 217.525 200.135C214.615 201.185 212.716 202.515 212.886 203.735C213.056 204.955 224.086 204.935 228.076 204.815C232.066 204.695 234.276 205.225 234.626 202.975C234.626 202.935 234.635 202.895 234.645 202.845C234.765 201.815 234.386 200.475 234.106 198.535H234.096Z" fill="#E6916B"/>
<path d="M225.525 191.235C225.545 191.165 225.555 191.105 225.575 191.035C225.525 191.135 225.525 191.215 225.525 191.235Z" fill="#F39C7C"/>
<path d="M228.054 204.815C232.044 204.695 234.254 205.235 234.604 202.985C234.604 202.945 234.614 202.905 234.624 202.855C234.744 201.825 234.374 200.485 234.094 198.545C233.964 197.675 233.864 196.685 233.824 195.545C233.824 195.545 233.824 195.545 233.824 195.535C228.184 193.365 225.654 193.425 224.874 193.535C224.714 194.005 224.554 194.405 224.404 194.695C223.324 196.745 220.754 198.845 218.034 199.925C217.944 199.965 217.854 199.995 217.764 200.025C217.674 200.065 217.584 200.095 217.504 200.125C214.594 201.175 212.864 202.025 213.024 203.245C213.194 204.465 224.054 204.935 228.044 204.815H228.054Z" fill="white"/>
<path d="M211.675 204.105C211.995 204.755 219.925 204.905 224.365 204.925C226.145 204.935 234.265 204.905 234.425 204.755C234.545 204.635 234.655 203.675 234.685 202.415C234.725 200.965 234.655 199.135 234.385 197.715C234.365 197.615 234.335 197.525 234.275 197.445C234.025 197.105 233.495 197.375 233.145 197.615C232.135 198.305 230.855 198.595 229.675 198.305C228.495 198.015 227.455 197.115 227.095 195.955C226.905 195.335 226.855 194.585 226.325 194.225C226.115 194.085 225.865 194.025 225.615 193.975C225.025 193.845 224.375 193.725 223.835 194.015C223.455 194.215 223.205 194.585 222.945 194.925C221.345 197.045 219.635 198.595 217.065 199.275C215.475 199.685 213.685 199.835 212.535 201.005C212.155 201.385 211.885 201.865 211.725 202.385C211.555 202.945 211.535 203.545 211.675 204.115V204.105Z" fill="#ECB14B"/>
<path d="M247.554 123.825C247.494 123.825 247.434 123.805 247.384 123.775C244.724 122.165 243.564 119.105 243.514 118.975C243.454 118.805 243.534 118.615 243.704 118.555C243.874 118.495 244.064 118.575 244.124 118.745C244.134 118.775 245.254 121.725 247.714 123.215C247.864 123.305 247.914 123.505 247.824 123.665C247.764 123.765 247.654 123.825 247.544 123.825H247.554Z" fill="#346A8B"/>
<path d="M233.235 126.475C233.165 126.475 233.085 126.445 233.045 126.385L230.905 123.615C230.825 123.505 230.845 123.355 230.945 123.275C231.055 123.195 231.205 123.215 231.285 123.315L233.425 126.075C233.505 126.185 233.485 126.335 233.385 126.415C233.345 126.445 233.285 126.465 233.235 126.465V126.475Z" fill="#346A8B"/>
<path d="M254.925 204.565C254.495 204.315 254.185 203.945 254.115 203.275C254.105 203.145 254.105 203.025 254.115 202.905C255.015 202.935 258.815 202.875 259.055 202.875C259.835 202.875 261.095 202.565 263.915 198.175C265.675 195.445 267.005 192.465 267.755 190.615C268.095 189.765 268.325 189.145 268.415 188.895C268.415 188.895 268.425 188.905 268.435 188.915C268.705 189.245 268.975 189.595 269.125 190.005C269.385 190.715 269.245 191.515 269.025 192.245C268.725 193.275 264.775 200.215 262.955 202.695C262.305 203.585 261.325 204.415 260.205 204.615C259.535 204.735 258.815 204.685 258.135 204.695C257.315 204.715 256.495 204.725 255.665 204.745C255.405 204.725 255.165 204.655 254.925 204.575V204.565Z" fill="white"/>
<path d="M211.675 204.105C211.995 204.755 219.925 204.905 224.365 204.925C226.145 204.935 234.265 204.905 234.425 204.755C234.545 204.635 234.655 203.675 234.685 202.415C233.015 202.505 222.605 203.025 217.795 202.875C215.045 202.795 212.865 202.645 211.725 202.375C211.555 202.935 211.535 203.535 211.675 204.105Z" fill="white"/>
<path d="M234.943 70.7854C234.943 70.7854 234.313 67.3254 240.923 65.9854C247.533 64.6454 252.733 64.3354 253.833 65.3554C254.933 66.3754 253.673 67.7954 253.913 68.6654C254.153 69.5354 255.483 70.5554 255.413 71.1054C255.333 71.6554 260.923 73.8654 262.733 74.8854C264.543 75.9054 265.963 85.4354 266.353 86.2254C266.743 87.0154 270.293 87.9554 270.683 90.3154C271.073 92.6754 268.403 97.9554 267.613 99.5254C266.823 101.095 262.493 102.595 260.683 101.965C258.873 101.335 255.803 90.7854 255.093 91.2554C254.383 91.7254 251.863 96.6054 252.413 100.625C252.963 104.645 254.063 106.455 254.543 107.785C255.013 109.125 253.833 112.585 253.523 113.135C253.213 113.685 247.623 114.865 240.843 114.865C234.063 114.865 226.983 113.365 226.353 112.815C225.723 112.265 224.933 109.825 225.333 108.725C225.723 107.625 226.353 106.125 227.143 101.875C227.933 97.6254 228.563 91.7154 228.563 91.7154C228.563 91.7154 224.543 98.4854 221.323 100.135C218.093 101.785 214.633 99.4254 213.533 97.5354C212.433 95.6454 210.463 94.4654 209.443 93.5154C208.423 92.5754 207.313 91.3154 207.243 89.9754C207.173 88.6354 210.343 84.7654 210.863 84.3854C212.243 83.3854 217.953 89.1854 219.443 89.5054C219.443 89.5054 223.303 83.6054 225.273 79.1954C227.243 74.7854 229.213 73.6854 230.703 72.8154C232.203 71.9454 234.953 70.7654 234.953 70.7654L234.943 70.7854Z" fill="#B7AD7B"/>
<path d="M265.043 87.9954C263.613 87.9354 262.533 89.0854 262.183 90.3954C262.093 90.7354 262.073 91.0854 262.013 91.4254C261.953 91.7854 261.833 92.0854 261.613 92.3754C261.403 92.6554 261.173 92.9054 260.973 93.1854C260.763 93.4854 260.573 93.7954 260.403 94.1254C260.033 94.8454 259.753 95.6154 259.523 96.3954C259.443 96.6854 259.883 96.8054 259.973 96.5154C260.163 95.8554 260.383 95.2154 260.683 94.5954C260.983 93.9854 261.353 93.4354 261.783 92.9054C261.983 92.6654 262.173 92.4154 262.303 92.1154C262.433 91.8054 262.473 91.4754 262.523 91.1554C262.603 90.5154 262.783 89.8854 263.183 89.3654C263.623 88.7954 264.313 88.4254 265.043 88.4554C265.343 88.4654 265.343 88.0054 265.043 87.9954Z" fill="#9B8E57"/>
<path d="M229.703 83.0653C229.553 83.0253 229.353 83.1153 229.323 83.2853L227.963 92.1853C227.833 93.0353 227.703 93.8753 227.573 94.7253C227.543 94.8853 227.613 95.0553 227.793 95.1053C227.943 95.1453 228.143 95.0553 228.173 94.8853L229.533 85.9853C229.663 85.1353 229.793 84.2953 229.923 83.4453C229.953 83.2853 229.883 83.1153 229.703 83.0653Z" fill="#471C1A"/>
<path d="M223.915 90.7054C222.535 90.1854 220.905 89.5754 219.115 88.8854C218.835 88.7754 218.725 89.2154 218.995 89.3354C220.575 89.9954 222.175 90.5954 223.795 91.1554C224.075 91.2554 224.195 90.8154 223.915 90.7054Z" fill="#9B8E57"/>
<path d="M254.704 70.8653C253.744 70.3653 252.734 69.9653 251.684 69.6853C252.124 69.4353 252.564 69.1853 253.004 68.9153C253.254 68.7553 253.024 68.3553 252.774 68.5153C251.634 69.2153 250.454 69.8553 249.244 70.4053C248.084 70.9353 246.864 71.3353 245.694 71.8553C245.064 72.1353 244.454 72.4753 243.924 72.9253C243.694 73.1153 244.024 73.4453 244.254 73.2553C245.194 72.4753 246.364 72.0753 247.494 71.6453C248.714 71.1753 249.904 70.6453 251.054 70.0353C251.134 69.9953 251.214 69.9453 251.294 69.9053C252.424 70.1853 253.524 70.5953 254.554 71.1353C254.734 71.2253 254.884 70.9653 254.714 70.8653H254.704Z" fill="#9B8E57"/>
<path d="M240.034 73.3354C238.684 72.3154 237.044 71.7954 235.614 70.9154C235.364 70.7554 235.124 71.1554 235.384 71.3154C236.824 72.1954 238.454 72.7154 239.804 73.7354C240.044 73.9154 240.274 73.5154 240.034 73.3354Z" fill="#9B8E57"/>
<path d="M232.985 110.995C231.935 110.895 230.885 110.795 229.875 110.485C228.825 110.165 227.835 109.625 226.835 109.155C226.655 109.075 226.495 109.335 226.675 109.425C227.695 109.905 228.705 110.465 229.785 110.785C230.825 111.095 231.905 111.195 232.975 111.305C233.175 111.325 233.175 111.015 232.975 110.995H232.985Z" fill="#9B8E57"/>
<path d="M252.183 110.445C251.363 110.755 250.513 110.955 249.643 111.045C248.753 111.135 247.873 111.065 246.983 110.995C246.083 110.915 245.203 110.925 244.313 110.995C243.403 111.075 242.503 111.155 241.593 111.175C240.563 111.205 239.534 111.175 238.504 111.095C238.304 111.075 238.304 111.385 238.504 111.405C240.344 111.545 242.173 111.485 244.013 111.325C244.933 111.245 245.834 111.205 246.754 111.275C247.644 111.345 248.533 111.435 249.433 111.365C250.403 111.295 251.363 111.075 252.273 110.735C252.453 110.665 252.373 110.365 252.193 110.435L252.183 110.445Z" fill="#9B8E57"/>
<path d="M250.794 107.005C247.954 105.285 247.204 101.755 246.854 98.7054C246.834 98.5054 246.804 98.2954 246.784 98.0954C246.764 97.8954 246.764 97.6754 246.704 97.4754C246.584 97.0254 246.174 97.0354 245.794 97.0154C244.884 96.9654 243.984 96.9654 243.074 96.9854C241.774 97.0254 240.474 97.1154 239.174 97.2154C239.254 96.9154 239.334 96.6054 239.424 96.3054C240.084 94.0954 240.894 91.9354 241.204 89.6354C241.514 87.3554 241.444 85.0554 241.374 82.7654C241.294 80.1654 241.194 77.5354 241.634 74.9554C241.664 74.7654 241.374 74.6754 241.334 74.8754C240.564 79.4654 241.444 84.1254 241.004 88.7354C240.894 89.8854 240.694 91.0054 240.394 92.1254C240.094 93.2554 239.724 94.3554 239.374 95.4654C239.184 96.0554 239.014 96.6454 238.854 97.2454C238.434 97.2754 238.014 97.3054 237.604 97.3354C235.564 97.4654 233.504 97.5254 231.464 97.2854C231.374 97.2754 231.254 97.3654 231.244 97.4554C231.044 98.7754 230.754 100.085 230.364 101.365C229.994 102.595 229.554 103.845 228.954 104.985C228.664 105.525 228.304 106.035 227.724 106.285C227.454 106.405 227.684 106.805 227.954 106.685C229.054 106.195 229.524 104.915 229.944 103.875C230.474 102.585 230.904 101.255 231.224 99.8954C231.394 99.1954 231.534 98.4754 231.644 97.7654C234.004 98.0154 236.364 97.8854 238.724 97.7154C238.634 98.0754 238.544 98.4354 238.474 98.8054C238.234 99.9854 238.054 101.175 237.864 102.365C237.434 105.075 237.014 107.785 236.584 110.485C236.554 110.675 236.854 110.765 236.884 110.565C237.264 108.135 237.644 105.705 238.034 103.275C238.324 101.405 238.614 99.5254 239.054 97.6854C240.124 97.6054 241.184 97.5354 242.254 97.4854C243.164 97.4454 244.064 97.4254 244.974 97.4454C245.184 97.4454 245.394 97.4554 245.604 97.4654C245.714 97.4654 245.824 97.4754 245.944 97.4854C246.034 97.4854 246.194 97.4654 246.244 97.5454C246.284 97.5954 246.274 97.7154 246.284 97.7654C246.294 97.8654 246.304 97.9554 246.314 98.0554C246.344 98.2954 246.364 98.5354 246.394 98.7754C246.594 100.435 246.854 102.115 247.514 103.665C248.154 105.175 249.154 106.545 250.564 107.405C250.824 107.555 251.054 107.165 250.794 107.005Z" fill="#9B8E57"/>
<path d="M210.034 89.5853C210.034 89.5853 208.554 91.5753 207.884 91.0653C207.214 90.5553 208.144 88.7953 208.814 87.7153L210.034 89.5953V89.5853Z" fill="black"/>
<path d="M210.033 89.5854C210.033 89.5854 206.423 87.7554 205.663 86.7754C204.903 85.7954 204.233 83.6554 204.633 82.2254C205.033 80.7954 207.173 80.1254 207.173 80.1254L210.923 86.5054L210.033 89.5854Z" fill="#E6916B"/>
<path d="M208.104 85.6454C208.074 85.7454 207.634 86.6154 207.704 87.1154C207.704 87.1154 199.204 85.2054 198.904 84.6754C198.604 84.1454 199.644 83.1053 200.444 83.1053C201.244 83.1053 208.104 85.6454 208.104 85.6454Z" fill="white"/>
<path d="M208.544 85.5453C208.544 85.5453 203.664 69.9254 203.524 69.6954C203.384 69.4654 196.264 67.3553 196.034 67.3553C195.804 67.3553 194.424 68.7554 194.424 69.0654C194.424 69.3754 198.174 84.4554 198.404 84.7554C198.634 85.0554 207.564 87.2953 207.774 87.2953C207.984 87.2953 208.144 87.0954 208.144 87.0954C208.144 87.0954 199.614 84.7853 199.344 84.6853C199.074 84.5853 199.884 83.7454 200.144 83.5854C200.414 83.4154 208.104 85.8254 208.234 85.8954C208.364 85.9654 208.534 85.5654 208.534 85.5654L208.544 85.5453Z" fill="#388B61"/>
<path d="M200.123 82.1453L197.333 71.1053C197.073 70.0653 196.803 69.0153 196.543 67.9753C196.473 67.6853 196.023 67.8053 196.093 68.0953C197.023 71.7753 197.953 75.4553 198.883 79.1353C199.143 80.1753 199.413 81.2253 199.673 82.2653C199.743 82.5553 200.193 82.4353 200.123 82.1453Z" fill="#266B45"/>
<path d="M210.034 89.5854C210.034 89.5854 211.774 87.0854 212.044 86.3754C212.314 85.6654 211.154 84.4154 210.574 83.4354C209.994 82.4554 209.194 80.0054 208.474 79.7354C207.764 79.4654 206.554 78.0454 206.154 77.5054C205.754 76.9654 205.124 76.8854 204.864 77.5954C204.594 78.3054 205.404 79.6454 206.064 80.0454C206.734 80.4454 207.134 81.0254 207.134 81.0254L208.244 84.5454C208.244 84.5454 209.624 86.9054 209.674 87.0454C209.724 87.1854 210.034 89.5854 210.034 89.5854Z" fill="#E6916B"/>
<path d="M266.793 93.7354C266.793 93.7354 267.623 94.5254 268.563 94.2854C269.503 94.0454 270.293 92.2354 270.413 91.3754C270.533 90.5054 270.063 89.4854 269.433 88.8554C268.803 88.2254 267.073 88.4654 266.523 90.2354C265.973 92.0054 266.443 93.3054 266.803 93.7354H266.793Z" fill="black"/>
<path d="M259.634 69.6454L266.414 94.9054L266.094 95.2254L264.264 95.2454L254.154 93.3054L257.834 70.0854L259.634 69.6454Z" fill="white"/>
<path d="M255.974 92.7953C255.974 92.7953 265.984 94.9654 266.204 95.0054C266.424 95.0454 264.524 94.9653 264.524 94.9653L254.564 92.9254L258.104 70.0253L258.544 69.8954L257.744 69.5854L257.254 69.7653L253.754 93.5054C253.754 93.5054 264.024 95.4553 264.604 95.4953C265.184 95.5353 266.734 95.4553 266.864 95.1853C266.994 94.9153 270.314 73.3053 270.234 72.9953C270.144 72.6853 260.314 69.0954 260.004 69.1454C259.694 69.1854 259.384 69.4554 259.384 69.4554L255.974 92.7953Z" fill="#EA4450"/>
<path d="M267.865 88.9853C267.865 88.9853 264.395 87.3253 263.805 86.5853C263.215 85.8453 263.855 85.3953 264.345 85.5953C264.835 85.7953 263.505 84.9053 263.505 84.0153C263.505 83.1253 263.655 83.0253 263.255 82.4353C262.855 81.8453 263.205 80.9953 263.745 81.1453C264.285 81.2953 267.405 83.1253 267.605 83.2253C267.805 83.3253 266.615 81.8853 265.875 81.5453C265.135 81.1953 264.635 80.4553 264.785 80.0653C264.935 79.6653 265.235 79.4253 266.715 80.2653C268.195 81.1053 269.485 82.0453 269.635 82.2953C269.785 82.5453 269.435 83.2353 269.735 83.4353C270.035 83.6353 270.725 84.5253 270.325 84.9653C269.925 85.4153 269.535 85.5553 269.835 86.2053C270.135 86.8553 270.425 87.2953 270.035 87.6853C269.635 88.0853 269.635 90.9053 269.585 91.6953C269.535 92.4853 268.255 93.4453 267.155 93.4453C267.455 91.4253 267.855 88.9953 267.855 88.9953L267.865 88.9853Z" fill="#E6916B"/>
<path d="M247.474 70.1754C247.474 70.1754 250.894 68.8254 251.914 68.3154C252.934 67.8054 253.194 66.3054 252.774 65.8254C252.354 65.3454 247.174 65.3454 243.024 66.3654C238.874 67.3854 237.264 67.8354 236.664 68.6654C236.064 69.4954 236.214 70.1954 236.564 70.4254C236.914 70.6554 238.154 71.1454 238.814 71.5054C239.474 71.8654 247.464 70.1754 247.464 70.1754H247.474Z" fill="black"/>
<path d="M246.585 57.7754C246.585 57.7754 247.715 56.5954 247.665 54.4854C247.615 52.3754 245.405 52.5654 245.405 52.5654C245.405 52.5654 245.555 50.9954 244.965 50.2554C244.555 49.7454 243.915 49.8954 243.565 50.0354C243.585 49.9954 243.615 49.9554 243.635 49.9154C243.715 49.7954 243.775 49.7254 243.875 49.6154C243.975 49.5054 244.075 49.3954 244.185 49.2954C244.275 49.2054 244.275 49.0554 244.185 48.9654C244.095 48.8754 243.945 48.8754 243.855 48.9654C243.605 49.2254 243.345 49.4954 243.165 49.8054C242.915 49.1954 242.275 47.9954 241.135 47.9054C238.415 47.6854 236.925 49.0954 236.345 49.8454C235.965 49.6054 235.485 49.6854 235.055 49.8054C234.565 49.9354 234.095 50.1354 233.665 50.3954C232.795 50.9154 232.075 51.6654 231.605 52.5654C231.465 52.8254 231.865 53.0654 232.005 52.7954C232.305 52.2154 232.715 51.7054 233.215 51.2854C232.405 52.1554 232.055 53.2054 232.135 53.5854C231.955 53.7254 231.785 53.8854 231.635 54.0654C231.315 54.4354 231.015 54.8354 230.745 55.2454C230.155 56.1354 229.915 57.1554 230.165 58.2054C230.235 58.4954 230.685 58.3754 230.615 58.0854C230.395 57.1554 230.634 56.2654 231.144 55.4854C231.214 55.3754 231.285 55.2754 231.365 55.1754C231.135 55.6954 230.915 56.3154 230.825 56.9554C230.575 58.6754 232.005 59.0654 232.005 59.0654C232.005 59.0654 231.715 61.0354 233.625 61.4254L244.825 65.2054C244.825 65.2054 246.695 62.3054 247.285 60.2954C247.875 58.2854 246.595 57.7854 246.595 57.7854L246.585 57.7754Z" fill="#812A2E"/>
<path d="M243.964 60.6154C243.964 60.6154 246.624 68.8454 247.474 70.1754C247.474 70.1754 242.754 72.0554 241.364 74.1054C241.364 74.1054 239.364 71.8654 238.824 71.5054C238.824 71.5054 239.854 70.8354 239.004 67.4554L243.964 60.6154Z" fill="#E6916B"/>
<path d="M239.304 70.3354C239.714 70.2854 240.124 70.1754 240.514 70.0254C241.344 69.7054 242.134 69.1854 242.754 68.5454C243.394 67.8854 243.704 67.0454 243.884 66.1554C244.104 65.0954 244.114 63.9754 244.004 62.8954C243.954 62.3554 243.864 61.8154 243.754 61.2854C243.734 61.1954 243.714 61.0954 243.684 61.0054L239.004 67.4554C239.344 68.8054 239.384 69.7154 239.304 70.3354Z" fill="#1A1A1A"/>
<path d="M245.015 58.1154C243.735 56.4554 242.655 59.6154 242.655 59.6154C242.655 59.6154 241.895 59.5554 241.095 57.3954C240.195 58.0054 237.775 58.0454 235.885 57.5554C235.625 57.7254 235.345 57.8554 235.045 57.9554C234.405 58.1554 233.765 58.1254 233.155 57.9554C233.055 58.0954 232.935 58.2354 232.805 58.3754C232.805 58.3754 233.465 66.7354 235.245 68.3054C236.185 69.1354 238.435 68.9554 239.475 68.6854C242.685 67.8754 244.435 65.6954 244.075 62.2354C244.075 62.2354 247.355 61.1654 245.005 58.1254L245.015 58.1154Z" fill="#E6916B"/>
<path d="M234.595 63.4453C234.595 63.4453 234.595 63.3853 234.595 63.3553C234.595 63.2853 234.585 63.2153 234.565 63.1453C234.545 63.0753 234.525 63.0153 234.485 62.9653C234.425 62.8953 234.345 62.8353 234.245 62.8353C234.135 62.8353 234.045 62.8953 233.995 62.9853C233.965 63.0353 233.945 63.0953 233.935 63.1453C233.915 63.2353 233.915 63.3253 233.935 63.4153C233.935 63.4953 233.935 63.5753 233.975 63.6453C234.035 63.7653 234.165 63.8453 234.295 63.8553C234.375 63.8553 234.455 63.8253 234.505 63.7653C234.565 63.7053 234.585 63.6253 234.595 63.5453C234.595 63.5153 234.595 63.4753 234.595 63.4453Z" fill="#1A1A1A"/>
<path d="M240.054 62.0954C240.054 61.9754 240.004 61.8654 239.944 61.7554C239.884 61.6554 239.804 61.5554 239.684 61.5254C239.604 61.5054 239.514 61.5254 239.444 61.5654C239.364 61.6154 239.324 61.6954 239.294 61.7754C239.274 61.8254 239.274 61.8654 239.264 61.9154C239.264 61.9454 239.264 61.9854 239.264 62.0154C239.264 62.0754 239.284 62.1354 239.304 62.1954C239.304 62.1954 239.304 62.1954 239.304 62.2054C239.324 62.2754 239.364 62.3354 239.414 62.3854C239.464 62.4554 239.524 62.5154 239.594 62.5554C239.694 62.6154 239.854 62.5854 239.914 62.4754C239.934 62.4454 239.944 62.4154 239.954 62.3854C240.034 62.3054 240.074 62.1854 240.074 62.0754L240.054 62.0954Z" fill="#1A1A1A"/>
<path d="M237.765 64.5353L237.715 64.4953C237.715 64.4953 237.645 64.4653 237.595 64.4653C237.385 64.4353 237.385 64.4353 237.175 64.4153C237.125 64.4153 237.045 64.4453 237.015 64.4853C236.975 64.5253 236.945 64.5953 236.945 64.6453C236.945 64.7053 236.965 64.7654 237.015 64.8054C237.035 64.8154 237.045 64.8253 237.065 64.8453C237.105 64.8653 237.135 64.8753 237.185 64.8753C237.395 64.9053 237.395 64.9053 237.605 64.9253C237.655 64.9253 237.735 64.8953 237.765 64.8553C237.805 64.8153 237.835 64.7454 237.835 64.6954C237.835 64.6354 237.815 64.5753 237.765 64.5353Z" fill="#D15C48"/>
<path d="M239.394 65.8254C239.294 65.7654 239.134 65.7954 239.074 65.9054C238.774 66.5854 238.054 66.9854 237.324 66.9054C237.204 66.8954 237.094 67.0254 237.094 67.1354C237.094 67.2754 237.204 67.3554 237.324 67.3654C238.194 67.4554 239.104 66.9354 239.474 66.1354C239.524 66.0254 239.504 65.8854 239.394 65.8154V65.8254Z" fill="#C15448"/>
<path d="M238.644 58.3454C238.084 58.3454 237.534 58.2254 237.024 57.9954C236.774 57.8854 236.534 57.7454 236.304 57.5754C236.094 57.4254 235.834 57.2354 235.744 56.9854C235.644 56.7054 235.194 56.8254 235.294 57.1054C235.404 57.4154 235.634 57.6354 235.894 57.8354C236.154 58.0354 236.434 58.2154 236.734 58.3554C237.334 58.6354 237.974 58.7854 238.634 58.7954C238.934 58.7954 238.934 58.3354 238.634 58.3354L238.644 58.3454Z" fill="#812A2E"/>
<path d="M240.614 59.9253C240.084 59.6453 239.504 59.4853 238.904 59.4453C238.744 59.4353 238.584 59.5953 238.594 59.7553C238.594 59.9353 238.734 60.0553 238.904 60.0653C238.974 60.0653 239.034 60.0653 239.104 60.0853C239.114 60.0853 239.124 60.0853 239.144 60.0853C239.144 60.0853 239.154 60.0853 239.164 60.0853C239.194 60.0853 239.224 60.0853 239.244 60.0953C239.374 60.1153 239.504 60.1453 239.624 60.1853C239.754 60.2253 239.874 60.2653 239.994 60.3153C239.994 60.3153 240.034 60.3353 240.044 60.3353C240.074 60.3453 240.104 60.3553 240.124 60.3753C240.184 60.4053 240.244 60.4353 240.304 60.4653C240.444 60.5453 240.644 60.5053 240.724 60.3553C240.804 60.2153 240.764 60.0153 240.614 59.9353V59.9253Z" fill="#812A2E"/>
<path d="M233.964 60.8554C233.904 60.8054 233.824 60.7654 233.744 60.7654C233.664 60.7654 233.584 60.7954 233.524 60.8554C233.304 61.0954 233.084 61.3454 232.854 61.5854C232.804 61.6454 232.764 61.7154 232.764 61.8054C232.764 61.8854 232.794 61.9754 232.854 62.0254C232.914 62.0754 232.994 62.1154 233.074 62.1154C233.154 62.1154 233.234 62.0854 233.294 62.0254C233.514 61.7854 233.734 61.5354 233.964 61.2954C234.014 61.2354 234.054 61.1554 234.054 61.0754C234.054 60.9954 234.024 60.9054 233.964 60.8554Z" fill="#812A2E"/>
<path d="M102.913 202.305C103.233 198.635 103.153 171.185 102.843 163.815C100.063 163.385 65.7631 162.145 64.663 162.245C63.5231 162.335 43.023 162.525 42.073 162.815C41.933 162.855 41.793 163.055 41.653 163.365C41.293 170.795 41.443 200.605 41.813 202.165C47.063 202.555 100.243 202.315 102.923 202.305H102.913Z" fill="#EFCAAE"/>
<path d="M64.433 165.155L64.553 162.245C62.603 162.345 42.993 162.525 42.073 162.805C41.933 162.845 41.793 163.045 41.653 163.355C41.293 170.785 41.443 200.595 41.813 202.155C43.883 202.305 53.373 202.365 64.283 202.375L64.433 165.145V165.155Z" fill="#EAB895"/>
<path d="M50.4428 172.265C50.4428 172.475 50.4628 172.695 50.4828 172.905C50.5028 173.115 50.4528 173.465 50.5428 173.635C50.5828 173.715 50.6828 173.785 50.7728 173.755C50.8228 173.735 50.8528 173.705 50.8928 173.665C51.0228 173.525 51.1529 173.385 51.2829 173.245C51.4029 173.455 51.5628 173.635 51.7528 173.785C51.8128 173.825 51.8728 173.875 51.9428 173.875C52.2028 173.905 52.3528 173.495 52.6128 173.525C52.8428 173.555 52.9428 173.915 53.1728 173.905C53.4428 173.895 53.4928 173.405 53.7628 173.415C53.8828 173.415 53.9628 173.525 54.0428 173.605C54.3728 173.965 54.3529 173.555 54.3529 173.325C54.3529 173.085 54.3529 172.845 54.3529 172.615C54.3529 171.935 54.3728 171.255 54.3728 170.585C54.3928 168.905 54.4128 167.225 54.4328 165.555C54.4428 164.525 54.4529 163.485 54.4729 162.455C53.1529 162.475 51.8128 162.505 50.5228 162.525C50.4828 163.405 50.4728 164.295 50.4528 165.175C50.4128 166.965 50.3829 168.765 50.4029 170.555C50.4029 171.135 50.4128 171.715 50.4428 172.285V172.265Z" fill="#EFCAAE"/>
<path d="M56.7621 197.445C56.7621 198.055 56.7721 198.655 56.7821 199.265C56.7821 199.505 56.7721 199.775 56.5921 199.925C56.4821 200.015 56.3221 200.045 56.1721 200.055C55.5521 200.105 54.9221 200.055 54.3221 199.875C54.1621 199.835 54.0021 199.775 53.8921 199.665C53.6521 199.425 53.7221 199.035 53.7121 198.725C53.6821 197.745 53.6521 196.785 53.5921 195.805C53.5821 195.615 53.5921 195.395 53.7421 195.295C53.8021 195.255 53.8821 195.245 53.9621 195.235C54.4621 195.185 54.9621 195.155 55.4621 195.155C55.8321 195.155 56.2121 195.175 56.5621 195.315C56.6221 195.345 56.6921 195.375 56.7221 195.435C56.7521 195.485 56.7521 195.555 56.7521 195.615C56.7521 196.225 56.7621 196.835 56.7721 197.445H56.7621ZM56.6721 194.745C55.8321 194.555 54.6821 194.585 53.8421 194.705C53.6221 194.735 53.2121 194.855 53.1721 195.115C52.9821 196.455 52.9821 197.875 53.0921 199.225C53.1321 199.735 53.2921 200.125 53.8021 200.305C54.5321 200.565 55.9721 200.605 56.7321 200.465C57.3221 200.365 57.3921 200.015 57.4021 199.465C57.4221 198.315 57.3721 197.165 57.3621 196.025C57.3621 195.355 57.3821 194.895 56.6821 194.735L56.6721 194.745Z" fill="#DFA883"/>
<path d="M62.4925 197.695C62.4925 198.305 62.5026 198.905 62.5126 199.515C62.5126 199.755 62.5026 200.025 62.3226 200.175C62.2126 200.265 62.0526 200.295 61.9026 200.305C61.2826 200.355 60.6525 200.305 60.0525 200.125C59.8925 200.085 59.7326 200.025 59.6226 199.915C59.3826 199.675 59.4526 199.285 59.4426 198.975C59.4126 197.995 59.3826 197.035 59.3226 196.055C59.3126 195.865 59.3226 195.645 59.4726 195.545C59.5326 195.505 59.6126 195.495 59.6926 195.495C60.1926 195.445 60.6926 195.415 61.1926 195.415C61.5626 195.415 61.9425 195.435 62.2925 195.575C62.3525 195.605 62.4226 195.635 62.4526 195.695C62.4826 195.745 62.4825 195.815 62.4825 195.875C62.4825 196.485 62.4926 197.095 62.5026 197.705L62.4925 197.695ZM62.4026 194.995C61.5626 194.805 60.4126 194.835 59.5726 194.955C59.3526 194.985 58.9426 195.105 58.9026 195.365C58.7126 196.705 58.7126 198.125 58.8226 199.475C58.8626 199.985 59.0226 200.375 59.5326 200.555C60.2626 200.815 61.7026 200.855 62.4626 200.715C63.0526 200.615 63.1226 200.265 63.1326 199.715C63.1526 198.565 63.1026 197.415 63.0926 196.275C63.0926 195.605 63.1126 195.145 62.4126 194.985L62.4026 194.995Z" fill="#DFA883"/>
<path d="M58.822 181.425C54.212 181.095 49.592 180.935 44.972 180.955C44.452 180.955 44.452 181.755 44.972 181.755C49.592 181.775 54.212 181.945 58.822 182.295C59.382 182.335 59.382 181.465 58.822 181.425Z" fill="#DFA883"/>
<path d="M60.3324 178.515C55.1724 177.285 49.8323 178.285 44.6123 177.725C44.0823 177.665 44.0823 178.505 44.6123 178.555C49.7723 179.115 54.9924 178.285 60.1224 179.265C60.6124 179.355 60.8224 178.625 60.3324 178.515Z" fill="#DFA883"/>
</svg>
