<svg width="77" height="55" viewBox="0 0 77 55" fill="none" xmlns="http://www.w3.org/2000/svg">
<path d="M8.46046 32.5146H7.41406V52.9725H8.46046V32.5146Z" fill="#5A2F24"/>
<path d="M70.3706 33.571H69.3242V54.0289H70.3706V33.571Z" fill="#5A2F24"/>
<path d="M76.9968 26.7727H0.109375L6.71892 18.9479L72.1058 19.1863L76.9968 26.7727Z" fill="#FAE8DA"/>
<path d="M77 26.7495H0V29.3755H77V26.7495Z" fill="#CEAA96"/>
<path d="M73.5099 29.3755H3.75195V34.1472H73.5099V29.3755Z" fill="#5A2F24"/>
<path d="M69.8475 36.5381H7.9375V37.4984H69.8475V36.5381Z" fill="#5A2F24"/>
<path d="M21.4108 47.1544C21.4042 47.0882 21.3943 47.022 21.3844 46.9591C21.3678 46.8465 21.338 46.7339 21.3082 46.6246C21.2718 46.5021 21.2221 46.3829 21.1459 46.2868C21.0863 46.214 20.9936 46.1246 20.8976 46.1113C20.8711 46.108 20.8479 46.1213 20.8446 46.1544C20.8413 46.2041 20.8479 46.2471 20.8611 46.2968C20.8744 46.3564 20.8777 46.3895 20.891 46.4524C20.9141 46.5551 20.9506 46.6544 20.9804 46.7571C21.0102 46.8564 21.0333 46.9591 21.0598 47.0617C21.0929 47.1842 21.1062 47.3366 21.2055 47.416C21.2684 47.4657 21.3545 47.426 21.391 47.363C21.4274 47.2935 21.4208 47.224 21.4108 47.1544Z" fill="#CEAA96"/>
<path d="M18.4772 47.1147C18.4607 47.0187 18.4375 46.9226 18.4176 46.8266C18.3978 46.7239 18.3812 46.6213 18.368 46.5153C18.3547 46.4127 18.3415 46.2935 18.2918 46.2041C18.2455 46.1213 18.1262 46.1113 18.0799 46.2041C18.0302 46.3034 18.0269 46.4325 18.0302 46.5451C18.0335 46.661 18.0501 46.7769 18.0633 46.8895C18.0766 46.9889 18.0931 47.0849 18.1196 47.1776C18.1527 47.2968 18.219 47.4591 18.3547 47.4524C18.3878 47.4524 18.4143 47.4326 18.4375 47.4094C18.4441 47.3995 18.4508 47.3895 18.4574 47.3796C18.4706 47.3399 18.4739 47.3332 18.4673 47.3531C18.5004 47.2769 18.4905 47.1975 18.4772 47.1147Z" fill="#CEAA96"/>
<path d="M20.524 47.0981C20.524 47.075 20.5174 47.0518 20.5174 47.0286C20.5042 46.9094 20.4777 46.7968 20.4512 46.6809C20.4313 46.5816 20.4015 46.4822 20.3684 46.3895C20.3485 46.3365 20.332 46.2802 20.3055 46.2305C20.2823 46.1875 20.2459 46.1279 20.2028 46.108C20.1664 46.0882 20.1167 46.0882 20.0869 46.1246C20.0306 46.1908 20.0207 46.3067 20.024 46.3961C20.0273 46.4855 20.0339 46.5716 20.0439 46.661C20.0538 46.7604 20.0704 46.8564 20.0836 46.9524C20.0903 46.9988 20.0969 47.0451 20.1101 47.0915C20.1234 47.1379 20.1399 47.1776 20.1598 47.2173C20.1763 47.2571 20.1995 47.2902 20.226 47.32C20.2393 47.3399 20.2558 47.3597 20.2757 47.373C20.3022 47.3995 20.3253 47.4226 20.3551 47.4458C20.3783 47.4624 20.4048 47.4491 20.4181 47.426C20.4346 47.3995 20.4446 47.3663 20.4578 47.3365C20.4876 47.3001 20.5042 47.2471 20.5141 47.2008C20.524 47.1445 20.524 47.1279 20.5207 47.1511C20.5141 47.1776 20.5141 47.1611 20.524 47.0981Z" fill="#CEAA96"/>
<path d="M22.6328 47.0518C22.6229 46.9955 22.6096 46.9359 22.5997 46.8796C22.5931 46.8498 22.5898 46.8233 22.5865 46.7935C22.5865 46.7869 22.5832 46.7604 22.5832 46.7803C22.5798 46.7637 22.5798 46.7439 22.5765 46.724C22.5666 46.6081 22.56 46.4922 22.5633 46.373C22.5666 46.267 22.5732 46.0584 22.4408 46.0518C22.3182 46.0452 22.2586 46.2538 22.2421 46.3597C22.2222 46.4889 22.209 46.6247 22.2156 46.7571C22.2255 46.8863 22.2388 47.022 22.2785 47.1445C22.3017 47.2174 22.3282 47.2936 22.3778 47.3532C22.4143 47.3962 22.4639 47.4558 22.5202 47.4691C22.56 47.479 22.603 47.4624 22.6262 47.4227C22.6527 47.3697 22.6494 47.3068 22.6527 47.2505C22.6593 47.1843 22.6461 47.1181 22.6328 47.0518Z" fill="#CEAA96"/>
<path d="M23.7255 47.31C23.7156 47.1643 23.6957 47.0153 23.6692 46.8696C23.646 46.7371 23.6228 46.5981 23.5798 46.4722C23.5401 46.353 23.497 46.1808 23.3976 46.108C23.3612 46.0815 23.2983 46.098 23.2784 46.1411C23.2288 46.2537 23.2652 46.4093 23.2751 46.5318C23.2917 46.6742 23.3215 46.8133 23.3447 46.9524C23.3679 47.0882 23.3877 47.2206 23.4142 47.3564C23.4374 47.4789 23.4639 47.6345 23.5367 47.7339C23.5765 47.7869 23.6592 47.767 23.6857 47.714C23.742 47.6014 23.7321 47.4325 23.7255 47.31Z" fill="#CEAA96"/>
<path d="M24.6592 46.9557C24.6559 46.8663 24.636 46.7669 24.6095 46.6808C24.5864 46.5981 24.5599 46.512 24.5268 46.4325C24.4903 46.353 24.4473 46.2901 24.3943 46.2272C24.338 46.161 24.2387 46.2139 24.2387 46.3C24.2387 46.3365 24.2387 46.3762 24.2354 46.4126C24.2354 46.4391 24.2387 46.4656 24.2453 46.4954C24.2453 46.5053 24.2453 46.5053 24.2453 46.4954C24.2486 46.5153 24.2486 46.5351 24.2519 46.555C24.2585 46.5947 24.2651 46.6345 24.2718 46.6742C24.2751 46.6908 24.2784 46.7073 24.2784 46.7239C24.2784 46.7338 24.2817 46.7471 24.2817 46.757C24.2817 46.7603 24.2817 46.7636 24.2817 46.7636C24.2817 46.7669 24.2817 46.7669 24.2817 46.7736C24.285 46.7967 24.2883 46.8166 24.2883 46.8398C24.2916 46.8563 24.295 46.8729 24.2983 46.8895C24.3049 46.9292 24.3082 46.9689 24.3148 47.0087C24.3347 47.1113 24.3777 47.2173 24.4738 47.2537C24.4572 47.2438 24.444 47.2338 24.4274 47.2239C24.4407 47.2405 24.4473 47.2537 24.4672 47.2636C24.487 47.2769 24.5201 47.2802 24.5433 47.2636C24.5599 47.2504 24.5698 47.2338 24.5797 47.2173C24.6493 47.1544 24.6625 47.0484 24.6592 46.9557Z" fill="#CEAA96"/>
<path d="M26.4747 47.0253C26.4582 46.9657 26.4449 46.9061 26.435 46.8465C26.4251 46.7902 26.4118 46.7339 26.3953 46.6776C26.3886 46.6511 26.382 46.6213 26.3721 46.5948C26.3555 46.5452 26.329 46.512 26.2959 46.4889C26.2827 46.4392 26.2198 46.426 26.1933 46.4756C26.1933 46.4756 26.1933 46.4789 26.19 46.4789C26.1171 46.5154 26.0939 46.5948 26.0741 46.6776C26.0575 46.7538 26.0542 46.8333 26.0608 46.9094C26.0774 47.0783 26.1039 47.3465 26.2827 47.3962C26.2562 47.3796 26.233 47.3631 26.2065 47.3465C26.2297 47.3763 26.2595 47.3929 26.2959 47.4061C26.3621 47.426 26.435 47.3929 26.4714 47.3266C26.4747 47.3167 26.4747 47.3101 26.4781 47.3002C26.5211 47.2207 26.4979 47.118 26.4747 47.0253Z" fill="#CEAA96"/>
<path d="M27.2129 47.1611C27.193 47.0485 27.1665 46.9359 27.1367 46.8233C27.1036 46.7074 27.0639 46.5982 26.9712 46.5286C26.9314 46.4988 26.885 46.5253 26.8619 46.5617C26.7956 46.6578 26.7956 46.7869 26.799 46.9028C26.8023 47.0187 26.8122 47.1346 26.8254 47.2505C26.8387 47.3664 26.8519 47.4856 26.8817 47.5982C26.8983 47.6611 26.9182 47.724 26.9513 47.777C26.9811 47.8234 27.0175 47.8598 27.0539 47.8995C27.087 47.9393 27.1632 47.936 27.1864 47.8797C27.2062 47.83 27.2327 47.7836 27.246 47.734C27.2625 47.6711 27.2659 47.6048 27.2626 47.5386C27.2592 47.4128 27.2361 47.2836 27.2129 47.1611Z" fill="#CEAA96"/>
<path d="M28.2491 47.469C28.2358 47.3928 28.2193 47.3134 28.2093 47.2372C28.2093 47.2372 28.206 47.214 28.206 47.2074C28.2027 47.1776 28.1994 47.1511 28.1928 47.1213C28.1862 47.0816 28.1795 47.0451 28.1762 47.0054C28.1828 47.0451 28.1696 46.9557 28.1663 46.9425C28.163 46.9226 28.1564 46.9028 28.153 46.8829C28.1431 46.8398 28.1398 46.7935 28.1133 46.7571C28.0769 46.7008 28.0007 46.6743 27.951 46.7339C27.8947 46.8001 27.8749 46.9259 27.8682 47.0154C27.8616 47.1014 27.8616 47.1908 27.8682 47.2769C27.8782 47.3697 27.8848 47.4723 27.908 47.5617C27.9345 47.6677 27.9808 47.8068 28.0868 47.8399C28.1299 47.8531 28.1895 47.8399 28.2193 47.8002C28.2921 47.7107 28.2656 47.5849 28.2491 47.469Z" fill="#CEAA96"/>
<path d="M29.2458 47.3729C29.2292 47.2802 29.2127 47.1875 29.1862 47.0948C29.1729 47.0451 29.1597 46.9921 29.1398 46.9424C29.1232 46.9027 29.0967 46.863 29.0769 46.8232C29.0272 46.7371 28.9179 46.7769 28.9113 46.8729C28.908 46.9192 28.9014 46.9656 28.9014 47.012C28.9014 47.0583 28.908 47.108 28.9113 47.1544C28.9179 47.2438 28.9279 47.3299 28.9345 47.4193C28.9411 47.5087 28.9477 47.5948 28.9577 47.6842C28.9676 47.7935 28.9875 47.906 29.057 47.9921C29.0934 48.0352 29.1696 48.0385 29.206 47.9921C29.3252 47.8199 29.2789 47.5683 29.2458 47.3729Z" fill="#CEAA96"/>
<path d="M30.243 47.7041C30.2396 47.661 30.2363 47.6147 30.2264 47.5749C30.2098 47.5021 30.1933 47.4325 30.1834 47.3597C30.1767 47.3266 30.1734 47.2935 30.1668 47.2603C30.1635 47.2405 30.1602 47.2206 30.1569 47.204C30.1569 47.1974 30.1535 47.1875 30.1535 47.1809C30.1569 47.2074 30.1569 47.1974 30.1502 47.1478C30.1469 47.1146 30.1403 47.0815 30.1337 47.0517C30.1271 47.0153 30.1105 46.9789 30.1039 46.9424C30.0807 46.8232 29.9284 46.8398 29.8986 46.9424C29.8886 46.9756 29.8721 47.012 29.8621 47.0517C29.8522 47.0948 29.8489 47.1477 29.8456 47.1941C29.8423 47.2802 29.8489 47.3663 29.8588 47.4524C29.8688 47.5286 29.8787 47.6047 29.8986 47.6776C29.9118 47.7239 29.9284 47.7703 29.9549 47.81C29.9681 47.8299 29.9814 47.8498 29.9946 47.8696C30.0045 47.8862 30.0178 47.8961 30.031 47.9061C30.0211 47.8994 30.0211 47.8994 30.0343 47.9127C30.0608 47.9425 30.1105 47.959 30.1469 47.9458C30.1569 47.9425 30.1668 47.9392 30.1734 47.9326C30.2098 47.9127 30.2297 47.8663 30.2297 47.8233C30.2297 47.8034 30.2297 47.8034 30.2297 47.8167C30.233 47.8001 30.2363 47.7835 30.2363 47.767C30.2463 47.7405 30.2463 47.7239 30.243 47.7041Z" fill="#CEAA96"/>
<path d="M31.2123 47.6114C31.2024 47.5352 31.1726 47.459 31.1461 47.3862C31.1163 47.3067 31.0898 47.2239 31.0534 47.1478C31.0368 47.1147 31.0169 47.0849 30.9971 47.0551C30.9772 47.0253 30.9573 46.9988 30.9342 46.9756C30.9309 46.9723 30.9276 46.9656 30.9276 46.9623C30.8812 46.8862 30.7686 46.9127 30.7686 47.0087C30.7686 47.0186 30.7686 47.0286 30.7686 47.0385C30.7719 47.0219 30.7785 47.0021 30.7819 46.9855C30.752 47.0517 30.752 47.1478 30.7554 47.2239C30.762 47.3133 30.7785 47.3994 30.7951 47.4888C30.8116 47.5683 30.8282 47.6511 30.858 47.724C30.8779 47.7769 30.9044 47.8332 30.9474 47.8697C30.9772 47.8961 31.0136 47.9127 31.0501 47.9193C31.0832 47.9293 31.1196 47.9193 31.1461 47.8928C31.1726 47.8597 31.1958 47.8266 31.209 47.7869C31.2289 47.7339 31.2223 47.6677 31.2123 47.6114Z" fill="#CEAA96"/>
<path d="M32.0999 47.6743C32.0999 47.661 32.0966 47.6445 32.0966 47.6312C32.09 47.565 32.0801 47.4988 32.0668 47.4359C32.0436 47.32 32.0039 47.2007 31.9575 47.0948C31.9277 47.0286 31.835 46.8597 31.7456 46.916C31.7125 46.9358 31.6992 46.9723 31.686 47.0087C31.6661 47.0683 31.6562 47.1213 31.6529 47.1875C31.6463 47.2868 31.6628 47.3862 31.6728 47.4855C31.6794 47.5484 31.6926 47.6114 31.7059 47.671C31.7125 47.6908 31.7158 47.714 31.7224 47.7339C31.729 47.7571 31.739 47.7802 31.7489 47.8034C31.7456 47.7869 31.7489 47.7902 31.7555 47.8134C31.8019 47.9094 31.8416 48.0154 31.9211 48.0849C31.9112 48.0716 31.8979 48.0617 31.888 48.0485C31.9079 48.0849 31.931 48.1048 31.9641 48.1213C31.9807 48.1313 32.0039 48.1312 32.0171 48.1147C32.0834 48.0286 32.0867 47.9094 32.0966 47.8034C32.0966 47.7902 32.0999 47.7736 32.0999 47.7604C32.1032 47.7339 32.0999 47.7306 32.0933 47.7504C32.0999 47.7273 32.1032 47.7008 32.0999 47.6743Z" fill="#CEAA96"/>
<path d="M32.7889 47.3035C32.7657 47.2339 32.7458 47.1578 32.7094 47.0948C32.6928 47.065 32.6796 47.0385 32.6597 47.0121C32.6432 46.9856 32.6266 46.9657 32.6001 46.9491C32.5902 46.9392 32.577 46.9326 32.5604 46.9293C32.5472 46.9293 32.5438 46.926 32.5372 46.926L32.5405 46.9293C32.5372 46.9293 32.5372 46.926 32.5339 46.926C32.524 46.926 32.5207 46.9226 32.5306 46.926C32.4842 46.9094 32.4346 46.9326 32.418 46.9823C32.4147 46.9856 32.4147 46.9889 32.4081 46.9955C32.3981 47.012 32.3948 47.0286 32.3915 47.0485C32.3882 47.0816 32.3849 47.1015 32.3915 47.1346C32.3948 47.1644 32.4014 47.1909 32.4048 47.2207C32.4081 47.2405 32.4081 47.2405 32.4048 47.214C32.4048 47.2339 32.4081 47.2571 32.4147 47.277C32.418 47.2902 32.4213 47.3035 32.4246 47.32C32.4312 47.3498 32.4379 47.3796 32.4412 47.4127C32.4511 47.4723 32.4644 47.5353 32.4842 47.5949C32.4975 47.6346 32.5107 47.671 32.5273 47.7108C32.5405 47.7472 32.5637 47.7704 32.5869 47.7902C32.6001 47.8068 32.6134 47.8167 32.6332 47.8267C32.6465 47.8399 32.6597 47.8498 32.6763 47.8498C32.6995 47.8498 32.7127 47.8333 32.7227 47.8167C32.7392 47.8068 32.7491 47.7935 32.7591 47.777C32.7756 47.7571 32.7889 47.7373 32.7988 47.7075C32.8054 47.6843 32.8088 47.6644 32.8121 47.6379C32.8154 47.6048 32.8187 47.5717 32.8187 47.5386C32.8253 47.4558 32.8088 47.373 32.7889 47.3035Z" fill="#CEAA96"/>
<path d="M19.4072 46.2747C19.4219 46.2601 19.4256 46.2564 19.4072 46.2747V46.2747Z" fill="#CEAA96"/>
<path d="M19.6592 46.5087C19.6592 46.4723 19.6526 46.4127 19.6526 46.4127C19.6492 46.4027 19.636 46.3663 19.6294 46.3531C19.6161 46.3233 19.6062 46.2968 19.583 46.2703C19.53 46.214 19.4605 46.2239 19.4075 46.2703C19.4042 46.2736 19.4009 46.2769 19.391 46.2835C19.3876 46.2868 19.3843 46.2934 19.381 46.2968C19.3711 46.3067 19.3578 46.3133 19.3512 46.3232C19.338 46.3398 19.328 46.3564 19.3148 46.3762C19.338 46.3431 19.3347 46.3497 19.2982 46.3994C19.2817 46.4259 19.2751 46.4425 19.2618 46.4756C19.2585 46.4855 19.2552 46.4954 19.2519 46.5021C19.2552 46.4988 19.2552 46.4988 19.2552 46.4954C19.2254 46.5749 19.1956 46.6544 19.179 46.7405C19.1625 46.8365 19.1625 46.9425 19.1823 47.0352C19.1989 47.1246 19.2287 47.2273 19.3049 47.2736C19.3413 47.2968 19.4009 47.3034 19.4373 47.2736C19.4804 47.2405 19.5102 47.1875 19.4969 47.1279V47.1908C19.5002 47.1776 19.5002 47.1643 19.5036 47.1511C19.5036 47.1478 19.5036 47.1478 19.5036 47.1478C19.5069 47.1279 19.5069 47.0948 19.5102 47.0782C19.5102 47.0749 19.5102 47.0716 19.5102 47.065C19.5102 47.0352 19.5201 47.0021 19.5234 46.9723C19.5168 47.0253 19.5267 46.959 19.53 46.9491C19.5333 46.9359 19.5367 46.9193 19.54 46.9061C19.5499 46.8696 19.5565 46.8332 19.5665 46.7968C19.5698 46.7835 19.5731 46.7637 19.5797 46.7504C19.583 46.7438 19.5863 46.7339 19.5896 46.7272C19.6095 46.6842 19.6327 46.6378 19.6459 46.5948C19.6493 46.5849 19.6492 46.5749 19.6526 46.565C19.6559 46.5385 19.6559 46.5286 19.6592 46.5219C19.6559 46.5153 19.6592 46.5153 19.6592 46.5087Z" fill="#CEAA96"/>
<path d="M19.6297 46.3541C19.6257 46.346 19.6297 46.346 19.6297 46.3541V46.3541Z" fill="#CEAA96"/>
<path d="M25.6593 46.565C25.6593 46.5683 25.6593 46.5716 25.656 46.5749C25.6527 46.5517 25.656 46.5286 25.6461 46.5054C25.6295 46.4623 25.5997 46.4259 25.5666 46.3994C25.5302 46.363 25.4772 46.3431 25.4375 46.3464C25.411 46.3497 25.3845 46.353 25.3613 46.3663C25.315 46.3928 25.2752 46.4358 25.2487 46.4888C25.209 46.5683 25.1825 46.661 25.1759 46.7604C25.1692 46.8464 25.1792 46.9425 25.1991 47.0286C25.2123 47.0849 25.2256 47.1345 25.2487 47.1875C25.2554 47.2041 25.262 47.2206 25.2719 47.2372C25.2752 47.2471 25.2818 47.2571 25.2852 47.267C25.2918 47.2836 25.3017 47.3001 25.3083 47.3167C25.315 47.3266 25.3249 47.3365 25.3315 47.3465C25.3415 47.3597 25.3514 47.373 25.3613 47.3862C25.3878 47.4127 25.411 47.4226 25.4408 47.4359C25.4872 47.4524 25.5401 47.4259 25.5633 47.3829C25.5898 47.3332 25.5997 47.2604 25.5898 47.1941C25.5865 47.161 25.5766 47.1246 25.5699 47.0915C25.56 47.0352 25.5534 46.9789 25.5468 46.9226C25.5468 46.9061 25.5467 46.8928 25.5501 46.8763C25.5534 46.863 25.5567 46.8498 25.5633 46.8365C25.5699 46.8233 25.5799 46.8067 25.5865 46.7968C25.6229 46.7504 25.656 46.6941 25.656 46.6213C25.656 46.6113 25.656 46.6047 25.656 46.5948C25.6593 46.5848 25.6627 46.5782 25.6593 46.565Z" fill="#CEAA96"/>
<path d="M33.1402 46.3564C33.031 47.2736 31.4746 47.3266 29.6798 47.1213C29.5838 47.1147 29.4911 47.1014 29.395 47.0915C27.9314 46.9028 26.3552 46.5683 25.3187 46.4027C25.2425 46.3862 25.1763 46.3762 25.1068 46.3696C24.822 46.3266 24.5869 46.3034 24.4213 46.3034C23.7425 46.3034 22.6828 46.3299 21.5536 46.3498C21.4576 46.3498 21.3616 46.3498 21.2622 46.3531C20.5967 46.3597 19.9211 46.363 19.2886 46.3564C19.1893 46.3564 19.0866 46.3564 18.9906 46.3531C18.5071 46.3464 18.0568 46.3299 17.6727 46.3034C15.8084 46.1742 16.9806 28.8854 17.6727 26.2595C18.3648 23.6335 25.4677 18.524 25.4677 18.524C25.4677 18.524 26.034 18.5274 26.9578 18.534C27.2029 18.534 27.4777 18.5373 27.7691 18.5373C28.4579 18.5439 29.2659 18.5538 30.1368 18.5572C30.3454 18.5605 30.5573 18.5605 30.7726 18.5638C31.9746 18.5704 33.2694 18.5837 34.5244 18.5903C34.786 18.5936 35.0542 18.5936 35.3125 18.5969C35.9053 18.6002 36.4881 18.6035 37.0411 18.6068C37.3159 18.6101 37.5775 18.6135 37.8325 18.6135C39.8326 18.63 41.3095 18.6399 41.4485 18.6433C40.9916 18.6433 34.7661 25.2925 33.1402 26.276C31.511 27.2595 33.372 44.3828 33.1402 46.3564Z" fill="#40547B"/>
<path d="M26.954 18.5339C26.7255 18.7227 26.5003 18.9147 26.2784 19.1068C25.5135 19.7658 24.7718 20.4545 24.0565 21.1731C22.6359 22.6003 21.2848 24.1335 20.0927 25.7958C19.4967 26.6303 19.0927 27.5409 18.894 28.5873C18.6953 29.6404 18.6589 30.7331 18.6126 31.8027C18.5132 34.1969 18.5165 36.5943 18.5827 38.9918C18.6192 40.313 18.6721 41.6376 18.7483 42.9555C18.8145 44.088 18.8775 45.2238 18.9934 46.3497C19.0496 46.353 19.2516 46.3729 19.2715 46.3497C19.2848 46.3331 19.2881 46.161 19.2848 46.161C19.2616 45.2338 19.2053 44.3066 19.1622 43.3794C19.1126 42.227 19.0596 41.078 19.0232 39.9256C18.9437 37.5944 18.9205 35.2565 18.99 32.922C19.0198 31.7994 19.053 30.6636 19.1755 29.5477C19.2881 28.5046 19.5364 27.4846 20.0696 26.6071C20.5961 25.7462 21.2683 24.9779 21.914 24.2295C22.5664 23.4745 23.2353 22.7361 23.924 22.0275C24.6989 21.2327 25.5036 20.4711 26.3314 19.7426C26.7487 19.375 27.1725 19.0207 27.603 18.673C27.6626 18.6267 27.7156 18.5836 27.7752 18.5372C27.4739 18.5372 27.2023 18.5339 26.954 18.5339Z" fill="#CEAA96"/>
<path d="M30.1363 18.5571C30.0634 18.6399 30.0005 18.7227 29.9343 18.8088C29.368 19.5572 28.8548 20.332 28.2355 21.0374C27.0103 22.4315 25.603 23.6269 24.3777 25.0243C23.136 26.4449 22.1525 28.0907 21.8545 30.0742C21.6657 31.3292 21.6657 32.6173 21.6227 33.8889C21.5796 35.2135 21.5333 36.538 21.4902 37.8626C21.4438 39.356 21.3942 40.8495 21.3511 42.3462C21.3312 43.0913 21.3114 43.8397 21.2915 44.5881C21.2816 45.0815 21.2617 45.8596 21.265 46.353C21.265 46.353 21.3478 46.353 21.3909 46.353C21.4438 46.353 21.5399 46.353 21.5399 46.3563C21.5266 46.3696 21.5763 46.3332 21.5564 46.3464C21.6624 45.2404 21.6723 44.1079 21.7154 43.0052C21.7651 41.7104 21.8213 40.4223 21.8644 39.1276C21.9107 37.8328 21.9604 36.5447 22.0068 35.2499C22.0498 33.9618 22.073 32.6703 22.1558 31.3855C22.2286 30.2696 22.4075 29.1669 22.8512 28.1503C23.2088 27.3323 23.6956 26.5939 24.2387 25.9151C25.3712 24.5044 26.7322 23.3421 27.9673 22.0473C28.6726 21.3089 29.3051 20.5175 29.9045 19.6698C30.1727 19.2856 30.4508 18.9015 30.7687 18.5704C30.5535 18.5604 30.3416 18.5604 30.1363 18.5571Z" fill="#CEAA96"/>
<path d="M34.524 18.5902C34.4214 18.6995 34.3187 18.8088 34.2161 18.9147C33.8551 19.279 33.4975 19.6499 33.1432 20.0207C32.4544 20.7426 31.7722 21.4811 31.1067 22.2294C30.4378 22.9811 29.7755 23.7461 29.1364 24.5275C28.5337 25.2561 27.9575 26.0276 27.5601 26.9151C27.1561 27.8091 26.9111 28.7761 26.7091 29.743C26.4939 30.7927 26.3018 31.8457 26.1362 32.9021C25.8018 35.0379 25.5435 37.187 25.3581 39.3461C25.1627 41.6607 25.0898 46.3563 25.0898 46.3563C25.0898 46.3563 25.2852 46.3994 25.3216 46.3994C25.5038 42.2204 25.7786 37.9785 26.4376 33.8458C26.6065 32.7895 26.7886 31.7365 26.9906 30.6868C27.176 29.7265 27.3681 28.7595 27.6893 27.8423C28.3483 25.9581 29.7523 24.5507 31.0106 23.1368C31.7656 22.289 32.5306 21.4612 33.3087 20.6466C33.6962 20.2393 34.0803 19.8419 34.4743 19.4479C34.7492 19.1664 35.0605 18.9048 35.3155 18.5968C35.0539 18.5968 34.7856 18.5968 34.524 18.5902Z" fill="#CEAA96"/>
<path d="M37.8322 18.6167C37.7627 18.683 37.6965 18.7525 37.6302 18.822C37.266 19.2028 36.9017 19.587 36.5441 19.9777C35.8255 20.7559 35.1268 21.5539 34.4612 22.3851C33.2989 23.8421 32.2426 25.4117 31.4412 27.1469C30.5604 29.0543 30.1034 31.1073 29.9213 33.2299C29.8253 34.3724 29.7888 35.5214 29.759 36.6672C29.7259 37.8626 29.6829 39.0646 29.663 40.2634C29.62 42.5482 29.6862 44.8331 29.6796 47.118C29.5835 47.1113 29.4908 47.0981 29.3948 47.0882C29.3186 45.8431 29.3054 44.5914 29.2855 43.3463C29.259 41.9754 29.2524 40.6077 29.2391 39.2368C29.2259 38.0315 29.2491 36.8294 29.2822 35.6307C29.312 34.475 29.3716 33.3194 29.5107 32.1736C29.7623 30.0808 30.3418 28.0973 31.269 26.2495C32.1399 24.5143 33.2592 22.9381 34.4679 21.4712C35.0871 20.7261 35.7262 20.0108 36.3818 19.3055C36.6004 19.0737 36.8189 18.8386 37.0375 18.6101C37.3123 18.6134 37.5773 18.6167 37.8322 18.6167Z" fill="#CEAA96"/>
<path d="M48.7013 9.45068H47.0654V13.3283H48.7013V9.45068Z" fill="#5A2F24"/>
<path d="M55.3305 10.3812C54.6451 10.6197 40.8365 11.0965 40.3795 10.3812C40.2703 10.2157 40.3398 9.60968 40.5153 8.76859C40.608 8.32817 40.7305 7.82153 40.8762 7.27846C41.6213 4.46708 42.9061 0.725197 43.3465 0.264912C43.3465 0.264912 52.0191 -0.33114 52.592 0.264912C52.9496 0.6391 54.208 4.43727 54.9265 7.27183C55.0623 7.8149 55.1815 8.32155 55.2709 8.76196C55.453 9.68916 55.5027 10.3216 55.3305 10.3812Z" fill="#CEAA96"/>
<path d="M55.2679 8.7653C50.4597 9.45738 45.5456 9.48056 40.5156 8.76861C40.6083 8.32819 40.7309 7.82154 40.8766 7.27847C45.5622 8.02023 50.2445 8.01692 54.9269 7.27185C55.0626 7.81823 55.1818 8.32488 55.2679 8.7653Z" fill="#1F7173"/>
<path d="M45.8664 11.6396C45.8664 11.6396 42.8961 16.769 42.959 18.2691C43.0186 19.7691 43.0683 20.395 44.3133 21.5209C45.5584 22.6467 49.7242 22.766 50.9925 22.0805C52.2607 21.395 54.2409 19.4546 52.5621 16.0802C51.8468 14.6464 49.9593 11.6396 49.9593 11.6396H45.8664Z" fill="#CC974D"/>
</svg>
