<svg width="43" height="42" viewBox="0 0 43 42" fill="none" xmlns="http://www.w3.org/2000/svg">
<path d="M21.4998 8.66248L17.7373 16.0125L21.4998 25.9L32.8748 20.3875V8.66248H21.4998Z" fill="#204F7D"/>
<path d="M10.125 8.66248V20.3875L21.5 25.9V8.66248H10.125Z" fill="#5D9ED3"/>
<path d="M10.125 8.6625L21.5 13.65L32.875 8.6625L21.5 4.375L10.125 8.6625Z" fill="#5D9ED3"/>
<path d="M36.1125 13.9999C35.2375 14.1749 34.625 14.9624 34.625 15.8374V23.6249L32.35 27.5624L33.4875 25.4625C33.925 24.6749 33.75 23.7124 33.05 23.1874C32.175 22.4874 30.95 22.7499 30.425 23.7125L26.575 30.7125C26.05 31.5875 25.7875 32.6375 25.7875 33.6875V37.625H32.7875V35L37.425 26.5124C37.8625 25.7249 38.0375 24.8499 38.0375 23.9749V15.7499C38.125 14.6999 37.1625 13.8249 36.1125 13.9999ZM6.8875 13.9999C7.7625 14.1749 8.375 14.9624 8.375 15.8374V23.6249L10.65 27.5624L9.5125 25.4625C9.075 24.6749 9.25 23.7124 9.95 23.1874C10.825 22.4874 12.05 22.7499 12.575 23.7125L16.425 30.7125C16.95 31.5875 17.2125 32.6375 17.2125 33.6875V37.625H10.2125V35L5.575 26.5124C5.1375 25.8124 4.875 24.9374 4.875 24.0624V15.7499C4.875 14.6999 5.8375 13.8249 6.8875 13.9999Z" fill="#FFB74D"/>
<path d="M34.0125 26.6875C34.45 26.25 34.625 25.6375 34.625 25.025V23.625L29.9 31.5L34.0125 26.6875ZM8.9875 26.6875C8.6375 26.25 8.375 25.6375 8.375 25.025V23.625L13.1 31.5L8.9875 26.6875Z" fill="#FF9800"/>
<path d="M33.0505 24.9375C32.788 25.55 32.263 25.2875 31.6505 25.025C31.038 24.7625 30.688 24.4125 30.9505 23.8875C31.213 23.275 32.0005 23.1 32.5255 23.3625C33.138 23.625 33.4005 24.325 33.0505 24.9375ZM9.95046 24.9375C10.213 25.55 10.738 25.2875 11.3505 25.025C11.963 24.7625 12.313 24.4125 12.0505 23.8875C11.788 23.275 11.0005 23.1 10.4755 23.3625C9.95046 23.625 9.60046 24.325 9.95046 24.9375Z" fill="#FFCC80"/>
</svg>
