<svg width="45" height="44" viewBox="0 0 45 44" fill="none" xmlns="http://www.w3.org/2000/svg">
<path d="M35.4834 26.8833C32.0501 30.3 27.1334 31.35 22.8167 30L14.9667 37.8333C14.4001 38.4167 13.2834 38.7667 12.4834 38.65L8.85008 38.15C7.65008 37.9833 6.53341 36.85 6.35008 35.65L5.85008 32.0167C5.73341 31.2167 6.11675 30.1 6.66675 29.5333L14.5001 21.7C13.1667 17.3667 14.2001 12.45 17.6334 9.03333C22.5501 4.11666 30.5334 4.11666 35.4668 9.03333C40.4001 13.95 40.4001 21.9667 35.4834 26.8833Z" stroke="#4E4E4E" stroke-width="2" stroke-miterlimit="10" stroke-linecap="round" stroke-linejoin="round"/>
<path d="M13.9834 31.15L17.8167 34.9834" stroke="#4E4E4E" stroke-width="2" stroke-miterlimit="10" stroke-linecap="round" stroke-linejoin="round"/>
<path d="M26.667 20.3334C28.0477 20.3334 29.167 19.2141 29.167 17.8334C29.167 16.4527 28.0477 15.3334 26.667 15.3334C25.2863 15.3334 24.167 16.4527 24.167 17.8334C24.167 19.2141 25.2863 20.3334 26.667 20.3334Z" stroke="#4E4E4E" stroke-width="2" stroke-linecap="round" stroke-linejoin="round"/>
</svg>
