<svg width="20" height="20" viewBox="0 0 20 20" fill="none" xmlns="http://www.w3.org/2000/svg">
<path d="M9.97363 1.10388C12.4487 1.10393 14.6916 2.09497 16.3301 3.70056C16.3561 3.72056 16.3815 3.74211 16.4053 3.76599C16.4284 3.7892 16.4493 3.81394 16.4688 3.83923C18.0696 5.47675 19.0575 7.71613 19.0576 10.1869C19.0576 12.6648 18.0631 14.9093 16.4541 16.5482C16.4379 16.5682 16.4238 16.5902 16.4053 16.6088C16.3866 16.6275 16.3648 16.6422 16.3447 16.6586C14.705 18.273 12.4563 19.2708 9.97363 19.2709C4.95722 19.2707 0.890669 15.2033 0.890625 10.1869C0.890801 5.17056 4.9573 1.10406 9.97363 1.10388ZM5.16895 16.0531C6.47705 17.126 8.14992 17.7708 9.97363 17.7709C11.7996 17.7708 13.4742 17.1244 14.7832 16.0492L12.5908 13.8636C11.8579 14.3813 10.9646 14.6869 9.99902 14.6869C9.02288 14.6869 8.12021 14.3751 7.38281 13.847L5.16895 16.0531ZM4.1084 5.37927C3.03464 6.68768 2.3907 8.36223 2.39062 10.1869C2.39064 12.0113 3.03501 13.6851 4.1084 14.9935L6.32422 12.7836C5.80489 12.0499 5.49902 11.1542 5.49902 10.1869C5.49907 9.21909 5.8053 8.32311 6.3252 7.58923L4.1084 5.37927ZM13.6553 7.56482C14.1858 8.30321 14.499 9.20829 14.499 10.1869C14.499 11.1652 14.1854 12.0697 13.6553 12.808L15.8428 14.9877C16.9137 13.68 17.5576 12.0088 17.5576 10.1869C17.5575 8.36443 16.9134 6.69284 15.8418 5.38513L13.6553 7.56482ZM9.99902 7.18689C8.34225 7.18689 6.99916 8.53015 6.99902 10.1869C6.99902 11.8437 8.34217 13.1869 9.99902 13.1869C11.6559 13.1869 12.999 11.8437 12.999 10.1869C12.9989 8.53015 11.6558 7.18689 9.99902 7.18689ZM9.97363 2.60388C8.15054 2.60396 6.47783 3.24761 5.16992 4.3197L7.38281 6.52673C8.12017 5.99878 9.02298 5.68689 9.99902 5.68689C10.9643 5.68689 11.858 5.99181 12.5908 6.50916L14.7822 4.32361C13.4735 3.24918 11.799 2.60392 9.97363 2.60388Z" fill="#161618"/>
</svg>
