<svg width="18" height="18" viewBox="0 0 18 18" fill="none" xmlns="http://www.w3.org/2000/svg">
<path d="M4.91903 11.5274C4.99292 11.5277 5.06613 11.5132 5.13437 11.4849C5.20262 11.4566 5.26454 11.4149 5.31653 11.3624C5.42114 11.2566 5.4798 11.1137 5.4798 10.9649C5.4798 10.8161 5.42114 10.6733 5.31653 10.5674L3.79403 9.04492L5.31653 7.52242C5.37276 7.47117 5.41801 7.40904 5.44954 7.3398C5.48107 7.27056 5.49822 7.19564 5.49997 7.11958C5.50171 7.04352 5.488 6.96789 5.45968 6.89728C5.43135 6.82666 5.389 6.76253 5.33517 6.70875C5.28135 6.65498 5.21718 6.61269 5.14654 6.58443C5.0759 6.55617 5.00026 6.54253 4.9242 6.54435C4.84813 6.54616 4.77323 6.56339 4.70402 6.59499C4.63481 6.62658 4.57272 6.67189 4.52153 6.72817L2.60078 8.64742C2.49617 8.75327 2.4375 8.8961 2.4375 9.04492C2.4375 9.19374 2.49617 9.33657 2.60078 9.44242L4.52153 11.3647C4.5737 11.4168 4.6357 11.458 4.70394 11.4859C4.77218 11.5139 4.84529 11.528 4.91903 11.5274Z" fill="#CF142B"/>
<path d="M3.05078 9.60742H10.6783C10.8272 9.60644 10.9697 9.54686 11.0749 9.44158C11.1802 9.33631 11.2398 9.1938 11.2408 9.04492C11.2398 8.89604 11.1802 8.75354 11.0749 8.64826C10.9697 8.54298 10.8272 8.4834 10.6783 8.48242H3.05078C2.9019 8.4834 2.7594 8.54298 2.65412 8.64826C2.54884 8.75354 2.48926 8.89604 2.48828 9.04492C2.48926 9.1938 2.54884 9.33631 2.65412 9.44158C2.7594 9.54686 2.9019 9.60644 3.05078 9.60742Z" fill="#CF142B"/>
<path d="M9.17969 15.5625C10.0521 15.6027 10.9234 15.4604 11.7378 15.1448C12.5521 14.8292 13.2917 14.3472 13.9093 13.7297C14.5269 13.1121 15.0089 12.3725 15.3245 11.5581C15.6401 10.7437 15.7823 9.87251 15.7422 9.00004C15.7823 8.12758 15.6401 7.25634 15.3245 6.44197C15.0089 5.6276 14.5269 4.888 13.9093 4.27042C13.2917 3.65285 12.5521 3.17087 11.7378 2.85527C10.9234 2.53968 10.0521 2.39741 9.17969 2.43754C9.03081 2.43853 8.8883 2.49811 8.78303 2.60338C8.67775 2.70866 8.61817 2.85116 8.61719 3.00004C8.61817 3.14893 8.67775 3.29143 8.78303 3.39671C8.8883 3.50198 9.03081 3.56156 9.17969 3.56254C9.90268 3.52889 10.6247 3.64649 11.2997 3.90785C11.9746 4.1692 12.5876 4.56854 13.0994 5.08033C13.6112 5.59212 14.0105 6.20509 14.2719 6.88004C14.5332 7.55498 14.6508 8.27705 14.6172 9.00004C14.6508 9.72304 14.5332 10.4451 14.2719 11.1201C14.0105 11.795 13.6112 12.408 13.0994 12.9198C12.5876 13.4316 11.9746 13.8309 11.2997 14.0922C10.6247 14.3536 9.90268 14.4712 9.17969 14.4375C9.0305 14.4375 8.88743 14.4968 8.78194 14.6023C8.67645 14.7078 8.61719 14.8509 8.61719 15C8.61719 15.1492 8.67645 15.2923 8.78194 15.3978C8.88743 15.5033 9.0305 15.5625 9.17969 15.5625Z" fill="#CF142B"/>
</svg>
