<svg width="42" height="42" viewBox="0 0 42 42" fill="none" xmlns="http://www.w3.org/2000/svg">
<path d="M25.375 6.99738C25.375 8.93113 23.8061 10.5 21.8776 10.5C19.9439 10.5 18.375 8.93113 18.375 6.99738C18.375 5.06888 19.9439 3.5 21.8776 3.5C23.8061 3.5 25.375 5.06888 25.375 6.99738Z" fill="#FFB74D"/>
<path d="M35.875 16.625H22.75V28.875H35.875V16.625Z" fill="#FF9800"/>
<path d="M28 16.625H30.625V21.875H28V16.625Z" fill="#FFB74D"/>
<path d="M17.0625 38.5009C16.1464 38.5009 15.2933 37.9208 14.987 37.0046L12.362 29.1296C11.9796 27.9825 12.5991 26.7435 13.7454 26.362C14.8943 25.9814 16.1306 26.6 16.513 27.7454L19.138 35.6204C19.5204 36.7675 18.9009 38.0065 17.7547 38.388C17.5245 38.4641 17.2918 38.5009 17.0625 38.5009Z" fill="#204F7D"/>
<path d="M28.6003 19.5116L23.2855 16.6495C23.2855 16.6495 19.3095 12.0409 19.0811 11.7845C18.3706 10.9909 17.3364 10.5 16.1875 10.5C14.9949 10.5 13.9396 11.0416 13.2169 11.879L13.2011 11.8702L7 19.8643C6.92125 19.9631 6.83725 20.0567 6.76813 20.1626L6.73137 20.2099L6.73925 20.216C6.356 20.825 6.125 21.5399 6.125 22.3125C6.125 23.3126 6.46275 24.262 7.10938 24.9235C7.1505 24.9655 12.25 29.4901 12.25 29.4901L7.54075 34.8714C6.74538 35.7805 6.83725 37.163 7.74637 37.9584C8.162 38.3224 8.67562 38.5 9.18662 38.5C9.79562 38.5 10.402 38.2471 10.8342 37.7528L16.9592 30.7528C17.6488 29.9644 17.6829 28.7963 17.0398 27.9685L13.125 22.7465L17.5 17.5L20.4654 20.1005L26.5256 23.3634C26.8546 23.541 27.2107 23.625 27.5607 23.625C28.3395 23.625 29.0938 23.2076 29.4884 22.4753C30.0606 21.4113 29.6634 20.0839 28.6003 19.5116Z" fill="#5D9ED3"/>
</svg>
