<svg width="30" height="31" viewBox="0 0 30 31" fill="none" xmlns="http://www.w3.org/2000/svg">
<path d="M15.2476 11.5752H13.257V8.76575H15.2476C15.7746 8.76575 16.184 8.89281 16.4758 9.14693C16.777 9.39163 16.9276 9.73516 16.9276 10.1775C16.9276 10.6293 16.777 10.9775 16.4758 11.2222C16.184 11.4575 15.7746 11.5752 15.2476 11.5752Z" fill="#1A6FB3"/>
<path d="M16.7158 15.5563C16.4052 15.8199 15.977 15.9516 15.4311 15.9516H13.257V12.8881H15.3746C15.9205 12.8881 16.3582 13.0293 16.6876 13.3116C17.017 13.594 17.1817 13.9752 17.1817 14.4552C17.1817 14.9258 17.0264 15.2928 16.7158 15.5563Z" fill="#1A6FB3"/>
<path fill-rule="evenodd" clip-rule="evenodd" d="M4.41211 11.9409C4.41211 6.11912 9.15125 1.38232 14.973 1.38232C20.7948 1.38232 25.534 6.11912 25.534 11.9409C25.534 18.6819 19.1076 25.2133 15.6551 28.7221L14.973 29.4183L14.2784 28.7117C10.8259 25.198 4.41211 18.6704 4.41211 11.9409ZM18.2405 13.0575C17.8735 12.5963 17.4264 12.3187 16.8993 12.2246C17.4076 12.0458 17.8123 11.7681 18.1135 11.3916C18.4146 11.0152 18.5652 10.5446 18.5652 9.97987C18.5652 9.50928 18.4429 9.08575 18.1982 8.70928C17.9535 8.3234 17.5911 8.01752 17.1111 7.79163C16.6311 7.56575 16.057 7.45281 15.3888 7.45281H11.6476V17.2646H15.5723C16.2217 17.2646 16.7911 17.1516 17.2805 16.9258C17.7699 16.6905 18.1417 16.3752 18.3958 15.9799C18.6593 15.5752 18.7911 15.1234 18.7911 14.6246C18.7911 14.041 18.6076 13.5187 18.2405 13.0575Z" fill="#1A6FB3"/>
</svg>
