<svg width="49" height="32" viewBox="0 0 49 32" fill="none" xmlns="http://www.w3.org/2000/svg">
<mask id="mask0_571_16" style="mask-type:alpha" maskUnits="userSpaceOnUse" x="0" y="0" width="49" height="32">
<path d="M0.304688 4C0.304688 1.79086 2.09555 0 4.30469 0H45.0003C47.2095 0 49.0003 1.79086 49.0003 4V28C49.0003 30.2091 47.2095 32 45.0003 32H4.30469C2.09555 32 0.304688 30.2091 0.304688 28V4Z" fill="#D9D9D9"/>
</mask>
<g mask="url(#mask0_571_16)">
<path d="M0.308594 21.5059H49.0014V32.461H0.308594V21.5059Z" fill="black"/>
<path d="M0.308594 0H49.0014V10.9564H0.308594V0Z" fill="#CD0E26"/>
<path d="M0.304688 10.9565H49.0003V21.506H0.304688V10.9565Z" fill="white"/>
<path d="M30.4117 12.9946L30.4146 12.996C30.4369 13.0127 30.4563 13.0211 30.4732 13.0211C30.4799 13.0211 30.4864 13.0194 30.4922 13.0162C30.4981 13.013 30.503 13.0085 30.5067 13.0029C30.529 12.9764 30.5374 12.9163 30.4702 12.6564C30.3838 12.3251 30.3223 12.1938 30.174 12.216C30.0814 12.2301 30.0678 12.2846 30.0762 12.388C30.0846 12.5179 30.3027 12.9149 30.4117 12.9946ZM29.8975 13.7606L29.9005 13.7621C29.9953 13.8013 30.0962 13.8194 30.1913 13.8194C30.3732 13.8194 30.5408 13.7508 30.6635 13.625C30.7113 13.5762 30.7387 13.5593 30.7861 13.5593C30.8225 13.5593 30.8729 13.5691 30.9458 13.5858C31.111 13.6234 31.2004 13.6222 31.3008 13.5801C31.3934 13.5425 31.4658 13.4641 31.505 13.3608C31.527 13.3033 31.5371 13.2419 31.5347 13.1804C31.5324 13.1189 31.5175 13.0585 31.4911 13.0029C31.4602 12.9429 31.4155 12.9037 31.3792 12.9037C31.3724 12.9036 31.3657 12.9049 31.3594 12.9075C31.3532 12.9101 31.3476 12.9141 31.343 12.919C31.3289 12.9358 31.3261 12.9609 31.3318 12.996C31.3457 13.0658 31.2006 13.3134 31.1306 13.3426C31.1274 13.3426 31.1247 13.344 31.1135 13.344C31.0634 13.344 30.9709 13.3203 30.8815 13.2868L30.6746 13.2072C30.6707 13.2059 30.6665 13.2057 30.6626 13.2067C30.6586 13.2077 30.655 13.2098 30.6521 13.2127L30.504 13.3791C30.3729 13.5245 30.2385 13.586 30.0457 13.586C29.9924 13.586 29.934 13.5803 29.8666 13.5707C29.7941 13.5595 29.7547 13.5554 29.7296 13.5554C29.7157 13.5554 29.6877 13.5554 29.6763 13.5764C29.6679 13.5974 29.6847 13.6197 29.7016 13.6379C29.7323 13.6755 29.8191 13.7284 29.8975 13.7606ZM32.7041 12.5696C32.6649 12.5696 32.6287 12.6227 32.5701 12.7121L32.5615 12.7275C32.5113 12.803 32.3407 12.9805 32.1786 13.1216C32.1647 13.1329 31.877 13.3886 31.877 13.4529C31.877 13.4948 31.9357 13.5732 31.989 13.6249L32.0893 13.72V17.9039H31.5362V15.8669C31.5362 15.0939 31.5308 13.794 31.4914 13.7674C31.4873 13.7644 31.4825 13.7626 31.4775 13.7619C31.4159 13.7619 31.1814 14.019 31.1559 14.0484C31.0048 14.2134 30.8232 14.3895 30.7478 14.4399C30.6495 14.5069 30.5773 14.637 30.5965 14.7069C30.6049 14.7348 30.63 14.7516 30.6607 14.7516C30.6719 14.7516 30.7109 14.7739 30.7501 14.8173C30.8032 14.8733 30.8116 15.1108 30.8116 16.4012V17.9041H30.261V16.4432C30.261 16.049 30.2555 15.6771 30.2498 15.3963C30.2385 14.9392 30.2303 14.9392 30.205 14.9392C30.1655 14.9392 29.945 15.1782 29.8807 15.2509C29.7326 15.4145 29.5453 15.5948 29.4694 15.6451C29.3716 15.7108 29.316 15.7989 29.3267 15.873C29.3322 15.9218 29.3663 15.9596 29.422 15.9778C29.5145 16.01 29.5421 16.1344 29.5254 16.4685L29.514 16.7214L29.3183 16.7077C29.0218 16.6881 28.765 16.7691 28.5858 16.9397C28.3539 17.1619 28.2898 17.3953 28.2675 18.076C28.2675 18.0816 28.2675 18.0873 28.2728 18.0928L28.2474 18.6659C28.2445 18.6716 28.2474 18.6771 28.2529 18.6812C28.2545 18.6833 28.2567 18.6851 28.2591 18.6863C28.2616 18.6875 28.2642 18.6881 28.267 18.6881H32.793C32.8042 18.6881 32.8122 18.6783 32.8122 18.6671V15.4744C32.8122 14.3002 32.8122 13.5928 32.801 13.161C32.7908 12.6549 32.7629 12.5696 32.7041 12.5696ZM28.9803 17.9039V17.7667C28.9803 17.5461 29.1761 17.3445 29.3885 17.3445H29.5336V17.9039H28.9803ZM35.1393 17.6956C35.1338 17.6915 35.1281 17.6872 35.114 17.6872C35.0748 17.6872 34.9882 17.7417 34.9239 17.7877C34.7813 17.8939 34.7343 17.9037 34.3593 17.9037H33.965V16.306C33.965 14.876 33.965 14.876 34.1439 14.7585L34.1578 14.7487C34.1774 14.7361 34.1972 14.7193 34.1997 14.6928C34.2025 14.6466 34.1521 14.5909 33.9983 14.4481C33.8496 14.3056 33.706 14.1577 33.5678 14.0049C33.5006 13.9296 33.3721 13.7995 33.3163 13.7995C33.3078 13.7995 33.3023 13.8023 33.2939 13.805C33.2688 13.8232 33.2406 13.8428 33.2406 16.2582L33.2378 16.2597V18.6684C33.2378 18.6739 33.2406 18.6796 33.2461 18.6837C33.2492 18.6876 33.2545 18.6894 33.26 18.6894L34.9429 18.6639C34.9542 18.6639 34.9622 18.6555 34.9652 18.6457L34.9909 18.3898C35.0044 18.2516 35.0493 18.0502 35.0912 17.9424C35.1113 17.8927 35.1671 17.7291 35.1393 17.6956ZM16.8134 19.0991C16.8105 19.0948 16.8048 19.0919 16.7964 19.0919C16.7937 19.0919 16.791 19.0926 16.7886 19.0938C16.7862 19.095 16.7841 19.0968 16.7825 19.0991L16.2485 19.6736C16.2465 19.6755 16.2449 19.6777 16.2438 19.6803C16.2427 19.6828 16.2422 19.6855 16.2422 19.6883C16.2422 19.691 16.2427 19.6937 16.2438 19.6963C16.2449 19.6988 16.2465 19.7011 16.2485 19.703L16.5142 19.9924C16.5142 19.9924 16.5142 19.9952 16.517 19.9952L16.777 20.2817C16.7799 20.2858 16.7882 20.2887 16.7938 20.2887C16.7965 20.2887 16.7991 20.2881 16.8015 20.2869C16.804 20.2857 16.8061 20.2839 16.8077 20.2817L17.3417 19.7087C17.3457 19.7046 17.348 19.6991 17.348 19.6933C17.348 19.6876 17.3457 19.6821 17.3417 19.678L16.8134 19.0991ZM25.7401 17.7362C25.7095 17.7362 25.6674 17.7585 25.5696 17.8201C25.4074 17.9237 25.3403 17.9376 24.9856 17.9376H24.6027V16.3468C24.6027 14.9211 24.6027 14.9211 24.7816 14.8036L24.7953 14.7938C24.8149 14.7826 24.8349 14.7658 24.8372 14.7379C24.8401 14.6931 24.7895 14.6374 24.6389 14.4946C24.4893 14.3539 24.3457 14.207 24.2084 14.0543C24.1412 13.9789 24.0125 13.8503 23.9567 13.8503C23.9489 13.8498 23.941 13.8517 23.9343 13.8558C23.912 13.8725 23.8785 13.8936 23.8785 16.3021V18.6995C23.8785 18.7051 23.8814 18.7108 23.8869 18.7149C23.8897 18.7188 23.8953 18.7204 23.9008 18.7204L25.5787 18.6951C25.5812 18.6951 25.5838 18.6947 25.5861 18.6937C25.5885 18.6927 25.5906 18.6913 25.5924 18.6895C25.5942 18.6877 25.5956 18.6855 25.5965 18.6831C25.5974 18.6807 25.5978 18.6782 25.5978 18.6757L25.6257 18.4226C25.6396 18.2827 25.6815 18.0914 25.7182 17.996C25.7822 17.8339 25.7938 17.7822 25.774 17.7544C25.7702 17.7489 25.7651 17.7444 25.7592 17.7412C25.7534 17.7381 25.7468 17.7363 25.7401 17.7362Z" fill="#03793B"/>
<path d="M22.5042 14.8605C22.5013 14.8591 22.4958 14.8591 22.4958 14.8591C22.4062 14.8591 21.6486 15.4391 21.5145 15.5929C21.5116 15.5972 21.5089 15.6013 21.5089 15.607V16.6108H19.0067C19.3561 16.092 21.2236 13.3719 21.3607 13.2769C21.4669 13.2728 21.5257 13.2518 21.5535 13.2099C21.5759 13.1692 21.5704 13.1147 21.5312 13.0324C21.4781 12.9135 21.425 12.6997 21.3552 12.3153C21.3496 12.2818 21.3272 12.1742 21.2769 12.1742C21.263 12.1756 21.2547 12.1756 19.5156 14.7058C18.6685 15.9388 17.7543 17.2722 17.6929 17.3674C17.69 17.3743 17.69 17.3827 17.6929 17.3897C17.6957 17.3966 17.7041 17.4009 17.7125 17.4009H22.1604C22.1663 17.4007 22.1719 17.3984 22.176 17.3942C22.1802 17.3901 22.1826 17.3845 22.1827 17.3786V15.9053L22.4623 15.6747L22.7333 15.8565V17.9378H17.4746V17.2222C17.4746 16.4614 17.4354 16.4614 17.4159 16.4614C17.3488 16.4614 17.1112 16.8111 17.0804 16.9032C17.0692 16.9381 16.9769 17.0374 16.8623 17.124C16.7532 17.2065 16.6358 17.2959 16.5994 17.3239C16.5267 17.3809 16.5406 17.4162 16.5994 17.5137C16.6358 17.5737 16.6944 17.6995 16.7308 17.7947L16.7839 17.9373C16.4232 17.9317 16.0431 17.9109 15.987 17.8827C15.9786 17.7555 15.7689 17.2173 15.7047 17.16C15.6991 17.1537 15.6922 17.1487 15.6845 17.1453C15.6768 17.142 15.6684 17.1403 15.66 17.1404C15.6181 17.1404 15.5789 17.189 15.4978 17.3487C15.4112 17.5262 15.344 17.596 15.207 17.6618C15.1092 17.7095 15.0112 17.7847 15.0112 17.838C15.0112 17.8883 15.0867 18.0028 15.1594 18.0839C15.3608 18.3174 15.439 18.6417 15.3636 18.9311C15.3048 19.1588 15.1568 19.3322 14.9554 19.4049C14.9303 19.4147 14.8912 19.4202 14.8437 19.4202C14.6674 19.4202 14.4101 19.353 14.2704 19.2719C14.2118 19.2384 14.181 19.2397 14.1669 19.2648C14.1614 19.2816 14.1446 19.3179 14.3486 19.5626C14.452 19.6855 14.6086 19.8128 14.7065 19.8506C14.7988 19.8869 14.9162 19.9063 15.0447 19.9063C15.2571 19.9063 15.4585 19.8548 15.5732 19.7707C15.7744 19.6225 15.9198 19.3639 16.0121 19.0006L16.082 18.7183H23.4319C23.4459 18.7183 23.4543 18.7099 23.4543 18.6974V15.6205C23.4544 15.6173 23.4537 15.614 23.4522 15.6111C23.4508 15.6082 23.4486 15.6057 23.4459 15.6038C23.1749 15.3833 22.5405 14.8705 22.5042 14.8605Z" fill="#03793B"/>
</g>
</svg>
