<svg width="18" height="18" viewBox="0 0 18 18" fill="none" xmlns="http://www.w3.org/2000/svg">
<mask id="path-1-inside-1_562_719" fill="white">
<path d="M15.1755 8.66577V7.68689C15.1755 6.04606 14.5237 4.47243 13.3635 3.31218C12.2032 2.15194 10.6296 1.50012 8.98875 1.50012C7.34792 1.50012 5.77429 2.15194 4.61405 3.31218C3.4538 4.47243 2.80198 6.04606 2.80198 7.68689V8.66577C2.08099 8.98325 1.49094 9.53876 1.13061 10.2393C0.770279 10.9399 0.661542 11.743 0.822602 12.5141C0.983662 13.2853 1.40474 13.9777 2.01535 14.4755C2.62596 14.9732 3.38903 15.2461 4.17682 15.2485C4.54145 15.2485 4.89115 15.1036 5.14898 14.8458C5.40681 14.588 5.55166 14.2383 5.55166 13.8737V9.74914C5.55166 9.38451 5.40681 9.03482 5.14898 8.77699C4.89115 8.51916 4.54145 8.37431 4.17682 8.37431V7.68689C4.17682 6.41069 4.68379 5.18675 5.5862 4.28434C6.48861 3.38193 7.71255 2.87496 8.98875 2.87496C10.265 2.87496 11.4889 3.38193 12.3913 4.28434C13.2937 5.18675 13.8007 6.41069 13.8007 7.68689V8.37431C13.436 8.37431 13.0864 8.51916 12.8285 8.77699C12.5707 9.03482 12.4258 9.38451 12.4258 9.74914V13.8737H10.3636C10.1813 13.8737 10.0064 13.9461 9.87751 14.075C9.74859 14.2039 9.67617 14.3788 9.67617 14.5611C9.67617 14.7434 9.74859 14.9182 9.87751 15.0472C10.0064 15.1761 10.1813 15.2485 10.3636 15.2485H13.8007C14.5885 15.2461 15.3515 14.9732 15.9621 14.4755C16.5728 13.9777 16.9938 13.2853 17.1549 12.5141C17.316 11.743 17.2072 10.9399 16.8469 10.2393C16.4866 9.53876 15.8965 8.98325 15.1755 8.66577ZM4.17682 13.8737C3.62988 13.8737 3.10533 13.6564 2.71859 13.2696C2.33184 12.8829 2.11457 12.3583 2.11457 11.8114C2.11457 11.2645 2.33184 10.7399 2.71859 10.3532C3.10533 9.96642 3.62988 9.74914 4.17682 9.74914V13.8737ZM13.8007 13.8737V9.74914C14.3476 9.74914 14.8722 9.96642 15.2589 10.3532C15.6457 10.7399 15.8629 11.2645 15.8629 11.8114C15.8629 12.3583 15.6457 12.8829 15.2589 13.2696C14.8722 13.6564 14.3476 13.8737 13.8007 13.8737Z"/>
</mask>
<path d="M15.1755 8.66577V7.68689C15.1755 6.04606 14.5237 4.47243 13.3635 3.31218C12.2032 2.15194 10.6296 1.50012 8.98875 1.50012C7.34792 1.50012 5.77429 2.15194 4.61405 3.31218C3.4538 4.47243 2.80198 6.04606 2.80198 7.68689V8.66577C2.08099 8.98325 1.49094 9.53876 1.13061 10.2393C0.770279 10.9399 0.661542 11.743 0.822602 12.5141C0.983662 13.2853 1.40474 13.9777 2.01535 14.4755C2.62596 14.9732 3.38903 15.2461 4.17682 15.2485C4.54145 15.2485 4.89115 15.1036 5.14898 14.8458C5.40681 14.588 5.55166 14.2383 5.55166 13.8737V9.74914C5.55166 9.38451 5.40681 9.03482 5.14898 8.77699C4.89115 8.51916 4.54145 8.37431 4.17682 8.37431V7.68689C4.17682 6.41069 4.68379 5.18675 5.5862 4.28434C6.48861 3.38193 7.71255 2.87496 8.98875 2.87496C10.265 2.87496 11.4889 3.38193 12.3913 4.28434C13.2937 5.18675 13.8007 6.41069 13.8007 7.68689V8.37431C13.436 8.37431 13.0864 8.51916 12.8285 8.77699C12.5707 9.03482 12.4258 9.38451 12.4258 9.74914V13.8737H10.3636C10.1813 13.8737 10.0064 13.9461 9.87751 14.075C9.74859 14.2039 9.67617 14.3788 9.67617 14.5611C9.67617 14.7434 9.74859 14.9182 9.87751 15.0472C10.0064 15.1761 10.1813 15.2485 10.3636 15.2485H13.8007C14.5885 15.2461 15.3515 14.9732 15.9621 14.4755C16.5728 13.9777 16.9938 13.2853 17.1549 12.5141C17.316 11.743 17.2072 10.9399 16.8469 10.2393C16.4866 9.53876 15.8965 8.98325 15.1755 8.66577ZM4.17682 13.8737C3.62988 13.8737 3.10533 13.6564 2.71859 13.2696C2.33184 12.8829 2.11457 12.3583 2.11457 11.8114C2.11457 11.2645 2.33184 10.7399 2.71859 10.3532C3.10533 9.96642 3.62988 9.74914 4.17682 9.74914V13.8737ZM13.8007 13.8737V9.74914C14.3476 9.74914 14.8722 9.96642 15.2589 10.3532C15.6457 10.7399 15.8629 11.2645 15.8629 11.8114C15.8629 12.3583 15.6457 12.8829 15.2589 13.2696C14.8722 13.6564 14.3476 13.8737 13.8007 13.8737Z" fill="#161618"/>
<path d="M15.1755 8.66577H-6.15782V22.582L6.5784 28.1901L15.1755 8.66577ZM15.1755 7.68689H36.5089V7.68689L15.1755 7.68689ZM8.98875 1.50012V22.8335V1.50012ZM2.80198 7.68689L-18.5314 7.68689V7.68689H2.80198ZM2.80198 8.66577L11.3991 28.1901L24.1353 22.582V8.66577H2.80198ZM4.17682 15.2485L4.11304 36.5817L4.14493 36.5818H4.17682V15.2485ZM5.55166 13.8737H26.885H5.55166ZM5.55166 9.74914H26.885H5.55166ZM4.17682 8.37431H-17.1565V29.7076H4.17682V8.37431ZM4.17682 7.68689H-17.1565H4.17682ZM8.98875 2.87496V24.2083V2.87496ZM13.8007 7.68689L35.134 7.68689L13.8007 7.68689ZM13.8007 8.37431V29.7076H35.134V8.37431H13.8007ZM12.4258 13.8737V35.207H33.7592V13.8737H12.4258ZM13.8007 15.2485V36.5818H13.8326L13.8645 36.5817L13.8007 15.2485ZM4.17682 13.8737V35.207H25.5102V13.8737H4.17682ZM2.11457 11.8114H-19.2188H2.11457ZM4.17682 9.74914H25.5102V-11.5842H4.17682V9.74914ZM13.8007 13.8737H-7.53266V35.207H13.8007V13.8737ZM13.8007 9.74914V-11.5842H-7.53266V9.74914H13.8007ZM15.8629 11.8114H37.1963H15.8629ZM15.1755 8.66577H36.5089V7.68689H15.1755H-6.15782V8.66577H15.1755ZM15.1755 7.68689L36.5089 7.68689C36.5089 0.388101 33.6094 -6.61174 28.4484 -11.7728L13.3635 3.31218L-1.72149 18.3971C-4.56202 15.5566 -6.15782 11.704 -6.15782 7.68689L15.1755 7.68689ZM13.3635 3.31218L28.4484 -11.7728C23.2874 -16.9338 16.2875 -19.8332 8.98875 -19.8332V1.50012V22.8335C4.97163 22.8335 1.11904 21.2377 -1.72149 18.3971L13.3635 3.31218ZM8.98875 1.50012V-19.8332C1.68996 -19.8332 -5.30988 -16.9338 -10.4709 -11.7728L4.61405 3.31218L19.699 18.3971C16.8585 21.2377 13.0059 22.8335 8.98875 22.8335V1.50012ZM4.61405 3.31218L-10.4709 -11.7728C-15.6319 -6.61174 -18.5314 0.388107 -18.5314 7.68689L2.80198 7.68689L24.1353 7.68689C24.1353 11.704 22.5395 15.5566 19.699 18.3971L4.61405 3.31218ZM2.80198 7.68689H-18.5314V8.66577H2.80198H24.1353V7.68689H2.80198ZM2.80198 8.66577L-5.79513 -10.8586C-10.9912 -8.57062 -15.2436 -4.56714 -17.8404 0.481634L1.13061 10.2393L20.1016 19.997C18.2254 23.6447 15.1532 26.5371 11.3991 28.1901L2.80198 8.66577ZM1.13061 10.2393L-17.8404 0.481634C-20.4372 5.53041 -21.2209 11.318 -20.0601 16.8756L0.822602 12.5141L21.7053 8.15264C22.5439 12.1679 21.9778 16.3493 20.1016 19.997L1.13061 10.2393ZM0.822602 12.5141L-20.0601 16.8756C-18.8994 22.4331 -15.8648 27.4233 -11.4642 31.0106L2.01535 14.4755L15.4949 -2.05971C18.6742 0.532085 20.8667 4.13739 21.7053 8.15264L0.822602 12.5141ZM2.01535 14.4755L-11.4642 31.0106C-7.06371 34.598 -1.56441 36.5648 4.11304 36.5817L4.17682 15.2485L4.2406 -6.08475C8.34247 -6.07248 12.3156 -4.65151 15.4949 -2.05971L2.01535 14.4755ZM4.17682 15.2485V36.5818C10.1994 36.5818 15.9753 34.1894 20.2339 29.9308L5.14898 14.8458L-9.93597 -0.239132C-6.19303 -3.98207 -1.11651 -6.08484 4.17682 -6.08484V15.2485ZM5.14898 14.8458L20.2339 29.9308C24.4925 25.6721 26.885 19.8962 26.885 13.8737H5.55166H-15.7817C-15.7817 8.58033 -13.6789 3.50381 -9.93597 -0.239132L5.14898 14.8458ZM5.55166 13.8737H26.885V9.74914H5.55166H-15.7817V13.8737H5.55166ZM5.55166 9.74914H26.885C26.885 3.72656 24.4925 -2.04935 20.2339 -6.30796L5.14898 8.77699L-9.93597 23.8619C-13.6789 20.119 -15.7817 15.0425 -15.7817 9.74914H5.55166ZM5.14898 8.77699L20.2339 -6.30796C15.9753 -10.5666 10.1994 -12.959 4.17682 -12.959V8.37431V29.7076C-1.11651 29.7076 -6.19303 27.6049 -9.93597 23.8619L5.14898 8.77699ZM4.17682 8.37431H25.5102V7.68689H4.17682H-17.1565V8.37431H4.17682ZM4.17682 7.68689L25.5102 7.68689C25.5102 12.0686 23.7695 16.2709 20.6711 19.3693L5.5862 4.28434L-9.49874 -10.8006C-14.4019 -5.89741 -17.1565 0.752738 -17.1565 7.68689L4.17682 7.68689ZM5.5862 4.28434L20.6711 19.3693C17.5728 22.4677 13.3705 24.2083 8.98875 24.2083V2.87496V-18.4584C2.0546 -18.4584 -4.59555 -15.7038 -9.49874 -10.8006L5.5862 4.28434ZM8.98875 2.87496V24.2083C4.607 24.2083 0.404715 22.4676 -2.69365 19.3693L12.3913 4.28434L27.4762 -10.8006C22.5731 -15.7038 15.9229 -18.4584 8.98875 -18.4584V2.87496ZM12.3913 4.28434L-2.69365 19.3693C-5.79201 16.2709 -7.53266 12.0686 -7.53266 7.68689L13.8007 7.68689L35.134 7.68689C35.134 0.752734 32.3794 -5.89742 27.4762 -10.8006L12.3913 4.28434ZM13.8007 7.68689H-7.53266V8.37431H13.8007H35.134V7.68689H13.8007ZM13.8007 8.37431V-12.959C7.77808 -12.959 2.00217 -10.5666 -2.25642 -6.30796L12.8285 8.77699L27.9135 23.8619C24.1705 27.6049 19.094 29.7076 13.8007 29.7076V8.37431ZM12.8285 8.77699L-2.25642 -6.30796C-6.51502 -2.04936 -8.90749 3.72655 -8.90749 9.74914H12.4258H33.7592C33.7592 15.0425 31.6564 20.119 27.9135 23.8619L12.8285 8.77699ZM12.4258 9.74914H-8.90749V13.8737H12.4258H33.7592V9.74914H12.4258ZM12.4258 13.8737V-7.45968H10.3636V13.8737V35.207H12.4258V13.8737ZM10.3636 13.8737V-7.45968C4.52336 -7.45968 -1.07772 -5.13967 -5.20744 -1.00995L9.87751 14.075L24.9625 29.1599C21.0906 33.0318 15.8392 35.207 10.3636 35.207V13.8737ZM9.87751 14.075L-5.20744 -1.00995C-9.33714 3.11975 -11.6572 8.72082 -11.6572 14.5611H9.67617H31.0095C31.0095 20.0367 28.8343 25.2881 24.9625 29.1599L9.87751 14.075ZM9.67617 14.5611H-11.6572C-11.6572 20.4013 -9.33714 26.0024 -5.20744 30.1321L9.87751 15.0472L24.9625 -0.037791C28.8343 3.83407 31.0095 9.08544 31.0095 14.5611H9.67617ZM9.87751 15.0472L-5.20744 30.1321C-1.07772 34.2618 4.52336 36.5818 10.3636 36.5818V15.2485V-6.08484C15.8392 -6.08484 21.0906 -3.90968 24.9625 -0.037791L9.87751 15.0472ZM10.3636 15.2485V36.5818H13.8007V15.2485V-6.08484H10.3636V15.2485ZM13.8007 15.2485L13.8645 36.5817C19.5419 36.5648 25.0412 34.598 29.4417 31.0106L15.9621 14.4755L2.48256 -2.05971C5.66186 -4.6515 9.63502 -6.07248 13.7369 -6.08475L13.8007 15.2485ZM15.9621 14.4755L29.4417 31.0106C33.8423 27.4233 36.8769 22.4332 38.0376 16.8756L17.1549 12.5141L-3.72784 8.15264C-2.88923 4.13738 -0.696744 0.53208 2.48256 -2.05971L15.9621 14.4755ZM17.1549 12.5141L38.0376 16.8756C39.1984 11.318 38.4147 5.53041 35.8179 0.481634L16.8469 10.2393L-2.12411 19.997C-4.00027 16.3493 -4.56645 12.1679 -3.72784 8.15264L17.1549 12.5141ZM16.8469 10.2393L35.8179 0.481634C33.2211 -4.56713 28.9687 -8.57062 23.7726 -10.8586L15.1755 8.66577L6.5784 28.1901C2.82432 26.5371 -0.247948 23.6447 -2.12411 19.997L16.8469 10.2393ZM4.17682 13.8737V-7.45968C9.28782 -7.45968 14.1895 -5.42934 17.8035 -1.81531L2.71859 13.2696L-12.3664 28.3546C-7.97883 32.7421 -2.02807 35.207 4.17682 35.207V13.8737ZM2.71859 13.2696L17.8035 -1.81531C21.4176 1.79872 23.4479 6.70039 23.4479 11.8114H2.11457H-19.2188C-19.2188 18.0163 -16.7539 23.9671 -12.3664 28.3546L2.71859 13.2696ZM2.11457 11.8114H23.4479C23.4479 16.9224 21.4176 21.8241 17.8035 25.4381L2.71859 10.3532L-12.3664 -4.73178C-16.7539 -0.344254 -19.2188 5.60651 -19.2188 11.8114H2.11457ZM2.71859 10.3532L17.8035 25.4381C14.1895 29.0521 9.28782 31.0825 4.17682 31.0825V9.74914V-11.5842C-2.02807 -11.5842 -7.97883 -9.11931 -12.3664 -4.73178L2.71859 10.3532ZM4.17682 9.74914H-17.1565V13.8737H4.17682H25.5102V9.74914H4.17682ZM13.8007 13.8737H35.134V9.74914H13.8007H-7.53266V13.8737H13.8007ZM13.8007 9.74914V31.0825C8.68968 31.0825 3.788 29.0521 0.173967 25.4381L15.2589 10.3532L30.3439 -4.73178C25.9563 -9.11931 20.0056 -11.5842 13.8007 -11.5842V9.74914ZM15.2589 10.3532L0.173967 25.4381C-3.44007 21.8241 -5.4704 16.9224 -5.4704 11.8114H15.8629H37.1963C37.1963 5.60651 34.7314 -0.344248 30.3439 -4.73178L15.2589 10.3532ZM15.8629 11.8114H-5.4704C-5.4704 6.7004 -3.44007 1.79873 0.173967 -1.81531L15.2589 13.2696L30.3439 28.3546C34.7314 23.967 37.1963 18.0163 37.1963 11.8114H15.8629ZM15.2589 13.2696L0.173967 -1.81531C3.788 -5.42934 8.68968 -7.45968 13.8007 -7.45968V13.8737V35.207C20.0056 35.207 25.9563 32.7421 30.3439 28.3546L15.2589 13.2696Z" fill="#161618" mask="url(#path-1-inside-1_562_719)"/>
</svg>
