<svg width="30" height="30" viewBox="0 0 30 30" fill="none" xmlns="http://www.w3.org/2000/svg">
<path d="M7.41135 19.3622L18.1113 24.7122C25.2993 28.3122 28.2493 25.3622 24.6493 18.1752L23.5613 16.0002C23.4071 15.6871 23.3268 15.3427 23.3268 14.9937C23.3268 14.6447 23.4071 14.3003 23.5613 13.9872L24.6493 11.8252C28.2493 4.6372 25.3123 1.6872 18.1113 5.2872L7.41135 10.6372C2.61135 13.0372 2.61135 16.9622 7.41135 19.3622ZM11.4493 14.0622H18.1993C18.325 14.0581 18.4503 14.0793 18.5676 14.1246C18.6849 14.1698 18.792 14.2382 18.8823 14.3257C18.9727 14.4132 19.0445 14.5179 19.0936 14.6337C19.1427 14.7495 19.168 14.8739 19.168 14.9997C19.168 15.1255 19.1427 15.2499 19.0936 15.3657C19.0445 15.4815 18.9727 15.5862 18.8823 15.6737C18.792 15.7612 18.6849 15.8296 18.5676 15.8748C18.4503 15.9201 18.325 15.9413 18.1993 15.9372H11.4493C11.3237 15.9413 11.1984 15.9201 11.0811 15.8748C10.9638 15.8296 10.8567 15.7612 10.7664 15.6737C10.676 15.5862 10.6042 15.4815 10.5551 15.3657C10.506 15.2499 10.4807 15.1255 10.4807 14.9997C10.4807 14.8739 10.506 14.7495 10.5551 14.6337C10.6042 14.5179 10.676 14.4132 10.7664 14.3257C10.8567 14.2382 10.9638 14.1698 11.0811 14.1246C11.1984 14.0793 11.3237 14.0581 11.4493 14.0622Z" fill="#119892"/>
</svg>
