<svg width="25" height="25" viewBox="0 0 25 25" fill="none" xmlns="http://www.w3.org/2000/svg">
<path d="M22.5 7H16.5" stroke="#161618" stroke-width="1.5" stroke-miterlimit="10" stroke-linecap="round" stroke-linejoin="round"/>
<path d="M6.5 7H2.5" stroke="#161618" stroke-width="1.5" stroke-miterlimit="10" stroke-linecap="round" stroke-linejoin="round"/>
<path d="M10.5 10.5C12.433 10.5 14 8.933 14 7C14 5.067 12.433 3.5 10.5 3.5C8.567 3.5 7 5.067 7 7C7 8.933 8.567 10.5 10.5 10.5Z" stroke="#161618" stroke-width="1.5" stroke-miterlimit="10" stroke-linecap="round" stroke-linejoin="round"/>
<path d="M22.5 18H18.5" stroke="#161618" stroke-width="1.5" stroke-miterlimit="10" stroke-linecap="round" stroke-linejoin="round"/>
<path d="M8.5 18H2.5" stroke="#161618" stroke-width="1.5" stroke-miterlimit="10" stroke-linecap="round" stroke-linejoin="round"/>
<path d="M14.5 21.5C16.433 21.5 18 19.933 18 18C18 16.067 16.433 14.5 14.5 14.5C12.567 14.5 11 16.067 11 18C11 19.933 12.567 21.5 14.5 21.5Z" stroke="#161618" stroke-width="1.5" stroke-miterlimit="10" stroke-linecap="round" stroke-linejoin="round"/>
</svg>
