<svg width="18" height="18" viewBox="0 0 18 18" fill="none" xmlns="http://www.w3.org/2000/svg">
<path d="M8.99969 16.9726C8.50779 16.9812 8.02203 16.8623 7.58969 16.6276L3.46469 14.2501C1.78469 13.1183 1.67969 12.9473 1.67969 11.1683V6.83258C1.67969 5.05508 1.77719 4.88258 3.42719 3.76508L7.58219 1.36583C8.01666 1.14039 8.49896 1.02271 8.98844 1.02271C9.47791 1.02271 9.96022 1.14039 10.3947 1.36583L14.5347 3.75083C16.2147 4.88333 16.3197 5.05583 16.3197 6.83333V11.1608C16.3197 12.9383 16.2222 13.1108 14.5722 14.2283L10.4172 16.6283C9.98182 16.8622 9.49383 16.9807 8.99969 16.9726ZM8.99969 2.15258C8.70831 2.14274 8.41922 2.20726 8.15969 2.34008L4.03469 4.72508C2.81219 5.55008 2.81219 5.55008 2.81219 6.83258V11.1601C2.81219 12.4426 2.81219 12.4426 4.06469 13.2901L8.15969 15.6526C8.42314 15.7785 8.71144 15.8438 9.00344 15.8438C9.29544 15.8438 9.58373 15.7785 9.84719 15.6526L13.9722 13.2676C15.1872 12.4426 15.1872 12.4426 15.1872 11.1601V6.83258C15.1872 5.55008 15.1872 5.55008 13.9347 4.70258L9.83969 2.34008C9.58015 2.20726 9.29107 2.14274 8.99969 2.15258Z" fill="#161618"/>
<path d="M9 11.8125C8.44374 11.8125 7.89997 11.6476 7.43746 11.3385C6.97495 11.0295 6.61446 10.5902 6.40159 10.0763C6.18872 9.56238 6.13302 8.99688 6.24154 8.45131C6.35006 7.90574 6.61793 7.4046 7.01126 7.01126C7.4046 6.61793 7.90574 6.35006 8.45131 6.24154C8.99688 6.13302 9.56238 6.18872 10.0763 6.40159C10.5902 6.61446 11.0295 6.97495 11.3385 7.43746C11.6476 7.89997 11.8125 8.44374 11.8125 9C11.8123 9.74586 11.5159 10.4611 10.9885 10.9885C10.4611 11.5159 9.74586 11.8123 9 11.8125ZM9 7.3125C8.66625 7.3125 8.33998 7.41147 8.06248 7.5969C7.78497 7.78232 7.56868 8.04587 7.44095 8.35422C7.31323 8.66257 7.27981 9.00187 7.34493 9.32922C7.41004 9.65656 7.57076 9.95724 7.80676 10.1932C8.04276 10.4292 8.34344 10.59 8.67079 10.6551C8.99813 10.7202 9.33743 10.6868 9.64578 10.559C9.95413 10.4313 10.2177 10.215 10.4031 9.93753C10.5885 9.66002 10.6875 9.33376 10.6875 9C10.6869 8.55263 10.5089 8.12375 10.1926 7.80742C9.87625 7.49108 9.44737 7.3131 9 7.3125Z" fill="#161618"/>
</svg>
