<svg width="14" height="14" viewBox="0 0 14 14" fill="none" xmlns="http://www.w3.org/2000/svg">
<path d="M7.75039 0.487179L9.45906 4.1078L13.282 4.6905C13.4368 4.7138 13.5823 4.78193 13.7019 4.88718C13.8215 4.99243 13.9106 5.13058 13.9589 5.28599C14.0073 5.44141 14.0131 5.60786 13.9756 5.76652C13.938 5.92517 13.8588 6.06967 13.7467 6.18366L10.9799 8.99903L11.6343 12.9778C11.6608 13.1386 11.6437 13.3039 11.5849 13.4551C11.5261 13.6062 11.428 13.7372 11.3016 13.8331C11.1753 13.929 11.0258 13.986 10.8701 13.9977C10.7143 14.0095 10.5585 13.9754 10.4204 13.8994L6.99916 12.0208L3.58183 13.8994C3.44362 13.975 3.28795 14.0087 3.13237 13.9968C2.97679 13.9849 2.82748 13.9279 2.70127 13.8321C2.57506 13.7363 2.47697 13.6055 2.41806 13.4546C2.35915 13.3036 2.34176 13.1385 2.36785 12.9778L3.02227 8.99903L0.253555 6.18366C0.141528 6.06981 0.0622236 5.92546 0.0246132 5.76696C-0.0129972 5.60846 -0.0074124 5.44212 0.0407348 5.28676C0.0888819 5.1314 0.177671 4.99322 0.297058 4.88784C0.416446 4.78247 0.561668 4.71411 0.7163 4.6905L4.53926 4.1078L6.24793 0.487179C6.31727 0.340897 6.42435 0.217773 6.55709 0.131693C6.68983 0.0456124 6.84294 0 6.99916 0C7.15538 0 7.30849 0.0456124 7.44123 0.131693C7.57396 0.217773 7.68104 0.340897 7.75039 0.487179Z" fill="#FCA120"/>
</svg>
